<?xml version="1.0" encoding="UTF-8" standalone="no"?>
<!DOCTYPE svg PUBLIC "-//W3C//DTD SVG 1.1//EN"
 "http://www.w3.org/Graphics/SVG/1.1/DTD/svg11.dtd">
<!-- Generated by graphviz version 9.0.0 (20230911.1827)
 -->
<!-- Title: modbusBitsToBytes Pages: 1 -->
<svg width="309pt" height="175pt"
 viewBox="0.00 0.00 309.25 175.25" xmlns="http://www.w3.org/2000/svg" xmlns:xlink="http://www.w3.org/1999/xlink">
<g id="graph0" class="graph" transform="scale(1 1) rotate(0) translate(4 171.25)">
<title>modbusBitsToBytes</title>
<!-- Node1 -->
<g id="Node000001" class="node">
<title>Node1</title>
<g id="a_Node000001"><a xlink:title="Returns number of bytes necessary to hold given number of bits.">
<polygon fill="#999999" stroke="#666666" points="301.25,-93.25 197.5,-93.25 197.5,-74 301.25,-74 301.25,-93.25"/>
<text text-anchor="middle" x="249.38" y="-79.75" font-family="Helvetica,sans-Serif" font-size="10.00">modbusBitsToBytes</text>
</a>
</g>
</g>
<!-- Node2 -->
<g id="Node000002" class="node">
<title>Node2</title>
<g id="a_Node000002"><a xlink:href="master__func_8impl_8h.html#ae9842e659ccd8942905e685923de8916" target="_top" xlink:title="Write multiple coils.">
<polygon fill="white" stroke="#666666" points="140.12,-167.25 21.38,-167.25 21.38,-148 140.12,-148 140.12,-167.25"/>
<text text-anchor="middle" x="80.75" y="-153.75" font-family="Helvetica,sans-Serif" font-size="10.00">modbusBuildRequest15</text>
</a>
</g>
</g>
<!-- Node1&#45;&gt;Node2 -->
<g id="edge1_Node000001_Node000002" class="edge">
<title>Node1&#45;&gt;Node2</title>
<g id="a_edge1_Node000001_Node000002"><a xlink:title=" ">
<path fill="none" stroke="#63b8ff" d="M226.94,-100.5C210.05,-113.02 185.43,-129.58 161.5,-139.62 154.04,-142.76 145.95,-145.38 137.88,-147.58"/>
<polygon fill="#63b8ff" stroke="#63b8ff" points="228.87,-103.43 234.72,-94.59 224.64,-97.85 228.87,-103.43"/>
</a>
</g>
</g>
<!-- Node3 -->
<g id="Node000003" class="node">
<title>Node3</title>
<g id="a_Node000003"><a xlink:href="slave__func_8impl_8h.html#aaff57f2a5c6a8e6c77d36c5dc7e48cfa" target="_top" xlink:title="Handles requests 01, 02, 03 and 04 (Read Multiple XX) and generates response.">
<polygon fill="white" stroke="#666666" points="157.75,-130.25 3.75,-130.25 3.75,-111 157.75,-111 157.75,-130.25"/>
<text text-anchor="middle" x="80.75" y="-116.75" font-family="Helvetica,sans-Serif" font-size="10.00">modbusParseRequest01020304</text>
</a>
</g>
</g>
<!-- Node1&#45;&gt;Node3 -->
<g id="edge2_Node000001_Node000003" class="edge">
<title>Node1&#45;&gt;Node3</title>
<g id="a_edge2_Node000001_Node000003"><a xlink:title=" ">
<path fill="none" stroke="#63b8ff" d="M191.78,-96.19C170.74,-100.87 147.15,-106.1 127.23,-110.53"/>
<polygon fill="#63b8ff" stroke="#63b8ff" points="192.36,-99.65 201.37,-94.06 190.85,-92.81 192.36,-99.65"/>
</a>
</g>
</g>
<!-- Node4 -->
<g id="Node000004" class="node">
<title>Node4</title>
<g id="a_Node000004"><a xlink:href="slave__func_8impl_8h.html#a0cb2a7bf59d4014088e1ce1c61523071" target="_top" xlink:title="Handles requests 15 and 16 (Write Multiple XX) and generates response.">
<polygon fill="white" stroke="#666666" points="147.25,-93.25 14.25,-93.25 14.25,-74 147.25,-74 147.25,-93.25"/>
<text text-anchor="middle" x="80.75" y="-79.75" font-family="Helvetica,sans-Serif" font-size="10.00">modbusParseRequest1516</text>
</a>
</g>
</g>
<!-- Node1&#45;&gt;Node4 -->
<g id="edge3_Node000001_Node000004" class="edge">
<title>Node1&#45;&gt;Node4</title>
<g id="a_edge3_Node000001_Node000004"><a xlink:title=" ">
<path fill="none" stroke="#63b8ff" d="M185.81,-83.62C173.36,-83.62 160.25,-83.62 147.69,-83.62"/>
<polygon fill="#63b8ff" stroke="#63b8ff" points="185.51,-87.13 195.51,-83.63 185.51,-80.13 185.51,-87.13"/>
</a>
</g>
</g>
<!-- Node5 -->
<g id="Node000005" class="node">
<title>Node5</title>
<g id="a_Node000005"><a xlink:href="master__func_8impl_8h.html#adafbaa72d4df36b3577ce5494b460a2b" target="_top" xlink:title="Parses response to requests 01, 02, 03 and 04.">
<polygon fill="white" stroke="#666666" points="161.5,-56.25 0,-56.25 0,-37 161.5,-37 161.5,-56.25"/>
<text text-anchor="middle" x="80.75" y="-42.75" font-family="Helvetica,sans-Serif" font-size="10.00">modbusParseResponse01020304</text>
</a>
</g>
</g>
<!-- Node1&#45;&gt;Node5 -->
<g id="edge4_Node000001_Node000005" class="edge">
<title>Node1&#45;&gt;Node5</title>
<g id="a_edge4_Node000001_Node000005"><a xlink:title=" ">
<path fill="none" stroke="#63b8ff" d="M191.78,-71.06C170.74,-66.38 147.15,-61.15 127.23,-56.72"/>
<polygon fill="#63b8ff" stroke="#63b8ff" points="190.85,-74.44 201.37,-73.19 192.36,-67.6 190.85,-74.44"/>
</a>
</g>
</g>
<!-- Node6 -->
<g id="Node000006" class="node">
<title>Node6</title>
<g id="a_Node000006"><a xlink:href="master__func_8impl_8h.html#a0c53ade25c249f6aeed8c877b98f8016" target="_top" xlink:title="Parses response to requests 15 and 16 (write mutliple regsiters/coils)">
<polygon fill="white" stroke="#666666" points="151,-19.25 10.5,-19.25 10.5,0 151,0 151,-19.25"/>
<text text-anchor="middle" x="80.75" y="-5.75" font-family="Helvetica,sans-Serif" font-size="10.00">modbusParseResponse1516</text>
</a>
</g>
</g>
<!-- Node1&#45;&gt;Node6 -->
<g id="edge5_Node000001_Node000006" class="edge">
<title>Node1&#45;&gt;Node6</title>
<g id="a_edge5_Node000001_Node000006"><a xlink:title=" ">
<path fill="none" stroke="#63b8ff" d="M226.94,-66.75C210.05,-54.23 185.43,-37.67 161.5,-27.62 154.04,-24.49 145.95,-21.87 137.88,-19.67"/>
<polygon fill="#63b8ff" stroke="#63b8ff" points="224.64,-69.4 234.72,-72.66 228.87,-63.82 224.64,-69.4"/>
</a>
</g>
</g>
</g>
</svg>
