<?xml version="1.0" encoding="UTF-8" standalone="no"?>
<!DOCTYPE svg PUBLIC "-//W3C//DTD SVG 1.1//EN"
 "http://www.w3.org/Graphics/SVG/1.1/DTD/svg11.dtd">
<!-- Generated by graphviz version 9.0.0 (20230911.1827)
 -->
<!-- Title: modbusWLE Pages: 1 -->
<svg width="560pt" height="101pt"
 viewBox="0.00 0.00 560.25 101.25" xmlns="http://www.w3.org/2000/svg" xmlns:xlink="http://www.w3.org/1999/xlink">
<g id="graph0" class="graph" transform="scale(1 1) rotate(0) translate(4 97.25)">
<title>modbusWLE</title>
<!-- Node1 -->
<g id="Node000001" class="node">
<title>Node1</title>
<g id="a_Node000001"><a xlink:title="Safely writes a little&#45;endian 16&#45;bit word to provided pointer.">
<polygon fill="#999999" stroke="#666666" points="552.25,-56.25 480.75,-56.25 480.75,-37 552.25,-37 552.25,-56.25"/>
<text text-anchor="middle" x="516.5" y="-42.75" font-family="Helvetica,sans-Serif" font-size="10.00">modbusWLE</text>
</a>
</g>
</g>
<!-- Node2 -->
<g id="Node000002" class="node">
<title>Node2</title>
<g id="a_Node000002"><a xlink:href="base_8h.html#af2cafe9debf86bea7042b4c40bb288cd" target="_top" xlink:title="Sets up address and CRC in a Modbus RTU frame.">
<polygon fill="white" stroke="#666666" points="444.75,-56.25 351.5,-56.25 351.5,-37 444.75,-37 444.75,-56.25"/>
<text text-anchor="middle" x="398.12" y="-42.75" font-family="Helvetica,sans-Serif" font-size="10.00">modbusPackRTU</text>
</a>
</g>
</g>
<!-- Node1&#45;&gt;Node2 -->
<g id="edge1_Node000001_Node000002" class="edge">
<title>Node1&#45;&gt;Node2</title>
<g id="a_edge1_Node000001_Node000002"><a xlink:title=" ">
<path fill="none" stroke="#63b8ff" d="M468.98,-46.62C461.08,-46.62 452.88,-46.62 445,-46.62"/>
<polygon fill="#63b8ff" stroke="#63b8ff" points="468.75,-50.13 478.75,-46.63 468.75,-43.13 468.75,-50.13"/>
</a>
</g>
</g>
<!-- Node3 -->
<g id="Node000003" class="node">
<title>Node3</title>
<g id="a_Node000003"><a xlink:href="slave_8impl_8h.html#a1da09df8858b91c61fe02c25783c2946" target="_top" xlink:title="Builds a Modbus RTU exception.">
<polygon fill="white" stroke="#666666" points="315.5,-93.25 181,-93.25 181,-74 315.5,-74 315.5,-93.25"/>
<text text-anchor="middle" x="248.25" y="-79.75" font-family="Helvetica,sans-Serif" font-size="10.00">modbusBuildExceptionRTU</text>
</a>
</g>
</g>
<!-- Node2&#45;&gt;Node3 -->
<g id="edge2_Node000002_Node000003" class="edge">
<title>Node2&#45;&gt;Node3</title>
<g id="a_edge2_Node000002_Node000003"><a xlink:title=" ">
<path fill="none" stroke="#63b8ff" d="M345.6,-59.52C327.26,-64.11 306.88,-69.2 289.61,-73.53"/>
<polygon fill="#63b8ff" stroke="#63b8ff" points="346.4,-62.93 355.25,-57.1 344.7,-56.13 346.4,-62.93"/>
</a>
</g>
</g>
<!-- Node5 -->
<g id="Node000005" class="node">
<title>Node5</title>
<g id="a_Node000005"><a xlink:href="master_8impl_8h.html#a4623d6d41d5e4a148e399fe19051183c" target="_top" xlink:title="Finalizes a Modbus RTU request.">
<polygon fill="white" stroke="#666666" points="309.88,-56.25 186.62,-56.25 186.62,-37 309.88,-37 309.88,-56.25"/>
<text text-anchor="middle" x="248.25" y="-42.75" font-family="Helvetica,sans-Serif" font-size="10.00">modbusEndRequestRTU</text>
</a>
</g>
</g>
<!-- Node2&#45;&gt;Node5 -->
<g id="edge4_Node000002_Node000005" class="edge">
<title>Node2&#45;&gt;Node5</title>
<g id="a_edge4_Node000002_Node000005"><a xlink:title=" ">
<path fill="none" stroke="#63b8ff" d="M339.93,-46.62C330.17,-46.62 320,-46.62 310.16,-46.62"/>
<polygon fill="#63b8ff" stroke="#63b8ff" points="339.63,-50.13 349.63,-46.63 339.63,-43.13 339.63,-50.13"/>
</a>
</g>
</g>
<!-- Node6 -->
<g id="Node000006" class="node">
<title>Node6</title>
<g id="a_Node000006"><a xlink:href="slave_8impl_8h.html#a6a1e63faa64b7ca4b91d1ce7988be850" target="_top" xlink:title="Parses provided Modbus RTU request frame and generates a Modbus RTU response.">
<polygon fill="white" stroke="#666666" points="314.38,-19.25 182.12,-19.25 182.12,0 314.38,0 314.38,-19.25"/>
<text text-anchor="middle" x="248.25" y="-5.75" font-family="Helvetica,sans-Serif" font-size="10.00">modbusParseRequestRTU</text>
</a>
</g>
</g>
<!-- Node2&#45;&gt;Node6 -->
<g id="edge5_Node000002_Node000006" class="edge">
<title>Node2&#45;&gt;Node6</title>
<g id="a_edge5_Node000002_Node000006"><a xlink:title=" ">
<path fill="none" stroke="#63b8ff" d="M345.6,-33.73C327.26,-29.14 306.88,-24.05 289.61,-19.72"/>
<polygon fill="#63b8ff" stroke="#63b8ff" points="344.7,-37.12 355.25,-36.15 346.4,-30.32 344.7,-37.12"/>
</a>
</g>
</g>
<!-- Node4 -->
<g id="Node000004" class="node">
<title>Node4</title>
<g id="a_Node000004"><a xlink:href="classllm_1_1Slave.html#a10e79600053c725e639225264d966e63" target="_top" xlink:title=" ">
<polygon fill="white" stroke="#666666" points="145,-93.25 0,-93.25 0,-74 145,-74 145,-93.25"/>
<text text-anchor="middle" x="72.5" y="-79.75" font-family="Helvetica,sans-Serif" font-size="10.00">llm::Slave::buildExceptionRTU</text>
</a>
</g>
</g>
<!-- Node3&#45;&gt;Node4 -->
<g id="edge3_Node000003_Node000004" class="edge">
<title>Node3&#45;&gt;Node4</title>
<g id="a_edge3_Node000003_Node000004"><a xlink:title=" ">
<path fill="none" stroke="#63b8ff" d="M169.14,-83.62C161.26,-83.62 153.29,-83.62 145.49,-83.62"/>
<polygon fill="#63b8ff" stroke="#63b8ff" points="169.06,-87.13 179.06,-83.63 169.06,-80.13 169.06,-87.13"/>
</a>
</g>
</g>
<!-- Node7 -->
<g id="Node000007" class="node">
<title>Node7</title>
<g id="a_Node000007"><a xlink:href="classllm_1_1Slave.html#a001591b9a38b69cf29adc853872a09fe" target="_top" xlink:title=" ">
<polygon fill="white" stroke="#666666" points="143.88,-19.25 1.12,-19.25 1.12,0 143.88,0 143.88,-19.25"/>
<text text-anchor="middle" x="72.5" y="-5.75" font-family="Helvetica,sans-Serif" font-size="10.00">llm::Slave::parseRequestRTU</text>
</a>
</g>
</g>
<!-- Node6&#45;&gt;Node7 -->
<g id="edge6_Node000006_Node000007" class="edge">
<title>Node6&#45;&gt;Node7</title>
<g id="a_edge6_Node000006_Node000007"><a xlink:title=" ">
<path fill="none" stroke="#63b8ff" d="M170.65,-9.62C161.88,-9.62 152.98,-9.62 144.3,-9.62"/>
<polygon fill="#63b8ff" stroke="#63b8ff" points="170.54,-13.13 180.54,-9.63 170.54,-6.13 170.54,-13.13"/>
</a>
</g>
</g>
</g>
</svg>
