<?xml version="1.0" encoding="UTF-8" standalone="no"?>
<!DOCTYPE svg PUBLIC "-//W3C//DTD SVG 1.1//EN"
 "http://www.w3.org/Graphics/SVG/1.1/DTD/svg11.dtd">
<!-- Generated by graphviz version 9.0.0 (20230911.1827)
 -->
<!-- Title: modbusPackTCP Pages: 1 -->
<svg width="451pt" height="101pt"
 viewBox="0.00 0.00 450.50 101.25" xmlns="http://www.w3.org/2000/svg" xmlns:xlink="http://www.w3.org/1999/xlink">
<g id="graph0" class="graph" transform="scale(1 1) rotate(0) translate(4 97.25)">
<title>modbusPackTCP</title>
<!-- Node1 -->
<g id="Node000001" class="node">
<title>Node1</title>
<g id="a_Node000001"><a xlink:title="Sets up the MBAP header in a Modbus TCP frame.">
<polygon fill="#999999" stroke="#666666" points="442.5,-56.25 350,-56.25 350,-37 442.5,-37 442.5,-56.25"/>
<text text-anchor="middle" x="396.25" y="-42.75" font-family="Helvetica,sans-Serif" font-size="10.00">modbusPackTCP</text>
</a>
</g>
</g>
<!-- Node2 -->
<g id="Node000002" class="node">
<title>Node2</title>
<g id="a_Node000002"><a xlink:href="slave_8impl_8h.html#a778e65356f7da66831f18ec53b975383" target="_top" xlink:title="Builds a Modbus TCP exception.">
<polygon fill="white" stroke="#666666" points="314,-93.25 180.25,-93.25 180.25,-74 314,-74 314,-93.25"/>
<text text-anchor="middle" x="247.12" y="-79.75" font-family="Helvetica,sans-Serif" font-size="10.00">modbusBuildExceptionTCP</text>
</a>
</g>
</g>
<!-- Node1&#45;&gt;Node2 -->
<g id="edge1_Node000001_Node000002" class="edge">
<title>Node1&#45;&gt;Node2</title>
<g id="a_edge1_Node000001_Node000002"><a xlink:title=" ">
<path fill="none" stroke="#63b8ff" d="M343.99,-59.52C325.74,-64.11 305.46,-69.2 288.28,-73.53"/>
<polygon fill="#63b8ff" stroke="#63b8ff" points="344.74,-62.94 353.58,-57.1 343.03,-56.15 344.74,-62.94"/>
</a>
</g>
</g>
<!-- Node4 -->
<g id="Node000004" class="node">
<title>Node4</title>
<g id="a_Node000004"><a xlink:href="master_8impl_8h.html#a7feaa87c1b0f6c9fbd565494b2b96c8d" target="_top" xlink:title="Finalizes a Modbus TCP request.">
<polygon fill="white" stroke="#666666" points="308.38,-56.25 185.88,-56.25 185.88,-37 308.38,-37 308.38,-56.25"/>
<text text-anchor="middle" x="247.12" y="-42.75" font-family="Helvetica,sans-Serif" font-size="10.00">modbusEndRequestTCP</text>
</a>
</g>
</g>
<!-- Node1&#45;&gt;Node4 -->
<g id="edge3_Node000001_Node000004" class="edge">
<title>Node1&#45;&gt;Node4</title>
<g id="a_edge3_Node000001_Node000004"><a xlink:title=" ">
<path fill="none" stroke="#63b8ff" d="M338.02,-46.62C328.41,-46.62 318.41,-46.62 308.72,-46.62"/>
<polygon fill="#63b8ff" stroke="#63b8ff" points="337.99,-50.13 347.99,-46.63 337.99,-43.13 337.99,-50.13"/>
</a>
</g>
</g>
<!-- Node5 -->
<g id="Node000005" class="node">
<title>Node5</title>
<g id="a_Node000005"><a xlink:href="slave_8impl_8h.html#a5ad3fe86aa14f8982d7c459c68cd8b3e" target="_top" xlink:title="Parses provided Modbus TCP request frame and generates a Modbus TCP response.">
<polygon fill="white" stroke="#666666" points="312.88,-19.25 181.38,-19.25 181.38,0 312.88,0 312.88,-19.25"/>
<text text-anchor="middle" x="247.12" y="-5.75" font-family="Helvetica,sans-Serif" font-size="10.00">modbusParseRequestTCP</text>
</a>
</g>
</g>
<!-- Node1&#45;&gt;Node5 -->
<g id="edge4_Node000001_Node000005" class="edge">
<title>Node1&#45;&gt;Node5</title>
<g id="a_edge4_Node000001_Node000005"><a xlink:title=" ">
<path fill="none" stroke="#63b8ff" d="M343.99,-33.73C325.74,-29.14 305.46,-24.05 288.28,-19.72"/>
<polygon fill="#63b8ff" stroke="#63b8ff" points="343.03,-37.1 353.58,-36.15 344.74,-30.31 343.03,-37.1"/>
</a>
</g>
</g>
<!-- Node3 -->
<g id="Node000003" class="node">
<title>Node3</title>
<g id="a_Node000003"><a xlink:href="classllm_1_1Slave.html#a844c37870a4e98bffc091ddfafb8f959" target="_top" xlink:title=" ">
<polygon fill="white" stroke="#666666" points="144.25,-93.25 0,-93.25 0,-74 144.25,-74 144.25,-93.25"/>
<text text-anchor="middle" x="72.12" y="-79.75" font-family="Helvetica,sans-Serif" font-size="10.00">llm::Slave::buildExceptionTCP</text>
</a>
</g>
</g>
<!-- Node2&#45;&gt;Node3 -->
<g id="edge2_Node000002_Node000003" class="edge">
<title>Node2&#45;&gt;Node3</title>
<g id="a_edge2_Node000002_Node000003"><a xlink:title=" ">
<path fill="none" stroke="#63b8ff" d="M168.9,-83.62C160.82,-83.62 152.62,-83.62 144.6,-83.62"/>
<polygon fill="#63b8ff" stroke="#63b8ff" points="168.71,-87.13 178.71,-83.63 168.71,-80.13 168.71,-87.13"/>
</a>
</g>
</g>
<!-- Node6 -->
<g id="Node000006" class="node">
<title>Node6</title>
<g id="a_Node000006"><a xlink:href="classllm_1_1Slave.html#a05169339916c3727c780c75157b399b9" target="_top" xlink:title=" ">
<polygon fill="white" stroke="#666666" points="143.12,-19.25 1.12,-19.25 1.12,0 143.12,0 143.12,-19.25"/>
<text text-anchor="middle" x="72.12" y="-5.75" font-family="Helvetica,sans-Serif" font-size="10.00">llm::Slave::parseRequestTCP</text>
</a>
</g>
</g>
<!-- Node5&#45;&gt;Node6 -->
<g id="edge5_Node000005_Node000006" class="edge">
<title>Node5&#45;&gt;Node6</title>
<g id="a_edge5_Node000005_Node000006"><a xlink:title=" ">
<path fill="none" stroke="#63b8ff" d="M169.85,-9.62C161.13,-9.62 152.26,-9.62 143.62,-9.62"/>
<polygon fill="#63b8ff" stroke="#63b8ff" points="169.7,-13.13 179.7,-9.63 169.7,-6.13 169.7,-13.13"/>
</a>
</g>
</g>
</g>
</svg>
