<?xml version="1.0" encoding="UTF-8" standalone="no"?>
<!DOCTYPE svg PUBLIC "-//W3C//DTD SVG 1.1//EN"
 "http://www.w3.org/Graphics/SVG/1.1/DTD/svg11.dtd">
<!-- Generated by graphviz version 9.0.0 (20230911.1827)
 -->
<!-- Title: modbusMaskRead Pages: 1 -->
<svg width="303pt" height="101pt"
 viewBox="0.00 0.00 302.50 101.25" xmlns="http://www.w3.org/2000/svg" xmlns:xlink="http://www.w3.org/1999/xlink">
<g id="graph0" class="graph" transform="scale(1 1) rotate(0) translate(4 97.25)">
<title>modbusMaskRead</title>
<!-- Node1 -->
<g id="Node000001" class="node">
<title>Node1</title>
<g id="a_Node000001"><a xlink:title="Reads n&#45;th bit from an array.">
<polygon fill="#999999" stroke="#666666" points="294.5,-56.25 197.5,-56.25 197.5,-37 294.5,-37 294.5,-56.25"/>
<text text-anchor="middle" x="246" y="-42.75" font-family="Helvetica,sans-Serif" font-size="10.00">modbusMaskRead</text>
</a>
</g>
</g>
<!-- Node2 -->
<g id="Node000002" class="node">
<title>Node2</title>
<g id="a_Node000002"><a xlink:href="master__func_8impl_8h.html#ae9842e659ccd8942905e685923de8916" target="_top" xlink:title="Write multiple coils.">
<polygon fill="white" stroke="#666666" points="140.12,-93.25 21.38,-93.25 21.38,-74 140.12,-74 140.12,-93.25"/>
<text text-anchor="middle" x="80.75" y="-79.75" font-family="Helvetica,sans-Serif" font-size="10.00">modbusBuildRequest15</text>
</a>
</g>
</g>
<!-- Node1&#45;&gt;Node2 -->
<g id="edge1_Node000001_Node000002" class="edge">
<title>Node1&#45;&gt;Node2</title>
<g id="a_edge1_Node000001_Node000002"><a xlink:title=" ">
<path fill="none" stroke="#63b8ff" d="M189.87,-59.18C180.41,-61.34 170.67,-63.55 161.5,-65.62 150.15,-68.2 137.89,-70.97 126.46,-73.55"/>
<polygon fill="#63b8ff" stroke="#63b8ff" points="190.35,-62.66 199.33,-57.03 188.8,-55.84 190.35,-62.66"/>
</a>
</g>
</g>
<!-- Node3 -->
<g id="Node000003" class="node">
<title>Node3</title>
<g id="a_Node000003"><a xlink:href="slave__func_8impl_8h.html#a0cb2a7bf59d4014088e1ce1c61523071" target="_top" xlink:title="Handles requests 15 and 16 (Write Multiple XX) and generates response.">
<polygon fill="white" stroke="#666666" points="147.25,-56.25 14.25,-56.25 14.25,-37 147.25,-37 147.25,-56.25"/>
<text text-anchor="middle" x="80.75" y="-42.75" font-family="Helvetica,sans-Serif" font-size="10.00">modbusParseRequest1516</text>
</a>
</g>
</g>
<!-- Node1&#45;&gt;Node3 -->
<g id="edge2_Node000001_Node000003" class="edge">
<title>Node1&#45;&gt;Node3</title>
<g id="a_edge2_Node000001_Node000003"><a xlink:title=" ">
<path fill="none" stroke="#63b8ff" d="M186.13,-46.62C173.65,-46.62 160.39,-46.62 147.67,-46.62"/>
<polygon fill="#63b8ff" stroke="#63b8ff" points="185.83,-50.13 195.83,-46.63 185.83,-43.13 185.83,-50.13"/>
</a>
</g>
</g>
<!-- Node4 -->
<g id="Node000004" class="node">
<title>Node4</title>
<g id="a_Node000004"><a xlink:href="master__func_8impl_8h.html#adafbaa72d4df36b3577ce5494b460a2b" target="_top" xlink:title="Parses response to requests 01, 02, 03 and 04.">
<polygon fill="white" stroke="#666666" points="161.5,-19.25 0,-19.25 0,0 161.5,0 161.5,-19.25"/>
<text text-anchor="middle" x="80.75" y="-5.75" font-family="Helvetica,sans-Serif" font-size="10.00">modbusParseResponse01020304</text>
</a>
</g>
</g>
<!-- Node1&#45;&gt;Node4 -->
<g id="edge3_Node000001_Node000004" class="edge">
<title>Node1&#45;&gt;Node4</title>
<g id="a_edge3_Node000001_Node000004"><a xlink:title=" ">
<path fill="none" stroke="#63b8ff" d="M189.87,-34.07C180.41,-31.91 170.67,-29.7 161.5,-27.62 150.15,-25.05 137.89,-22.28 126.46,-19.7"/>
<polygon fill="#63b8ff" stroke="#63b8ff" points="188.8,-37.41 199.33,-36.22 190.35,-30.59 188.8,-37.41"/>
</a>
</g>
</g>
</g>
</svg>
