<?xml version="1.0" encoding="UTF-8" standalone="no"?>
<!DOCTYPE svg PUBLIC "-//W3C//DTD SVG 1.1//EN"
 "http://www.w3.org/Graphics/SVG/1.1/DTD/svg11.dtd">
<!-- Generated by graphviz version 9.0.0 (20230911.1827)
 -->
<!-- Title: modbusUnpackTCP Pages: 1 -->
<svg width="478pt" height="64pt"
 viewBox="0.00 0.00 477.50 64.25" xmlns="http://www.w3.org/2000/svg" xmlns:xlink="http://www.w3.org/1999/xlink">
<g id="graph0" class="graph" transform="scale(1 1) rotate(0) translate(4 60.25)">
<title>modbusUnpackTCP</title>
<!-- Node1 -->
<g id="Node000001" class="node">
<title>Node1</title>
<g id="a_Node000001"><a xlink:title="Unpacks data from a Modbus TCP frame.">
<polygon fill="#999999" stroke="#666666" points="469.5,-37.25 365.75,-37.25 365.75,-18 469.5,-18 469.5,-37.25"/>
<text text-anchor="middle" x="417.62" y="-23.75" font-family="Helvetica,sans-Serif" font-size="10.00">modbusUnpackTCP</text>
</a>
</g>
</g>
<!-- Node2 -->
<g id="Node000002" class="node">
<title>Node2</title>
<g id="a_Node000002"><a xlink:href="slave_8impl_8h.html#a5ad3fe86aa14f8982d7c459c68cd8b3e" target="_top" xlink:title="Parses provided Modbus TCP request frame and generates a Modbus TCP response.">
<polygon fill="white" stroke="#666666" points="326,-56.25 194.5,-56.25 194.5,-37 326,-37 326,-56.25"/>
<text text-anchor="middle" x="260.25" y="-42.75" font-family="Helvetica,sans-Serif" font-size="10.00">modbusParseRequestTCP</text>
</a>
</g>
</g>
<!-- Node1&#45;&gt;Node2 -->
<g id="edge1_Node000001_Node000002" class="edge">
<title>Node1&#45;&gt;Node2</title>
<g id="a_edge1_Node000001_Node000002"><a xlink:title=" ">
<path fill="none" stroke="#63b8ff" d="M353.99,-35.28C344.89,-36.4 335.5,-37.55 326.36,-38.66"/>
<polygon fill="#63b8ff" stroke="#63b8ff" points="354.32,-38.77 363.82,-34.08 353.47,-31.82 354.32,-38.77"/>
</a>
</g>
</g>
<!-- Node4 -->
<g id="Node000004" class="node">
<title>Node4</title>
<g id="a_Node000004"><a xlink:href="master_8impl_8h.html#a53ea67c733b1e627e1cdcb0003270a1b" target="_top" xlink:title="Parses a Modbus TCP slave response.">
<polygon fill="white" stroke="#666666" points="329.75,-19.25 190.75,-19.25 190.75,0 329.75,0 329.75,-19.25"/>
<text text-anchor="middle" x="260.25" y="-5.75" font-family="Helvetica,sans-Serif" font-size="10.00">modbusParseResponseTCP</text>
</a>
</g>
</g>
<!-- Node1&#45;&gt;Node4 -->
<g id="edge3_Node000001_Node000004" class="edge">
<title>Node1&#45;&gt;Node4</title>
<g id="a_edge3_Node000001_Node000004"><a xlink:title=" ">
<path fill="none" stroke="#63b8ff" d="M354.04,-20.37C346.21,-19.47 338.16,-18.54 330.24,-17.62"/>
<polygon fill="#63b8ff" stroke="#63b8ff" points="353.48,-23.83 363.82,-21.51 354.28,-16.88 353.48,-23.83"/>
</a>
</g>
</g>
<!-- Node3 -->
<g id="Node000003" class="node">
<title>Node3</title>
<g id="a_Node000003"><a xlink:href="classllm_1_1Slave.html#a05169339916c3727c780c75157b399b9" target="_top" xlink:title=" ">
<polygon fill="white" stroke="#666666" points="148.38,-56.25 6.38,-56.25 6.38,-37 148.38,-37 148.38,-56.25"/>
<text text-anchor="middle" x="77.38" y="-42.75" font-family="Helvetica,sans-Serif" font-size="10.00">llm::Slave::parseRequestTCP</text>
</a>
</g>
</g>
<!-- Node2&#45;&gt;Node3 -->
<g id="edge2_Node000002_Node000003" class="edge">
<title>Node2&#45;&gt;Node3</title>
<g id="a_edge2_Node000002_Node000003"><a xlink:title=" ">
<path fill="none" stroke="#63b8ff" d="M182.96,-46.62C171.58,-46.62 159.9,-46.62 148.65,-46.62"/>
<polygon fill="#63b8ff" stroke="#63b8ff" points="182.69,-50.13 192.69,-46.63 182.69,-43.13 182.69,-50.13"/>
</a>
</g>
</g>
<!-- Node5 -->
<g id="Node000005" class="node">
<title>Node5</title>
<g id="a_Node000005"><a xlink:href="classllm_1_1Master.html#ad1f614f5d44a61a8507ae34968fa7903" target="_top" xlink:title=" ">
<polygon fill="white" stroke="#666666" points="154.75,-19.25 0,-19.25 0,0 154.75,0 154.75,-19.25"/>
<text text-anchor="middle" x="77.38" y="-5.75" font-family="Helvetica,sans-Serif" font-size="10.00">llm::Master::parseResponseTCP</text>
</a>
</g>
</g>
<!-- Node4&#45;&gt;Node5 -->
<g id="edge4_Node000004_Node000005" class="edge">
<title>Node4&#45;&gt;Node5</title>
<g id="a_edge4_Node000004_Node000005"><a xlink:title=" ">
<path fill="none" stroke="#63b8ff" d="M178.92,-9.62C171.05,-9.62 163.07,-9.62 155.23,-9.62"/>
<polygon fill="#63b8ff" stroke="#63b8ff" points="178.84,-13.13 188.84,-9.63 178.84,-6.13 178.84,-13.13"/>
</a>
</g>
</g>
</g>
</svg>
