<?xml version="1.0" encoding="UTF-8" standalone="no"?>
<!DOCTYPE svg PUBLIC "-//W3C//DTD SVG 1.1//EN"
 "http://www.w3.org/Graphics/SVG/1.1/DTD/svg11.dtd">
<!-- Generated by graphviz version 9.0.0 (20230911.1827)
 -->
<!-- Title: modbusWBE Pages: 1 -->
<svg width="620pt" height="471pt"
 viewBox="0.00 0.00 620.25 471.25" xmlns="http://www.w3.org/2000/svg" xmlns:xlink="http://www.w3.org/1999/xlink">
<g id="graph0" class="graph" transform="scale(1 1) rotate(0) translate(4 467.25)">
<title>modbusWBE</title>
<!-- Node1 -->
<g id="Node000001" class="node">
<title>Node1</title>
<g id="a_Node000001"><a xlink:title="Safely writes a big&#45;endian 16&#45;bit word to provided pointer.">
<polygon fill="#999999" stroke="#666666" points="612.25,-185.25 540,-185.25 540,-166 612.25,-166 612.25,-185.25"/>
<text text-anchor="middle" x="576.12" y="-171.75" font-family="Helvetica,sans-Serif" font-size="10.00">modbusWBE</text>
</a>
</g>
</g>
<!-- Node2 -->
<g id="Node000002" class="node">
<title>Node2</title>
<g id="a_Node000002"><a xlink:href="master__func_8impl_8h.html#ad3a6d4576d762da3eb0bd73aa5bb24fe" target="_top" xlink:title="Read mutiple coils/discrete inputs/holding registers/input registers.">
<polygon fill="white" stroke="#666666" points="502.12,-389.25 351.88,-389.25 351.88,-370 502.12,-370 502.12,-389.25"/>
<text text-anchor="middle" x="427" y="-375.75" font-family="Helvetica,sans-Serif" font-size="10.00">modbusBuildRequest01020304</text>
</a>
</g>
</g>
<!-- Node1&#45;&gt;Node2 -->
<g id="edge1_Node000001_Node000002" class="edge">
<title>Node1&#45;&gt;Node2</title>
<g id="a_edge1_Node000001_Node000002"><a xlink:title=" ">
<path fill="none" stroke="#63b8ff" d="M568.94,-196.25C559.01,-226.8 537.21,-284.78 504,-324.62 487.94,-343.89 463.7,-359.88 446.93,-369.56"/>
<polygon fill="#63b8ff" stroke="#63b8ff" points="572.16,-197.67 571.81,-187.08 565.48,-195.58 572.16,-197.67"/>
</a>
</g>
</g>
<!-- Node7 -->
<g id="Node000007" class="node">
<title>Node7</title>
<g id="a_Node000007"><a xlink:href="master__func_8impl_8h.html#a5309a3003ea2d248e51193e75ab30044" target="_top" xlink:title="Write single coil/holding register.">
<polygon fill="white" stroke="#666666" points="491.62,-315.25 362.38,-315.25 362.38,-296 491.62,-296 491.62,-315.25"/>
<text text-anchor="middle" x="427" y="-301.75" font-family="Helvetica,sans-Serif" font-size="10.00">modbusBuildRequest0506</text>
</a>
</g>
</g>
<!-- Node1&#45;&gt;Node7 -->
<g id="edge6_Node000001_Node000007" class="edge">
<title>Node1&#45;&gt;Node7</title>
<g id="a_edge6_Node000001_Node000007"><a xlink:title=" ">
<path fill="none" stroke="#63b8ff" d="M567.72,-196.17C557.45,-221.66 536.4,-264.56 504,-287.62 499.58,-290.77 494.69,-293.37 489.58,-295.53"/>
<polygon fill="#63b8ff" stroke="#63b8ff" points="570.95,-197.53 571.25,-186.94 564.41,-195.03 570.95,-197.53"/>
</a>
</g>
</g>
<!-- Node10 -->
<g id="Node000010" class="node">
<title>Node10</title>
<g id="a_Node000010"><a xlink:href="master__func_8impl_8h.html#ae9842e659ccd8942905e685923de8916" target="_top" xlink:title="Write multiple coils.">
<polygon fill="white" stroke="#666666" points="486.38,-278.25 367.62,-278.25 367.62,-259 486.38,-259 486.38,-278.25"/>
<text text-anchor="middle" x="427" y="-264.75" font-family="Helvetica,sans-Serif" font-size="10.00">modbusBuildRequest15</text>
</a>
</g>
</g>
<!-- Node1&#45;&gt;Node10 -->
<g id="edge9_Node000001_Node000010" class="edge">
<title>Node1&#45;&gt;Node10</title>
<g id="a_edge9_Node000001_Node000010"><a xlink:title=" ">
<path fill="none" stroke="#63b8ff" d="M562.02,-194.8C549.23,-212.03 528.18,-236.71 504,-250.62 498.48,-253.8 492.42,-256.42 486.21,-258.58"/>
<polygon fill="#63b8ff" stroke="#63b8ff" points="564.72,-197.05 567.69,-186.88 559.02,-192.98 564.72,-197.05"/>
</a>
</g>
</g>
<!-- Node11 -->
<g id="Node000011" class="node">
<title>Node11</title>
<g id="a_Node000011"><a xlink:href="master__func_8impl_8h.html#aca022c438a427d8f4b03db4427c2b344" target="_top" xlink:title="Write multiple holding registers.">
<polygon fill="white" stroke="#666666" points="486.38,-241.25 367.62,-241.25 367.62,-222 486.38,-222 486.38,-241.25"/>
<text text-anchor="middle" x="427" y="-227.75" font-family="Helvetica,sans-Serif" font-size="10.00">modbusBuildRequest16</text>
</a>
</g>
</g>
<!-- Node1&#45;&gt;Node11 -->
<g id="edge10_Node000001_Node000011" class="edge">
<title>Node1&#45;&gt;Node11</title>
<g id="a_edge10_Node000001_Node000011"><a xlink:title=" ">
<path fill="none" stroke="#63b8ff" d="M549.52,-191.38C536.31,-198.97 519.71,-207.68 504,-213.62 496.01,-216.65 487.35,-219.27 478.83,-221.51"/>
<polygon fill="#63b8ff" stroke="#63b8ff" points="551.16,-194.48 558,-186.38 547.61,-188.45 551.16,-194.48"/>
</a>
</g>
</g>
<!-- Node12 -->
<g id="Node000012" class="node">
<title>Node12</title>
<g id="a_Node000012"><a xlink:href="master__func_8impl_8h.html#a6f2c5d59dee73c80ad54e53cca38aeec" target="_top" xlink:title="Mask write register request.">
<polygon fill="white" stroke="#666666" points="486.38,-204.25 367.62,-204.25 367.62,-185 486.38,-185 486.38,-204.25"/>
<text text-anchor="middle" x="427" y="-190.75" font-family="Helvetica,sans-Serif" font-size="10.00">modbusBuildRequest22</text>
</a>
</g>
</g>
<!-- Node1&#45;&gt;Node12 -->
<g id="edge11_Node000001_Node000012" class="edge">
<title>Node1&#45;&gt;Node12</title>
<g id="a_edge11_Node000001_Node000012"><a xlink:title=" ">
<path fill="none" stroke="#63b8ff" d="M528.31,-181.67C515.13,-183.37 500.61,-185.25 486.82,-187.03"/>
<polygon fill="#63b8ff" stroke="#63b8ff" points="528.54,-185.17 538.01,-180.42 527.64,-178.23 528.54,-185.17"/>
</a>
</g>
</g>
<!-- Node13 -->
<g id="Node000013" class="node">
<title>Node13</title>
<g id="a_Node000013"><a xlink:href="base_8h.html#a39dcd3aad118a779b7e1775fea3e5d77" target="_top" xlink:title="Sets up the MBAP header in a Modbus TCP frame.">
<polygon fill="white" stroke="#666666" points="473.25,-167.25 380.75,-167.25 380.75,-148 473.25,-148 473.25,-167.25"/>
<text text-anchor="middle" x="427" y="-153.75" font-family="Helvetica,sans-Serif" font-size="10.00">modbusPackTCP</text>
</a>
</g>
</g>
<!-- Node1&#45;&gt;Node13 -->
<g id="edge12_Node000001_Node000013" class="edge">
<title>Node1&#45;&gt;Node13</title>
<g id="a_edge12_Node000001_Node000013"><a xlink:title=" ">
<path fill="none" stroke="#63b8ff" d="M528.39,-169.91C510.87,-167.76 491.01,-165.33 473.6,-163.2"/>
<polygon fill="#63b8ff" stroke="#63b8ff" points="527.66,-173.34 538.01,-171.08 528.51,-166.4 527.66,-173.34"/>
</a>
</g>
</g>
<!-- Node19 -->
<g id="Node000019" class="node">
<title>Node19</title>
<g id="a_Node000019"><a xlink:href="slave__func_8impl_8h.html#aaff57f2a5c6a8e6c77d36c5dc7e48cfa" target="_top" xlink:title="Handles requests 01, 02, 03 and 04 (Read Multiple XX) and generates response.">
<polygon fill="white" stroke="#666666" points="504,-130.25 350,-130.25 350,-111 504,-111 504,-130.25"/>
<text text-anchor="middle" x="427" y="-116.75" font-family="Helvetica,sans-Serif" font-size="10.00">modbusParseRequest01020304</text>
</a>
</g>
</g>
<!-- Node1&#45;&gt;Node19 -->
<g id="edge18_Node000001_Node000019" class="edge">
<title>Node1&#45;&gt;Node19</title>
<g id="a_edge18_Node000001_Node000019"><a xlink:title=" ">
<path fill="none" stroke="#63b8ff" d="M548.94,-160.02C535.81,-152.71 519.44,-144.37 504,-138.62 495.87,-135.6 487.05,-132.96 478.4,-130.71"/>
<polygon fill="#63b8ff" stroke="#63b8ff" points="546.97,-162.92 557.39,-164.84 550.44,-156.84 546.97,-162.92"/>
</a>
</g>
</g>
<!-- Node20 -->
<g id="Node000020" class="node">
<title>Node20</title>
<g id="a_Node000020"><a xlink:href="slave__func_8impl_8h.html#a236881fe30a95d4cc9b031a9e24ae2a8" target="_top" xlink:title="Handles requests 05 and 06 (Write Single XX) and generates response.">
<polygon fill="white" stroke="#666666" points="493.5,-93.25 360.5,-93.25 360.5,-74 493.5,-74 493.5,-93.25"/>
<text text-anchor="middle" x="427" y="-79.75" font-family="Helvetica,sans-Serif" font-size="10.00">modbusParseRequest0506</text>
</a>
</g>
</g>
<!-- Node1&#45;&gt;Node20 -->
<g id="edge19_Node000001_Node000020" class="edge">
<title>Node1&#45;&gt;Node20</title>
<g id="a_edge19_Node000001_Node000020"><a xlink:title=" ">
<path fill="none" stroke="#63b8ff" d="M561.97,-156.71C549.13,-139.71 528.06,-115.36 504,-101.62 498.47,-98.46 492.4,-95.86 486.19,-93.71"/>
<polygon fill="#63b8ff" stroke="#63b8ff" points="558.93,-158.49 567.64,-164.52 564.59,-154.37 558.93,-158.49"/>
</a>
</g>
</g>
<!-- Node21 -->
<g id="Node000021" class="node">
<title>Node21</title>
<g id="a_Node000021"><a xlink:href="slave__func_8impl_8h.html#a0cb2a7bf59d4014088e1ce1c61523071" target="_top" xlink:title="Handles requests 15 and 16 (Write Multiple XX) and generates response.">
<polygon fill="white" stroke="#666666" points="493.5,-56.25 360.5,-56.25 360.5,-37 493.5,-37 493.5,-56.25"/>
<text text-anchor="middle" x="427" y="-42.75" font-family="Helvetica,sans-Serif" font-size="10.00">modbusParseRequest1516</text>
</a>
</g>
</g>
<!-- Node1&#45;&gt;Node21 -->
<g id="edge20_Node000001_Node000021" class="edge">
<title>Node1&#45;&gt;Node21</title>
<g id="a_edge20_Node000001_Node000021"><a xlink:title=" ">
<path fill="none" stroke="#63b8ff" d="M567.67,-155.26C557.34,-130 536.24,-87.48 504,-64.62 499.58,-61.49 494.68,-58.89 489.56,-56.74"/>
<polygon fill="#63b8ff" stroke="#63b8ff" points="564.34,-156.35 571.22,-164.4 570.86,-153.81 564.34,-156.35"/>
</a>
</g>
</g>
<!-- Node22 -->
<g id="Node000022" class="node">
<title>Node22</title>
<g id="a_Node000022"><a xlink:href="slave__func_8impl_8h.html#a814f041d9acfa578998b8ce8fe53815c" target="_top" xlink:title="Handles request 22 (Mask Write Register) and generates response.">
<polygon fill="white" stroke="#666666" points="488.25,-19.25 365.75,-19.25 365.75,0 488.25,0 488.25,-19.25"/>
<text text-anchor="middle" x="427" y="-5.75" font-family="Helvetica,sans-Serif" font-size="10.00">modbusParseRequest22</text>
</a>
</g>
</g>
<!-- Node1&#45;&gt;Node22 -->
<g id="edge21_Node000001_Node000022" class="edge">
<title>Node1&#45;&gt;Node22</title>
<g id="a_edge21_Node000001_Node000022"><a xlink:title=" ">
<path fill="none" stroke="#63b8ff" d="M571.05,-154.66C563.64,-122.28 544.76,-60.43 504,-27.62 499.35,-23.88 494.06,-20.9 488.47,-18.52"/>
<polygon fill="#63b8ff" stroke="#63b8ff" points="567.54,-154.97 573.04,-164.02 574.39,-153.51 567.54,-154.97"/>
</a>
</g>
</g>
<!-- Node3 -->
<g id="Node000003" class="node">
<title>Node3</title>
<g id="a_Node000003"><a xlink:href="master__func_8h.html#aadb2b7e2d3ee4fbde22cdf076713d75e" target="_top" xlink:title="Read multiple coils &#45; a wrapper for modbusBuildRequest01020304()">
<polygon fill="white" stroke="#666666" points="306.5,-463.25 187.75,-463.25 187.75,-444 306.5,-444 306.5,-463.25"/>
<text text-anchor="middle" x="247.12" y="-449.75" font-family="Helvetica,sans-Serif" font-size="10.00">modbusBuildRequest01</text>
</a>
</g>
</g>
<!-- Node2&#45;&gt;Node3 -->
<g id="edge2_Node000002_Node000003" class="edge">
<title>Node2&#45;&gt;Node3</title>
<g id="a_edge2_Node000002_Node000003"><a xlink:title=" ">
<path fill="none" stroke="#63b8ff" d="M398.59,-395.24C376.33,-407.45 343.84,-424.22 314,-435.62 306.36,-438.55 298.05,-441.2 289.99,-443.52"/>
<polygon fill="#63b8ff" stroke="#63b8ff" points="400.28,-398.31 407.32,-390.39 396.88,-392.19 400.28,-398.31"/>
</a>
</g>
</g>
<!-- Node4 -->
<g id="Node000004" class="node">
<title>Node4</title>
<g id="a_Node000004"><a xlink:href="master__func_8h.html#a2a6452a8200d77483254bef08ee2cf8c" target="_top" xlink:title="Read multiple discrete inputs &#45; a wrapper for modbusBuildRequest01020304()">
<polygon fill="white" stroke="#666666" points="306.5,-426.25 187.75,-426.25 187.75,-407 306.5,-407 306.5,-426.25"/>
<text text-anchor="middle" x="247.12" y="-412.75" font-family="Helvetica,sans-Serif" font-size="10.00">modbusBuildRequest02</text>
</a>
</g>
</g>
<!-- Node2&#45;&gt;Node4 -->
<g id="edge3_Node000002_Node000004" class="edge">
<title>Node2&#45;&gt;Node4</title>
<g id="a_edge3_Node000002_Node000004"><a xlink:title=" ">
<path fill="none" stroke="#63b8ff" d="M366.2,-392.06C343.58,-396.77 318.13,-402.06 296.67,-406.53"/>
<polygon fill="#63b8ff" stroke="#63b8ff" points="366.84,-395.51 375.91,-390.04 365.41,-388.65 366.84,-395.51"/>
</a>
</g>
</g>
<!-- Node5 -->
<g id="Node000005" class="node">
<title>Node5</title>
<g id="a_Node000005"><a xlink:href="master__func_8h.html#a1c7ed51c58b1ef42ee176833c7fd0515" target="_top" xlink:title="Read multiple holding registers &#45; a wrapper for modbusBuildRequest01020304()">
<polygon fill="white" stroke="#666666" points="306.5,-389.25 187.75,-389.25 187.75,-370 306.5,-370 306.5,-389.25"/>
<text text-anchor="middle" x="247.12" y="-375.75" font-family="Helvetica,sans-Serif" font-size="10.00">modbusBuildRequest03</text>
</a>
</g>
</g>
<!-- Node2&#45;&gt;Node5 -->
<g id="edge4_Node000002_Node000005" class="edge">
<title>Node2&#45;&gt;Node5</title>
<g id="a_edge4_Node000002_Node000005"><a xlink:title=" ">
<path fill="none" stroke="#63b8ff" d="M340.31,-379.62C328.97,-379.62 317.56,-379.62 306.82,-379.62"/>
<polygon fill="#63b8ff" stroke="#63b8ff" points="340.08,-383.13 350.08,-379.63 340.08,-376.13 340.08,-383.13"/>
</a>
</g>
</g>
<!-- Node6 -->
<g id="Node000006" class="node">
<title>Node6</title>
<g id="a_Node000006"><a xlink:href="master__func_8h.html#a22bf4541196b3e88c0a86861d334e3b1" target="_top" xlink:title="Read multiple input registers &#45; a wrapper for modbusBuildRequest01020304()">
<polygon fill="white" stroke="#666666" points="306.5,-352.25 187.75,-352.25 187.75,-333 306.5,-333 306.5,-352.25"/>
<text text-anchor="middle" x="247.12" y="-338.75" font-family="Helvetica,sans-Serif" font-size="10.00">modbusBuildRequest04</text>
</a>
</g>
</g>
<!-- Node2&#45;&gt;Node6 -->
<g id="edge5_Node000002_Node000006" class="edge">
<title>Node2&#45;&gt;Node6</title>
<g id="a_edge5_Node000002_Node000006"><a xlink:title=" ">
<path fill="none" stroke="#63b8ff" d="M366.2,-367.19C343.58,-362.48 318.13,-357.19 296.67,-352.72"/>
<polygon fill="#63b8ff" stroke="#63b8ff" points="365.41,-370.6 375.91,-369.21 366.84,-363.74 365.41,-370.6"/>
</a>
</g>
</g>
<!-- Node8 -->
<g id="Node000008" class="node">
<title>Node8</title>
<g id="a_Node000008"><a xlink:href="master__func_8h.html#a7151355c8c34af355fd779f88a64e125" target="_top" xlink:title="Write single coil &#45; a wrapper for modbusBuildRequest0506()">
<polygon fill="white" stroke="#666666" points="306.5,-315.25 187.75,-315.25 187.75,-296 306.5,-296 306.5,-315.25"/>
<text text-anchor="middle" x="247.12" y="-301.75" font-family="Helvetica,sans-Serif" font-size="10.00">modbusBuildRequest05</text>
</a>
</g>
</g>
<!-- Node7&#45;&gt;Node8 -->
<g id="edge7_Node000007_Node000008" class="edge">
<title>Node7&#45;&gt;Node8</title>
<g id="a_edge7_Node000007_Node000008"><a xlink:title=" ">
<path fill="none" stroke="#63b8ff" d="M350.89,-305.62C336.15,-305.62 320.89,-305.62 306.79,-305.62"/>
<polygon fill="#63b8ff" stroke="#63b8ff" points="350.52,-309.13 360.52,-305.63 350.52,-302.13 350.52,-309.13"/>
</a>
</g>
</g>
<!-- Node9 -->
<g id="Node000009" class="node">
<title>Node9</title>
<g id="a_Node000009"><a xlink:href="master__func_8h.html#a56779853bdfd2bb75601be746c20eb09" target="_top" xlink:title="Write single holding register &#45; a wrapper for modbusBuildRequest0506()">
<polygon fill="white" stroke="#666666" points="306.5,-278.25 187.75,-278.25 187.75,-259 306.5,-259 306.5,-278.25"/>
<text text-anchor="middle" x="247.12" y="-264.75" font-family="Helvetica,sans-Serif" font-size="10.00">modbusBuildRequest06</text>
</a>
</g>
</g>
<!-- Node7&#45;&gt;Node9 -->
<g id="edge8_Node000007_Node000009" class="edge">
<title>Node7&#45;&gt;Node9</title>
<g id="a_edge8_Node000007_Node000009"><a xlink:title=" ">
<path fill="none" stroke="#63b8ff" d="M366.2,-293.19C343.58,-288.48 318.13,-283.19 296.67,-278.72"/>
<polygon fill="#63b8ff" stroke="#63b8ff" points="365.41,-296.6 375.91,-295.21 366.84,-289.74 365.41,-296.6"/>
</a>
</g>
</g>
<!-- Node14 -->
<g id="Node000014" class="node">
<title>Node14</title>
<g id="a_Node000014"><a xlink:href="slave_8impl_8h.html#a778e65356f7da66831f18ec53b975383" target="_top" xlink:title="Builds a Modbus TCP exception.">
<polygon fill="white" stroke="#666666" points="314,-204.25 180.25,-204.25 180.25,-185 314,-185 314,-204.25"/>
<text text-anchor="middle" x="247.12" y="-190.75" font-family="Helvetica,sans-Serif" font-size="10.00">modbusBuildExceptionTCP</text>
</a>
</g>
</g>
<!-- Node13&#45;&gt;Node14 -->
<g id="edge13_Node000013_Node000014" class="edge">
<title>Node13&#45;&gt;Node14</title>
<g id="a_edge13_Node000013_Node000014"><a xlink:title=" ">
<path fill="none" stroke="#63b8ff" d="M369.45,-169.39C345.98,-174.27 319.03,-179.87 296.5,-184.56"/>
<polygon fill="#63b8ff" stroke="#63b8ff" points="370.09,-172.83 379.17,-167.37 368.67,-165.98 370.09,-172.83"/>
</a>
</g>
</g>
<!-- Node16 -->
<g id="Node000016" class="node">
<title>Node16</title>
<g id="a_Node000016"><a xlink:href="master_8impl_8h.html#a7feaa87c1b0f6c9fbd565494b2b96c8d" target="_top" xlink:title="Finalizes a Modbus TCP request.">
<polygon fill="white" stroke="#666666" points="308.38,-167.25 185.88,-167.25 185.88,-148 308.38,-148 308.38,-167.25"/>
<text text-anchor="middle" x="247.12" y="-153.75" font-family="Helvetica,sans-Serif" font-size="10.00">modbusEndRequestTCP</text>
</a>
</g>
</g>
<!-- Node13&#45;&gt;Node16 -->
<g id="edge15_Node000013_Node000016" class="edge">
<title>Node13&#45;&gt;Node16</title>
<g id="a_edge15_Node000013_Node000016"><a xlink:title=" ">
<path fill="none" stroke="#63b8ff" d="M369.3,-157.62C350.02,-157.62 328.41,-157.62 308.83,-157.62"/>
<polygon fill="#63b8ff" stroke="#63b8ff" points="369.14,-161.13 379.14,-157.63 369.14,-154.13 369.14,-161.13"/>
</a>
</g>
</g>
<!-- Node17 -->
<g id="Node000017" class="node">
<title>Node17</title>
<g id="a_Node000017"><a xlink:href="slave_8impl_8h.html#a5ad3fe86aa14f8982d7c459c68cd8b3e" target="_top" xlink:title="Parses provided Modbus TCP request frame and generates a Modbus TCP response.">
<polygon fill="white" stroke="#666666" points="312.88,-130.25 181.38,-130.25 181.38,-111 312.88,-111 312.88,-130.25"/>
<text text-anchor="middle" x="247.12" y="-116.75" font-family="Helvetica,sans-Serif" font-size="10.00">modbusParseRequestTCP</text>
</a>
</g>
</g>
<!-- Node13&#45;&gt;Node17 -->
<g id="edge16_Node000013_Node000017" class="edge">
<title>Node13&#45;&gt;Node17</title>
<g id="a_edge16_Node000013_Node000017"><a xlink:title=" ">
<path fill="none" stroke="#63b8ff" d="M369.45,-145.86C345.98,-140.98 319.03,-135.38 296.5,-130.69"/>
<polygon fill="#63b8ff" stroke="#63b8ff" points="368.67,-149.27 379.17,-147.88 370.09,-142.42 368.67,-149.27"/>
</a>
</g>
</g>
<!-- Node15 -->
<g id="Node000015" class="node">
<title>Node15</title>
<g id="a_Node000015"><a xlink:href="classllm_1_1Slave.html#a844c37870a4e98bffc091ddfafb8f959" target="_top" xlink:title=" ">
<polygon fill="white" stroke="#666666" points="144.25,-204.25 0,-204.25 0,-185 144.25,-185 144.25,-204.25"/>
<text text-anchor="middle" x="72.12" y="-190.75" font-family="Helvetica,sans-Serif" font-size="10.00">llm::Slave::buildExceptionTCP</text>
</a>
</g>
</g>
<!-- Node14&#45;&gt;Node15 -->
<g id="edge14_Node000014_Node000015" class="edge">
<title>Node14&#45;&gt;Node15</title>
<g id="a_edge14_Node000014_Node000015"><a xlink:title=" ">
<path fill="none" stroke="#63b8ff" d="M168.9,-194.62C160.82,-194.62 152.62,-194.62 144.6,-194.62"/>
<polygon fill="#63b8ff" stroke="#63b8ff" points="168.71,-198.13 178.71,-194.63 168.71,-191.13 168.71,-198.13"/>
</a>
</g>
</g>
<!-- Node18 -->
<g id="Node000018" class="node">
<title>Node18</title>
<g id="a_Node000018"><a xlink:href="classllm_1_1Slave.html#a05169339916c3727c780c75157b399b9" target="_top" xlink:title=" ">
<polygon fill="white" stroke="#666666" points="143.12,-130.25 1.12,-130.25 1.12,-111 143.12,-111 143.12,-130.25"/>
<text text-anchor="middle" x="72.12" y="-116.75" font-family="Helvetica,sans-Serif" font-size="10.00">llm::Slave::parseRequestTCP</text>
</a>
</g>
</g>
<!-- Node17&#45;&gt;Node18 -->
<g id="edge17_Node000017_Node000018" class="edge">
<title>Node17&#45;&gt;Node18</title>
<g id="a_edge17_Node000017_Node000018"><a xlink:title=" ">
<path fill="none" stroke="#63b8ff" d="M169.85,-120.62C161.13,-120.62 152.26,-120.62 143.62,-120.62"/>
<polygon fill="#63b8ff" stroke="#63b8ff" points="169.7,-124.13 179.7,-120.63 169.7,-117.13 169.7,-124.13"/>
</a>
</g>
</g>
</g>
</svg>
