<?xml version="1.0" encoding="UTF-8" standalone="no"?>
<!DOCTYPE svg PUBLIC "-//W3C//DTD SVG 1.1//EN"
 "http://www.w3.org/Graphics/SVG/1.1/DTD/svg11.dtd">
<!-- Generated by graphviz version 9.0.0 (20230911.1827)
 -->
<!-- Title: modbusBufferAllocateADU Pages: 1 -->
<svg width="1068pt" height="695pt"
 viewBox="0.00 0.00 1067.75 695.25" xmlns="http://www.w3.org/2000/svg" xmlns:xlink="http://www.w3.org/1999/xlink">
<g id="graph0" class="graph" transform="scale(1 1) rotate(0) translate(4 691.25)">
<title>modbusBufferAllocateADU</title>
<!-- Node1 -->
<g id="Node000001" class="node">
<title>Node1</title>
<g id="a_Node000001"><a xlink:title="Allocates memory to hold Modbus ADU.">
<polygon fill="#999999" stroke="#666666" points="1059.75,-424.25 927.5,-424.25 927.5,-405 1059.75,-405 1059.75,-424.25"/>
<text text-anchor="middle" x="993.62" y="-410.75" font-family="Helvetica,sans-Serif" font-size="10.00">modbusBufferAllocateADU</text>
</a>
</g>
</g>
<!-- Node2 -->
<g id="Node000002" class="node">
<title>Node2</title>
<g id="a_Node000002"><a xlink:href="base_8impl_8h.html#a00605b5ebcf90f8035bfaa7a7c039776" target="_top" xlink:title="Frees memory allocated inside the buffer.">
<polygon fill="white" stroke="#666666" points="862.25,-556.25 766.75,-556.25 766.75,-537 862.25,-537 862.25,-556.25"/>
<text text-anchor="middle" x="814.5" y="-542.75" font-family="Helvetica,sans-Serif" font-size="10.00">modbusBufferFree</text>
</a>
</g>
</g>
<!-- Node1&#45;&gt;Node2 -->
<g id="edge1_Node000001_Node000002" class="edge">
<title>Node1&#45;&gt;Node2</title>
<g id="a_edge1_Node000001_Node000002"><a xlink:title=" ">
<path fill="none" stroke="#63b8ff" d="M970.25,-431.3C932.96,-459.09 859.25,-514.02 828.97,-536.59"/>
<polygon fill="#63b8ff" stroke="#63b8ff" points="972.17,-434.23 978.1,-425.45 967.99,-428.62 972.17,-434.23"/>
</a>
</g>
</g>
<!-- Node14 -->
<g id="Node000014" class="node">
<title>Node14</title>
<g id="a_Node000014"><a xlink:href="master_8h.html#a004b932b2b69ad0c6649c26d974146b2" target="_top" xlink:title="Allocates memory for the request frame.">
<polygon fill="white" stroke="#666666" points="890.38,-203.25 738.62,-203.25 738.62,-184 890.38,-184 890.38,-203.25"/>
<text text-anchor="middle" x="814.5" y="-189.75" font-family="Helvetica,sans-Serif" font-size="10.00">modbusMasterAllocateRequest</text>
</a>
</g>
</g>
<!-- Node1&#45;&gt;Node14 -->
<g id="edge13_Node000001_Node000014" class="edge">
<title>Node1&#45;&gt;Node14</title>
<g id="a_edge13_Node000001_Node000014"><a xlink:title=" ">
<path fill="none" stroke="#63b8ff" d="M977.52,-395.77C941.34,-350.64 850.73,-237.58 823.42,-203.5"/>
<polygon fill="#63b8ff" stroke="#63b8ff" points="974.62,-397.76 983.61,-403.37 980.08,-393.38 974.62,-397.76"/>
</a>
</g>
</g>
<!-- Node26 -->
<g id="Node000026" class="node">
<title>Node26</title>
<g id="a_Node000026"><a xlink:href="slave_8h.html#ad1165bb6d12af1db502a05df5da55aed" target="_top" xlink:title="Allocates memory for slave&#39;s response frame.">
<polygon fill="white" stroke="#666666" points="891.5,-424.25 737.5,-424.25 737.5,-405 891.5,-405 891.5,-424.25"/>
<text text-anchor="middle" x="814.5" y="-410.75" font-family="Helvetica,sans-Serif" font-size="10.00">modbusSlaveAllocateResponse</text>
</a>
</g>
</g>
<!-- Node1&#45;&gt;Node26 -->
<g id="edge25_Node000001_Node000026" class="edge">
<title>Node1&#45;&gt;Node26</title>
<g id="a_edge25_Node000001_Node000026"><a xlink:title=" ">
<path fill="none" stroke="#63b8ff" d="M915.67,-414.62C907.74,-414.62 899.68,-414.62 891.76,-414.62"/>
<polygon fill="#63b8ff" stroke="#63b8ff" points="915.66,-418.13 925.66,-414.63 915.66,-411.13 915.66,-418.13"/>
</a>
</g>
</g>
<!-- Node3 -->
<g id="Node000003" class="node">
<title>Node3</title>
<g id="a_Node000003"><a xlink:href="base_8impl_8h.html#ac4ff5a6ae685570f045448e76e518a0c" target="_top" xlink:title="Equivalent of modbusBufferFree() \copydetail modbusBufferFree()">
<polygon fill="white" stroke="#666666" points="680.88,-650.25 571.88,-650.25 571.88,-631 680.88,-631 680.88,-650.25"/>
<text text-anchor="middle" x="626.38" y="-636.75" font-family="Helvetica,sans-Serif" font-size="10.00">modbusBufferDestroy</text>
</a>
</g>
</g>
<!-- Node2&#45;&gt;Node3 -->
<g id="edge2_Node000002_Node000003" class="edge">
<title>Node2&#45;&gt;Node3</title>
<g id="a_edge2_Node000002_Node000003"><a xlink:title=" ">
<path fill="none" stroke="#63b8ff" d="M783.53,-561.76C745.18,-581.13 679.8,-614.15 647.15,-630.64"/>
<polygon fill="#63b8ff" stroke="#63b8ff" points="784.88,-565 792.23,-557.37 781.73,-558.75 784.88,-565"/>
</a>
</g>
</g>
<!-- Node8 -->
<g id="Node000008" class="node">
<title>Node8</title>
<g id="a_Node000008"><a xlink:href="master_8h.html#a040a82085ce05ff95c53d3dca4c3acfd" target="_top" xlink:title="Frees memory allocated for master&#39;s request frame.">
<polygon fill="white" stroke="#666666" points="694.38,-538.25 558.38,-538.25 558.38,-519 694.38,-519 694.38,-538.25"/>
<text text-anchor="middle" x="626.38" y="-524.75" font-family="Helvetica,sans-Serif" font-size="10.00">modbusMasterFreeRequest</text>
</a>
</g>
</g>
<!-- Node2&#45;&gt;Node8 -->
<g id="edge7_Node000002_Node000008" class="edge">
<title>Node2&#45;&gt;Node8</title>
<g id="a_edge7_Node000002_Node000008"><a xlink:title=" ">
<path fill="none" stroke="#63b8ff" d="M755.22,-540.99C736.03,-539.13 714.53,-537.05 694.72,-535.14"/>
<polygon fill="#63b8ff" stroke="#63b8ff" points="754.74,-544.46 765.03,-541.94 755.41,-537.49 754.74,-544.46"/>
</a>
</g>
</g>
<!-- Node10 -->
<g id="Node000010" class="node">
<title>Node10</title>
<g id="a_Node000010"><a xlink:href="slave_8h.html#aac289ce160ea61287c98e8a1ee4353d5" target="_top" xlink:title="Frees memory allocated for slave&#39;s response frame.">
<polygon fill="white" stroke="#666666" points="695.5,-575.25 557.25,-575.25 557.25,-556 695.5,-556 695.5,-575.25"/>
<text text-anchor="middle" x="626.38" y="-561.75" font-family="Helvetica,sans-Serif" font-size="10.00">modbusSlaveFreeResponse</text>
</a>
</g>
</g>
<!-- Node2&#45;&gt;Node10 -->
<g id="edge9_Node000002_Node000010" class="edge">
<title>Node2&#45;&gt;Node10</title>
<g id="a_edge9_Node000002_Node000010"><a xlink:title=" ">
<path fill="none" stroke="#63b8ff" d="M755.13,-552.58C736.3,-554.51 715.26,-556.65 695.78,-558.64"/>
<polygon fill="#63b8ff" stroke="#63b8ff" points="755.43,-556.07 765.03,-551.57 754.72,-549.11 755.43,-556.07"/>
</a>
</g>
</g>
<!-- Node4 -->
<g id="Node000004" class="node">
<title>Node4</title>
<g id="a_Node000004"><a xlink:href="master_8impl_8h.html#a5fe38fae0f89de04fa616d105f660d25" target="_top" xlink:title="Deinitializes a ModbusMaster struct.">
<polygon fill="white" stroke="#666666" points="495,-650.25 381.5,-650.25 381.5,-631 495,-631 495,-650.25"/>
<text text-anchor="middle" x="438.25" y="-636.75" font-family="Helvetica,sans-Serif" font-size="10.00">modbusMasterDestroy</text>
</a>
</g>
</g>
<!-- Node3&#45;&gt;Node4 -->
<g id="edge3_Node000003_Node000004" class="edge">
<title>Node3&#45;&gt;Node4</title>
<g id="a_edge3_Node000003_Node000004"><a xlink:title=" ">
<path fill="none" stroke="#63b8ff" d="M560.04,-640.62C538.89,-640.62 515.64,-640.62 495.23,-640.62"/>
<polygon fill="#63b8ff" stroke="#63b8ff" points="560.03,-644.13 570.03,-640.63 560.03,-637.13 560.03,-644.13"/>
</a>
</g>
</g>
<!-- Node6 -->
<g id="Node000006" class="node">
<title>Node6</title>
<g id="a_Node000006"><a xlink:href="slave_8impl_8h.html#a70695c3b7355bc0a3e6d49c46a4eef1f" target="_top" xlink:title="Frees memory allocated in the ModbusSlave struct.">
<polygon fill="white" stroke="#666666" points="492.38,-687.25 384.12,-687.25 384.12,-668 492.38,-668 492.38,-687.25"/>
<text text-anchor="middle" x="438.25" y="-673.75" font-family="Helvetica,sans-Serif" font-size="10.00">modbusSlaveDestroy</text>
</a>
</g>
</g>
<!-- Node3&#45;&gt;Node6 -->
<g id="edge5_Node000003_Node000006" class="edge">
<title>Node3&#45;&gt;Node6</title>
<g id="a_edge5_Node000003_Node000006"><a xlink:title=" ">
<path fill="none" stroke="#63b8ff" d="M563.45,-652.93C539.62,-657.67 512.71,-663.02 490.05,-667.53"/>
<polygon fill="#63b8ff" stroke="#63b8ff" points="563.91,-656.41 573.03,-651.03 562.54,-649.55 563.91,-656.41"/>
</a>
</g>
</g>
<!-- Node5 -->
<g id="Node000005" class="node">
<title>Node5</title>
<g id="a_Node000005"><a xlink:href="classllm_1_1Master.html#adae54d760d1eb2f0babcaff59325376d" target="_top" xlink:title=" ">
<polygon fill="white" stroke="#666666" points="303.88,-650.25 200.88,-650.25 200.88,-631 303.88,-631 303.88,-650.25"/>
<text text-anchor="middle" x="252.38" y="-636.75" font-family="Helvetica,sans-Serif" font-size="10.00">llm::Master::~Master</text>
</a>
</g>
</g>
<!-- Node4&#45;&gt;Node5 -->
<g id="edge4_Node000004_Node000005" class="edge">
<title>Node4&#45;&gt;Node5</title>
<g id="a_edge4_Node000004_Node000005"><a xlink:title=" ">
<path fill="none" stroke="#63b8ff" d="M369.64,-640.62C348,-640.62 324.43,-640.62 304.2,-640.62"/>
<polygon fill="#63b8ff" stroke="#63b8ff" points="369.57,-644.13 379.57,-640.63 369.57,-637.13 369.57,-644.13"/>
</a>
</g>
</g>
<!-- Node7 -->
<g id="Node000007" class="node">
<title>Node7</title>
<g id="a_Node000007"><a xlink:href="classllm_1_1Slave.html#a46b8ac6f2b8dee5550d18bd7f1dd355d" target="_top" xlink:title=" ">
<polygon fill="white" stroke="#666666" points="298.62,-687.25 206.12,-687.25 206.12,-668 298.62,-668 298.62,-687.25"/>
<text text-anchor="middle" x="252.38" y="-673.75" font-family="Helvetica,sans-Serif" font-size="10.00">llm::Slave::~Slave</text>
</a>
</g>
</g>
<!-- Node6&#45;&gt;Node7 -->
<g id="edge6_Node000006_Node000007" class="edge">
<title>Node6&#45;&gt;Node7</title>
<g id="a_edge6_Node000006_Node000007"><a xlink:title=" ">
<path fill="none" stroke="#63b8ff" d="M372.74,-677.62C348.4,-677.62 321.23,-677.62 298.96,-677.62"/>
<polygon fill="#63b8ff" stroke="#63b8ff" points="372.55,-681.13 382.55,-677.63 372.55,-674.13 372.55,-681.13"/>
</a>
</g>
</g>
<!-- Node9 -->
<g id="Node000009" class="node">
<title>Node9</title>
<g id="a_Node000009"><a xlink:href="classllm_1_1Master.html#a6c3883d0f98a5b4255a02f46f33c2423" target="_top" xlink:title=" ">
<polygon fill="white" stroke="#666666" points="498.38,-537.25 378.12,-537.25 378.12,-518 498.38,-518 498.38,-537.25"/>
<text text-anchor="middle" x="438.25" y="-523.75" font-family="Helvetica,sans-Serif" font-size="10.00">llm::Master::freeRequest</text>
</a>
</g>
</g>
<!-- Node8&#45;&gt;Node9 -->
<g id="edge8_Node000008_Node000009" class="edge">
<title>Node8&#45;&gt;Node9</title>
<g id="a_edge8_Node000008_Node000009"><a xlink:title=" ">
<path fill="none" stroke="#63b8ff" d="M546.42,-528.2C530.46,-528.12 513.94,-528.03 498.78,-527.94"/>
<polygon fill="#63b8ff" stroke="#63b8ff" points="546.38,-531.7 556.4,-528.25 546.42,-524.7 546.38,-531.7"/>
</a>
</g>
</g>
<!-- Node11 -->
<g id="Node000011" class="node">
<title>Node11</title>
<g id="a_Node000011"><a xlink:href="classllm_1_1Slave.html#aadbd0a4dc7769b5c393d6dfe5a344b8a" target="_top" xlink:title=" ">
<polygon fill="white" stroke="#666666" points="499.5,-613.25 377,-613.25 377,-594 499.5,-594 499.5,-613.25"/>
<text text-anchor="middle" x="438.25" y="-599.75" font-family="Helvetica,sans-Serif" font-size="10.00">llm::Slave::freeResponse</text>
</a>
</g>
</g>
<!-- Node10&#45;&gt;Node11 -->
<g id="edge10_Node000010_Node000011" class="edge">
<title>Node10&#45;&gt;Node11</title>
<g id="a_edge10_Node000010_Node000011"><a xlink:title=" ">
<path fill="none" stroke="#63b8ff" d="M564.91,-577.97C540.2,-583.02 511.98,-588.78 488.55,-593.56"/>
<polygon fill="#63b8ff" stroke="#63b8ff" points="565.4,-581.44 574.5,-576.01 564,-574.58 565.4,-581.44"/>
</a>
</g>
</g>
<!-- Node12 -->
<g id="Node000012" class="node">
<title>Node12</title>
<g id="a_Node000012"><a xlink:href="slave_8impl_8h.html#a6a1e63faa64b7ca4b91d1ce7988be850" target="_top" xlink:title="Parses provided Modbus RTU request frame and generates a Modbus RTU response.">
<polygon fill="white" stroke="#666666" points="318.5,-519.25 186.25,-519.25 186.25,-500 318.5,-500 318.5,-519.25"/>
<text text-anchor="middle" x="252.38" y="-505.75" font-family="Helvetica,sans-Serif" font-size="10.00">modbusParseRequestRTU</text>
</a>
</g>
</g>
<!-- Node10&#45;&gt;Node12 -->
<g id="edge11_Node000010_Node000012" class="edge">
<title>Node10&#45;&gt;Node12</title>
<g id="a_edge11_Node000010_Node000012"><a xlink:title=" ">
<path fill="none" stroke="#63b8ff" d="M545.54,-565.23C492.76,-563.67 422.31,-559.07 361.25,-546.62 331.37,-540.53 298.4,-528.38 276.88,-519.66"/>
<polygon fill="#63b8ff" stroke="#63b8ff" points="545.26,-568.73 555.35,-565.49 545.44,-561.73 545.26,-568.73"/>
</a>
</g>
</g>
<!-- Node13 -->
<g id="Node000013" class="node">
<title>Node13</title>
<g id="a_Node000013"><a xlink:href="classllm_1_1Slave.html#a001591b9a38b69cf29adc853872a09fe" target="_top" xlink:title=" ">
<polygon fill="white" stroke="#666666" points="143.12,-519.25 0.38,-519.25 0.38,-500 143.12,-500 143.12,-519.25"/>
<text text-anchor="middle" x="71.75" y="-505.75" font-family="Helvetica,sans-Serif" font-size="10.00">llm::Slave::parseRequestRTU</text>
</a>
</g>
</g>
<!-- Node12&#45;&gt;Node13 -->
<g id="edge12_Node000012_Node000013" class="edge">
<title>Node12&#45;&gt;Node13</title>
<g id="a_edge12_Node000012_Node000013"><a xlink:title=" ">
<path fill="none" stroke="#63b8ff" d="M174.37,-509.62C164.07,-509.62 153.54,-509.62 143.35,-509.62"/>
<polygon fill="#63b8ff" stroke="#63b8ff" points="174.36,-513.13 184.36,-509.63 174.36,-506.13 174.36,-513.13"/>
</a>
</g>
</g>
<!-- Node15 -->
<g id="Node000015" class="node">
<title>Node15</title>
<g id="a_Node000015"><a xlink:href="master__func_8impl_8h.html#ad3a6d4576d762da3eb0bd73aa5bb24fe" target="_top" xlink:title="Read mutiple coils/discrete inputs/holding registers/input registers.">
<polygon fill="white" stroke="#666666" points="701.5,-147.25 551.25,-147.25 551.25,-128 701.5,-128 701.5,-147.25"/>
<text text-anchor="middle" x="626.38" y="-133.75" font-family="Helvetica,sans-Serif" font-size="10.00">modbusBuildRequest01020304</text>
</a>
</g>
</g>
<!-- Node14&#45;&gt;Node15 -->
<g id="edge14_Node000014_Node000015" class="edge">
<title>Node14&#45;&gt;Node15</title>
<g id="a_edge14_Node000014_Node000015"><a xlink:title=" ">
<path fill="none" stroke="#63b8ff" d="M775.42,-179.77C753.88,-172.16 726.35,-162.84 701.5,-155.62 691.96,-152.85 681.65,-150.16 671.84,-147.74"/>
<polygon fill="#63b8ff" stroke="#63b8ff" points="774.08,-183 784.67,-183.06 776.43,-176.41 774.08,-183"/>
</a>
</g>
</g>
<!-- Node20 -->
<g id="Node000020" class="node">
<title>Node20</title>
<g id="a_Node000020"><a xlink:href="master__func_8impl_8h.html#a5309a3003ea2d248e51193e75ab30044" target="_top" xlink:title="Write single coil/holding register.">
<polygon fill="white" stroke="#666666" points="691,-56.25 561.75,-56.25 561.75,-37 691,-37 691,-56.25"/>
<text text-anchor="middle" x="626.38" y="-42.75" font-family="Helvetica,sans-Serif" font-size="10.00">modbusBuildRequest0506</text>
</a>
</g>
</g>
<!-- Node14&#45;&gt;Node20 -->
<g id="edge19_Node000014_Node000020" class="edge">
<title>Node14&#45;&gt;Node20</title>
<g id="a_edge19_Node000014_Node000020"><a xlink:title=" ">
<path fill="none" stroke="#63b8ff" d="M791.68,-176.39C752.36,-145.34 670.84,-80.95 639.77,-56.41"/>
<polygon fill="#63b8ff" stroke="#63b8ff" points="789.5,-179.13 799.52,-182.58 793.84,-173.64 789.5,-179.13"/>
</a>
</g>
</g>
<!-- Node23 -->
<g id="Node000023" class="node">
<title>Node23</title>
<g id="a_Node000023"><a xlink:href="master__func_8impl_8h.html#ae9842e659ccd8942905e685923de8916" target="_top" xlink:title="Write multiple coils.">
<polygon fill="white" stroke="#666666" points="685.75,-258.25 567,-258.25 567,-239 685.75,-239 685.75,-258.25"/>
<text text-anchor="middle" x="626.38" y="-244.75" font-family="Helvetica,sans-Serif" font-size="10.00">modbusBuildRequest15</text>
</a>
</g>
</g>
<!-- Node14&#45;&gt;Node23 -->
<g id="edge22_Node000014_Node000023" class="edge">
<title>Node14&#45;&gt;Node23</title>
<g id="a_edge22_Node000014_Node000023"><a xlink:title=" ">
<path fill="none" stroke="#63b8ff" d="M774.52,-207.36C753.1,-214.69 725.98,-223.62 701.5,-230.62 691.82,-233.39 681.36,-236.1 671.43,-238.55"/>
<polygon fill="#63b8ff" stroke="#63b8ff" points="775.41,-210.76 783.73,-204.19 773.13,-204.14 775.41,-210.76"/>
</a>
</g>
</g>
<!-- Node24 -->
<g id="Node000024" class="node">
<title>Node24</title>
<g id="a_Node000024"><a xlink:href="master__func_8impl_8h.html#aca022c438a427d8f4b03db4427c2b344" target="_top" xlink:title="Write multiple holding registers.">
<polygon fill="white" stroke="#666666" points="685.75,-221.25 567,-221.25 567,-202 685.75,-202 685.75,-221.25"/>
<text text-anchor="middle" x="626.38" y="-207.75" font-family="Helvetica,sans-Serif" font-size="10.00">modbusBuildRequest16</text>
</a>
</g>
</g>
<!-- Node14&#45;&gt;Node24 -->
<g id="edge23_Node000014_Node000024" class="edge">
<title>Node14&#45;&gt;Node24</title>
<g id="a_edge23_Node000014_Node000024"><a xlink:title=" ">
<path fill="none" stroke="#63b8ff" d="M727.26,-201.97C713.37,-203.31 699.27,-204.67 686.22,-205.93"/>
<polygon fill="#63b8ff" stroke="#63b8ff" points="727.21,-205.49 736.83,-201.04 726.54,-198.52 727.21,-205.49"/>
</a>
</g>
</g>
<!-- Node25 -->
<g id="Node000025" class="node">
<title>Node25</title>
<g id="a_Node000025"><a xlink:href="master__func_8impl_8h.html#a6f2c5d59dee73c80ad54e53cca38aeec" target="_top" xlink:title="Mask write register request.">
<polygon fill="white" stroke="#666666" points="685.75,-184.25 567,-184.25 567,-165 685.75,-165 685.75,-184.25"/>
<text text-anchor="middle" x="626.38" y="-170.75" font-family="Helvetica,sans-Serif" font-size="10.00">modbusBuildRequest22</text>
</a>
</g>
</g>
<!-- Node14&#45;&gt;Node25 -->
<g id="edge24_Node000014_Node000025" class="edge">
<title>Node14&#45;&gt;Node25</title>
<g id="a_edge24_Node000014_Node000025"><a xlink:title=" ">
<path fill="none" stroke="#63b8ff" d="M727.26,-184.82C713.37,-183.4 699.27,-181.96 686.22,-180.63"/>
<polygon fill="#63b8ff" stroke="#63b8ff" points="726.52,-188.26 736.83,-185.8 727.23,-181.3 726.52,-188.26"/>
</a>
</g>
</g>
<!-- Node16 -->
<g id="Node000016" class="node">
<title>Node16</title>
<g id="a_Node000016"><a xlink:href="master__func_8h.html#aadb2b7e2d3ee4fbde22cdf076713d75e" target="_top" xlink:title="Read multiple coils &#45; a wrapper for modbusBuildRequest01020304()">
<polygon fill="white" stroke="#666666" points="497.62,-93.25 378.88,-93.25 378.88,-74 497.62,-74 497.62,-93.25"/>
<text text-anchor="middle" x="438.25" y="-79.75" font-family="Helvetica,sans-Serif" font-size="10.00">modbusBuildRequest01</text>
</a>
</g>
</g>
<!-- Node15&#45;&gt;Node16 -->
<g id="edge15_Node000015_Node000016" class="edge">
<title>Node15&#45;&gt;Node16</title>
<g id="a_edge15_Node000015_Node000016"><a xlink:title=" ">
<path fill="none" stroke="#63b8ff" d="M586.33,-123.98C565.38,-116.89 539.05,-108.32 515.25,-101.62 505.33,-98.83 494.6,-96.11 484.42,-93.67"/>
<polygon fill="#63b8ff" stroke="#63b8ff" points="585.03,-127.24 595.62,-127.16 587.29,-120.61 585.03,-127.24"/>
</a>
</g>
</g>
<!-- Node17 -->
<g id="Node000017" class="node">
<title>Node17</title>
<g id="a_Node000017"><a xlink:href="master__func_8h.html#a2a6452a8200d77483254bef08ee2cf8c" target="_top" xlink:title="Read multiple discrete inputs &#45; a wrapper for modbusBuildRequest01020304()">
<polygon fill="white" stroke="#666666" points="497.62,-204.25 378.88,-204.25 378.88,-185 497.62,-185 497.62,-204.25"/>
<text text-anchor="middle" x="438.25" y="-190.75" font-family="Helvetica,sans-Serif" font-size="10.00">modbusBuildRequest02</text>
</a>
</g>
</g>
<!-- Node15&#45;&gt;Node17 -->
<g id="edge16_Node000015_Node000017" class="edge">
<title>Node15&#45;&gt;Node17</title>
<g id="a_edge16_Node000015_Node000017"><a xlink:title=" ">
<path fill="none" stroke="#63b8ff" d="M564.59,-150.85C560.03,-152.31 555.53,-153.9 551.25,-155.62 534.07,-162.55 532.45,-169.75 515.25,-176.62 507.57,-179.7 499.23,-182.32 490.99,-184.55"/>
<polygon fill="#63b8ff" stroke="#63b8ff" points="565.26,-154.3 573.86,-148.11 563.27,-147.59 565.26,-154.3"/>
</a>
</g>
</g>
<!-- Node18 -->
<g id="Node000018" class="node">
<title>Node18</title>
<g id="a_Node000018"><a xlink:href="master__func_8h.html#a1c7ed51c58b1ef42ee176833c7fd0515" target="_top" xlink:title="Read multiple holding registers &#45; a wrapper for modbusBuildRequest01020304()">
<polygon fill="white" stroke="#666666" points="497.62,-167.25 378.88,-167.25 378.88,-148 497.62,-148 497.62,-167.25"/>
<text text-anchor="middle" x="438.25" y="-153.75" font-family="Helvetica,sans-Serif" font-size="10.00">modbusBuildRequest03</text>
</a>
</g>
</g>
<!-- Node15&#45;&gt;Node18 -->
<g id="edge17_Node000015_Node000018" class="edge">
<title>Node15&#45;&gt;Node18</title>
<g id="a_edge17_Node000015_Node000018"><a xlink:title=" ">
<path fill="none" stroke="#63b8ff" d="M539.76,-146.82C525.64,-148.34 511.29,-149.88 498.03,-151.31"/>
<polygon fill="#63b8ff" stroke="#63b8ff" points="539.94,-150.33 549.51,-145.78 539.19,-143.37 539.94,-150.33"/>
</a>
</g>
</g>
<!-- Node19 -->
<g id="Node000019" class="node">
<title>Node19</title>
<g id="a_Node000019"><a xlink:href="master__func_8h.html#a22bf4541196b3e88c0a86861d334e3b1" target="_top" xlink:title="Read multiple input registers &#45; a wrapper for modbusBuildRequest01020304()">
<polygon fill="white" stroke="#666666" points="497.62,-130.25 378.88,-130.25 378.88,-111 497.62,-111 497.62,-130.25"/>
<text text-anchor="middle" x="438.25" y="-116.75" font-family="Helvetica,sans-Serif" font-size="10.00">modbusBuildRequest04</text>
</a>
</g>
</g>
<!-- Node15&#45;&gt;Node19 -->
<g id="edge18_Node000015_Node000019" class="edge">
<title>Node15&#45;&gt;Node19</title>
<g id="a_edge18_Node000015_Node000019"><a xlink:title=" ">
<path fill="none" stroke="#63b8ff" d="M539.76,-129.81C525.64,-128.52 511.29,-127.21 498.03,-125.99"/>
<polygon fill="#63b8ff" stroke="#63b8ff" points="539.23,-133.27 549.5,-130.7 539.86,-126.3 539.23,-133.27"/>
</a>
</g>
</g>
<!-- Node21 -->
<g id="Node000021" class="node">
<title>Node21</title>
<g id="a_Node000021"><a xlink:href="master__func_8h.html#a7151355c8c34af355fd779f88a64e125" target="_top" xlink:title="Write single coil &#45; a wrapper for modbusBuildRequest0506()">
<polygon fill="white" stroke="#666666" points="497.62,-19.25 378.88,-19.25 378.88,0 497.62,0 497.62,-19.25"/>
<text text-anchor="middle" x="438.25" y="-5.75" font-family="Helvetica,sans-Serif" font-size="10.00">modbusBuildRequest05</text>
</a>
</g>
</g>
<!-- Node20&#45;&gt;Node21 -->
<g id="edge20_Node000020_Node000021" class="edge">
<title>Node20&#45;&gt;Node21</title>
<g id="a_edge20_Node000020_Node000021"><a xlink:title=" ">
<path fill="none" stroke="#63b8ff" d="M563.45,-34.32C539.62,-29.58 512.71,-24.23 490.05,-19.72"/>
<polygon fill="#63b8ff" stroke="#63b8ff" points="562.54,-37.7 573.03,-36.22 563.91,-30.84 562.54,-37.7"/>
</a>
</g>
</g>
<!-- Node22 -->
<g id="Node000022" class="node">
<title>Node22</title>
<g id="a_Node000022"><a xlink:href="master__func_8h.html#a56779853bdfd2bb75601be746c20eb09" target="_top" xlink:title="Write single holding register &#45; a wrapper for modbusBuildRequest0506()">
<polygon fill="white" stroke="#666666" points="497.62,-56.25 378.88,-56.25 378.88,-37 497.62,-37 497.62,-56.25"/>
<text text-anchor="middle" x="438.25" y="-42.75" font-family="Helvetica,sans-Serif" font-size="10.00">modbusBuildRequest06</text>
</a>
</g>
</g>
<!-- Node20&#45;&gt;Node22 -->
<g id="edge21_Node000020_Node000022" class="edge">
<title>Node20&#45;&gt;Node22</title>
<g id="a_edge21_Node000020_Node000022"><a xlink:title=" ">
<path fill="none" stroke="#63b8ff" d="M550.09,-46.62C532.78,-46.62 514.61,-46.62 498.11,-46.62"/>
<polygon fill="#63b8ff" stroke="#63b8ff" points="549.81,-50.13 559.81,-46.63 549.81,-43.13 549.81,-50.13"/>
</a>
</g>
</g>
<!-- Node27 -->
<g id="Node000027" class="node">
<title>Node27</title>
<g id="a_Node000027"><a xlink:href="slave_8impl_8h.html#a58243ce1e1adaffd0a3260edc2d03603" target="_top" xlink:title="Builds an exception response frame.">
<polygon fill="white" stroke="#666666" points="683.5,-386.25 569.25,-386.25 569.25,-367 683.5,-367 683.5,-386.25"/>
<text text-anchor="middle" x="626.38" y="-372.75" font-family="Helvetica,sans-Serif" font-size="10.00">modbusBuildException</text>
</a>
</g>
</g>
<!-- Node26&#45;&gt;Node27 -->
<g id="edge26_Node000026_Node000027" class="edge">
<title>Node26&#45;&gt;Node27</title>
<g id="a_edge26_Node000026_Node000027"><a xlink:title=" ">
<path fill="none" stroke="#63b8ff" d="M753.03,-402.28C728.32,-397.23 700.1,-391.47 676.67,-386.69"/>
<polygon fill="#63b8ff" stroke="#63b8ff" points="752.13,-405.67 762.63,-404.24 753.53,-398.81 752.13,-405.67"/>
</a>
</g>
</g>
<!-- Node39 -->
<g id="Node000039" class="node">
<title>Node39</title>
<g id="a_Node000039"><a xlink:href="slave__func_8impl_8h.html#aaff57f2a5c6a8e6c77d36c5dc7e48cfa" target="_top" xlink:title="Handles requests 01, 02, 03 and 04 (Read Multiple XX) and generates response.">
<polygon fill="white" stroke="#666666" points="515.25,-241.25 361.25,-241.25 361.25,-222 515.25,-222 515.25,-241.25"/>
<text text-anchor="middle" x="438.25" y="-227.75" font-family="Helvetica,sans-Serif" font-size="10.00">modbusParseRequest01020304</text>
</a>
</g>
</g>
<!-- Node26&#45;&gt;Node39 -->
<g id="edge43_Node000026_Node000039" class="edge">
<title>Node26&#45;&gt;Node39</title>
<g id="a_edge43_Node000026_Node000039"><a xlink:title=" ">
<path fill="none" stroke="#63b8ff" d="M785.86,-399.07C714.65,-359.02 529.49,-255.13 515.25,-249.62 507.41,-246.59 498.91,-243.97 490.53,-241.75"/>
<polygon fill="#63b8ff" stroke="#63b8ff" points="784.13,-402.11 794.57,-403.96 787.57,-396.01 784.13,-402.11"/>
</a>
</g>
</g>
<!-- Node40 -->
<g id="Node000040" class="node">
<title>Node40</title>
<g id="a_Node000040"><a xlink:href="slave__func_8impl_8h.html#a236881fe30a95d4cc9b031a9e24ae2a8" target="_top" xlink:title="Handles requests 05 and 06 (Write Single XX) and generates response.">
<polygon fill="white" stroke="#666666" points="504.75,-500.25 371.75,-500.25 371.75,-481 504.75,-481 504.75,-500.25"/>
<text text-anchor="middle" x="438.25" y="-486.75" font-family="Helvetica,sans-Serif" font-size="10.00">modbusParseRequest0506</text>
</a>
</g>
</g>
<!-- Node26&#45;&gt;Node40 -->
<g id="edge44_Node000026_Node000040" class="edge">
<title>Node26&#45;&gt;Node40</title>
<g id="a_edge44_Node000026_Node000040"><a xlink:title=" ">
<path fill="none" stroke="#63b8ff" d="M775.58,-428.48C754.09,-435.91 726.56,-444.73 701.5,-450.62 635.37,-466.19 558.39,-477.1 505.01,-483.55"/>
<polygon fill="#63b8ff" stroke="#63b8ff" points="776.52,-431.86 784.8,-425.24 774.21,-425.25 776.52,-431.86"/>
</a>
</g>
</g>
<!-- Node41 -->
<g id="Node000041" class="node">
<title>Node41</title>
<g id="a_Node000041"><a xlink:href="slave__func_8impl_8h.html#a0cb2a7bf59d4014088e1ce1c61523071" target="_top" xlink:title="Handles requests 15 and 16 (Write Multiple XX) and generates response.">
<polygon fill="white" stroke="#666666" points="504.75,-463.25 371.75,-463.25 371.75,-444 504.75,-444 504.75,-463.25"/>
<text text-anchor="middle" x="438.25" y="-449.75" font-family="Helvetica,sans-Serif" font-size="10.00">modbusParseRequest1516</text>
</a>
</g>
</g>
<!-- Node26&#45;&gt;Node41 -->
<g id="edge45_Node000026_Node000041" class="edge">
<title>Node26&#45;&gt;Node41</title>
<g id="a_edge45_Node000026_Node000041"><a xlink:title=" ">
<path fill="none" stroke="#63b8ff" d="M730.24,-426.17C720.56,-427.39 710.82,-428.58 701.5,-429.62 634.71,-437.15 558.16,-443.95 505.07,-448.37"/>
<polygon fill="#63b8ff" stroke="#63b8ff" points="730.58,-429.65 740.06,-424.91 729.69,-422.71 730.58,-429.65"/>
</a>
</g>
</g>
<!-- Node42 -->
<g id="Node000042" class="node">
<title>Node42</title>
<g id="a_Node000042"><a xlink:href="slave__func_8impl_8h.html#a814f041d9acfa578998b8ce8fe53815c" target="_top" xlink:title="Handles request 22 (Mask Write Register) and generates response.">
<polygon fill="white" stroke="#666666" points="499.5,-426.25 377,-426.25 377,-407 499.5,-407 499.5,-426.25"/>
<text text-anchor="middle" x="438.25" y="-412.75" font-family="Helvetica,sans-Serif" font-size="10.00">modbusParseRequest22</text>
</a>
</g>
</g>
<!-- Node26&#45;&gt;Node42 -->
<g id="edge46_Node000026_Node000042" class="edge">
<title>Node26&#45;&gt;Node42</title>
<g id="a_edge46_Node000026_Node000042"><a xlink:title=" ">
<path fill="none" stroke="#63b8ff" d="M725.96,-415.09C656.5,-415.46 561.19,-415.97 499.91,-416.3"/>
<polygon fill="#63b8ff" stroke="#63b8ff" points="725.82,-418.59 735.8,-415.04 725.78,-411.59 725.82,-418.59"/>
</a>
</g>
</g>
<!-- Node28 -->
<g id="Node000028" class="node">
<title>Node28</title>
<g id="a_Node000028"><a xlink:href="slave_8impl_8h.html#a384f75966903cc0c249eb68a6a20180e" target="_top" xlink:title="Builds an exception PDU.">
<polygon fill="white" stroke="#666666" points="505.88,-352.25 370.62,-352.25 370.62,-333 505.88,-333 505.88,-352.25"/>
<text text-anchor="middle" x="438.25" y="-338.75" font-family="Helvetica,sans-Serif" font-size="10.00">modbusBuildExceptionPDU</text>
</a>
</g>
</g>
<!-- Node27&#45;&gt;Node28 -->
<g id="edge27_Node000027_Node000028" class="edge">
<title>Node27&#45;&gt;Node28</title>
<g id="a_edge27_Node000027_Node000028"><a xlink:title=" ">
<path fill="none" stroke="#63b8ff" d="M558.86,-364.48C537.73,-360.62 514.61,-356.39 494.38,-352.7"/>
<polygon fill="#63b8ff" stroke="#63b8ff" points="558.08,-367.89 568.55,-366.24 559.34,-361 558.08,-367.89"/>
</a>
</g>
</g>
<!-- Node30 -->
<g id="Node000030" class="node">
<title>Node30</title>
<g id="a_Node000030"><a xlink:href="slave_8impl_8h.html#a1da09df8858b91c61fe02c25783c2946" target="_top" xlink:title="Builds a Modbus RTU exception.">
<polygon fill="white" stroke="#666666" points="505.5,-315.25 371,-315.25 371,-296 505.5,-296 505.5,-315.25"/>
<text text-anchor="middle" x="438.25" y="-301.75" font-family="Helvetica,sans-Serif" font-size="10.00">modbusBuildExceptionRTU</text>
</a>
</g>
</g>
<!-- Node27&#45;&gt;Node30 -->
<g id="edge29_Node000027_Node000030" class="edge">
<title>Node27&#45;&gt;Node30</title>
<g id="a_edge29_Node000027_Node000030"><a xlink:title=" ">
<path fill="none" stroke="#63b8ff" d="M597.68,-361.23C575.83,-349.59 544.3,-333.92 515.25,-323.62 506.81,-320.64 497.68,-317.99 488.76,-315.71"/>
<polygon fill="#63b8ff" stroke="#63b8ff" points="595.78,-364.18 606.24,-365.85 599.11,-358.02 595.78,-364.18"/>
</a>
</g>
</g>
<!-- Node32 -->
<g id="Node000032" class="node">
<title>Node32</title>
<g id="a_Node000032"><a xlink:href="slave_8impl_8h.html#a778e65356f7da66831f18ec53b975383" target="_top" xlink:title="Builds a Modbus TCP exception.">
<polygon fill="white" stroke="#666666" points="505.12,-278.25 371.38,-278.25 371.38,-259 505.12,-259 505.12,-278.25"/>
<text text-anchor="middle" x="438.25" y="-264.75" font-family="Helvetica,sans-Serif" font-size="10.00">modbusBuildExceptionTCP</text>
</a>
</g>
</g>
<!-- Node27&#45;&gt;Node32 -->
<g id="edge31_Node000027_Node000032" class="edge">
<title>Node27&#45;&gt;Node32</title>
<g id="a_edge31_Node000027_Node000032"><a xlink:title=" ">
<path fill="none" stroke="#63b8ff" d="M603.09,-359.77C588.22,-348.38 568.34,-332.88 551.25,-318.62 534.81,-304.91 534.24,-296.5 515.25,-286.62 509.11,-283.43 502.41,-280.8 495.6,-278.63"/>
<polygon fill="#63b8ff" stroke="#63b8ff" points="600.78,-362.41 610.85,-365.69 605.02,-356.84 600.78,-362.41"/>
</a>
</g>
</g>
<!-- Node34 -->
<g id="Node000034" class="node">
<title>Node34</title>
<g id="a_Node000034"><a xlink:href="slave_8impl_8h.html#aff0a9164a0e37aa619232ae86e3ff97a" target="_top" xlink:title="Parses provided PDU and generates response honorinng pduOffset and padding set in ModbusSlave during ...">
<polygon fill="white" stroke="#666666" points="494.25,-389.25 382.25,-389.25 382.25,-370 494.25,-370 494.25,-389.25"/>
<text text-anchor="middle" x="438.25" y="-375.75" font-family="Helvetica,sans-Serif" font-size="10.00">modbusParseRequest</text>
</a>
</g>
</g>
<!-- Node27&#45;&gt;Node34 -->
<g id="edge33_Node000027_Node000034" class="edge">
<title>Node27&#45;&gt;Node34</title>
<g id="a_edge33_Node000027_Node000034"><a xlink:title=" ">
<path fill="none" stroke="#63b8ff" d="M557.5,-377.72C536.83,-378.05 514.37,-378.41 494.62,-378.73"/>
<polygon fill="#63b8ff" stroke="#63b8ff" points="557.32,-381.22 567.26,-377.56 557.2,-374.22 557.32,-381.22"/>
</a>
</g>
</g>
<!-- Node27&#45;&gt;Node39 -->
<g id="edge39_Node000027_Node000039" class="edge">
<title>Node27&#45;&gt;Node39</title>
<g id="a_edge39_Node000027_Node000039"><a xlink:title=" ">
<path fill="none" stroke="#63b8ff" d="M599.21,-360.28C583.86,-349.75 564.88,-335.01 551.25,-318.62 529.13,-292.03 542.55,-270.87 515.25,-249.62 511.18,-246.46 506.65,-243.84 501.88,-241.67"/>
<polygon fill="#63b8ff" stroke="#63b8ff" points="597.14,-363.11 607.41,-365.72 601.01,-357.27 597.14,-363.11"/>
</a>
</g>
</g>
<!-- Node27&#45;&gt;Node40 -->
<g id="edge40_Node000027_Node000040" class="edge">
<title>Node27&#45;&gt;Node40</title>
<g id="a_edge40_Node000027_Node000040"><a xlink:title=" ">
<path fill="none" stroke="#63b8ff" d="M609.64,-394.93C589.84,-416.78 553.74,-452.84 515.25,-472.62 509.1,-475.79 502.38,-478.4 495.57,-480.56"/>
<polygon fill="#63b8ff" stroke="#63b8ff" points="612.07,-397.47 616.09,-387.66 606.83,-392.83 612.07,-397.47"/>
</a>
</g>
</g>
<!-- Node27&#45;&gt;Node41 -->
<g id="edge41_Node000027_Node000041" class="edge">
<title>Node27&#45;&gt;Node41</title>
<g id="a_edge41_Node000027_Node000041"><a xlink:title=" ">
<path fill="none" stroke="#63b8ff" d="M600.19,-392.56C578.42,-405.73 545.75,-424.07 515.25,-435.62 507.26,-438.65 498.6,-441.28 490.09,-443.52"/>
<polygon fill="#63b8ff" stroke="#63b8ff" points="601.96,-395.58 608.65,-387.36 598.3,-389.62 601.96,-395.58"/>
</a>
</g>
</g>
<!-- Node27&#45;&gt;Node42 -->
<g id="edge42_Node000027_Node000042" class="edge">
<title>Node27&#45;&gt;Node42</title>
<g id="a_edge42_Node000027_Node000042"><a xlink:title=" ">
<path fill="none" stroke="#63b8ff" d="M567.15,-389.14C541.09,-394.74 510.78,-401.25 486.2,-406.53"/>
<polygon fill="#63b8ff" stroke="#63b8ff" points="567.89,-392.56 576.93,-387.04 566.42,-385.72 567.89,-392.56"/>
</a>
</g>
</g>
<!-- Node29 -->
<g id="Node000029" class="node">
<title>Node29</title>
<g id="a_Node000029"><a xlink:href="classllm_1_1Slave.html#ac915e0947f733a784a9069f5ff5b9737" target="_top" xlink:title=" ">
<polygon fill="white" stroke="#666666" points="325.25,-352.25 179.5,-352.25 179.5,-333 325.25,-333 325.25,-352.25"/>
<text text-anchor="middle" x="252.38" y="-338.75" font-family="Helvetica,sans-Serif" font-size="10.00">llm::Slave::buildExceptionPDU</text>
</a>
</g>
</g>
<!-- Node28&#45;&gt;Node29 -->
<g id="edge28_Node000028_Node000029" class="edge">
<title>Node28&#45;&gt;Node29</title>
<g id="a_edge28_Node000028_Node000029"><a xlink:title=" ">
<path fill="none" stroke="#63b8ff" d="M358.92,-342.62C347.83,-342.62 336.47,-342.62 325.5,-342.62"/>
<polygon fill="#63b8ff" stroke="#63b8ff" points="358.83,-346.13 368.83,-342.63 358.83,-339.13 358.83,-346.13"/>
</a>
</g>
</g>
<!-- Node31 -->
<g id="Node000031" class="node">
<title>Node31</title>
<g id="a_Node000031"><a xlink:href="classllm_1_1Slave.html#a10e79600053c725e639225264d966e63" target="_top" xlink:title=" ">
<polygon fill="white" stroke="#666666" points="324.88,-315.25 179.88,-315.25 179.88,-296 324.88,-296 324.88,-315.25"/>
<text text-anchor="middle" x="252.38" y="-301.75" font-family="Helvetica,sans-Serif" font-size="10.00">llm::Slave::buildExceptionRTU</text>
</a>
</g>
</g>
<!-- Node30&#45;&gt;Node31 -->
<g id="edge30_Node000030_Node000031" class="edge">
<title>Node30&#45;&gt;Node31</title>
<g id="a_edge30_Node000030_Node000031"><a xlink:title=" ">
<path fill="none" stroke="#63b8ff" d="M359.36,-305.62C347.98,-305.62 336.31,-305.62 325.07,-305.62"/>
<polygon fill="#63b8ff" stroke="#63b8ff" points="359.09,-309.13 369.09,-305.63 359.09,-302.13 359.09,-309.13"/>
</a>
</g>
</g>
<!-- Node33 -->
<g id="Node000033" class="node">
<title>Node33</title>
<g id="a_Node000033"><a xlink:href="classllm_1_1Slave.html#a844c37870a4e98bffc091ddfafb8f959" target="_top" xlink:title=" ">
<polygon fill="white" stroke="#666666" points="324.5,-278.25 180.25,-278.25 180.25,-259 324.5,-259 324.5,-278.25"/>
<text text-anchor="middle" x="252.38" y="-264.75" font-family="Helvetica,sans-Serif" font-size="10.00">llm::Slave::buildExceptionTCP</text>
</a>
</g>
</g>
<!-- Node32&#45;&gt;Node33 -->
<g id="edge32_Node000032_Node000033" class="edge">
<title>Node32&#45;&gt;Node33</title>
<g id="a_edge32_Node000032_Node000033"><a xlink:title=" ">
<path fill="none" stroke="#63b8ff" d="M359.69,-268.62C348.13,-268.62 336.25,-268.62 324.82,-268.62"/>
<polygon fill="#63b8ff" stroke="#63b8ff" points="359.61,-272.13 369.61,-268.63 359.61,-265.13 359.61,-272.13"/>
</a>
</g>
</g>
<!-- Node34&#45;&gt;Node12 -->
<g id="edge36_Node000034_Node000012" class="edge">
<title>Node34&#45;&gt;Node12</title>
<g id="a_edge36_Node000034_Node000012"><a xlink:title=" ">
<path fill="none" stroke="#63b8ff" d="M371.22,-392.68C367.77,-394.16 364.42,-395.8 361.25,-397.62 341.09,-409.23 341.35,-418.84 325.25,-435.62 303.18,-458.63 277.05,-485.42 263.18,-499.61"/>
<polygon fill="#63b8ff" stroke="#63b8ff" points="372.25,-396.03 380.4,-389.26 369.81,-389.47 372.25,-396.03"/>
</a>
</g>
</g>
<!-- Node35 -->
<g id="Node000035" class="node">
<title>Node35</title>
<g id="a_Node000035"><a xlink:href="slave_8impl_8h.html#ab5c5f3146a46cf8d221aca22e9c8a052" target="_top" xlink:title="Parses provided PDU and generates PDU for the response frame.">
<polygon fill="white" stroke="#666666" points="318.88,-426.25 185.88,-426.25 185.88,-407 318.88,-407 318.88,-426.25"/>
<text text-anchor="middle" x="252.38" y="-412.75" font-family="Helvetica,sans-Serif" font-size="10.00">modbusParseRequestPDU</text>
</a>
</g>
</g>
<!-- Node34&#45;&gt;Node35 -->
<g id="edge34_Node000034_Node000035" class="edge">
<title>Node34&#45;&gt;Node35</title>
<g id="a_edge34_Node000034_Node000035"><a xlink:title=" ">
<path fill="none" stroke="#63b8ff" d="M375.76,-392C352.29,-396.72 325.85,-402.04 303.56,-406.53"/>
<polygon fill="#63b8ff" stroke="#63b8ff" points="376.41,-395.44 385.52,-390.03 375.03,-388.58 376.41,-395.44"/>
</a>
</g>
</g>
<!-- Node37 -->
<g id="Node000037" class="node">
<title>Node37</title>
<g id="a_Node000037"><a xlink:href="slave_8impl_8h.html#a5ad3fe86aa14f8982d7c459c68cd8b3e" target="_top" xlink:title="Parses provided Modbus TCP request frame and generates a Modbus TCP response.">
<polygon fill="white" stroke="#666666" points="318.12,-389.25 186.62,-389.25 186.62,-370 318.12,-370 318.12,-389.25"/>
<text text-anchor="middle" x="252.38" y="-375.75" font-family="Helvetica,sans-Serif" font-size="10.00">modbusParseRequestTCP</text>
</a>
</g>
</g>
<!-- Node34&#45;&gt;Node37 -->
<g id="edge37_Node000034_Node000037" class="edge">
<title>Node34&#45;&gt;Node37</title>
<g id="a_edge37_Node000034_Node000037"><a xlink:title=" ">
<path fill="none" stroke="#63b8ff" d="M370.57,-379.62C353.62,-379.62 335.42,-379.62 318.54,-379.62"/>
<polygon fill="#63b8ff" stroke="#63b8ff" points="370.57,-383.13 380.57,-379.63 370.57,-376.13 370.57,-383.13"/>
</a>
</g>
</g>
<!-- Node36 -->
<g id="Node000036" class="node">
<title>Node36</title>
<g id="a_Node000036"><a xlink:href="classllm_1_1Slave.html#af8cc9d8d58bf7f632f3f3cf7e6b9c84b" target="_top" xlink:title=" ">
<polygon fill="white" stroke="#666666" points="143.5,-426.25 0,-426.25 0,-407 143.5,-407 143.5,-426.25"/>
<text text-anchor="middle" x="71.75" y="-412.75" font-family="Helvetica,sans-Serif" font-size="10.00">llm::Slave::parseRequestPDU</text>
</a>
</g>
</g>
<!-- Node35&#45;&gt;Node36 -->
<g id="edge35_Node000035_Node000036" class="edge">
<title>Node35&#45;&gt;Node36</title>
<g id="a_edge35_Node000035_Node000036"><a xlink:title=" ">
<path fill="none" stroke="#63b8ff" d="M174.29,-416.62C164.16,-416.62 153.8,-416.62 143.77,-416.62"/>
<polygon fill="#63b8ff" stroke="#63b8ff" points="174.11,-420.13 184.11,-416.63 174.11,-413.13 174.11,-420.13"/>
</a>
</g>
</g>
<!-- Node38 -->
<g id="Node000038" class="node">
<title>Node38</title>
<g id="a_Node000038"><a xlink:href="classllm_1_1Slave.html#a05169339916c3727c780c75157b399b9" target="_top" xlink:title=" ">
<polygon fill="white" stroke="#666666" points="142.75,-389.25 0.75,-389.25 0.75,-370 142.75,-370 142.75,-389.25"/>
<text text-anchor="middle" x="71.75" y="-375.75" font-family="Helvetica,sans-Serif" font-size="10.00">llm::Slave::parseRequestTCP</text>
</a>
</g>
</g>
<!-- Node37&#45;&gt;Node38 -->
<g id="edge38_Node000037_Node000038" class="edge">
<title>Node37&#45;&gt;Node38</title>
<g id="a_edge38_Node000037_Node000038"><a xlink:title=" ">
<path fill="none" stroke="#63b8ff" d="M174.86,-379.62C164.36,-379.62 153.62,-379.62 143.24,-379.62"/>
<polygon fill="#63b8ff" stroke="#63b8ff" points="174.62,-383.13 184.62,-379.63 174.62,-376.13 174.62,-383.13"/>
</a>
</g>
</g>
</g>
</svg>
