<?xml version="1.0" encoding="UTF-8" standalone="no"?>
<!DOCTYPE svg PUBLIC "-//W3C//DTD SVG 1.1//EN"
 "http://www.w3.org/Graphics/SVG/1.1/DTD/svg11.dtd">
<!-- Generated by graphviz version 9.0.0 (20230911.1827)
 -->
<!-- Title: modbusGetErrorCode Pages: 1 -->
<svg width="647pt" height="559pt"
 viewBox="0.00 0.00 646.50 559.25" xmlns="http://www.w3.org/2000/svg" xmlns:xlink="http://www.w3.org/1999/xlink">
<g id="graph0" class="graph" transform="scale(1 1) rotate(0) translate(4 555.25)">
<title>modbusGetErrorCode</title>
<!-- Node1 -->
<g id="Node000001" class="node">
<title>Node1</title>
<g id="a_Node000001"><a xlink:title="Returns ModbusError contained in ModbusErrorInfo.">
<polygon fill="#999999" stroke="#666666" points="638.5,-399.25 529.5,-399.25 529.5,-380 638.5,-380 638.5,-399.25"/>
<text text-anchor="middle" x="584" y="-385.75" font-family="Helvetica,sans-Serif" font-size="10.00">modbusGetErrorCode</text>
</a>
</g>
</g>
<!-- Node2 -->
<g id="Node000002" class="node">
<title>Node2</title>
<g id="a_Node000002"><a xlink:href="base_8h.html#a84765449265aa5a31877b749f04cb568" target="_top" xlink:title="Returns general error from ModbusErrorInfo.">
<polygon fill="white" stroke="#666666" points="488.62,-381.25 368.38,-381.25 368.38,-362 488.62,-362 488.62,-381.25"/>
<text text-anchor="middle" x="428.5" y="-367.75" font-family="Helvetica,sans-Serif" font-size="10.00">modbusGetGeneralError</text>
</a>
</g>
</g>
<!-- Node1&#45;&gt;Node2 -->
<g id="edge1_Node000001_Node000002" class="edge">
<title>Node1&#45;&gt;Node2</title>
<g id="a_edge1_Node000001_Node000002"><a xlink:title=" ">
<path fill="none" stroke="#63b8ff" d="M518.1,-382.01C508.42,-380.88 498.48,-379.71 488.92,-378.59"/>
<polygon fill="#63b8ff" stroke="#63b8ff" points="517.47,-385.46 527.81,-383.15 518.29,-378.51 517.47,-385.46"/>
</a>
</g>
</g>
<!-- Node15 -->
<g id="Node000015" class="node">
<title>Node15</title>
<g id="a_Node000015"><a xlink:href="base_8h.html#a5c6f792a259423b2df55d8d49e91fd06" target="_top" xlink:title="Returns request error from ModbusErrorInfo.">
<polygon fill="white" stroke="#666666" points="489.75,-455.25 367.25,-455.25 367.25,-436 489.75,-436 489.75,-455.25"/>
<text text-anchor="middle" x="428.5" y="-441.75" font-family="Helvetica,sans-Serif" font-size="10.00">modbusGetRequestError</text>
</a>
</g>
</g>
<!-- Node1&#45;&gt;Node15 -->
<g id="edge14_Node000001_Node000015" class="edge">
<title>Node1&#45;&gt;Node15</title>
<g id="a_edge14_Node000001_Node000015"><a xlink:title=" ">
<path fill="none" stroke="#63b8ff" d="M551.17,-404.31C534.25,-411.82 512.97,-420.79 493.5,-427.62 485.44,-430.46 476.69,-433.15 468.33,-435.56"/>
<polygon fill="#63b8ff" stroke="#63b8ff" points="552.53,-407.53 560.22,-400.24 549.66,-401.15 552.53,-407.53"/>
</a>
</g>
</g>
<!-- Node16 -->
<g id="Node000016" class="node">
<title>Node16</title>
<g id="a_Node000016"><a xlink:href="base_8h.html#acbf9b7e6b679be88ce4e10ffb617d3e9" target="_top" xlink:title="Returns response error from ModbusErrorInfo.">
<polygon fill="white" stroke="#666666" points="493.5,-418.25 363.5,-418.25 363.5,-399 493.5,-399 493.5,-418.25"/>
<text text-anchor="middle" x="428.5" y="-404.75" font-family="Helvetica,sans-Serif" font-size="10.00">modbusGetResponseError</text>
</a>
</g>
</g>
<!-- Node1&#45;&gt;Node16 -->
<g id="edge16_Node000001_Node000016" class="edge">
<title>Node1&#45;&gt;Node16</title>
<g id="a_edge16_Node000001_Node000016"><a xlink:title=" ">
<path fill="none" stroke="#63b8ff" d="M518.15,-397.65C510.15,-398.64 501.97,-399.65 493.97,-400.64"/>
<polygon fill="#63b8ff" stroke="#63b8ff" points="518.32,-401.16 527.81,-396.46 517.46,-394.21 518.32,-401.16"/>
</a>
</g>
</g>
<!-- Node17 -->
<g id="Node000017" class="node">
<title>Node17</title>
<g id="a_Node000017"><a xlink:href="base_8h.html#a64880e7075f445881485396f3aa869c5" target="_top" xlink:title="Checks if ModbusErrorInfo contains an error.">
<polygon fill="white" stroke="#666666" points="464.25,-285.25 392.75,-285.25 392.75,-266 464.25,-266 464.25,-285.25"/>
<text text-anchor="middle" x="428.5" y="-271.75" font-family="Helvetica,sans-Serif" font-size="10.00">modbusIsOk</text>
</a>
</g>
</g>
<!-- Node1&#45;&gt;Node17 -->
<g id="edge18_Node000001_Node000017" class="edge">
<title>Node1&#45;&gt;Node17</title>
<g id="a_edge18_Node000001_Node000017"><a xlink:title=" ">
<path fill="none" stroke="#63b8ff" d="M560.2,-372.69C527.71,-348.56 469.13,-305.06 442.87,-285.56"/>
<polygon fill="#63b8ff" stroke="#63b8ff" points="558.05,-375.45 568.16,-378.61 562.22,-369.83 558.05,-375.45"/>
</a>
</g>
</g>
<!-- Node3 -->
<g id="Node000003" class="node">
<title>Node3</title>
<g id="a_Node000003"><a xlink:href="namespacellm.html#a57bd253b3362a63c62c8c5b5b0391252" target="_top" xlink:title="Throws an exception based on ModbusErrorInfo.">
<polygon fill="white" stroke="#666666" points="306.88,-437.25 212.88,-437.25 212.88,-418 306.88,-418 306.88,-437.25"/>
<text text-anchor="middle" x="259.88" y="-423.75" font-family="Helvetica,sans-Serif" font-size="10.00">llm::throwErrorInfo</text>
</a>
</g>
</g>
<!-- Node2&#45;&gt;Node3 -->
<g id="edge2_Node000002_Node000003" class="edge">
<title>Node2&#45;&gt;Node3</title>
<g id="a_edge2_Node000002_Node000003"><a xlink:title=" ">
<path fill="none" stroke="#63b8ff" d="M378.41,-384.91C373.35,-386.43 368.31,-388.02 363.5,-389.62 347.22,-395.07 343.58,-397.6 327.5,-403.62 315.07,-408.28 301.26,-413.28 289.46,-417.5"/>
<polygon fill="#63b8ff" stroke="#63b8ff" points="379.35,-388.28 387.96,-382.11 377.38,-381.56 379.35,-388.28"/>
</a>
</g>
</g>
<!-- Node4 -->
<g id="Node000004" class="node">
<title>Node4</title>
<g id="a_Node000004"><a xlink:href="classllm_1_1Slave.html#ac915e0947f733a784a9069f5ff5b9737" target="_top" xlink:title=" ">
<polygon fill="white" stroke="#666666" points="151,-546.25 5.25,-546.25 5.25,-527 151,-527 151,-546.25"/>
<text text-anchor="middle" x="78.12" y="-532.75" font-family="Helvetica,sans-Serif" font-size="10.00">llm::Slave::buildExceptionPDU</text>
</a>
</g>
</g>
<!-- Node3&#45;&gt;Node4 -->
<g id="edge3_Node000003_Node000004" class="edge">
<title>Node3&#45;&gt;Node4</title>
<g id="a_edge3_Node000003_Node000004"><a xlink:title=" ">
<path fill="none" stroke="#63b8ff" d="M239.89,-445.38C212.94,-470.43 165.8,-513.69 156.25,-518.62 150.14,-521.78 143.48,-524.39 136.71,-526.55"/>
<polygon fill="#63b8ff" stroke="#63b8ff" points="242.13,-448.07 247.06,-438.69 237.36,-442.95 242.13,-448.07"/>
</a>
</g>
</g>
<!-- Node5 -->
<g id="Node000005" class="node">
<title>Node5</title>
<g id="a_Node000005"><a xlink:href="classllm_1_1Slave.html#a10e79600053c725e639225264d966e63" target="_top" xlink:title=" ">
<polygon fill="white" stroke="#666666" points="150.62,-285.25 5.62,-285.25 5.62,-266 150.62,-266 150.62,-285.25"/>
<text text-anchor="middle" x="78.12" y="-271.75" font-family="Helvetica,sans-Serif" font-size="10.00">llm::Slave::buildExceptionRTU</text>
</a>
</g>
</g>
<!-- Node3&#45;&gt;Node5 -->
<g id="edge4_Node000003_Node000005" class="edge">
<title>Node3&#45;&gt;Node5</title>
<g id="a_edge4_Node000003_Node000005"><a xlink:title=" ">
<path fill="none" stroke="#63b8ff" d="M249.2,-407.87C233.75,-378.47 200.67,-323.57 156.25,-294.62 150.7,-291.01 144.53,-288.08 138.15,-285.71"/>
<polygon fill="#63b8ff" stroke="#63b8ff" points="245.9,-409.11 253.56,-416.43 252.14,-405.93 245.9,-409.11"/>
</a>
</g>
</g>
<!-- Node6 -->
<g id="Node000006" class="node">
<title>Node6</title>
<g id="a_Node000006"><a xlink:href="classllm_1_1Slave.html#a844c37870a4e98bffc091ddfafb8f959" target="_top" xlink:title=" ">
<polygon fill="white" stroke="#666666" points="150.25,-209.25 6,-209.25 6,-190 150.25,-190 150.25,-209.25"/>
<text text-anchor="middle" x="78.12" y="-195.75" font-family="Helvetica,sans-Serif" font-size="10.00">llm::Slave::buildExceptionTCP</text>
</a>
</g>
</g>
<!-- Node3&#45;&gt;Node6 -->
<g id="edge5_Node000003_Node000006" class="edge">
<title>Node3&#45;&gt;Node6</title>
<g id="a_edge5_Node000003_Node000006"><a xlink:title=" ">
<path fill="none" stroke="#63b8ff" d="M250,-407.48C234.46,-373.67 199.77,-304.54 156.25,-256.62 138.56,-237.15 113.33,-220 96.6,-209.73"/>
<polygon fill="#63b8ff" stroke="#63b8ff" points="246.77,-408.81 254.07,-416.49 253.15,-405.93 246.77,-408.81"/>
</a>
</g>
</g>
<!-- Node7 -->
<g id="Node000007" class="node">
<title>Node7</title>
<g id="a_Node000007"><a xlink:href="classllm_1_1Master.html#ac2e598f20d2c576e74590d461cf75f97" target="_top" xlink:title=" ">
<polygon fill="white" stroke="#666666" points="127,-435.25 29.25,-435.25 29.25,-416 127,-416 127,-435.25"/>
<text text-anchor="middle" x="78.12" y="-421.75" font-family="Helvetica,sans-Serif" font-size="10.00">llm::Master::Master</text>
</a>
</g>
</g>
<!-- Node3&#45;&gt;Node7 -->
<g id="edge6_Node000003_Node000007" class="edge">
<title>Node3&#45;&gt;Node7</title>
<g id="a_edge6_Node000003_Node000007"><a xlink:title=" ">
<path fill="none" stroke="#63b8ff" d="M201.22,-426.98C177.43,-426.72 150.17,-426.42 127.46,-426.16"/>
<polygon fill="#63b8ff" stroke="#63b8ff" points="201.03,-430.48 211.07,-427.09 201.11,-423.48 201.03,-430.48"/>
</a>
</g>
</g>
<!-- Node8 -->
<g id="Node000008" class="node">
<title>Node8</title>
<g id="a_Node000008"><a xlink:href="classllm_1_1Slave.html#af8cc9d8d58bf7f632f3f3cf7e6b9c84b" target="_top" xlink:title=" ">
<polygon fill="white" stroke="#666666" points="149.88,-398.25 6.38,-398.25 6.38,-379 149.88,-379 149.88,-398.25"/>
<text text-anchor="middle" x="78.12" y="-384.75" font-family="Helvetica,sans-Serif" font-size="10.00">llm::Slave::parseRequestPDU</text>
</a>
</g>
</g>
<!-- Node3&#45;&gt;Node8 -->
<g id="edge7_Node000003_Node000008" class="edge">
<title>Node3&#45;&gt;Node8</title>
<g id="a_edge7_Node000003_Node000008"><a xlink:title=" ">
<path fill="none" stroke="#63b8ff" d="M201.61,-415.2C177.07,-409.88 148.78,-403.74 125.57,-398.7"/>
<polygon fill="#63b8ff" stroke="#63b8ff" points="200.59,-418.56 211.11,-417.26 202.08,-411.72 200.59,-418.56"/>
</a>
</g>
</g>
<!-- Node9 -->
<g id="Node000009" class="node">
<title>Node9</title>
<g id="a_Node000009"><a xlink:href="classllm_1_1Slave.html#a001591b9a38b69cf29adc853872a09fe" target="_top" xlink:title=" ">
<polygon fill="white" stroke="#666666" points="149.5,-133.25 6.75,-133.25 6.75,-114 149.5,-114 149.5,-133.25"/>
<text text-anchor="middle" x="78.12" y="-119.75" font-family="Helvetica,sans-Serif" font-size="10.00">llm::Slave::parseRequestRTU</text>
</a>
</g>
</g>
<!-- Node3&#45;&gt;Node9 -->
<g id="edge8_Node000003_Node000009" class="edge">
<title>Node3&#45;&gt;Node9</title>
<g id="a_edge8_Node000003_Node000009"><a xlink:title=" ">
<path fill="none" stroke="#63b8ff" d="M251.04,-407.01C229.7,-351.14 171.15,-199.66 156.25,-180.62 140.24,-160.17 115.1,-143.48 97.91,-133.56"/>
<polygon fill="#63b8ff" stroke="#63b8ff" points="247.74,-408.17 254.57,-416.27 254.28,-405.68 247.74,-408.17"/>
</a>
</g>
</g>
<!-- Node10 -->
<g id="Node000010" class="node">
<title>Node10</title>
<g id="a_Node000010"><a xlink:href="classllm_1_1Slave.html#a05169339916c3727c780c75157b399b9" target="_top" xlink:title=" ">
<polygon fill="white" stroke="#666666" points="149.12,-57.25 7.12,-57.25 7.12,-38 149.12,-38 149.12,-57.25"/>
<text text-anchor="middle" x="78.12" y="-43.75" font-family="Helvetica,sans-Serif" font-size="10.00">llm::Slave::parseRequestTCP</text>
</a>
</g>
</g>
<!-- Node3&#45;&gt;Node10 -->
<g id="edge9_Node000003_Node000010" class="edge">
<title>Node3&#45;&gt;Node10</title>
<g id="a_edge9_Node000003_Node000010"><a xlink:title=" ">
<path fill="none" stroke="#63b8ff" d="M249.87,-407.25C236.09,-375.52 209.56,-312.19 192.25,-256.62 171.6,-190.34 194.5,-162.56 156.25,-104.62 142.31,-83.5 117.73,-67.37 100.07,-57.75"/>
<polygon fill="#63b8ff" stroke="#63b8ff" points="246.65,-408.63 253.87,-416.39 253.07,-405.82 246.65,-408.63"/>
</a>
</g>
</g>
<!-- Node11 -->
<g id="Node000011" class="node">
<title>Node11</title>
<g id="a_Node000011"><a xlink:href="classllm_1_1Master.html#a39b0210172c76ef4dc9e43668daef7c9" target="_top" xlink:title=" ">
<polygon fill="white" stroke="#666666" points="156.25,-361.25 0,-361.25 0,-342 156.25,-342 156.25,-361.25"/>
<text text-anchor="middle" x="78.12" y="-347.75" font-family="Helvetica,sans-Serif" font-size="10.00">llm::Master::parseResponsePDU</text>
</a>
</g>
</g>
<!-- Node3&#45;&gt;Node11 -->
<g id="edge10_Node000003_Node000011" class="edge">
<title>Node3&#45;&gt;Node11</title>
<g id="a_edge10_Node000003_Node000011"><a xlink:title=" ">
<path fill="none" stroke="#63b8ff" d="M234.63,-411.29C214.43,-398.34 184.5,-380.64 156.25,-369.62 148.44,-366.58 139.97,-363.96 131.6,-361.74"/>
<polygon fill="#63b8ff" stroke="#63b8ff" points="232.69,-414.2 242.98,-416.74 236.52,-408.34 232.69,-414.2"/>
</a>
</g>
</g>
<!-- Node12 -->
<g id="Node000012" class="node">
<title>Node12</title>
<g id="a_Node000012"><a xlink:href="classllm_1_1Master.html#ab052e172e96808744ee43a8eff80b679" target="_top" xlink:title=" ">
<polygon fill="white" stroke="#666666" points="155.88,-323.25 0.38,-323.25 0.38,-304 155.88,-304 155.88,-323.25"/>
<text text-anchor="middle" x="78.12" y="-309.75" font-family="Helvetica,sans-Serif" font-size="10.00">llm::Master::parseResponseRTU</text>
</a>
</g>
</g>
<!-- Node3&#45;&gt;Node12 -->
<g id="edge11_Node000003_Node000012" class="edge">
<title>Node3&#45;&gt;Node12</title>
<g id="a_edge11_Node000003_Node000012"><a xlink:title=" ">
<path fill="none" stroke="#63b8ff" d="M243.89,-408.91C225.52,-387.25 192.37,-352.09 156.25,-332.62 149.57,-329.03 142.2,-326.1 134.75,-323.72"/>
<polygon fill="#63b8ff" stroke="#63b8ff" points="240.99,-410.9 250.06,-416.37 246.39,-406.44 240.99,-410.9"/>
</a>
</g>
</g>
<!-- Node13 -->
<g id="Node000013" class="node">
<title>Node13</title>
<g id="a_Node000013"><a xlink:href="classllm_1_1Master.html#ad1f614f5d44a61a8507ae34968fa7903" target="_top" xlink:title=" ">
<polygon fill="white" stroke="#666666" points="155.5,-509.25 0.75,-509.25 0.75,-490 155.5,-490 155.5,-509.25"/>
<text text-anchor="middle" x="78.12" y="-495.75" font-family="Helvetica,sans-Serif" font-size="10.00">llm::Master::parseResponseTCP</text>
</a>
</g>
</g>
<!-- Node3&#45;&gt;Node13 -->
<g id="edge12_Node000003_Node000013" class="edge">
<title>Node3&#45;&gt;Node13</title>
<g id="a_edge12_Node000003_Node000013"><a xlink:title=" ">
<path fill="none" stroke="#63b8ff" d="M213.41,-441.58C206.14,-444.49 198.84,-447.85 192.25,-451.62 174.18,-461.98 174.89,-472.34 156.25,-481.62 149.85,-484.81 142.87,-487.45 135.8,-489.62"/>
<polygon fill="#63b8ff" stroke="#63b8ff" points="214.41,-444.95 222.55,-438.16 211.95,-438.39 214.41,-444.95"/>
</a>
</g>
</g>
<!-- Node14 -->
<g id="Node000014" class="node">
<title>Node14</title>
<g id="a_Node000014"><a xlink:href="classllm_1_1Slave.html#a6824a1d0fcfd26d8bedaa934f0abcf39" target="_top" xlink:title=" ">
<polygon fill="white" stroke="#666666" points="121.75,-472.25 34.5,-472.25 34.5,-453 121.75,-453 121.75,-472.25"/>
<text text-anchor="middle" x="78.12" y="-458.75" font-family="Helvetica,sans-Serif" font-size="10.00">llm::Slave::Slave</text>
</a>
</g>
</g>
<!-- Node3&#45;&gt;Node14 -->
<g id="edge13_Node000003_Node000014" class="edge">
<title>Node3&#45;&gt;Node14</title>
<g id="a_edge13_Node000003_Node000014"><a xlink:title=" ">
<path fill="none" stroke="#63b8ff" d="M201.47,-438.8C175.75,-443.81 145.93,-449.62 122.17,-454.24"/>
<polygon fill="#63b8ff" stroke="#63b8ff" points="201.95,-442.27 211.1,-436.93 200.61,-435.4 201.95,-442.27"/>
</a>
</g>
</g>
<!-- Node15&#45;&gt;Node3 -->
<g id="edge15_Node000015_Node000003" class="edge">
<title>Node15&#45;&gt;Node3</title>
<g id="a_edge15_Node000015_Node000003"><a xlink:title=" ">
<path fill="none" stroke="#63b8ff" d="M355.67,-437.87C339.3,-436.1 322.33,-434.26 307.35,-432.65"/>
<polygon fill="#63b8ff" stroke="#63b8ff" points="355.05,-441.32 365.37,-438.91 355.8,-434.36 355.05,-441.32"/>
</a>
</g>
</g>
<!-- Node16&#45;&gt;Node3 -->
<g id="edge17_Node000016_Node000003" class="edge">
<title>Node16&#45;&gt;Node3</title>
<g id="a_edge17_Node000016_Node000003"><a xlink:title=" ">
<path fill="none" stroke="#63b8ff" d="M352.06,-417.23C336.81,-418.97 321.2,-420.75 307.31,-422.33"/>
<polygon fill="#63b8ff" stroke="#63b8ff" points="352.04,-420.75 361.57,-416.14 351.24,-413.8 352.04,-420.75"/>
</a>
</g>
</g>
<!-- Node17&#45;&gt;Node4 -->
<g id="edge19_Node000017_Node000004" class="edge">
<title>Node17&#45;&gt;Node4</title>
<g id="a_edge19_Node000017_Node000004"><a xlink:title=" ">
<path fill="none" stroke="#63b8ff" d="M409.09,-293.28C394.78,-307.95 375.42,-330 363.5,-352.62 336.16,-404.53 370.02,-439.2 327.5,-479.62 302.45,-503.44 215.45,-519.42 151.46,-528.25"/>
<polygon fill="#63b8ff" stroke="#63b8ff" points="411.15,-296.16 415.76,-286.62 406.21,-291.21 411.15,-296.16"/>
</a>
</g>
</g>
<!-- Node17&#45;&gt;Node5 -->
<g id="edge20_Node000017_Node000005" class="edge">
<title>Node17&#45;&gt;Node5</title>
<g id="a_edge20_Node000017_Node000005"><a xlink:title=" ">
<path fill="none" stroke="#63b8ff" d="M381.33,-275.62C322.44,-275.62 219.98,-275.62 150.88,-275.62"/>
<polygon fill="#63b8ff" stroke="#63b8ff" points="380.99,-279.13 390.99,-275.63 380.99,-272.13 380.99,-279.13"/>
</a>
</g>
</g>
<!-- Node17&#45;&gt;Node6 -->
<g id="edge21_Node000017_Node000006" class="edge">
<title>Node17&#45;&gt;Node6</title>
<g id="a_edge21_Node000017_Node000006"><a xlink:title=" ">
<path fill="none" stroke="#63b8ff" d="M405.29,-259.11C385.85,-245.64 356.3,-227.45 327.5,-218.62 269.71,-200.93 201,-196.89 150.51,-196.87"/>
<polygon fill="#63b8ff" stroke="#63b8ff" points="403.06,-261.82 413.24,-264.77 407.12,-256.12 403.06,-261.82"/>
</a>
</g>
</g>
<!-- Node17&#45;&gt;Node8 -->
<g id="edge32_Node000017_Node000008" class="edge">
<title>Node17&#45;&gt;Node8</title>
<g id="a_edge32_Node000017_Node000008"><a xlink:title=" ">
<path fill="none" stroke="#63b8ff" d="M406.55,-292.38C387.15,-307.04 356.95,-327.79 327.5,-339.62 270.2,-362.65 200.98,-375.16 150.19,-381.76"/>
<polygon fill="#63b8ff" stroke="#63b8ff" points="408.42,-295.35 414.2,-286.47 404.14,-289.81 408.42,-295.35"/>
</a>
</g>
</g>
<!-- Node17&#45;&gt;Node9 -->
<g id="edge33_Node000017_Node000009" class="edge">
<title>Node17&#45;&gt;Node9</title>
<g id="a_edge33_Node000017_Node000009"><a xlink:title=" ">
<path fill="none" stroke="#63b8ff" d="M418.98,-255.38C404.93,-224.87 373.78,-167.98 327.5,-142.62 273.26,-112.91 202.12,-110.46 149.88,-114.09"/>
<polygon fill="#63b8ff" stroke="#63b8ff" points="415.66,-256.54 422.91,-264.27 422.07,-253.71 415.66,-256.54"/>
</a>
</g>
</g>
<!-- Node17&#45;&gt;Node10 -->
<g id="edge34_Node000017_Node000010" class="edge">
<title>Node17&#45;&gt;Node10</title>
<g id="a_edge34_Node000017_Node000010"><a xlink:title=" ">
<path fill="none" stroke="#63b8ff" d="M424.38,-254.3C416.76,-210.62 392.75,-111.3 327.5,-66.62 269.34,-26.8 184.55,-29.98 130.62,-37.56"/>
<polygon fill="#63b8ff" stroke="#63b8ff" points="420.9,-254.7 425.95,-264.01 427.81,-253.58 420.9,-254.7"/>
</a>
</g>
</g>
<!-- Node17&#45;&gt;Node11 -->
<g id="edge35_Node000017_Node000011" class="edge">
<title>Node17&#45;&gt;Node11</title>
<g id="a_edge35_Node000017_Node000011"><a xlink:title=" ">
<path fill="none" stroke="#63b8ff" d="M393.08,-289.81C374.02,-297.2 349.75,-305.88 327.5,-311.62 271.04,-326.2 205.92,-336.45 156.53,-342.92"/>
<polygon fill="#63b8ff" stroke="#63b8ff" points="394.22,-293.12 402.24,-286.19 391.65,-286.61 394.22,-293.12"/>
</a>
</g>
</g>
<!-- Node17&#45;&gt;Node12 -->
<g id="edge36_Node000017_Node000012" class="edge">
<title>Node17&#45;&gt;Node12</title>
<g id="a_edge36_Node000017_Node000012"><a xlink:title=" ">
<path fill="none" stroke="#63b8ff" d="M381.13,-282.54C364.26,-284.94 345.04,-287.55 327.5,-289.62 270.17,-296.4 205.23,-302.63 156.14,-307.04"/>
<polygon fill="#63b8ff" stroke="#63b8ff" points="381.48,-286.02 390.88,-281.13 380.48,-279.1 381.48,-286.02"/>
</a>
</g>
</g>
<!-- Node17&#45;&gt;Node13 -->
<g id="edge37_Node000017_Node000013" class="edge">
<title>Node17&#45;&gt;Node13</title>
<g id="a_edge37_Node000017_Node000013"><a xlink:title=" ">
<path fill="none" stroke="#63b8ff" d="M409.24,-294C395.27,-308.83 376.3,-330.76 363.5,-352.62 340.9,-391.23 361.5,-417.54 327.5,-446.62 301.99,-468.44 218.98,-483.06 155.88,-491.32"/>
<polygon fill="#63b8ff" stroke="#63b8ff" points="411.72,-296.47 416.13,-286.84 406.68,-291.61 411.72,-296.47"/>
</a>
</g>
</g>
<!-- Node18 -->
<g id="Node000018" class="node">
<title>Node18</title>
<g id="a_Node000018"><a xlink:href="slave_8impl_8h.html#a384f75966903cc0c249eb68a6a20180e" target="_top" xlink:title="Builds an exception PDU.">
<polygon fill="white" stroke="#666666" points="327.5,-551.25 192.25,-551.25 192.25,-532 327.5,-532 327.5,-551.25"/>
<text text-anchor="middle" x="259.88" y="-537.75" font-family="Helvetica,sans-Serif" font-size="10.00">modbusBuildExceptionPDU</text>
</a>
</g>
</g>
<!-- Node17&#45;&gt;Node18 -->
<g id="edge22_Node000017_Node000018" class="edge">
<title>Node17&#45;&gt;Node18</title>
<g id="a_edge22_Node000017_Node000018"><a xlink:title=" ">
<path fill="none" stroke="#63b8ff" d="M408.46,-293.34C393.96,-307.89 374.66,-329.77 363.5,-352.62 330.57,-420.08 376.99,-461.19 327.5,-517.62 322.23,-523.63 315.34,-528.14 308,-531.51"/>
<polygon fill="#63b8ff" stroke="#63b8ff" points="410.53,-296.2 415.26,-286.72 405.65,-291.19 410.53,-296.2"/>
</a>
</g>
</g>
<!-- Node19 -->
<g id="Node000019" class="node">
<title>Node19</title>
<g id="a_Node000019"><a xlink:href="slave_8impl_8h.html#a1da09df8858b91c61fe02c25783c2946" target="_top" xlink:title="Builds a Modbus RTU exception.">
<polygon fill="white" stroke="#666666" points="327.12,-247.25 192.62,-247.25 192.62,-228 327.12,-228 327.12,-247.25"/>
<text text-anchor="middle" x="259.88" y="-233.75" font-family="Helvetica,sans-Serif" font-size="10.00">modbusBuildExceptionRTU</text>
</a>
</g>
</g>
<!-- Node17&#45;&gt;Node19 -->
<g id="edge24_Node000017_Node000019" class="edge">
<title>Node17&#45;&gt;Node19</title>
<g id="a_edge24_Node000017_Node000019"><a xlink:title=" ">
<path fill="none" stroke="#63b8ff" d="M381.64,-265.17C357.73,-259.71 328.63,-253.08 304.98,-247.68"/>
<polygon fill="#63b8ff" stroke="#63b8ff" points="380.57,-268.51 391.09,-267.32 382.12,-261.69 380.57,-268.51"/>
</a>
</g>
</g>
<!-- Node20 -->
<g id="Node000020" class="node">
<title>Node20</title>
<g id="a_Node000020"><a xlink:href="slave_8impl_8h.html#a778e65356f7da66831f18ec53b975383" target="_top" xlink:title="Builds a Modbus TCP exception.">
<polygon fill="white" stroke="#666666" points="326.75,-171.25 193,-171.25 193,-152 326.75,-152 326.75,-171.25"/>
<text text-anchor="middle" x="259.88" y="-157.75" font-family="Helvetica,sans-Serif" font-size="10.00">modbusBuildExceptionTCP</text>
</a>
</g>
</g>
<!-- Node17&#45;&gt;Node20 -->
<g id="edge26_Node000017_Node000020" class="edge">
<title>Node17&#45;&gt;Node20</title>
<g id="a_edge26_Node000017_Node000020"><a xlink:title=" ">
<path fill="none" stroke="#63b8ff" d="M411.32,-257.33C392.8,-237.33 360.7,-205.49 327.5,-185.62 318.01,-179.94 306.95,-175.29 296.61,-171.64"/>
<polygon fill="#63b8ff" stroke="#63b8ff" points="408.5,-259.43 417.82,-264.48 413.69,-254.72 408.5,-259.43"/>
</a>
</g>
</g>
<!-- Node21 -->
<g id="Node000021" class="node">
<title>Node21</title>
<g id="a_Node000021"><a xlink:href="slave_8impl_8h.html#a6a1e63faa64b7ca4b91d1ce7988be850" target="_top" xlink:title="Parses provided Modbus RTU request frame and generates a Modbus RTU response.">
<polygon fill="white" stroke="#666666" points="326,-95.25 193.75,-95.25 193.75,-76 326,-76 326,-95.25"/>
<text text-anchor="middle" x="259.88" y="-81.75" font-family="Helvetica,sans-Serif" font-size="10.00">modbusParseRequestRTU</text>
</a>
</g>
</g>
<!-- Node17&#45;&gt;Node21 -->
<g id="edge28_Node000017_Node000021" class="edge">
<title>Node17&#45;&gt;Node21</title>
<g id="a_edge28_Node000017_Node000021"><a xlink:title=" ">
<path fill="none" stroke="#63b8ff" d="M420.4,-255.12C407.36,-220.35 376.36,-149.72 327.5,-109.62 320.28,-103.7 311.47,-99.17 302.66,-95.74"/>
<polygon fill="#63b8ff" stroke="#63b8ff" points="417.06,-256.17 423.75,-264.39 423.64,-253.8 417.06,-256.17"/>
</a>
</g>
</g>
<!-- Node22 -->
<g id="Node000022" class="node">
<title>Node22</title>
<g id="a_Node000022"><a xlink:href="slave_8impl_8h.html#a5ad3fe86aa14f8982d7c459c68cd8b3e" target="_top" xlink:title="Parses provided Modbus TCP request frame and generates a Modbus TCP response.">
<polygon fill="white" stroke="#666666" points="325.62,-19.25 194.12,-19.25 194.12,0 325.62,0 325.62,-19.25"/>
<text text-anchor="middle" x="259.88" y="-5.75" font-family="Helvetica,sans-Serif" font-size="10.00">modbusParseRequestTCP</text>
</a>
</g>
</g>
<!-- Node17&#45;&gt;Node22 -->
<g id="edge30_Node000017_Node000022" class="edge">
<title>Node17&#45;&gt;Node22</title>
<g id="a_edge30_Node000017_Node000022"><a xlink:title=" ">
<path fill="none" stroke="#63b8ff" d="M424.6,-254.45C417.13,-207.98 393.01,-96.19 327.5,-33.62 321.19,-27.6 313.25,-23.07 305.08,-19.67"/>
<polygon fill="#63b8ff" stroke="#63b8ff" points="421.12,-254.87 426.06,-264.24 428.04,-253.83 421.12,-254.87"/>
</a>
</g>
</g>
<!-- Node18&#45;&gt;Node4 -->
<g id="edge23_Node000018_Node000004" class="edge">
<title>Node18&#45;&gt;Node4</title>
<g id="a_edge23_Node000018_Node000004"><a xlink:title=" ">
<path fill="none" stroke="#63b8ff" d="M180.6,-539.45C170.84,-539.18 160.9,-538.9 151.24,-538.63"/>
<polygon fill="#63b8ff" stroke="#63b8ff" points="180.34,-542.94 190.43,-539.72 180.53,-535.94 180.34,-542.94"/>
</a>
</g>
</g>
<!-- Node19&#45;&gt;Node5 -->
<g id="edge25_Node000019_Node000005" class="edge">
<title>Node19&#45;&gt;Node5</title>
<g id="a_edge25_Node000019_Node000005"><a xlink:title=" ">
<path fill="none" stroke="#63b8ff" d="M200.16,-250.04C176.37,-255.07 149.26,-260.8 126.73,-265.56"/>
<polygon fill="#63b8ff" stroke="#63b8ff" points="200.64,-253.51 209.7,-248.02 199.19,-246.67 200.64,-253.51"/>
</a>
</g>
</g>
<!-- Node20&#45;&gt;Node6 -->
<g id="edge27_Node000020_Node000006" class="edge">
<title>Node20&#45;&gt;Node6</title>
<g id="a_edge27_Node000020_Node000006"><a xlink:title=" ">
<path fill="none" stroke="#63b8ff" d="M200.16,-174.04C176.37,-179.07 149.26,-184.8 126.73,-189.56"/>
<polygon fill="#63b8ff" stroke="#63b8ff" points="200.64,-177.51 209.7,-172.02 199.19,-170.67 200.64,-177.51"/>
</a>
</g>
</g>
<!-- Node21&#45;&gt;Node9 -->
<g id="edge29_Node000021_Node000009" class="edge">
<title>Node21&#45;&gt;Node9</title>
<g id="a_edge29_Node000021_Node000009"><a xlink:title=" ">
<path fill="none" stroke="#63b8ff" d="M200.16,-98.04C176.37,-103.07 149.26,-108.8 126.73,-113.56"/>
<polygon fill="#63b8ff" stroke="#63b8ff" points="200.64,-101.51 209.7,-96.02 199.19,-94.67 200.64,-101.51"/>
</a>
</g>
</g>
<!-- Node22&#45;&gt;Node10 -->
<g id="edge31_Node000022_Node000010" class="edge">
<title>Node22&#45;&gt;Node10</title>
<g id="a_edge31_Node000022_Node000010"><a xlink:title=" ">
<path fill="none" stroke="#63b8ff" d="M200.16,-22.04C176.37,-27.07 149.26,-32.8 126.73,-37.56"/>
<polygon fill="#63b8ff" stroke="#63b8ff" points="200.64,-25.51 209.7,-20.02 199.19,-18.67 200.64,-25.51"/>
</a>
</g>
</g>
</g>
</svg>
