<?xml version="1.0" encoding="UTF-8" standalone="no"?>
<!DOCTYPE svg PUBLIC "-//W3C//DTD SVG 1.1//EN"
 "http://www.w3.org/Graphics/SVG/1.1/DTD/svg11.dtd">
<!-- Generated by graphviz version 9.0.0 (20230911.1827)
 -->
<!-- Title: modbusBufferInit Pages: 1 -->
<svg width="361pt" height="64pt"
 viewBox="0.00 0.00 361.25 64.25" xmlns="http://www.w3.org/2000/svg" xmlns:xlink="http://www.w3.org/1999/xlink">
<g id="graph0" class="graph" transform="scale(1 1) rotate(0) translate(4 60.25)">
<title>modbusBufferInit</title>
<!-- Node1 -->
<g id="Node000001" class="node">
<title>Node1</title>
<g id="a_Node000001"><a xlink:title="Initializes a buffer for use.">
<polygon fill="#999999" stroke="#666666" points="353.25,-37.25 263.75,-37.25 263.75,-18 353.25,-18 353.25,-37.25"/>
<text text-anchor="middle" x="308.5" y="-23.75" font-family="Helvetica,sans-Serif" font-size="10.00">modbusBufferInit</text>
</a>
</g>
</g>
<!-- Node2 -->
<g id="Node000002" class="node">
<title>Node2</title>
<g id="a_Node000002"><a xlink:href="master_8impl_8h.html#af3c4b8930f540697662dfdb0788f38ef" target="_top" xlink:title="Initializes a ModbusMaster struct.">
<polygon fill="white" stroke="#666666" points="227.75,-56.25 133.75,-56.25 133.75,-37 227.75,-37 227.75,-56.25"/>
<text text-anchor="middle" x="180.75" y="-42.75" font-family="Helvetica,sans-Serif" font-size="10.00">modbusMasterInit</text>
</a>
</g>
</g>
<!-- Node1&#45;&gt;Node2 -->
<g id="edge1_Node000001_Node000002" class="edge">
<title>Node1&#45;&gt;Node2</title>
<g id="a_edge1_Node000001_Node000002"><a xlink:title=" ">
<path fill="none" stroke="#63b8ff" d="M252.27,-35.97C244.18,-37.19 235.93,-38.44 228.06,-39.63"/>
<polygon fill="#63b8ff" stroke="#63b8ff" points="252.66,-39.45 262.02,-34.5 251.61,-32.53 252.66,-39.45"/>
</a>
</g>
</g>
<!-- Node4 -->
<g id="Node000004" class="node">
<title>Node4</title>
<g id="a_Node000004"><a xlink:href="slave_8impl_8h.html#a2c30507da9547125c17f62e0e18d9194" target="_top" xlink:title="Initializes slave device.">
<polygon fill="white" stroke="#666666" points="225.12,-19.25 136.38,-19.25 136.38,0 225.12,0 225.12,-19.25"/>
<text text-anchor="middle" x="180.75" y="-5.75" font-family="Helvetica,sans-Serif" font-size="10.00">modbusSlaveInit</text>
</a>
</g>
</g>
<!-- Node1&#45;&gt;Node4 -->
<g id="edge3_Node000001_Node000004" class="edge">
<title>Node1&#45;&gt;Node4</title>
<g id="a_edge3_Node000001_Node000004"><a xlink:title=" ">
<path fill="none" stroke="#63b8ff" d="M252.32,-19.73C243.34,-18.44 234.15,-17.13 225.49,-15.89"/>
<polygon fill="#63b8ff" stroke="#63b8ff" points="251.63,-23.16 262.02,-21.11 252.62,-16.23 251.63,-23.16"/>
</a>
</g>
</g>
<!-- Node3 -->
<g id="Node000003" class="node">
<title>Node3</title>
<g id="a_Node000003"><a xlink:href="classllm_1_1Master.html#ac2e598f20d2c576e74590d461cf75f97" target="_top" xlink:title=" ">
<polygon fill="white" stroke="#666666" points="97.75,-56.25 0,-56.25 0,-37 97.75,-37 97.75,-56.25"/>
<text text-anchor="middle" x="48.88" y="-42.75" font-family="Helvetica,sans-Serif" font-size="10.00">llm::Master::Master</text>
</a>
</g>
</g>
<!-- Node2&#45;&gt;Node3 -->
<g id="edge2_Node000002_Node000003" class="edge">
<title>Node2&#45;&gt;Node3</title>
<g id="a_edge2_Node000002_Node000003"><a xlink:title=" ">
<path fill="none" stroke="#63b8ff" d="M122.31,-46.62C114.22,-46.62 105.97,-46.62 98.08,-46.62"/>
<polygon fill="#63b8ff" stroke="#63b8ff" points="122.08,-50.13 132.08,-46.63 122.08,-43.13 122.08,-50.13"/>
</a>
</g>
</g>
<!-- Node5 -->
<g id="Node000005" class="node">
<title>Node5</title>
<g id="a_Node000005"><a xlink:href="classllm_1_1Slave.html#a6824a1d0fcfd26d8bedaa934f0abcf39" target="_top" xlink:title=" ">
<polygon fill="white" stroke="#666666" points="92.5,-19.25 5.25,-19.25 5.25,0 92.5,0 92.5,-19.25"/>
<text text-anchor="middle" x="48.88" y="-5.75" font-family="Helvetica,sans-Serif" font-size="10.00">llm::Slave::Slave</text>
</a>
</g>
</g>
<!-- Node4&#45;&gt;Node5 -->
<g id="edge4_Node000004_Node000005" class="edge">
<title>Node4&#45;&gt;Node5</title>
<g id="a_edge4_Node000004_Node000005"><a xlink:title=" ">
<path fill="none" stroke="#63b8ff" d="M124.73,-9.62C114.02,-9.62 102.95,-9.62 92.71,-9.62"/>
<polygon fill="#63b8ff" stroke="#63b8ff" points="124.63,-13.13 134.63,-9.63 124.63,-6.13 124.63,-13.13"/>
</a>
</g>
</g>
</g>
</svg>
