<?xml version="1.0" encoding="UTF-8" standalone="no"?>
<!DOCTYPE svg PUBLIC "-//W3C//DTD SVG 1.1//EN"
 "http://www.w3.org/Graphics/SVG/1.1/DTD/svg11.dtd">
<!-- Generated by graphviz version 9.0.0 (20230911.1827)
 -->
<!-- Title: modbusCRC Pages: 1 -->
<svg width="587pt" height="138pt"
 viewBox="0.00 0.00 586.50 138.25" xmlns="http://www.w3.org/2000/svg" xmlns:xlink="http://www.w3.org/1999/xlink">
<g id="graph0" class="graph" transform="scale(1 1) rotate(0) translate(4 134.25)">
<title>modbusCRC</title>
<!-- Node1 -->
<g id="Node000001" class="node">
<title>Node1</title>
<g id="a_Node000001"><a xlink:title="Calculates 16&#45;bit Modbus CRC of provided data.">
<polygon fill="#999999" stroke="#666666" points="578.5,-74.25 507.75,-74.25 507.75,-55 578.5,-55 578.5,-74.25"/>
<text text-anchor="middle" x="543.12" y="-60.75" font-family="Helvetica,sans-Serif" font-size="10.00">modbusCRC</text>
</a>
</g>
</g>
<!-- Node2 -->
<g id="Node000002" class="node">
<title>Node2</title>
<g id="a_Node000002"><a xlink:href="base_8h.html#af2cafe9debf86bea7042b4c40bb288cd" target="_top" xlink:title="Sets up address and CRC in a Modbus RTU frame.">
<polygon fill="white" stroke="#666666" points="466.12,-93.25 372.88,-93.25 372.88,-74 466.12,-74 466.12,-93.25"/>
<text text-anchor="middle" x="419.5" y="-79.75" font-family="Helvetica,sans-Serif" font-size="10.00">modbusPackRTU</text>
</a>
</g>
</g>
<!-- Node1&#45;&gt;Node2 -->
<g id="edge1_Node000001_Node000002" class="edge">
<title>Node1&#45;&gt;Node2</title>
<g id="a_edge1_Node000001_Node000002"><a xlink:title=" ">
<path fill="none" stroke="#63b8ff" d="M496.11,-71.81C486.34,-73.34 476.02,-74.95 466.25,-76.48"/>
<polygon fill="#63b8ff" stroke="#63b8ff" points="496.44,-75.3 505.78,-70.3 495.36,-68.39 496.44,-75.3"/>
</a>
</g>
</g>
<!-- Node8 -->
<g id="Node000008" class="node">
<title>Node8</title>
<g id="a_Node000008"><a xlink:href="base_8h.html#a4dba88e9baf690b8dafa0fad81eb7d07" target="_top" xlink:title="Unpacks data from a Modbus RTU frame and optionally checks CRC.">
<polygon fill="white" stroke="#666666" points="471.75,-56.25 367.25,-56.25 367.25,-37 471.75,-37 471.75,-56.25"/>
<text text-anchor="middle" x="419.5" y="-42.75" font-family="Helvetica,sans-Serif" font-size="10.00">modbusUnpackRTU</text>
</a>
</g>
</g>
<!-- Node1&#45;&gt;Node8 -->
<g id="edge7_Node000001_Node000008" class="edge">
<title>Node1&#45;&gt;Node8</title>
<g id="a_edge7_Node000001_Node000008"><a xlink:title=" ">
<path fill="none" stroke="#63b8ff" d="M496.11,-57.82C488.28,-56.66 480.1,-55.45 472.13,-54.27"/>
<polygon fill="#63b8ff" stroke="#63b8ff" points="495.37,-61.24 505.77,-59.25 496.4,-54.32 495.37,-61.24"/>
</a>
</g>
</g>
<!-- Node3 -->
<g id="Node000003" class="node">
<title>Node3</title>
<g id="a_Node000003"><a xlink:href="slave_8impl_8h.html#a1da09df8858b91c61fe02c25783c2946" target="_top" xlink:title="Builds a Modbus RTU exception.">
<polygon fill="white" stroke="#666666" points="328.62,-130.25 194.12,-130.25 194.12,-111 328.62,-111 328.62,-130.25"/>
<text text-anchor="middle" x="261.38" y="-116.75" font-family="Helvetica,sans-Serif" font-size="10.00">modbusBuildExceptionRTU</text>
</a>
</g>
</g>
<!-- Node2&#45;&gt;Node3 -->
<g id="edge2_Node000002_Node000003" class="edge">
<title>Node2&#45;&gt;Node3</title>
<g id="a_edge2_Node000002_Node000003"><a xlink:title=" ">
<path fill="none" stroke="#63b8ff" d="M364.65,-96.39C345.14,-101.01 323.39,-106.16 304.99,-110.53"/>
<polygon fill="#63b8ff" stroke="#63b8ff" points="365.44,-99.8 374.37,-94.08 363.83,-92.98 365.44,-99.8"/>
</a>
</g>
</g>
<!-- Node5 -->
<g id="Node000005" class="node">
<title>Node5</title>
<g id="a_Node000005"><a xlink:href="master_8impl_8h.html#a4623d6d41d5e4a148e399fe19051183c" target="_top" xlink:title="Finalizes a Modbus RTU request.">
<polygon fill="white" stroke="#666666" points="323,-93.25 199.75,-93.25 199.75,-74 323,-74 323,-93.25"/>
<text text-anchor="middle" x="261.38" y="-79.75" font-family="Helvetica,sans-Serif" font-size="10.00">modbusEndRequestRTU</text>
</a>
</g>
</g>
<!-- Node2&#45;&gt;Node5 -->
<g id="edge4_Node000002_Node000005" class="edge">
<title>Node2&#45;&gt;Node5</title>
<g id="a_edge4_Node000002_Node000005"><a xlink:title=" ">
<path fill="none" stroke="#63b8ff" d="M361.02,-83.62C348.76,-83.62 335.77,-83.62 323.39,-83.62"/>
<polygon fill="#63b8ff" stroke="#63b8ff" points="360.99,-87.13 370.99,-83.63 360.99,-80.13 360.99,-87.13"/>
</a>
</g>
</g>
<!-- Node6 -->
<g id="Node000006" class="node">
<title>Node6</title>
<g id="a_Node000006"><a xlink:href="slave_8impl_8h.html#a6a1e63faa64b7ca4b91d1ce7988be850" target="_top" xlink:title="Parses provided Modbus RTU request frame and generates a Modbus RTU response.">
<polygon fill="white" stroke="#666666" points="327.5,-56.25 195.25,-56.25 195.25,-37 327.5,-37 327.5,-56.25"/>
<text text-anchor="middle" x="261.38" y="-42.75" font-family="Helvetica,sans-Serif" font-size="10.00">modbusParseRequestRTU</text>
</a>
</g>
</g>
<!-- Node2&#45;&gt;Node6 -->
<g id="edge5_Node000002_Node000006" class="edge">
<title>Node2&#45;&gt;Node6</title>
<g id="a_edge5_Node000002_Node000006"><a xlink:title=" ">
<path fill="none" stroke="#63b8ff" d="M364.65,-70.86C345.14,-66.24 323.39,-61.09 304.99,-56.72"/>
<polygon fill="#63b8ff" stroke="#63b8ff" points="363.83,-74.27 374.37,-73.17 365.44,-67.45 363.83,-74.27"/>
</a>
</g>
</g>
<!-- Node4 -->
<g id="Node000004" class="node">
<title>Node4</title>
<g id="a_Node000004"><a xlink:href="classllm_1_1Slave.html#a10e79600053c725e639225264d966e63" target="_top" xlink:title=" ">
<polygon fill="white" stroke="#666666" points="150.25,-130.25 5.25,-130.25 5.25,-111 150.25,-111 150.25,-130.25"/>
<text text-anchor="middle" x="77.75" y="-116.75" font-family="Helvetica,sans-Serif" font-size="10.00">llm::Slave::buildExceptionRTU</text>
</a>
</g>
</g>
<!-- Node3&#45;&gt;Node4 -->
<g id="edge3_Node000003_Node000004" class="edge">
<title>Node3&#45;&gt;Node4</title>
<g id="a_edge3_Node000003_Node000004"><a xlink:title=" ">
<path fill="none" stroke="#63b8ff" d="M182.41,-120.62C171.83,-120.62 161.01,-120.62 150.54,-120.62"/>
<polygon fill="#63b8ff" stroke="#63b8ff" points="182.26,-124.13 192.26,-120.63 182.26,-117.13 182.26,-124.13"/>
</a>
</g>
</g>
<!-- Node7 -->
<g id="Node000007" class="node">
<title>Node7</title>
<g id="a_Node000007"><a xlink:href="classllm_1_1Slave.html#a001591b9a38b69cf29adc853872a09fe" target="_top" xlink:title=" ">
<polygon fill="white" stroke="#666666" points="149.12,-56.25 6.38,-56.25 6.38,-37 149.12,-37 149.12,-56.25"/>
<text text-anchor="middle" x="77.75" y="-42.75" font-family="Helvetica,sans-Serif" font-size="10.00">llm::Slave::parseRequestRTU</text>
</a>
</g>
</g>
<!-- Node6&#45;&gt;Node7 -->
<g id="edge6_Node000006_Node000007" class="edge">
<title>Node6&#45;&gt;Node7</title>
<g id="a_edge6_Node000006_Node000007"><a xlink:title=" ">
<path fill="none" stroke="#63b8ff" d="M183.6,-46.62C172.27,-46.62 160.64,-46.62 149.44,-46.62"/>
<polygon fill="#63b8ff" stroke="#63b8ff" points="183.29,-50.13 193.29,-46.63 183.29,-43.13 183.29,-50.13"/>
</a>
</g>
</g>
<!-- Node8&#45;&gt;Node6 -->
<g id="edge8_Node000008_Node000006" class="edge">
<title>Node8&#45;&gt;Node6</title>
<g id="a_edge8_Node000008_Node000006"><a xlink:title=" ">
<path fill="none" stroke="#63b8ff" d="M355.56,-46.62C346.42,-46.62 336.99,-46.62 327.8,-46.62"/>
<polygon fill="#63b8ff" stroke="#63b8ff" points="355.43,-50.13 365.43,-46.63 355.43,-43.13 355.43,-50.13"/>
</a>
</g>
</g>
<!-- Node9 -->
<g id="Node000009" class="node">
<title>Node9</title>
<g id="a_Node000009"><a xlink:href="master_8impl_8h.html#a151b85c221ae43804856eb92737498e5" target="_top" xlink:title="Parses a Modbus RTU slave response.">
<polygon fill="white" stroke="#666666" points="331.25,-19.25 191.5,-19.25 191.5,0 331.25,0 331.25,-19.25"/>
<text text-anchor="middle" x="261.38" y="-5.75" font-family="Helvetica,sans-Serif" font-size="10.00">modbusParseResponseRTU</text>
</a>
</g>
</g>
<!-- Node8&#45;&gt;Node9 -->
<g id="edge9_Node000008_Node000009" class="edge">
<title>Node8&#45;&gt;Node9</title>
<g id="a_edge9_Node000008_Node000009"><a xlink:title=" ">
<path fill="none" stroke="#63b8ff" d="M364.65,-33.86C345.14,-29.24 323.39,-24.09 304.99,-19.72"/>
<polygon fill="#63b8ff" stroke="#63b8ff" points="363.83,-37.27 374.37,-36.17 365.44,-30.45 363.83,-37.27"/>
</a>
</g>
</g>
<!-- Node10 -->
<g id="Node000010" class="node">
<title>Node10</title>
<g id="a_Node000010"><a xlink:href="classllm_1_1Master.html#ab052e172e96808744ee43a8eff80b679" target="_top" xlink:title=" ">
<polygon fill="white" stroke="#666666" points="155.5,-19.25 0,-19.25 0,0 155.5,0 155.5,-19.25"/>
<text text-anchor="middle" x="77.75" y="-5.75" font-family="Helvetica,sans-Serif" font-size="10.00">llm::Master::parseResponseRTU</text>
</a>
</g>
</g>
<!-- Node9&#45;&gt;Node10 -->
<g id="edge10_Node000009_Node000010" class="edge">
<title>Node9&#45;&gt;Node10</title>
<g id="a_edge10_Node000009_Node000010"><a xlink:title=" ">
<path fill="none" stroke="#63b8ff" d="M179.71,-9.62C171.81,-9.62 163.8,-9.62 155.93,-9.62"/>
<polygon fill="#63b8ff" stroke="#63b8ff" points="179.68,-13.13 189.68,-9.63 179.68,-6.13 179.68,-13.13"/>
</a>
</g>
</g>
</g>
</svg>
