<?xml version="1.0" encoding="UTF-8" standalone="no"?>
<!DOCTYPE svg PUBLIC "-//W3C//DTD SVG 1.1//EN"
 "http://www.w3.org/Graphics/SVG/1.1/DTD/svg11.dtd">
<!-- Generated by graphviz version 9.0.0 (20230911.1827)
 -->
<!-- Title: modbusBufferModePDU Pages: 1 -->
<svg width="478pt" height="64pt"
 viewBox="0.00 0.00 477.50 64.25" xmlns="http://www.w3.org/2000/svg" xmlns:xlink="http://www.w3.org/1999/xlink">
<g id="graph0" class="graph" transform="scale(1 1) rotate(0) translate(4 60.25)">
<title>modbusBufferModePDU</title>
<!-- Node1 -->
<g id="Node000001" class="node">
<title>Node1</title>
<g id="a_Node000001"><a xlink:title="Prepares buffer to only store a Modbus PDU.">
<polygon fill="#999999" stroke="#666666" points="469.5,-37.25 348.5,-37.25 348.5,-18 469.5,-18 469.5,-37.25"/>
<text text-anchor="middle" x="409" y="-23.75" font-family="Helvetica,sans-Serif" font-size="10.00">modbusBufferModePDU</text>
</a>
</g>
</g>
<!-- Node2 -->
<g id="Node000002" class="node">
<title>Node2</title>
<g id="a_Node000002"><a xlink:href="master_8impl_8h.html#ad71d034901cd8e22b4d74da7f86cdda9" target="_top" xlink:title="Begins a PDU&#45;only request.">
<polygon fill="white" stroke="#666666" points="312.12,-56.25 179.88,-56.25 179.88,-37 312.12,-37 312.12,-56.25"/>
<text text-anchor="middle" x="246" y="-42.75" font-family="Helvetica,sans-Serif" font-size="10.00">modbusBeginRequestPDU</text>
</a>
</g>
</g>
<!-- Node1&#45;&gt;Node2 -->
<g id="edge1_Node000001_Node000002" class="edge">
<title>Node1&#45;&gt;Node2</title>
<g id="a_edge1_Node000001_Node000002"><a xlink:title=" ">
<path fill="none" stroke="#63b8ff" d="M336.73,-36.04C328.64,-36.99 320.42,-37.96 312.41,-38.91"/>
<polygon fill="#63b8ff" stroke="#63b8ff" points="337.03,-39.53 346.55,-34.88 336.21,-32.57 337.03,-39.53"/>
</a>
</g>
</g>
<!-- Node3 -->
<g id="Node000003" class="node">
<title>Node3</title>
<g id="a_Node000003"><a xlink:href="slave_8impl_8h.html#ab5c5f3146a46cf8d221aca22e9c8a052" target="_top" xlink:title="Parses provided PDU and generates PDU for the response frame.">
<polygon fill="white" stroke="#666666" points="312.5,-19.25 179.5,-19.25 179.5,0 312.5,0 312.5,-19.25"/>
<text text-anchor="middle" x="246" y="-5.75" font-family="Helvetica,sans-Serif" font-size="10.00">modbusParseRequestPDU</text>
</a>
</g>
</g>
<!-- Node1&#45;&gt;Node3 -->
<g id="edge2_Node000001_Node000003" class="edge">
<title>Node1&#45;&gt;Node3</title>
<g id="a_edge2_Node000001_Node000003"><a xlink:title=" ">
<path fill="none" stroke="#63b8ff" d="M336.63,-19.65C328.75,-18.76 320.76,-17.87 312.95,-17"/>
<polygon fill="#63b8ff" stroke="#63b8ff" points="336.22,-23.12 346.55,-20.75 337,-16.16 336.22,-23.12"/>
</a>
</g>
</g>
<!-- Node4 -->
<g id="Node000004" class="node">
<title>Node4</title>
<g id="a_Node000004"><a xlink:href="classllm_1_1Slave.html#af8cc9d8d58bf7f632f3f3cf7e6b9c84b" target="_top" xlink:title=" ">
<polygon fill="white" stroke="#666666" points="143.5,-19.25 0,-19.25 0,0 143.5,0 143.5,-19.25"/>
<text text-anchor="middle" x="71.75" y="-5.75" font-family="Helvetica,sans-Serif" font-size="10.00">llm::Slave::parseRequestPDU</text>
</a>
</g>
</g>
<!-- Node3&#45;&gt;Node4 -->
<g id="edge3_Node000003_Node000004" class="edge">
<title>Node3&#45;&gt;Node4</title>
<g id="a_edge3_Node000003_Node000004"><a xlink:title=" ">
<path fill="none" stroke="#63b8ff" d="M168.11,-9.62C160.06,-9.62 151.9,-9.62 143.92,-9.62"/>
<polygon fill="#63b8ff" stroke="#63b8ff" points="167.87,-13.13 177.87,-9.63 167.87,-6.13 167.87,-13.13"/>
</a>
</g>
</g>
</g>
</svg>
