<?xml version="1.0" encoding="UTF-8" standalone="no"?>
<!DOCTYPE svg PUBLIC "-//W3C//DTD SVG 1.1//EN"
 "http://www.w3.org/Graphics/SVG/1.1/DTD/svg11.dtd">
<!-- Generated by graphviz version 9.0.0 (20230911.1827)
 -->
<!-- Title: modbusCheckRangeU16 Pages: 1 -->
<svg width="484pt" height="304pt"
 viewBox="0.00 0.00 484.25 304.25" xmlns="http://www.w3.org/2000/svg" xmlns:xlink="http://www.w3.org/1999/xlink">
<g id="graph0" class="graph" transform="scale(1 1) rotate(0) translate(4 300.25)">
<title>modbusCheckRangeU16</title>
<!-- Node1 -->
<g id="Node000001" class="node">
<title>Node1</title>
<g id="a_Node000001"><a xlink:title="Checks whether provided address range causes an uint16_t overflow.">
<polygon fill="#999999" stroke="#666666" points="476.25,-130.25 352.25,-130.25 352.25,-111 476.25,-111 476.25,-130.25"/>
<text text-anchor="middle" x="414.25" y="-116.75" font-family="Helvetica,sans-Serif" font-size="10.00">modbusCheckRangeU16</text>
</a>
</g>
</g>
<!-- Node2 -->
<g id="Node000002" class="node">
<title>Node2</title>
<g id="a_Node000002"><a xlink:href="master__func_8impl_8h.html#ad3a6d4576d762da3eb0bd73aa5bb24fe" target="_top" xlink:title="Read mutiple coils/discrete inputs/holding registers/input registers.">
<polygon fill="white" stroke="#666666" points="310.62,-241.25 160.38,-241.25 160.38,-222 310.62,-222 310.62,-241.25"/>
<text text-anchor="middle" x="235.5" y="-227.75" font-family="Helvetica,sans-Serif" font-size="10.00">modbusBuildRequest01020304</text>
</a>
</g>
</g>
<!-- Node1&#45;&gt;Node2 -->
<g id="edge1_Node000001_Node000002" class="edge">
<title>Node1&#45;&gt;Node2</title>
<g id="a_edge1_Node000001_Node000002"><a xlink:title=" ">
<path fill="none" stroke="#63b8ff" d="M399.05,-139.37C381.85,-160.72 350.82,-195.04 316.25,-213.62 310.37,-216.78 303.97,-219.39 297.42,-221.54"/>
<polygon fill="#63b8ff" stroke="#63b8ff" points="401.6,-141.8 405.02,-131.77 396.09,-137.48 401.6,-141.8"/>
</a>
</g>
</g>
<!-- Node7 -->
<g id="Node000007" class="node">
<title>Node7</title>
<g id="a_Node000007"><a xlink:href="master__func_8impl_8h.html#ae9842e659ccd8942905e685923de8916" target="_top" xlink:title="Write multiple coils.">
<polygon fill="white" stroke="#666666" points="294.88,-204.25 176.12,-204.25 176.12,-185 294.88,-185 294.88,-204.25"/>
<text text-anchor="middle" x="235.5" y="-190.75" font-family="Helvetica,sans-Serif" font-size="10.00">modbusBuildRequest15</text>
</a>
</g>
</g>
<!-- Node1&#45;&gt;Node7 -->
<g id="edge6_Node000001_Node000007" class="edge">
<title>Node1&#45;&gt;Node7</title>
<g id="a_edge6_Node000001_Node000007"><a xlink:title=" ">
<path fill="none" stroke="#63b8ff" d="M389.81,-136.87C370.77,-149.38 342.81,-166.24 316.25,-176.62 308.32,-179.73 299.72,-182.36 291.21,-184.58"/>
<polygon fill="#63b8ff" stroke="#63b8ff" points="391.54,-139.92 397.9,-131.45 387.64,-134.11 391.54,-139.92"/>
</a>
</g>
</g>
<!-- Node8 -->
<g id="Node000008" class="node">
<title>Node8</title>
<g id="a_Node000008"><a xlink:href="master__func_8impl_8h.html#aca022c438a427d8f4b03db4427c2b344" target="_top" xlink:title="Write multiple holding registers.">
<polygon fill="white" stroke="#666666" points="294.88,-167.25 176.12,-167.25 176.12,-148 294.88,-148 294.88,-167.25"/>
<text text-anchor="middle" x="235.5" y="-153.75" font-family="Helvetica,sans-Serif" font-size="10.00">modbusBuildRequest16</text>
</a>
</g>
</g>
<!-- Node1&#45;&gt;Node8 -->
<g id="edge7_Node000001_Node000008" class="edge">
<title>Node1&#45;&gt;Node8</title>
<g id="a_edge7_Node000001_Node000008"><a xlink:title=" ">
<path fill="none" stroke="#63b8ff" d="M353.83,-133.06C331.35,-137.77 306.07,-143.06 284.74,-147.53"/>
<polygon fill="#63b8ff" stroke="#63b8ff" points="354.4,-136.52 363.47,-131.05 352.97,-129.67 354.4,-136.52"/>
</a>
</g>
</g>
<!-- Node9 -->
<g id="Node000009" class="node">
<title>Node9</title>
<g id="a_Node000009"><a xlink:href="slave__func_8impl_8h.html#aaff57f2a5c6a8e6c77d36c5dc7e48cfa" target="_top" xlink:title="Handles requests 01, 02, 03 and 04 (Read Multiple XX) and generates response.">
<polygon fill="white" stroke="#666666" points="312.5,-130.25 158.5,-130.25 158.5,-111 312.5,-111 312.5,-130.25"/>
<text text-anchor="middle" x="235.5" y="-116.75" font-family="Helvetica,sans-Serif" font-size="10.00">modbusParseRequest01020304</text>
</a>
</g>
</g>
<!-- Node1&#45;&gt;Node9 -->
<g id="edge8_Node000001_Node000009" class="edge">
<title>Node1&#45;&gt;Node9</title>
<g id="a_edge8_Node000001_Node000009"><a xlink:title=" ">
<path fill="none" stroke="#63b8ff" d="M340.56,-120.62C331.46,-120.62 322.13,-120.62 312.98,-120.62"/>
<polygon fill="#63b8ff" stroke="#63b8ff" points="340.41,-124.13 350.41,-120.63 340.41,-117.13 340.41,-124.13"/>
</a>
</g>
</g>
<!-- Node10 -->
<g id="Node000010" class="node">
<title>Node10</title>
<g id="a_Node000010"><a xlink:href="slave__func_8impl_8h.html#a0cb2a7bf59d4014088e1ce1c61523071" target="_top" xlink:title="Handles requests 15 and 16 (Write Multiple XX) and generates response.">
<polygon fill="white" stroke="#666666" points="302,-93.25 169,-93.25 169,-74 302,-74 302,-93.25"/>
<text text-anchor="middle" x="235.5" y="-79.75" font-family="Helvetica,sans-Serif" font-size="10.00">modbusParseRequest1516</text>
</a>
</g>
</g>
<!-- Node1&#45;&gt;Node10 -->
<g id="edge9_Node000001_Node000010" class="edge">
<title>Node1&#45;&gt;Node10</title>
<g id="a_edge9_Node000001_Node000010"><a xlink:title=" ">
<path fill="none" stroke="#63b8ff" d="M353.83,-108.19C331.35,-103.48 306.07,-98.19 284.74,-93.72"/>
<polygon fill="#63b8ff" stroke="#63b8ff" points="352.97,-111.58 363.47,-110.2 354.4,-104.73 352.97,-111.58"/>
</a>
</g>
</g>
<!-- Node11 -->
<g id="Node000011" class="node">
<title>Node11</title>
<g id="a_Node000011"><a xlink:href="master__func_8impl_8h.html#adafbaa72d4df36b3577ce5494b460a2b" target="_top" xlink:title="Parses response to requests 01, 02, 03 and 04.">
<polygon fill="white" stroke="#666666" points="316.25,-56.25 154.75,-56.25 154.75,-37 316.25,-37 316.25,-56.25"/>
<text text-anchor="middle" x="235.5" y="-42.75" font-family="Helvetica,sans-Serif" font-size="10.00">modbusParseResponse01020304</text>
</a>
</g>
</g>
<!-- Node1&#45;&gt;Node11 -->
<g id="edge10_Node000001_Node000011" class="edge">
<title>Node1&#45;&gt;Node11</title>
<g id="a_edge10_Node000001_Node000011"><a xlink:title=" ">
<path fill="none" stroke="#63b8ff" d="M389.81,-104.38C370.77,-91.87 342.81,-75.01 316.25,-64.62 308.32,-61.52 299.72,-58.89 291.21,-56.67"/>
<polygon fill="#63b8ff" stroke="#63b8ff" points="387.64,-107.14 397.9,-109.8 391.54,-101.33 387.64,-107.14"/>
</a>
</g>
</g>
<!-- Node12 -->
<g id="Node000012" class="node">
<title>Node12</title>
<g id="a_Node000012"><a xlink:href="master__func_8impl_8h.html#a0c53ade25c249f6aeed8c877b98f8016" target="_top" xlink:title="Parses response to requests 15 and 16 (write mutliple regsiters/coils)">
<polygon fill="white" stroke="#666666" points="305.75,-19.25 165.25,-19.25 165.25,0 305.75,0 305.75,-19.25"/>
<text text-anchor="middle" x="235.5" y="-5.75" font-family="Helvetica,sans-Serif" font-size="10.00">modbusParseResponse1516</text>
</a>
</g>
</g>
<!-- Node1&#45;&gt;Node12 -->
<g id="edge11_Node000001_Node000012" class="edge">
<title>Node1&#45;&gt;Node12</title>
<g id="a_edge11_Node000001_Node000012"><a xlink:title=" ">
<path fill="none" stroke="#63b8ff" d="M399.05,-101.88C381.85,-80.53 350.82,-46.21 316.25,-27.62 310.37,-24.47 303.97,-21.86 297.42,-19.71"/>
<polygon fill="#63b8ff" stroke="#63b8ff" points="396.09,-103.77 405.02,-109.48 401.6,-99.45 396.09,-103.77"/>
</a>
</g>
</g>
<!-- Node3 -->
<g id="Node000003" class="node">
<title>Node3</title>
<g id="a_Node000003"><a xlink:href="master__func_8h.html#aadb2b7e2d3ee4fbde22cdf076713d75e" target="_top" xlink:title="Read multiple coils &#45; a wrapper for modbusBuildRequest01020304()">
<polygon fill="white" stroke="#666666" points="118.75,-296.25 0,-296.25 0,-277 118.75,-277 118.75,-296.25"/>
<text text-anchor="middle" x="59.38" y="-282.75" font-family="Helvetica,sans-Serif" font-size="10.00">modbusBuildRequest01</text>
</a>
</g>
</g>
<!-- Node2&#45;&gt;Node3 -->
<g id="edge2_Node000002_Node000003" class="edge">
<title>Node2&#45;&gt;Node3</title>
<g id="a_edge2_Node000002_Node000003"><a xlink:title=" ">
<path fill="none" stroke="#63b8ff" d="M192.62,-245.13C170.64,-252.18 143.26,-260.93 118.75,-268.62 110.45,-271.23 101.48,-274.01 93.12,-276.59"/>
<polygon fill="#63b8ff" stroke="#63b8ff" points="193.69,-248.46 202.14,-242.07 191.54,-241.8 193.69,-248.46"/>
</a>
</g>
</g>
<!-- Node4 -->
<g id="Node000004" class="node">
<title>Node4</title>
<g id="a_Node000004"><a xlink:href="master__func_8h.html#a2a6452a8200d77483254bef08ee2cf8c" target="_top" xlink:title="Read multiple discrete inputs &#45; a wrapper for modbusBuildRequest01020304()">
<polygon fill="white" stroke="#666666" points="118.75,-259.25 0,-259.25 0,-240 118.75,-240 118.75,-259.25"/>
<text text-anchor="middle" x="59.38" y="-245.75" font-family="Helvetica,sans-Serif" font-size="10.00">modbusBuildRequest02</text>
</a>
</g>
</g>
<!-- Node2&#45;&gt;Node4 -->
<g id="edge3_Node000002_Node000004" class="edge">
<title>Node2&#45;&gt;Node4</title>
<g id="a_edge3_Node000002_Node000004"><a xlink:title=" ">
<path fill="none" stroke="#63b8ff" d="M148.63,-240.5C138.61,-241.54 128.57,-242.58 119.04,-243.56"/>
<polygon fill="#63b8ff" stroke="#63b8ff" points="148.8,-244 158.39,-239.49 148.09,-237.04 148.8,-244"/>
</a>
</g>
</g>
<!-- Node5 -->
<g id="Node000005" class="node">
<title>Node5</title>
<g id="a_Node000005"><a xlink:href="master__func_8h.html#a1c7ed51c58b1ef42ee176833c7fd0515" target="_top" xlink:title="Read multiple holding registers &#45; a wrapper for modbusBuildRequest01020304()">
<polygon fill="white" stroke="#666666" points="118.75,-222.25 0,-222.25 0,-203 118.75,-203 118.75,-222.25"/>
<text text-anchor="middle" x="59.38" y="-208.75" font-family="Helvetica,sans-Serif" font-size="10.00">modbusBuildRequest03</text>
</a>
</g>
</g>
<!-- Node2&#45;&gt;Node5 -->
<g id="edge4_Node000002_Node000005" class="edge">
<title>Node2&#45;&gt;Node5</title>
<g id="a_edge4_Node000002_Node000005"><a xlink:title=" ">
<path fill="none" stroke="#63b8ff" d="M148.63,-222.25C138.61,-221.16 128.57,-220.07 119.04,-219.03"/>
<polygon fill="#63b8ff" stroke="#63b8ff" points="148.07,-225.71 158.39,-223.32 148.83,-218.76 148.07,-225.71"/>
</a>
</g>
</g>
<!-- Node6 -->
<g id="Node000006" class="node">
<title>Node6</title>
<g id="a_Node000006"><a xlink:href="master__func_8h.html#a22bf4541196b3e88c0a86861d334e3b1" target="_top" xlink:title="Read multiple input registers &#45; a wrapper for modbusBuildRequest01020304()">
<polygon fill="white" stroke="#666666" points="118.75,-185.25 0,-185.25 0,-166 118.75,-166 118.75,-185.25"/>
<text text-anchor="middle" x="59.38" y="-171.75" font-family="Helvetica,sans-Serif" font-size="10.00">modbusBuildRequest04</text>
</a>
</g>
</g>
<!-- Node2&#45;&gt;Node6 -->
<g id="edge5_Node000002_Node000006" class="edge">
<title>Node2&#45;&gt;Node6</title>
<g id="a_edge5_Node000002_Node000006"><a xlink:title=" ">
<path fill="none" stroke="#63b8ff" d="M169.3,-218.54C164.33,-217.04 159.43,-215.41 154.75,-213.62 137.65,-207.1 135.59,-200.8 118.75,-193.62 111.92,-190.71 104.46,-188.05 97.23,-185.71"/>
<polygon fill="#63b8ff" stroke="#63b8ff" points="168.23,-221.87 178.8,-221.17 170.1,-215.12 168.23,-221.87"/>
</a>
</g>
</g>
</g>
</svg>
