<?xml version="1.0" encoding="UTF-8" standalone="no"?>
<!DOCTYPE svg PUBLIC "-//W3C//DTD SVG 1.1//EN"
 "http://www.w3.org/Graphics/SVG/1.1/DTD/svg11.dtd">
<!-- Generated by graphviz version 9.0.0 (20230911.1827)
 -->
<!-- Title: modbusBufferModeTCP Pages: 1 -->
<svg width="473pt" height="64pt"
 viewBox="0.00 0.00 473.00 64.25" xmlns="http://www.w3.org/2000/svg" xmlns:xlink="http://www.w3.org/1999/xlink">
<g id="graph0" class="graph" transform="scale(1 1) rotate(0) translate(4 60.25)">
<title>modbusBufferModeTCP</title>
<!-- Node1 -->
<g id="Node000001" class="node">
<title>Node1</title>
<g id="a_Node000001"><a xlink:title="Prepares buffer to store a Modbus TCP message.">
<polygon fill="#999999" stroke="#666666" points="465,-37.25 345.5,-37.25 345.5,-18 465,-18 465,-37.25"/>
<text text-anchor="middle" x="405.25" y="-23.75" font-family="Helvetica,sans-Serif" font-size="10.00">modbusBufferModeTCP</text>
</a>
</g>
</g>
<!-- Node2 -->
<g id="Node000002" class="node">
<title>Node2</title>
<g id="a_Node000002"><a xlink:href="master_8impl_8h.html#afd1467296480779237ab090a8579efb5" target="_top" xlink:title="Begins a TCP request.">
<polygon fill="white" stroke="#666666" points="309.12,-56.25 178.38,-56.25 178.38,-37 309.12,-37 309.12,-56.25"/>
<text text-anchor="middle" x="243.75" y="-42.75" font-family="Helvetica,sans-Serif" font-size="10.00">modbusBeginRequestTCP</text>
</a>
</g>
</g>
<!-- Node1&#45;&gt;Node2 -->
<g id="edge1_Node000001_Node000002" class="edge">
<title>Node1&#45;&gt;Node2</title>
<g id="a_edge1_Node000001_Node000002"><a xlink:title=" ">
<path fill="none" stroke="#63b8ff" d="M333.98,-36C325.88,-36.96 317.64,-37.94 309.62,-38.9"/>
<polygon fill="#63b8ff" stroke="#63b8ff" points="334.29,-39.48 343.81,-34.82 333.46,-32.53 334.29,-39.48"/>
</a>
</g>
</g>
<!-- Node3 -->
<g id="Node000003" class="node">
<title>Node3</title>
<g id="a_Node000003"><a xlink:href="slave_8impl_8h.html#a5ad3fe86aa14f8982d7c459c68cd8b3e" target="_top" xlink:title="Parses provided Modbus TCP request frame and generates a Modbus TCP response.">
<polygon fill="white" stroke="#666666" points="309.5,-19.25 178,-19.25 178,0 309.5,0 309.5,-19.25"/>
<text text-anchor="middle" x="243.75" y="-5.75" font-family="Helvetica,sans-Serif" font-size="10.00">modbusParseRequestTCP</text>
</a>
</g>
</g>
<!-- Node1&#45;&gt;Node3 -->
<g id="edge2_Node000001_Node000003" class="edge">
<title>Node1&#45;&gt;Node3</title>
<g id="a_edge2_Node000001_Node000003"><a xlink:title=" ">
<path fill="none" stroke="#63b8ff" d="M334.07,-19.7C326.03,-18.8 317.86,-17.88 309.89,-16.98"/>
<polygon fill="#63b8ff" stroke="#63b8ff" points="333.48,-23.16 343.81,-20.8 334.26,-16.2 333.48,-23.16"/>
</a>
</g>
</g>
<!-- Node4 -->
<g id="Node000004" class="node">
<title>Node4</title>
<g id="a_Node000004"><a xlink:href="classllm_1_1Slave.html#a05169339916c3727c780c75157b399b9" target="_top" xlink:title=" ">
<polygon fill="white" stroke="#666666" points="142,-19.25 0,-19.25 0,0 142,0 142,-19.25"/>
<text text-anchor="middle" x="71" y="-5.75" font-family="Helvetica,sans-Serif" font-size="10.00">llm::Slave::parseRequestTCP</text>
</a>
</g>
</g>
<!-- Node3&#45;&gt;Node4 -->
<g id="edge3_Node000003_Node000004" class="edge">
<title>Node3&#45;&gt;Node4</title>
<g id="a_edge3_Node000003_Node000004"><a xlink:title=" ">
<path fill="none" stroke="#63b8ff" d="M166.44,-9.62C158.39,-9.62 150.24,-9.62 142.26,-9.62"/>
<polygon fill="#63b8ff" stroke="#63b8ff" points="166.2,-13.13 176.2,-9.63 166.2,-6.13 166.2,-13.13"/>
</a>
</g>
</g>
</g>
</svg>
