<?xml version="1.0" encoding="UTF-8" standalone="no"?>
<!DOCTYPE svg PUBLIC "-//W3C//DTD SVG 1.1//EN"
 "http://www.w3.org/Graphics/SVG/1.1/DTD/svg11.dtd">
<!-- Generated by graphviz version 9.0.0 (20230911.1827)
 -->
<!-- Title: modbusBufferFree Pages: 1 -->
<svg width="625pt" height="175pt"
 viewBox="0.00 0.00 624.75 175.25" xmlns="http://www.w3.org/2000/svg" xmlns:xlink="http://www.w3.org/1999/xlink">
<g id="graph0" class="graph" transform="scale(1 1) rotate(0) translate(4 171.25)">
<title>modbusBufferFree</title>
<!-- Node1 -->
<g id="Node000001" class="node">
<title>Node1</title>
<g id="a_Node000001"><a xlink:title="Frees memory allocated inside the buffer.">
<polygon fill="#999999" stroke="#666666" points="616.75,-93.25 521.25,-93.25 521.25,-74 616.75,-74 616.75,-93.25"/>
<text text-anchor="middle" x="569" y="-79.75" font-family="Helvetica,sans-Serif" font-size="10.00">modbusBufferFree</text>
</a>
</g>
</g>
<!-- Node2 -->
<g id="Node000002" class="node">
<title>Node2</title>
<g id="a_Node000002"><a xlink:href="base_8impl_8h.html#ac4ff5a6ae685570f045448e76e518a0c" target="_top" xlink:title="Equivalent of modbusBufferFree() \copydetail modbusBufferFree()">
<polygon fill="white" stroke="#666666" points="470.62,-130.25 361.62,-130.25 361.62,-111 470.62,-111 470.62,-130.25"/>
<text text-anchor="middle" x="416.12" y="-116.75" font-family="Helvetica,sans-Serif" font-size="10.00">modbusBufferDestroy</text>
</a>
</g>
</g>
<!-- Node1&#45;&gt;Node2 -->
<g id="edge1_Node000001_Node000002" class="edge">
<title>Node1&#45;&gt;Node2</title>
<g id="a_edge1_Node000001_Node000002"><a xlink:title=" ">
<path fill="none" stroke="#63b8ff" d="M515.7,-96.45C496.91,-101.06 476.01,-106.18 458.3,-110.53"/>
<polygon fill="#63b8ff" stroke="#63b8ff" points="516.42,-99.88 525.3,-94.1 514.76,-93.08 516.42,-99.88"/>
</a>
</g>
</g>
<!-- Node7 -->
<g id="Node000007" class="node">
<title>Node7</title>
<g id="a_Node000007"><a xlink:href="master_8h.html#a040a82085ce05ff95c53d3dca4c3acfd" target="_top" xlink:title="Frees memory allocated for master&#39;s request frame.">
<polygon fill="white" stroke="#666666" points="484.12,-93.25 348.12,-93.25 348.12,-74 484.12,-74 484.12,-93.25"/>
<text text-anchor="middle" x="416.12" y="-79.75" font-family="Helvetica,sans-Serif" font-size="10.00">modbusMasterFreeRequest</text>
</a>
</g>
</g>
<!-- Node1&#45;&gt;Node7 -->
<g id="edge6_Node000001_Node000007" class="edge">
<title>Node1&#45;&gt;Node7</title>
<g id="a_edge6_Node000001_Node000007"><a xlink:title=" ">
<path fill="none" stroke="#63b8ff" d="M509.67,-83.62C501.43,-83.62 492.9,-83.62 484.5,-83.62"/>
<polygon fill="#63b8ff" stroke="#63b8ff" points="509.58,-87.13 519.58,-83.63 509.58,-80.13 509.58,-87.13"/>
</a>
</g>
</g>
<!-- Node9 -->
<g id="Node000009" class="node">
<title>Node9</title>
<g id="a_Node000009"><a xlink:href="slave_8h.html#aac289ce160ea61287c98e8a1ee4353d5" target="_top" xlink:title="Frees memory allocated for slave&#39;s response frame.">
<polygon fill="white" stroke="#666666" points="485.25,-56.25 347,-56.25 347,-37 485.25,-37 485.25,-56.25"/>
<text text-anchor="middle" x="416.12" y="-42.75" font-family="Helvetica,sans-Serif" font-size="10.00">modbusSlaveFreeResponse</text>
</a>
</g>
</g>
<!-- Node1&#45;&gt;Node9 -->
<g id="edge8_Node000001_Node000009" class="edge">
<title>Node1&#45;&gt;Node9</title>
<g id="a_edge8_Node000001_Node000009"><a xlink:title=" ">
<path fill="none" stroke="#63b8ff" d="M515.7,-70.8C496.91,-66.19 476.01,-61.07 458.3,-56.72"/>
<polygon fill="#63b8ff" stroke="#63b8ff" points="514.76,-74.17 525.3,-73.15 516.42,-67.37 514.76,-74.17"/>
</a>
</g>
</g>
<!-- Node3 -->
<g id="Node000003" class="node">
<title>Node3</title>
<g id="a_Node000003"><a xlink:href="master_8impl_8h.html#a5fe38fae0f89de04fa616d105f660d25" target="_top" xlink:title="Deinitializes a ModbusMaster struct.">
<polygon fill="white" stroke="#666666" points="301.62,-167.25 188.12,-167.25 188.12,-148 301.62,-148 301.62,-167.25"/>
<text text-anchor="middle" x="244.88" y="-153.75" font-family="Helvetica,sans-Serif" font-size="10.00">modbusMasterDestroy</text>
</a>
</g>
</g>
<!-- Node2&#45;&gt;Node3 -->
<g id="edge2_Node000002_Node000003" class="edge">
<title>Node2&#45;&gt;Node3</title>
<g id="a_edge2_Node000002_Node000003"><a xlink:title=" ">
<path fill="none" stroke="#63b8ff" d="M357.64,-133.19C336.26,-137.87 312.3,-143.1 292.07,-147.53"/>
<polygon fill="#63b8ff" stroke="#63b8ff" points="358.38,-136.61 367.4,-131.06 356.88,-129.78 358.38,-136.61"/>
</a>
</g>
</g>
<!-- Node5 -->
<g id="Node000005" class="node">
<title>Node5</title>
<g id="a_Node000005"><a xlink:href="slave_8impl_8h.html#a70695c3b7355bc0a3e6d49c46a4eef1f" target="_top" xlink:title="Frees memory allocated in the ModbusSlave struct.">
<polygon fill="white" stroke="#666666" points="299,-130.25 190.75,-130.25 190.75,-111 299,-111 299,-130.25"/>
<text text-anchor="middle" x="244.88" y="-116.75" font-family="Helvetica,sans-Serif" font-size="10.00">modbusSlaveDestroy</text>
</a>
</g>
</g>
<!-- Node2&#45;&gt;Node5 -->
<g id="edge4_Node000002_Node000005" class="edge">
<title>Node2&#45;&gt;Node5</title>
<g id="a_edge4_Node000002_Node000005"><a xlink:title=" ">
<path fill="none" stroke="#63b8ff" d="M350.16,-120.62C333.37,-120.62 315.5,-120.62 299.37,-120.62"/>
<polygon fill="#63b8ff" stroke="#63b8ff" points="350.06,-124.13 360.06,-120.63 350.06,-117.13 350.06,-124.13"/>
</a>
</g>
</g>
<!-- Node4 -->
<g id="Node000004" class="node">
<title>Node4</title>
<g id="a_Node000004"><a xlink:href="classllm_1_1Master.html#adae54d760d1eb2f0babcaff59325376d" target="_top" xlink:title=" ">
<polygon fill="white" stroke="#666666" points="122.88,-167.25 19.88,-167.25 19.88,-148 122.88,-148 122.88,-167.25"/>
<text text-anchor="middle" x="71.38" y="-153.75" font-family="Helvetica,sans-Serif" font-size="10.00">llm::Master::~Master</text>
</a>
</g>
</g>
<!-- Node3&#45;&gt;Node4 -->
<g id="edge3_Node000003_Node000004" class="edge">
<title>Node3&#45;&gt;Node4</title>
<g id="a_edge3_Node000003_Node000004"><a xlink:title=" ">
<path fill="none" stroke="#63b8ff" d="M176.28,-157.62C158.58,-157.62 139.81,-157.62 123.15,-157.62"/>
<polygon fill="#63b8ff" stroke="#63b8ff" points="176.21,-161.13 186.21,-157.63 176.21,-154.13 176.21,-161.13"/>
</a>
</g>
</g>
<!-- Node6 -->
<g id="Node000006" class="node">
<title>Node6</title>
<g id="a_Node000006"><a xlink:href="classllm_1_1Slave.html#a46b8ac6f2b8dee5550d18bd7f1dd355d" target="_top" xlink:title=" ">
<polygon fill="white" stroke="#666666" points="117.62,-130.25 25.12,-130.25 25.12,-111 117.62,-111 117.62,-130.25"/>
<text text-anchor="middle" x="71.38" y="-116.75" font-family="Helvetica,sans-Serif" font-size="10.00">llm::Slave::~Slave</text>
</a>
</g>
</g>
<!-- Node5&#45;&gt;Node6 -->
<g id="edge5_Node000005_Node000006" class="edge">
<title>Node5&#45;&gt;Node6</title>
<g id="a_edge5_Node000005_Node000006"><a xlink:title=" ">
<path fill="none" stroke="#63b8ff" d="M179.1,-120.62C158.7,-120.62 136.62,-120.62 117.86,-120.62"/>
<polygon fill="#63b8ff" stroke="#63b8ff" points="179.04,-124.13 189.04,-120.63 179.04,-117.13 179.04,-124.13"/>
</a>
</g>
</g>
<!-- Node8 -->
<g id="Node000008" class="node">
<title>Node8</title>
<g id="a_Node000008"><a xlink:href="classllm_1_1Master.html#a6c3883d0f98a5b4255a02f46f33c2423" target="_top" xlink:title=" ">
<polygon fill="white" stroke="#666666" points="305,-93.25 184.75,-93.25 184.75,-74 305,-74 305,-93.25"/>
<text text-anchor="middle" x="244.88" y="-79.75" font-family="Helvetica,sans-Serif" font-size="10.00">llm::Master::freeRequest</text>
</a>
</g>
</g>
<!-- Node7&#45;&gt;Node8 -->
<g id="edge7_Node000007_Node000008" class="edge">
<title>Node7&#45;&gt;Node8</title>
<g id="a_edge7_Node000007_Node000008"><a xlink:title=" ">
<path fill="none" stroke="#63b8ff" d="M336.47,-83.62C326.01,-83.62 315.42,-83.62 305.36,-83.62"/>
<polygon fill="#63b8ff" stroke="#63b8ff" points="336.23,-87.13 346.23,-83.63 336.23,-80.13 336.23,-87.13"/>
</a>
</g>
</g>
<!-- Node10 -->
<g id="Node000010" class="node">
<title>Node10</title>
<g id="a_Node000010"><a xlink:href="classllm_1_1Slave.html#aadbd0a4dc7769b5c393d6dfe5a344b8a" target="_top" xlink:title=" ">
<polygon fill="white" stroke="#666666" points="306.12,-56.25 183.62,-56.25 183.62,-37 306.12,-37 306.12,-56.25"/>
<text text-anchor="middle" x="244.88" y="-42.75" font-family="Helvetica,sans-Serif" font-size="10.00">llm::Slave::freeResponse</text>
</a>
</g>
</g>
<!-- Node9&#45;&gt;Node10 -->
<g id="edge9_Node000009_Node000010" class="edge">
<title>Node9&#45;&gt;Node10</title>
<g id="a_edge9_Node000009_Node000010"><a xlink:title=" ">
<path fill="none" stroke="#63b8ff" d="M335.45,-46.62C325.74,-46.62 315.94,-46.62 306.57,-46.62"/>
<polygon fill="#63b8ff" stroke="#63b8ff" points="335.26,-50.13 345.26,-46.63 335.26,-43.13 335.26,-50.13"/>
</a>
</g>
</g>
<!-- Node11 -->
<g id="Node000011" class="node">
<title>Node11</title>
<g id="a_Node000011"><a xlink:href="slave_8impl_8h.html#a6a1e63faa64b7ca4b91d1ce7988be850" target="_top" xlink:title="Parses provided Modbus RTU request frame and generates a Modbus RTU response.">
<polygon fill="white" stroke="#666666" points="311,-19.25 178.75,-19.25 178.75,0 311,0 311,-19.25"/>
<text text-anchor="middle" x="244.88" y="-5.75" font-family="Helvetica,sans-Serif" font-size="10.00">modbusParseRequestRTU</text>
</a>
</g>
</g>
<!-- Node9&#45;&gt;Node11 -->
<g id="edge10_Node000009_Node000011" class="edge">
<title>Node9&#45;&gt;Node11</title>
<g id="a_edge10_Node000009_Node000011"><a xlink:title=" ">
<path fill="none" stroke="#63b8ff" d="M357.64,-34.06C336.26,-29.38 312.3,-24.15 292.07,-19.72"/>
<polygon fill="#63b8ff" stroke="#63b8ff" points="356.88,-37.47 367.4,-36.19 358.38,-30.64 356.88,-37.47"/>
</a>
</g>
</g>
<!-- Node12 -->
<g id="Node000012" class="node">
<title>Node12</title>
<g id="a_Node000012"><a xlink:href="classllm_1_1Slave.html#a001591b9a38b69cf29adc853872a09fe" target="_top" xlink:title=" ">
<polygon fill="white" stroke="#666666" points="142.75,-19.25 0,-19.25 0,0 142.75,0 142.75,-19.25"/>
<text text-anchor="middle" x="71.38" y="-5.75" font-family="Helvetica,sans-Serif" font-size="10.00">llm::Slave::parseRequestRTU</text>
</a>
</g>
</g>
<!-- Node11&#45;&gt;Node12 -->
<g id="edge11_Node000011_Node000012" class="edge">
<title>Node11&#45;&gt;Node12</title>
<g id="a_edge11_Node000011_Node000012"><a xlink:title=" ">
<path fill="none" stroke="#63b8ff" d="M167.04,-9.62C159.12,-9.62 151.09,-9.62 143.23,-9.62"/>
<polygon fill="#63b8ff" stroke="#63b8ff" points="167.04,-13.13 177.04,-9.63 167.04,-6.13 167.04,-13.13"/>
</a>
</g>
</g>
</g>
</svg>
