<?xml version="1.0" encoding="UTF-8" standalone="no"?>
<!DOCTYPE svg PUBLIC "-//W3C//DTD SVG 1.1//EN"
 "http://www.w3.org/Graphics/SVG/1.1/DTD/svg11.dtd">
<!-- Generated by graphviz version 9.0.0 (20230911.1827)
 -->
<!-- Title: modbusRBE Pages: 1 -->
<svg width="641pt" height="304pt"
 viewBox="0.00 0.00 641.25 304.25" xmlns="http://www.w3.org/2000/svg" xmlns:xlink="http://www.w3.org/1999/xlink">
<g id="graph0" class="graph" transform="scale(1 1) rotate(0) translate(4 300.25)">
<title>modbusRBE</title>
<!-- Node1 -->
<g id="Node000001" class="node">
<title>Node1</title>
<g id="a_Node000001"><a xlink:title="Safely reads a big&#45;endian 16&#45;bit word from provided pointer.">
<polygon fill="#999999" stroke="#666666" points="633.25,-166.25 563.25,-166.25 563.25,-147 633.25,-147 633.25,-166.25"/>
<text text-anchor="middle" x="598.25" y="-152.75" font-family="Helvetica,sans-Serif" font-size="10.00">modbusRBE</text>
</a>
</g>
</g>
<!-- Node2 -->
<g id="Node000002" class="node">
<title>Node2</title>
<g id="a_Node000002"><a xlink:href="slave__func_8impl_8h.html#aaff57f2a5c6a8e6c77d36c5dc7e48cfa" target="_top" xlink:title="Handles requests 01, 02, 03 and 04 (Read Multiple XX) and generates response.">
<polygon fill="white" stroke="#666666" points="523.5,-296.25 369.5,-296.25 369.5,-277 523.5,-277 523.5,-296.25"/>
<text text-anchor="middle" x="446.5" y="-282.75" font-family="Helvetica,sans-Serif" font-size="10.00">modbusParseRequest01020304</text>
</a>
</g>
</g>
<!-- Node1&#45;&gt;Node2 -->
<g id="edge1_Node000001_Node000002" class="edge">
<title>Node1&#45;&gt;Node2</title>
<g id="a_edge1_Node000001_Node000002"><a xlink:title=" ">
<path fill="none" stroke="#63b8ff" d="M590.09,-177.22C580.11,-202.76 559.54,-245.72 527.25,-268.62 522.74,-271.83 517.75,-274.47 512.53,-276.66"/>
<polygon fill="#63b8ff" stroke="#63b8ff" points="593.33,-178.56 593.51,-167.97 586.76,-176.13 593.33,-178.56"/>
</a>
</g>
</g>
<!-- Node3 -->
<g id="Node000003" class="node">
<title>Node3</title>
<g id="a_Node000003"><a xlink:href="slave__func_8impl_8h.html#a236881fe30a95d4cc9b031a9e24ae2a8" target="_top" xlink:title="Handles requests 05 and 06 (Write Single XX) and generates response.">
<polygon fill="white" stroke="#666666" points="513,-259.25 380,-259.25 380,-240 513,-240 513,-259.25"/>
<text text-anchor="middle" x="446.5" y="-245.75" font-family="Helvetica,sans-Serif" font-size="10.00">modbusParseRequest0506</text>
</a>
</g>
</g>
<!-- Node1&#45;&gt;Node3 -->
<g id="edge2_Node000001_Node000003" class="edge">
<title>Node1&#45;&gt;Node3</title>
<g id="a_edge2_Node000001_Node000003"><a xlink:title=" ">
<path fill="none" stroke="#63b8ff" d="M584.46,-175.86C571.93,-193.14 551.27,-217.84 527.25,-231.62 521.71,-234.8 515.65,-237.42 509.43,-239.58"/>
<polygon fill="#63b8ff" stroke="#63b8ff" points="587.14,-178.13 589.99,-167.92 581.4,-174.13 587.14,-178.13"/>
</a>
</g>
</g>
<!-- Node4 -->
<g id="Node000004" class="node">
<title>Node4</title>
<g id="a_Node000004"><a xlink:href="slave__func_8impl_8h.html#a0cb2a7bf59d4014088e1ce1c61523071" target="_top" xlink:title="Handles requests 15 and 16 (Write Multiple XX) and generates response.">
<polygon fill="white" stroke="#666666" points="513,-222.25 380,-222.25 380,-203 513,-203 513,-222.25"/>
<text text-anchor="middle" x="446.5" y="-208.75" font-family="Helvetica,sans-Serif" font-size="10.00">modbusParseRequest1516</text>
</a>
</g>
</g>
<!-- Node1&#45;&gt;Node4 -->
<g id="edge3_Node000001_Node000004" class="edge">
<title>Node1&#45;&gt;Node4</title>
<g id="a_edge3_Node000001_Node000004"><a xlink:title=" ">
<path fill="none" stroke="#63b8ff" d="M572.1,-172.47C559.12,-180.08 542.77,-188.79 527.25,-194.62 519.15,-197.67 510.38,-200.29 501.72,-202.51"/>
<polygon fill="#63b8ff" stroke="#63b8ff" points="573.66,-175.62 580.42,-167.46 570.05,-169.62 573.66,-175.62"/>
</a>
</g>
</g>
<!-- Node5 -->
<g id="Node000005" class="node">
<title>Node5</title>
<g id="a_Node000005"><a xlink:href="slave__func_8impl_8h.html#a814f041d9acfa578998b8ce8fe53815c" target="_top" xlink:title="Handles request 22 (Mask Write Register) and generates response.">
<polygon fill="white" stroke="#666666" points="507.75,-185.25 385.25,-185.25 385.25,-166 507.75,-166 507.75,-185.25"/>
<text text-anchor="middle" x="446.5" y="-171.75" font-family="Helvetica,sans-Serif" font-size="10.00">modbusParseRequest22</text>
</a>
</g>
</g>
<!-- Node1&#45;&gt;Node5 -->
<g id="edge4_Node000001_Node000005" class="edge">
<title>Node1&#45;&gt;Node5</title>
<g id="a_edge4_Node000001_Node000005"><a xlink:title=" ">
<path fill="none" stroke="#63b8ff" d="M551.77,-162.4C538.03,-164.14 522.71,-166.08 508.14,-167.93"/>
<polygon fill="#63b8ff" stroke="#63b8ff" points="551.91,-165.91 561.39,-161.17 551.03,-158.96 551.91,-165.91"/>
</a>
</g>
</g>
<!-- Node6 -->
<g id="Node000006" class="node">
<title>Node6</title>
<g id="a_Node000006"><a xlink:href="master__func_8impl_8h.html#adafbaa72d4df36b3577ce5494b460a2b" target="_top" xlink:title="Parses response to requests 01, 02, 03 and 04.">
<polygon fill="white" stroke="#666666" points="527.25,-148.25 365.75,-148.25 365.75,-129 527.25,-129 527.25,-148.25"/>
<text text-anchor="middle" x="446.5" y="-134.75" font-family="Helvetica,sans-Serif" font-size="10.00">modbusParseResponse01020304</text>
</a>
</g>
</g>
<!-- Node1&#45;&gt;Node6 -->
<g id="edge5_Node000001_Node000006" class="edge">
<title>Node1&#45;&gt;Node6</title>
<g id="a_edge5_Node000001_Node000006"><a xlink:title=" ">
<path fill="none" stroke="#63b8ff" d="M551.71,-151.15C544.07,-150.23 535.94,-149.26 527.72,-148.27"/>
<polygon fill="#63b8ff" stroke="#63b8ff" points="551.05,-154.6 561.39,-152.31 551.88,-147.65 551.05,-154.6"/>
</a>
</g>
</g>
<!-- Node7 -->
<g id="Node000007" class="node">
<title>Node7</title>
<g id="a_Node000007"><a xlink:href="master__func_8impl_8h.html#a1a105f7339569601abe367a3254d38dc" target="_top" xlink:title="Parses response to requests 05 and 06.">
<polygon fill="white" stroke="#666666" points="516.75,-111.25 376.25,-111.25 376.25,-92 516.75,-92 516.75,-111.25"/>
<text text-anchor="middle" x="446.5" y="-97.75" font-family="Helvetica,sans-Serif" font-size="10.00">modbusParseResponse0506</text>
</a>
</g>
</g>
<!-- Node1&#45;&gt;Node7 -->
<g id="edge6_Node000001_Node000007" class="edge">
<title>Node1&#45;&gt;Node7</title>
<g id="a_edge6_Node000001_Node000007"><a xlink:title=" ">
<path fill="none" stroke="#63b8ff" d="M571.54,-140.93C558.62,-133.6 542.51,-125.27 527.25,-119.62 519,-116.57 510.06,-113.94 501.26,-111.71"/>
<polygon fill="#63b8ff" stroke="#63b8ff" points="569.42,-143.75 579.82,-145.76 572.95,-137.7 569.42,-143.75"/>
</a>
</g>
</g>
<!-- Node8 -->
<g id="Node000008" class="node">
<title>Node8</title>
<g id="a_Node000008"><a xlink:href="master__func_8impl_8h.html#a0c53ade25c249f6aeed8c877b98f8016" target="_top" xlink:title="Parses response to requests 15 and 16 (write mutliple regsiters/coils)">
<polygon fill="white" stroke="#666666" points="516.75,-74.25 376.25,-74.25 376.25,-55 516.75,-55 516.75,-74.25"/>
<text text-anchor="middle" x="446.5" y="-60.75" font-family="Helvetica,sans-Serif" font-size="10.00">modbusParseResponse1516</text>
</a>
</g>
</g>
<!-- Node1&#45;&gt;Node8 -->
<g id="edge7_Node000001_Node000008" class="edge">
<title>Node1&#45;&gt;Node8</title>
<g id="a_edge7_Node000001_Node000008"><a xlink:title=" ">
<path fill="none" stroke="#63b8ff" d="M584.4,-137.65C571.84,-120.61 551.15,-96.23 527.25,-82.62 521.7,-79.46 515.64,-76.86 509.41,-74.71"/>
<polygon fill="#63b8ff" stroke="#63b8ff" points="581.31,-139.34 589.95,-145.47 587.02,-135.29 581.31,-139.34"/>
</a>
</g>
</g>
<!-- Node9 -->
<g id="Node000009" class="node">
<title>Node9</title>
<g id="a_Node000009"><a xlink:href="base_8h.html#a616e5bdb5ebcd57b1604421f6ca22bc9" target="_top" xlink:title="Unpacks data from a Modbus TCP frame.">
<polygon fill="white" stroke="#666666" points="498.38,-37.25 394.62,-37.25 394.62,-18 498.38,-18 498.38,-37.25"/>
<text text-anchor="middle" x="446.5" y="-23.75" font-family="Helvetica,sans-Serif" font-size="10.00">modbusUnpackTCP</text>
</a>
</g>
</g>
<!-- Node1&#45;&gt;Node9 -->
<g id="edge8_Node000001_Node000009" class="edge">
<title>Node1&#45;&gt;Node9</title>
<g id="a_edge8_Node000001_Node000009"><a xlink:title=" ">
<path fill="none" stroke="#63b8ff" d="M590.04,-136.21C580.01,-110.89 559.38,-68.32 527.25,-45.62 518.79,-39.65 508.67,-35.61 498.52,-32.9"/>
<polygon fill="#63b8ff" stroke="#63b8ff" points="586.69,-137.24 593.48,-145.37 593.24,-134.78 586.69,-137.24"/>
</a>
</g>
</g>
<!-- Node10 -->
<g id="Node000010" class="node">
<title>Node10</title>
<g id="a_Node000010"><a xlink:href="slave_8impl_8h.html#a5ad3fe86aa14f8982d7c459c68cd8b3e" target="_top" xlink:title="Parses provided Modbus TCP request frame and generates a Modbus TCP response.">
<polygon fill="white" stroke="#666666" points="326,-56.25 194.5,-56.25 194.5,-37 326,-37 326,-56.25"/>
<text text-anchor="middle" x="260.25" y="-42.75" font-family="Helvetica,sans-Serif" font-size="10.00">modbusParseRequestTCP</text>
</a>
</g>
</g>
<!-- Node9&#45;&gt;Node10 -->
<g id="edge9_Node000009_Node000010" class="edge">
<title>Node9&#45;&gt;Node10</title>
<g id="a_edge9_Node000009_Node000010"><a xlink:title=" ">
<path fill="none" stroke="#63b8ff" d="M382.82,-34.09C364.65,-35.96 344.78,-38.01 326.46,-39.9"/>
<polygon fill="#63b8ff" stroke="#63b8ff" points="383.08,-37.58 392.67,-33.07 382.36,-30.62 383.08,-37.58"/>
</a>
</g>
</g>
<!-- Node12 -->
<g id="Node000012" class="node">
<title>Node12</title>
<g id="a_Node000012"><a xlink:href="master_8impl_8h.html#a53ea67c733b1e627e1cdcb0003270a1b" target="_top" xlink:title="Parses a Modbus TCP slave response.">
<polygon fill="white" stroke="#666666" points="329.75,-19.25 190.75,-19.25 190.75,0 329.75,0 329.75,-19.25"/>
<text text-anchor="middle" x="260.25" y="-5.75" font-family="Helvetica,sans-Serif" font-size="10.00">modbusParseResponseTCP</text>
</a>
</g>
</g>
<!-- Node9&#45;&gt;Node12 -->
<g id="edge11_Node000009_Node000012" class="edge">
<title>Node9&#45;&gt;Node12</title>
<g id="a_edge11_Node000009_Node000012"><a xlink:title=" ">
<path fill="none" stroke="#63b8ff" d="M382.74,-21.49C365.82,-19.84 347.44,-18.04 330.21,-16.36"/>
<polygon fill="#63b8ff" stroke="#63b8ff" points="382.38,-24.97 392.67,-22.46 383.06,-18.01 382.38,-24.97"/>
</a>
</g>
</g>
<!-- Node11 -->
<g id="Node000011" class="node">
<title>Node11</title>
<g id="a_Node000011"><a xlink:href="classllm_1_1Slave.html#a05169339916c3727c780c75157b399b9" target="_top" xlink:title=" ">
<polygon fill="white" stroke="#666666" points="148.38,-56.25 6.38,-56.25 6.38,-37 148.38,-37 148.38,-56.25"/>
<text text-anchor="middle" x="77.38" y="-42.75" font-family="Helvetica,sans-Serif" font-size="10.00">llm::Slave::parseRequestTCP</text>
</a>
</g>
</g>
<!-- Node10&#45;&gt;Node11 -->
<g id="edge10_Node000010_Node000011" class="edge">
<title>Node10&#45;&gt;Node11</title>
<g id="a_edge10_Node000010_Node000011"><a xlink:title=" ">
<path fill="none" stroke="#63b8ff" d="M182.96,-46.62C171.58,-46.62 159.9,-46.62 148.65,-46.62"/>
<polygon fill="#63b8ff" stroke="#63b8ff" points="182.69,-50.13 192.69,-46.63 182.69,-43.13 182.69,-50.13"/>
</a>
</g>
</g>
<!-- Node13 -->
<g id="Node000013" class="node">
<title>Node13</title>
<g id="a_Node000013"><a xlink:href="classllm_1_1Master.html#ad1f614f5d44a61a8507ae34968fa7903" target="_top" xlink:title=" ">
<polygon fill="white" stroke="#666666" points="154.75,-19.25 0,-19.25 0,0 154.75,0 154.75,-19.25"/>
<text text-anchor="middle" x="77.38" y="-5.75" font-family="Helvetica,sans-Serif" font-size="10.00">llm::Master::parseResponseTCP</text>
</a>
</g>
</g>
<!-- Node12&#45;&gt;Node13 -->
<g id="edge12_Node000012_Node000013" class="edge">
<title>Node12&#45;&gt;Node13</title>
<g id="a_edge12_Node000012_Node000013"><a xlink:title=" ">
<path fill="none" stroke="#63b8ff" d="M178.92,-9.62C171.05,-9.62 163.07,-9.62 155.23,-9.62"/>
<polygon fill="#63b8ff" stroke="#63b8ff" points="178.84,-13.13 188.84,-9.63 178.84,-6.13 178.84,-13.13"/>
</a>
</g>
</g>
</g>
</svg>
