<?xml version="1.0" encoding="UTF-8" standalone="no"?>
<!DOCTYPE svg PUBLIC "-//W3C//DTD SVG 1.1//EN"
 "http://www.w3.org/Graphics/SVG/1.1/DTD/svg11.dtd">
<!-- Generated by graphviz version 9.0.0 (20230911.1827)
 -->
<!-- Title: include/lightmodbus/base.h Pages: 1 -->
<svg width="809pt" height="371pt"
 viewBox="0.00 0.00 809.43 371.00" xmlns="http://www.w3.org/2000/svg" xmlns:xlink="http://www.w3.org/1999/xlink">
<g id="graph0" class="graph" transform="scale(1 1) rotate(0) translate(4 367)">
<title>include/lightmodbus/base.h</title>
<!-- Node1 -->
<g id="Node000001" class="node">
<title>Node1</title>
<g id="a_Node000001"><a xlink:title="Common types and functions (header)">
<polygon fill="#999999" stroke="#666666" points="314.61,-363 212.36,-363 212.36,-332.5 314.61,-332.5 314.61,-363"/>
<text text-anchor="start" x="220.36" y="-349.5" font-family="Helvetica,sans-Serif" font-size="10.00">include/lightmodbus</text>
<text text-anchor="middle" x="263.48" y="-338.25" font-family="Helvetica,sans-Serif" font-size="10.00">/base.h</text>
</a>
</g>
</g>
<!-- Node2 -->
<g id="Node000002" class="node">
<title>Node2</title>
<g id="a_Node000002"><a xlink:href="base_8impl_8h.html" target="_top" xlink:title="Common types and functions (implementation)">
<polygon fill="white" stroke="#666666" points="115.61,-296.5 13.36,-296.5 13.36,-266 115.61,-266 115.61,-296.5"/>
<text text-anchor="start" x="21.36" y="-283" font-family="Helvetica,sans-Serif" font-size="10.00">include/lightmodbus</text>
<text text-anchor="middle" x="64.48" y="-271.75" font-family="Helvetica,sans-Serif" font-size="10.00">/base.impl.h</text>
</a>
</g>
</g>
<!-- Node1&#45;&gt;Node2 -->
<g id="edge1_Node000001_Node000002" class="edge">
<title>Node1&#45;&gt;Node2</title>
<g id="a_edge1_Node000001_Node000002"><a xlink:title=" ">
<path fill="none" stroke="#63b8ff" d="M207.71,-328.67C176.81,-318.66 138.87,-306.36 109.81,-296.94"/>
<polygon fill="#63b8ff" stroke="#63b8ff" points="206.3,-331.89 216.89,-331.65 208.45,-325.23 206.3,-331.89"/>
</a>
</g>
</g>
<!-- Node3 -->
<g id="Node000003" class="node">
<title>Node3</title>
<g id="a_Node000003"><a xlink:href="lightmodbus_8h.html" target="_top" xlink:title="The main library header file (include this one)">
<polygon fill="white" stroke="#666666" points="409.61,-97 307.36,-97 307.36,-66.5 409.61,-66.5 409.61,-97"/>
<text text-anchor="start" x="315.36" y="-83.5" font-family="Helvetica,sans-Serif" font-size="10.00">include/lightmodbus</text>
<text text-anchor="middle" x="358.48" y="-72.25" font-family="Helvetica,sans-Serif" font-size="10.00">/lightmodbus.h</text>
</a>
</g>
</g>
<!-- Node1&#45;&gt;Node3 -->
<g id="edge8_Node000001_Node000003" class="edge">
<title>Node1&#45;&gt;Node3</title>
<g id="a_edge8_Node000001_Node000003"><a xlink:title=" ">
<path fill="none" stroke="#63b8ff" d="M200.98,-343.51C132.44,-338.5 28.91,-326.13 4.48,-296.5 -4.14,-286.04 2.47,-279.4 4.48,-266 13.7,-204.83 -1.2,-173.58 45.48,-133 83.65,-99.83 228.28,-88.39 306.88,-84.57"/>
<polygon fill="#63b8ff" stroke="#63b8ff" points="200.35,-346.98 210.57,-344.18 200.84,-339.99 200.35,-346.98"/>
</a>
</g>
</g>
<!-- Node5 -->
<g id="Node000005" class="node">
<title>Node5</title>
<g id="a_Node000005"><a xlink:href="debug_8h.html" target="_top" xlink:title="Debug utilities (header)">
<polygon fill="white" stroke="#666666" points="471.61,-230 369.36,-230 369.36,-199.5 471.61,-199.5 471.61,-230"/>
<text text-anchor="start" x="377.36" y="-216.5" font-family="Helvetica,sans-Serif" font-size="10.00">include/lightmodbus</text>
<text text-anchor="middle" x="420.48" y="-205.25" font-family="Helvetica,sans-Serif" font-size="10.00">/debug.h</text>
</a>
</g>
</g>
<!-- Node1&#45;&gt;Node5 -->
<g id="edge4_Node000001_Node000005" class="edge">
<title>Node1&#45;&gt;Node5</title>
<g id="a_edge4_Node000001_Node000005"><a xlink:title=" ">
<path fill="none" stroke="#63b8ff" d="M289.32,-325.19C321.44,-298.39 375.37,-253.39 403,-230.33"/>
<polygon fill="#63b8ff" stroke="#63b8ff" points="287.48,-322.17 282.05,-331.26 291.97,-327.54 287.48,-322.17"/>
</a>
</g>
</g>
<!-- Node7 -->
<g id="Node000007" class="node">
<title>Node7</title>
<g id="a_Node000007"><a xlink:href="master_8h.html" target="_top" xlink:title="Master&#39;s types and basic functions (header)">
<polygon fill="white" stroke="#666666" points="235.61,-296.5 133.36,-296.5 133.36,-266 235.61,-266 235.61,-296.5"/>
<text text-anchor="start" x="141.36" y="-283" font-family="Helvetica,sans-Serif" font-size="10.00">include/lightmodbus</text>
<text text-anchor="middle" x="184.48" y="-271.75" font-family="Helvetica,sans-Serif" font-size="10.00">/master.h</text>
</a>
</g>
</g>
<!-- Node1&#45;&gt;Node7 -->
<g id="edge9_Node000001_Node000007" class="edge">
<title>Node1&#45;&gt;Node7</title>
<g id="a_edge9_Node000001_Node000007"><a xlink:title=" ">
<path fill="none" stroke="#63b8ff" d="M236.87,-325.02C225.5,-315.73 212.53,-305.15 202.34,-296.83"/>
<polygon fill="#63b8ff" stroke="#63b8ff" points="234.43,-327.54 244.39,-331.16 238.85,-322.12 234.43,-327.54"/>
</a>
</g>
</g>
<!-- Node9 -->
<g id="Node000009" class="node">
<title>Node9</title>
<g id="a_Node000009"><a xlink:href="master__func_8h.html" target="_top" xlink:title="Master&#39;s functions for building requests and parsing responses (header)">
<polygon fill="white" stroke="#666666" points="314.61,-230 212.36,-230 212.36,-199.5 314.61,-199.5 314.61,-230"/>
<text text-anchor="start" x="220.36" y="-216.5" font-family="Helvetica,sans-Serif" font-size="10.00">include/lightmodbus</text>
<text text-anchor="middle" x="263.48" y="-205.25" font-family="Helvetica,sans-Serif" font-size="10.00">/master_func.h</text>
</a>
</g>
</g>
<!-- Node1&#45;&gt;Node9 -->
<g id="edge19_Node000001_Node000009" class="edge">
<title>Node1&#45;&gt;Node9</title>
<g id="a_edge19_Node000001_Node000009"><a xlink:title=" ">
<path fill="none" stroke="#63b8ff" d="M263.48,-320.93C263.48,-293.84 263.48,-252.21 263.48,-230.33"/>
<polygon fill="#63b8ff" stroke="#63b8ff" points="259.98,-320.72 263.48,-330.72 266.98,-320.72 259.98,-320.72"/>
</a>
</g>
</g>
<!-- Node11 -->
<g id="Node000011" class="node">
<title>Node11</title>
<g id="a_Node000011"><a xlink:href="slave_8h.html" target="_top" xlink:title="Slave&#39;s types and basic functions (header)">
<polygon fill="white" stroke="#666666" points="605.61,-296.5 503.36,-296.5 503.36,-266 605.61,-266 605.61,-296.5"/>
<text text-anchor="start" x="511.36" y="-283" font-family="Helvetica,sans-Serif" font-size="10.00">include/lightmodbus</text>
<text text-anchor="middle" x="554.48" y="-271.75" font-family="Helvetica,sans-Serif" font-size="10.00">/slave.h</text>
</a>
</g>
</g>
<!-- Node1&#45;&gt;Node11 -->
<g id="edge20_Node000001_Node000011" class="edge">
<title>Node1&#45;&gt;Node11</title>
<g id="a_edge20_Node000001_Node000011"><a xlink:title=" ">
<path fill="none" stroke="#63b8ff" d="M325.77,-332.94C378.67,-321.22 453.66,-304.6 503.15,-293.63"/>
<polygon fill="#63b8ff" stroke="#63b8ff" points="325.32,-329.46 316.32,-335.04 326.84,-336.29 325.32,-329.46"/>
</a>
</g>
</g>
<!-- Node13 -->
<g id="Node000013" class="node">
<title>Node13</title>
<g id="a_Node000013"><a xlink:href="slave__func_8h.html" target="_top" xlink:title="Slave&#39;s functions for parsing requests (header)">
<polygon fill="white" stroke="#666666" points="741.61,-230 639.36,-230 639.36,-199.5 741.61,-199.5 741.61,-230"/>
<text text-anchor="start" x="647.36" y="-216.5" font-family="Helvetica,sans-Serif" font-size="10.00">include/lightmodbus</text>
<text text-anchor="middle" x="690.48" y="-205.25" font-family="Helvetica,sans-Serif" font-size="10.00">/slave_func.h</text>
</a>
</g>
</g>
<!-- Node1&#45;&gt;Node13 -->
<g id="edge31_Node000001_Node000013" class="edge">
<title>Node1&#45;&gt;Node13</title>
<g id="a_edge31_Node000001_Node000013"><a xlink:title=" ">
<path fill="none" stroke="#63b8ff" d="M326.43,-342.73C413.52,-336.34 565.6,-321.89 614.48,-296.5 644.38,-280.97 668.92,-248.94 681.45,-230.22"/>
<polygon fill="#63b8ff" stroke="#63b8ff" points="326.34,-339.23 316.61,-343.44 326.84,-346.21 326.34,-339.23"/>
</a>
</g>
</g>
<!-- Node2&#45;&gt;Node3 -->
<g id="edge2_Node000002_Node000003" class="edge">
<title>Node2&#45;&gt;Node3</title>
<g id="a_edge2_Node000002_Node000003"><a xlink:title=" ">
<path fill="none" stroke="#63b8ff" d="M55.81,-254.86C46.54,-222.54 36.75,-166.85 65.48,-133 95.92,-97.15 231.52,-86.87 307.12,-83.93"/>
<polygon fill="#63b8ff" stroke="#63b8ff" points="52.4,-255.65 58.69,-264.18 59.08,-253.59 52.4,-255.65"/>
</a>
</g>
</g>
<!-- Node4 -->
<g id="Node000004" class="node">
<title>Node4</title>
<g id="a_Node000004"><a xlink:href="lightmodbus_8hpp.html" target="_top" xlink:title="(Very) experimental liblightmodbus C++ interface">
<polygon fill="white" stroke="#666666" points="409.61,-30.5 307.36,-30.5 307.36,0 409.61,0 409.61,-30.5"/>
<text text-anchor="start" x="315.36" y="-17" font-family="Helvetica,sans-Serif" font-size="10.00">include/lightmodbus</text>
<text text-anchor="middle" x="358.48" y="-5.75" font-family="Helvetica,sans-Serif" font-size="10.00">/lightmodbus.hpp</text>
</a>
</g>
</g>
<!-- Node3&#45;&gt;Node4 -->
<g id="edge3_Node000003_Node000004" class="edge">
<title>Node3&#45;&gt;Node4</title>
<g id="a_edge3_Node000003_Node000004"><a xlink:title=" ">
<path fill="none" stroke="#63b8ff" d="M358.48,-54.81C358.48,-46.64 358.48,-37.91 358.48,-30.83"/>
<polygon fill="#63b8ff" stroke="#63b8ff" points="354.98,-54.6 358.48,-64.6 361.98,-54.6 354.98,-54.6"/>
</a>
</g>
</g>
<!-- Node5&#45;&gt;Node3 -->
<g id="edge7_Node000005_Node000003" class="edge">
<title>Node5&#45;&gt;Node3</title>
<g id="a_edge7_Node000005_Node000003"><a xlink:title=" ">
<path fill="none" stroke="#63b8ff" d="M408.6,-188.94C404.73,-180.83 400.41,-171.79 396.48,-163.5 385.53,-140.4 372.91,-113.53 365.32,-97.35"/>
<polygon fill="#63b8ff" stroke="#63b8ff" points="405.4,-190.37 412.88,-197.88 411.72,-187.35 405.4,-190.37"/>
</a>
</g>
</g>
<!-- Node6 -->
<g id="Node000006" class="node">
<title>Node6</title>
<g id="a_Node000006"><a xlink:href="debug_8impl_8h.html" target="_top" xlink:title="Debug utilities (implementation)">
<polygon fill="white" stroke="#666666" points="507.61,-163.5 405.36,-163.5 405.36,-133 507.61,-133 507.61,-163.5"/>
<text text-anchor="start" x="413.36" y="-150" font-family="Helvetica,sans-Serif" font-size="10.00">include/lightmodbus</text>
<text text-anchor="middle" x="456.48" y="-138.75" font-family="Helvetica,sans-Serif" font-size="10.00">/debug.impl.h</text>
</a>
</g>
</g>
<!-- Node5&#45;&gt;Node6 -->
<g id="edge5_Node000005_Node000006" class="edge">
<title>Node5&#45;&gt;Node6</title>
<g id="a_edge5_Node000005_Node000006"><a xlink:title=" ">
<path fill="none" stroke="#63b8ff" d="M434.17,-189.23C438.95,-180.66 444.16,-171.32 448.35,-163.83"/>
<polygon fill="#63b8ff" stroke="#63b8ff" points="431.21,-187.35 429.39,-197.79 437.32,-190.77 431.21,-187.35"/>
</a>
</g>
</g>
<!-- Node6&#45;&gt;Node3 -->
<g id="edge6_Node000006_Node000003" class="edge">
<title>Node6&#45;&gt;Node3</title>
<g id="a_edge6_Node000006_Node000003"><a xlink:title=" ">
<path fill="none" stroke="#63b8ff" d="M424.72,-126.34C410.32,-116.87 393.65,-105.89 380.63,-97.33"/>
<polygon fill="#63b8ff" stroke="#63b8ff" points="422.7,-129.21 432.98,-131.78 426.55,-123.36 422.7,-129.21"/>
</a>
</g>
</g>
<!-- Node7&#45;&gt;Node3 -->
<g id="edge10_Node000007_Node000003" class="edge">
<title>Node7&#45;&gt;Node3</title>
<g id="a_edge10_Node000007_Node000003"><a xlink:title=" ">
<path fill="none" stroke="#63b8ff" d="M151.21,-259.31C108.75,-230.03 44.83,-175.67 80.48,-133 108.79,-99.12 234.73,-88.04 307.01,-84.45"/>
<polygon fill="#63b8ff" stroke="#63b8ff" points="149.18,-262.16 159.43,-264.83 153.08,-256.35 149.18,-262.16"/>
</a>
</g>
</g>
<!-- Node8 -->
<g id="Node000008" class="node">
<title>Node8</title>
<g id="a_Node000008"><a xlink:href="master_8impl_8h.html" target="_top" xlink:title="Master&#39;s types and basic functions (implementation)">
<polygon fill="white" stroke="#666666" points="191.61,-163.5 89.36,-163.5 89.36,-133 191.61,-133 191.61,-163.5"/>
<text text-anchor="start" x="97.36" y="-150" font-family="Helvetica,sans-Serif" font-size="10.00">include/lightmodbus</text>
<text text-anchor="middle" x="140.48" y="-138.75" font-family="Helvetica,sans-Serif" font-size="10.00">/master.impl.h</text>
</a>
</g>
</g>
<!-- Node7&#45;&gt;Node8 -->
<g id="edge11_Node000007_Node000008" class="edge">
<title>Node7&#45;&gt;Node8</title>
<g id="a_edge11_Node000007_Node000008"><a xlink:title=" ">
<path fill="none" stroke="#63b8ff" d="M176.06,-255.16C166.96,-228.09 152.8,-185.91 145.38,-163.83"/>
<polygon fill="#63b8ff" stroke="#63b8ff" points="172.62,-255.93 179.13,-264.3 179.26,-253.7 172.62,-255.93"/>
</a>
</g>
</g>
<!-- Node7&#45;&gt;Node9 -->
<g id="edge13_Node000007_Node000009" class="edge">
<title>Node7&#45;&gt;Node9</title>
<g id="a_edge13_Node000007_Node000009"><a xlink:title=" ">
<path fill="none" stroke="#63b8ff" d="M211.1,-258.52C222.47,-249.23 235.44,-238.65 245.63,-230.33"/>
<polygon fill="#63b8ff" stroke="#63b8ff" points="209.12,-255.62 203.58,-264.66 213.54,-261.04 209.12,-255.62"/>
</a>
</g>
</g>
<!-- Node10 -->
<g id="Node000010" class="node">
<title>Node10</title>
<g id="a_Node000010"><a xlink:href="master__func_8impl_8h.html" target="_top" xlink:title="Master&#39;s functions for building requests and parsing responses (implementation)">
<polygon fill="white" stroke="#666666" points="311.61,-163.5 209.36,-163.5 209.36,-133 311.61,-133 311.61,-163.5"/>
<text text-anchor="start" x="217.36" y="-150" font-family="Helvetica,sans-Serif" font-size="10.00">include/lightmodbus</text>
<text text-anchor="middle" x="260.48" y="-138.75" font-family="Helvetica,sans-Serif" font-size="10.00">/master_func.impl.h</text>
</a>
</g>
</g>
<!-- Node7&#45;&gt;Node10 -->
<g id="edge18_Node000007_Node000010" class="edge">
<title>Node7&#45;&gt;Node10</title>
<g id="a_edge18_Node000007_Node000010"><a xlink:title=" ">
<path fill="none" stroke="#63b8ff" d="M186.5,-254.43C188.74,-237.78 193.48,-216.2 203.48,-199.5 212.03,-185.24 225.97,-172.84 237.92,-163.93"/>
<polygon fill="#63b8ff" stroke="#63b8ff" points="183.06,-253.71 185.44,-264.04 190.02,-254.48 183.06,-253.71"/>
</a>
</g>
</g>
<!-- Node8&#45;&gt;Node3 -->
<g id="edge12_Node000008_Node000003" class="edge">
<title>Node8&#45;&gt;Node3</title>
<g id="a_edge12_Node000008_Node000003"><a xlink:title=" ">
<path fill="none" stroke="#63b8ff" d="M200.97,-129.35C234.98,-119.29 276.91,-106.89 308.96,-97.4"/>
<polygon fill="#63b8ff" stroke="#63b8ff" points="200.27,-125.91 191.68,-132.1 202.26,-132.62 200.27,-125.91"/>
</a>
</g>
</g>
<!-- Node9&#45;&gt;Node3 -->
<g id="edge14_Node000009_Node000003" class="edge">
<title>Node9&#45;&gt;Node3</title>
<g id="a_edge14_Node000009_Node000003"><a xlink:title=" ">
<path fill="none" stroke="#63b8ff" d="M292.5,-192.15C302.23,-183.93 312.6,-174 320.48,-163.5 336.11,-142.68 347.59,-114.41 353.64,-97.44"/>
<polygon fill="#63b8ff" stroke="#63b8ff" points="290.57,-189.21 285.01,-198.23 294.98,-194.64 290.57,-189.21"/>
</a>
</g>
</g>
<!-- Node9&#45;&gt;Node8 -->
<g id="edge15_Node000009_Node000008" class="edge">
<title>Node9&#45;&gt;Node8</title>
<g id="a_edge15_Node000009_Node000008"><a xlink:title=" ">
<path fill="none" stroke="#63b8ff" d="M225.43,-193.79C206.96,-184.11 185.17,-172.68 168.28,-163.83"/>
<polygon fill="#63b8ff" stroke="#63b8ff" points="223.75,-196.87 234.23,-198.41 227,-190.67 223.75,-196.87"/>
</a>
</g>
</g>
<!-- Node9&#45;&gt;Node10 -->
<g id="edge16_Node000009_Node000010" class="edge">
<title>Node9&#45;&gt;Node10</title>
<g id="a_edge16_Node000009_Node000010"><a xlink:title=" ">
<path fill="none" stroke="#63b8ff" d="M262.28,-187.81C261.9,-179.64 261.49,-170.91 261.16,-163.83"/>
<polygon fill="#63b8ff" stroke="#63b8ff" points="258.77,-187.78 262.73,-197.6 265.76,-187.45 258.77,-187.78"/>
</a>
</g>
</g>
<!-- Node10&#45;&gt;Node3 -->
<g id="edge17_Node000010_Node000003" class="edge">
<title>Node10&#45;&gt;Node3</title>
<g id="a_edge17_Node000010_Node000003"><a xlink:title=" ">
<path fill="none" stroke="#63b8ff" d="M292.25,-126.34C306.65,-116.87 323.32,-105.89 336.33,-97.33"/>
<polygon fill="#63b8ff" stroke="#63b8ff" points="290.42,-123.36 283.99,-131.78 294.26,-129.21 290.42,-123.36"/>
</a>
</g>
</g>
<!-- Node11&#45;&gt;Node3 -->
<g id="edge22_Node000011_Node000003" class="edge">
<title>Node11&#45;&gt;Node3</title>
<g id="a_edge22_Node000011_Node000003"><a xlink:title=" ">
<path fill="none" stroke="#63b8ff" d="M554.99,-254.26C554.19,-221.7 547.86,-166.16 516.48,-133 488.99,-103.94 444.77,-91.62 410.09,-86.43"/>
<polygon fill="#63b8ff" stroke="#63b8ff" points="551.49,-254.03 555.06,-264.01 558.49,-253.99 551.49,-254.03"/>
</a>
</g>
</g>
<!-- Node11&#45;&gt;Node5 -->
<g id="edge21_Node000011_Node000005" class="edge">
<title>Node11&#45;&gt;Node5</title>
<g id="a_edge21_Node000011_Node000005"><a xlink:title=" ">
<path fill="none" stroke="#63b8ff" d="M513.86,-260.7C493.56,-250.93 469.42,-239.31 450.77,-230.33"/>
<polygon fill="#63b8ff" stroke="#63b8ff" points="512.19,-263.77 522.71,-264.96 515.22,-257.47 512.19,-263.77"/>
</a>
</g>
</g>
<!-- Node12 -->
<g id="Node000012" class="node">
<title>Node12</title>
<g id="a_Node000012"><a xlink:href="slave_8impl_8h.html" target="_top" xlink:title="Slave&#39;s types and basic functions (implementation)">
<polygon fill="white" stroke="#666666" points="785.61,-163.5 683.36,-163.5 683.36,-133 785.61,-133 785.61,-163.5"/>
<text text-anchor="start" x="691.36" y="-150" font-family="Helvetica,sans-Serif" font-size="10.00">include/lightmodbus</text>
<text text-anchor="middle" x="734.48" y="-138.75" font-family="Helvetica,sans-Serif" font-size="10.00">/slave.impl.h</text>
</a>
</g>
</g>
<!-- Node11&#45;&gt;Node12 -->
<g id="edge23_Node000011_Node000012" class="edge">
<title>Node11&#45;&gt;Node12</title>
<g id="a_edge23_Node000011_Node000012"><a xlink:title=" ">
<path fill="none" stroke="#63b8ff" d="M574.39,-257.29C592.54,-236.71 618.31,-208.43 630.48,-199.5 650.53,-184.79 675.56,-172.54 696.04,-163.82"/>
<polygon fill="#63b8ff" stroke="#63b8ff" points="571.86,-254.87 567.91,-264.7 577.13,-259.48 571.86,-254.87"/>
</a>
</g>
</g>
<!-- Node11&#45;&gt;Node13 -->
<g id="edge25_Node000011_Node000013" class="edge">
<title>Node11&#45;&gt;Node13</title>
<g id="a_edge25_Node000011_Node000013"><a xlink:title=" ">
<path fill="none" stroke="#63b8ff" d="M595.71,-260.7C616.31,-250.93 640.82,-239.31 659.75,-230.33"/>
<polygon fill="#63b8ff" stroke="#63b8ff" points="594.25,-257.52 586.71,-264.97 597.25,-263.84 594.25,-257.52"/>
</a>
</g>
</g>
<!-- Node14 -->
<g id="Node000014" class="node">
<title>Node14</title>
<g id="a_Node000014"><a xlink:href="slave__func_8impl_8h.html" target="_top" xlink:title="Slave&#39;s functions for parsing requests (implementation)">
<polygon fill="white" stroke="#666666" points="665.61,-163.5 563.36,-163.5 563.36,-133 665.61,-133 665.61,-163.5"/>
<text text-anchor="start" x="571.36" y="-150" font-family="Helvetica,sans-Serif" font-size="10.00">include/lightmodbus</text>
<text text-anchor="middle" x="614.48" y="-138.75" font-family="Helvetica,sans-Serif" font-size="10.00">/slave_func.impl.h</text>
</a>
</g>
</g>
<!-- Node11&#45;&gt;Node14 -->
<g id="edge30_Node000011_Node000014" class="edge">
<title>Node11&#45;&gt;Node14</title>
<g id="a_edge30_Node000011_Node000014"><a xlink:title=" ">
<path fill="none" stroke="#63b8ff" d="M565.81,-255.52C578.2,-228.46 597.65,-186.01 607.8,-163.83"/>
<polygon fill="#63b8ff" stroke="#63b8ff" points="562.75,-253.8 561.76,-264.35 569.11,-256.72 562.75,-253.8"/>
</a>
</g>
</g>
<!-- Node12&#45;&gt;Node3 -->
<g id="edge24_Node000012_Node000003" class="edge">
<title>Node12&#45;&gt;Node3</title>
<g id="a_edge24_Node000012_Node000003"><a xlink:title=" ">
<path fill="none" stroke="#63b8ff" d="M672.13,-132.62C573.88,-113.48 470.31,-98.15 409.87,-89.7"/>
<polygon fill="#63b8ff" stroke="#63b8ff" points="671.18,-136 681.67,-134.5 672.53,-129.13 671.18,-136"/>
</a>
</g>
</g>
<!-- Node13&#45;&gt;Node3 -->
<g id="edge26_Node000013_Node000003" class="edge">
<title>Node13&#45;&gt;Node3</title>
<g id="a_edge26_Node000013_Node000003"><a xlink:title=" ">
<path fill="none" stroke="#63b8ff" d="M745.84,-194.81C781.06,-179.85 816.29,-157.46 794.48,-133 769.26,-104.7 519.79,-90.03 409.95,-84.91"/>
<polygon fill="#63b8ff" stroke="#63b8ff" points="744.82,-191.45 736.87,-198.45 747.45,-197.94 744.82,-191.45"/>
</a>
</g>
</g>
<!-- Node13&#45;&gt;Node12 -->
<g id="edge27_Node000013_Node000012" class="edge">
<title>Node13&#45;&gt;Node12</title>
<g id="a_edge27_Node000013_Node000012"><a xlink:title=" ">
<path fill="none" stroke="#63b8ff" d="M706.83,-189.79C712.78,-181.07 719.31,-171.49 724.54,-163.83"/>
<polygon fill="#63b8ff" stroke="#63b8ff" points="704.07,-187.63 701.32,-197.86 709.85,-191.58 704.07,-187.63"/>
</a>
</g>
</g>
<!-- Node13&#45;&gt;Node14 -->
<g id="edge28_Node000013_Node000014" class="edge">
<title>Node13&#45;&gt;Node14</title>
<g id="a_edge28_Node000013_Node000014"><a xlink:title=" ">
<path fill="none" stroke="#63b8ff" d="M664.55,-191.74C653.69,-182.53 641.37,-172.06 631.66,-163.83"/>
<polygon fill="#63b8ff" stroke="#63b8ff" points="662.2,-194.33 672.08,-198.13 666.73,-189 662.2,-194.33"/>
</a>
</g>
</g>
<!-- Node14&#45;&gt;Node3 -->
<g id="edge29_Node000014_Node000003" class="edge">
<title>Node14&#45;&gt;Node3</title>
<g id="a_edge29_Node000014_Node000003"><a xlink:title=" ">
<path fill="none" stroke="#63b8ff" d="M551.93,-131.49C508.32,-120.5 450.84,-106.02 409.9,-95.7"/>
<polygon fill="#63b8ff" stroke="#63b8ff" points="550.97,-134.86 561.52,-133.91 552.68,-128.07 550.97,-134.86"/>
</a>
</g>
</g>
</g>
</svg>
