<?xml version="1.0" encoding="UTF-8" standalone="no"?>
<!DOCTYPE svg PUBLIC "-//W3C//DTD SVG 1.1//EN"
 "http://www.w3.org/Graphics/SVG/1.1/DTD/svg11.dtd">
<!-- Generated by graphviz version 9.0.0 (20230911.1827)
 -->
<!-- Title: modbusIsOk Pages: 1 -->
<svg width="454pt" height="520pt"
 viewBox="0.00 0.00 453.50 519.71" xmlns="http://www.w3.org/2000/svg" xmlns:xlink="http://www.w3.org/1999/xlink">
<g id="graph0" class="graph" transform="scale(1 1) rotate(0) translate(4 515.71)">
<title>modbusIsOk</title>
<!-- Node1 -->
<g id="Node000001" class="node">
<title>Node1</title>
<g id="a_Node000001"><a xlink:title="Checks if ModbusErrorInfo contains an error.">
<polygon fill="#999999" stroke="#666666" points="445.5,-263.25 374,-263.25 374,-244 445.5,-244 445.5,-263.25"/>
<text text-anchor="middle" x="409.75" y="-249.75" font-family="Helvetica,sans-Serif" font-size="10.00">modbusIsOk</text>
</a>
</g>
</g>
<!-- Node2 -->
<g id="Node000002" class="node">
<title>Node2</title>
<g id="a_Node000002"><a xlink:href="classllm_1_1Slave.html#ac915e0947f733a784a9069f5ff5b9737" target="_top" xlink:title=" ">
<polygon fill="white" stroke="#666666" points="145.75,-490.25 0,-490.25 0,-471 145.75,-471 145.75,-490.25"/>
<text text-anchor="middle" x="72.88" y="-476.75" font-family="Helvetica,sans-Serif" font-size="10.00">llm::Slave::buildExceptionPDU</text>
</a>
</g>
</g>
<!-- Node1&#45;&gt;Node2 -->
<g id="edge1_Node000001_Node000002" class="edge">
<title>Node1&#45;&gt;Node2</title>
<g id="a_edge1_Node000001_Node000002"><a xlink:title=" ">
<path fill="none" stroke="#63b8ff" d="M409.63,-274.95C410.23,-321.48 404.25,-431.88 338,-480.62 267.45,-532.53 155.15,-506.98 102.67,-490.66"/>
<polygon fill="#63b8ff" stroke="#63b8ff" points="413.13,-275.04 409.37,-265.13 406.13,-275.22 413.13,-275.04"/>
</a>
</g>
</g>
<!-- Node3 -->
<g id="Node000003" class="node">
<title>Node3</title>
<g id="a_Node000003"><a xlink:href="classllm_1_1Slave.html#a10e79600053c725e639225264d966e63" target="_top" xlink:title=" ">
<polygon fill="white" stroke="#666666" points="145.38,-414.25 0.38,-414.25 0.38,-395 145.38,-395 145.38,-414.25"/>
<text text-anchor="middle" x="72.88" y="-400.75" font-family="Helvetica,sans-Serif" font-size="10.00">llm::Slave::buildExceptionRTU</text>
</a>
</g>
</g>
<!-- Node1&#45;&gt;Node3 -->
<g id="edge2_Node000001_Node000003" class="edge">
<title>Node1&#45;&gt;Node3</title>
<g id="a_edge2_Node000001_Node000003"><a xlink:title=" ">
<path fill="none" stroke="#63b8ff" d="M405.98,-274.76C400.22,-309.01 383.48,-375.71 338,-404.62 265.64,-450.63 158.06,-429.43 105.32,-414.65"/>
<polygon fill="#63b8ff" stroke="#63b8ff" points="409.39,-275.65 407.41,-265.24 402.46,-274.61 409.39,-275.65"/>
</a>
</g>
</g>
<!-- Node4 -->
<g id="Node000004" class="node">
<title>Node4</title>
<g id="a_Node000004"><a xlink:href="classllm_1_1Slave.html#a844c37870a4e98bffc091ddfafb8f959" target="_top" xlink:title=" ">
<polygon fill="white" stroke="#666666" points="145,-338.25 0.75,-338.25 0.75,-319 145,-319 145,-338.25"/>
<text text-anchor="middle" x="72.88" y="-324.75" font-family="Helvetica,sans-Serif" font-size="10.00">llm::Slave::buildExceptionTCP</text>
</a>
</g>
</g>
<!-- Node1&#45;&gt;Node4 -->
<g id="edge3_Node000001_Node000004" class="edge">
<title>Node1&#45;&gt;Node4</title>
<g id="a_edge3_Node000001_Node000004"><a xlink:title=" ">
<path fill="none" stroke="#63b8ff" d="M397,-273.26C384.83,-291.48 363.97,-317.42 338,-328.62 265.58,-359.87 171.24,-349.13 117.13,-338.72"/>
<polygon fill="#63b8ff" stroke="#63b8ff" points="399.92,-275.19 402.32,-264.87 394.01,-271.44 399.92,-275.19"/>
</a>
</g>
</g>
<!-- Node5 -->
<g id="Node000005" class="node">
<title>Node5</title>
<g id="a_Node000005"><a xlink:href="slave_8impl_8h.html#a384f75966903cc0c249eb68a6a20180e" target="_top" xlink:title="Builds an exception PDU.">
<polygon fill="white" stroke="#666666" points="327.5,-471.25 192.25,-471.25 192.25,-452 327.5,-452 327.5,-471.25"/>
<text text-anchor="middle" x="259.88" y="-457.75" font-family="Helvetica,sans-Serif" font-size="10.00">modbusBuildExceptionPDU</text>
</a>
</g>
</g>
<!-- Node1&#45;&gt;Node5 -->
<g id="edge4_Node000001_Node000005" class="edge">
<title>Node1&#45;&gt;Node5</title>
<g id="a_edge4_Node000001_Node000005"><a xlink:title=" ">
<path fill="none" stroke="#63b8ff" d="M406.57,-274.86C401.52,-312.95 385.58,-393.06 338,-437.62 331.55,-443.66 323.61,-448.18 315.29,-451.57"/>
<polygon fill="#63b8ff" stroke="#63b8ff" points="410.02,-275.51 407.71,-265.17 403.06,-274.69 410.02,-275.51"/>
</a>
</g>
</g>
<!-- Node6 -->
<g id="Node000006" class="node">
<title>Node6</title>
<g id="a_Node000006"><a xlink:href="slave_8impl_8h.html#a1da09df8858b91c61fe02c25783c2946" target="_top" xlink:title="Builds a Modbus RTU exception.">
<polygon fill="white" stroke="#666666" points="327.12,-395.25 192.62,-395.25 192.62,-376 327.12,-376 327.12,-395.25"/>
<text text-anchor="middle" x="259.88" y="-381.75" font-family="Helvetica,sans-Serif" font-size="10.00">modbusBuildExceptionRTU</text>
</a>
</g>
</g>
<!-- Node1&#45;&gt;Node6 -->
<g id="edge6_Node000001_Node000006" class="edge">
<title>Node1&#45;&gt;Node6</title>
<g id="a_edge6_Node000001_Node000006"><a xlink:title=" ">
<path fill="none" stroke="#63b8ff" d="M400.49,-274.16C389.68,-298.51 368.45,-338.66 338,-361.62 330.05,-367.62 320.58,-372.14 311.04,-375.53"/>
<polygon fill="#63b8ff" stroke="#63b8ff" points="403.69,-275.59 404.37,-265.02 397.24,-272.86 403.69,-275.59"/>
</a>
</g>
</g>
<!-- Node7 -->
<g id="Node000007" class="node">
<title>Node7</title>
<g id="a_Node000007"><a xlink:href="slave_8impl_8h.html#a778e65356f7da66831f18ec53b975383" target="_top" xlink:title="Builds a Modbus TCP exception.">
<polygon fill="white" stroke="#666666" points="326.75,-319.25 193,-319.25 193,-300 326.75,-300 326.75,-319.25"/>
<text text-anchor="middle" x="259.88" y="-305.75" font-family="Helvetica,sans-Serif" font-size="10.00">modbusBuildExceptionTCP</text>
</a>
</g>
</g>
<!-- Node1&#45;&gt;Node7 -->
<g id="edge8_Node000001_Node000007" class="edge">
<title>Node1&#45;&gt;Node7</title>
<g id="a_edge8_Node000001_Node000007"><a xlink:title=" ">
<path fill="none" stroke="#63b8ff" d="M383.29,-269.41C370.16,-277 353.64,-285.72 338,-291.62 329.9,-294.69 321.11,-297.33 312.47,-299.58"/>
<polygon fill="#63b8ff" stroke="#63b8ff" points="384.91,-272.52 391.72,-264.41 381.34,-266.5 384.91,-272.52"/>
</a>
</g>
</g>
<!-- Node8 -->
<g id="Node000008" class="node">
<title>Node8</title>
<g id="a_Node000008"><a xlink:href="slave_8impl_8h.html#a6a1e63faa64b7ca4b91d1ce7988be850" target="_top" xlink:title="Parses provided Modbus RTU request frame and generates a Modbus RTU response.">
<polygon fill="white" stroke="#666666" points="326,-282.25 193.75,-282.25 193.75,-263 326,-263 326,-282.25"/>
<text text-anchor="middle" x="259.88" y="-268.75" font-family="Helvetica,sans-Serif" font-size="10.00">modbusParseRequestRTU</text>
</a>
</g>
</g>
<!-- Node1&#45;&gt;Node8 -->
<g id="edge10_Node000001_Node000008" class="edge">
<title>Node1&#45;&gt;Node8</title>
<g id="a_edge10_Node000001_Node000008"><a xlink:title=" ">
<path fill="none" stroke="#63b8ff" d="M362.62,-259.55C351.14,-261.03 338.61,-262.64 326.39,-264.21"/>
<polygon fill="#63b8ff" stroke="#63b8ff" points="362.73,-263.07 372.2,-258.32 361.84,-256.12 362.73,-263.07"/>
</a>
</g>
</g>
<!-- Node9 -->
<g id="Node000009" class="node">
<title>Node9</title>
<g id="a_Node000009"><a xlink:href="classllm_1_1Slave.html#a001591b9a38b69cf29adc853872a09fe" target="_top" xlink:title=" ">
<polygon fill="white" stroke="#666666" points="144.25,-263.25 1.5,-263.25 1.5,-244 144.25,-244 144.25,-263.25"/>
<text text-anchor="middle" x="72.88" y="-249.75" font-family="Helvetica,sans-Serif" font-size="10.00">llm::Slave::parseRequestRTU</text>
</a>
</g>
</g>
<!-- Node1&#45;&gt;Node9 -->
<g id="edge15_Node000001_Node000009" class="edge">
<title>Node1&#45;&gt;Node9</title>
<g id="a_edge15_Node000001_Node000009"><a xlink:title=" ">
<path fill="none" stroke="#63b8ff" d="M362.13,-253.62C305.73,-253.62 210.23,-253.62 144.71,-253.62"/>
<polygon fill="#63b8ff" stroke="#63b8ff" points="362.03,-257.13 372.03,-253.63 362.03,-250.13 362.03,-257.13"/>
</a>
</g>
</g>
<!-- Node10 -->
<g id="Node000010" class="node">
<title>Node10</title>
<g id="a_Node000010"><a xlink:href="slave_8impl_8h.html#a5ad3fe86aa14f8982d7c459c68cd8b3e" target="_top" xlink:title="Parses provided Modbus TCP request frame and generates a Modbus TCP response.">
<polygon fill="white" stroke="#666666" points="325.62,-206.25 194.12,-206.25 194.12,-187 325.62,-187 325.62,-206.25"/>
<text text-anchor="middle" x="259.88" y="-192.75" font-family="Helvetica,sans-Serif" font-size="10.00">modbusParseRequestTCP</text>
</a>
</g>
</g>
<!-- Node1&#45;&gt;Node10 -->
<g id="edge12_Node000001_Node000010" class="edge">
<title>Node1&#45;&gt;Node10</title>
<g id="a_edge12_Node000001_Node000010"><a xlink:title=" ">
<path fill="none" stroke="#63b8ff" d="M378.67,-238.5C366.24,-232.54 351.59,-225.88 338,-220.62 324.79,-215.52 310,-210.7 296.93,-206.75"/>
<polygon fill="#63b8ff" stroke="#63b8ff" points="377.05,-241.61 387.57,-242.84 380.12,-235.31 377.05,-241.61"/>
</a>
</g>
</g>
<!-- Node11 -->
<g id="Node000011" class="node">
<title>Node11</title>
<g id="a_Node000011"><a xlink:href="classllm_1_1Slave.html#a05169339916c3727c780c75157b399b9" target="_top" xlink:title=" ">
<polygon fill="white" stroke="#666666" points="143.88,-187.25 1.88,-187.25 1.88,-168 143.88,-168 143.88,-187.25"/>
<text text-anchor="middle" x="72.88" y="-173.75" font-family="Helvetica,sans-Serif" font-size="10.00">llm::Slave::parseRequestTCP</text>
</a>
</g>
</g>
<!-- Node1&#45;&gt;Node11 -->
<g id="edge16_Node000001_Node000011" class="edge">
<title>Node1&#45;&gt;Node11</title>
<g id="a_edge16_Node000001_Node000011"><a xlink:title=" ">
<path fill="none" stroke="#63b8ff" d="M397.23,-233.99C385.14,-215.52 364.24,-189.05 338,-177.62 265.47,-146.05 170.76,-157.03 116.7,-167.55"/>
<polygon fill="#63b8ff" stroke="#63b8ff" points="394.11,-235.6 402.37,-242.24 400.05,-231.9 394.11,-235.6"/>
</a>
</g>
</g>
<!-- Node12 -->
<g id="Node000012" class="node">
<title>Node12</title>
<g id="a_Node000012"><a xlink:href="classllm_1_1Slave.html#af8cc9d8d58bf7f632f3f3cf7e6b9c84b" target="_top" xlink:title=" ">
<polygon fill="white" stroke="#666666" points="331.62,-130.25 188.12,-130.25 188.12,-111 331.62,-111 331.62,-130.25"/>
<text text-anchor="middle" x="259.88" y="-116.75" font-family="Helvetica,sans-Serif" font-size="10.00">llm::Slave::parseRequestPDU</text>
</a>
</g>
</g>
<!-- Node1&#45;&gt;Node12 -->
<g id="edge14_Node000001_Node000012" class="edge">
<title>Node1&#45;&gt;Node12</title>
<g id="a_edge14_Node000001_Node000012"><a xlink:title=" ">
<path fill="none" stroke="#63b8ff" d="M400.69,-233.23C389.97,-208.7 368.74,-167.91 338,-144.62 330.06,-138.61 320.6,-134.09 311.06,-130.69"/>
<polygon fill="#63b8ff" stroke="#63b8ff" points="397.32,-234.25 404.4,-242.13 403.78,-231.56 397.32,-234.25"/>
</a>
</g>
</g>
<!-- Node13 -->
<g id="Node000013" class="node">
<title>Node13</title>
<g id="a_Node000013"><a xlink:href="classllm_1_1Master.html#a39b0210172c76ef4dc9e43668daef7c9" target="_top" xlink:title=" ">
<polygon fill="white" stroke="#666666" points="338,-93.25 181.75,-93.25 181.75,-74 338,-74 338,-93.25"/>
<text text-anchor="middle" x="259.88" y="-79.75" font-family="Helvetica,sans-Serif" font-size="10.00">llm::Master::parseResponsePDU</text>
</a>
</g>
</g>
<!-- Node1&#45;&gt;Node13 -->
<g id="edge17_Node000001_Node000013" class="edge">
<title>Node1&#45;&gt;Node13</title>
<g id="a_edge17_Node000001_Node000013"><a xlink:title=" ">
<path fill="none" stroke="#63b8ff" d="M405.02,-232.57C398.02,-199.45 379.67,-135.47 338,-101.62 334.16,-98.5 329.87,-95.9 325.34,-93.74"/>
<polygon fill="#63b8ff" stroke="#63b8ff" points="401.54,-232.99 406.89,-242.14 408.41,-231.65 401.54,-232.99"/>
</a>
</g>
</g>
<!-- Node14 -->
<g id="Node000014" class="node">
<title>Node14</title>
<g id="a_Node000014"><a xlink:href="classllm_1_1Master.html#ab052e172e96808744ee43a8eff80b679" target="_top" xlink:title=" ">
<polygon fill="white" stroke="#666666" points="337.62,-56.25 182.12,-56.25 182.12,-37 337.62,-37 337.62,-56.25"/>
<text text-anchor="middle" x="259.88" y="-42.75" font-family="Helvetica,sans-Serif" font-size="10.00">llm::Master::parseResponseRTU</text>
</a>
</g>
</g>
<!-- Node1&#45;&gt;Node14 -->
<g id="edge18_Node000001_Node000014" class="edge">
<title>Node1&#45;&gt;Node14</title>
<g id="a_edge18_Node000001_Node000014"><a xlink:title=" ">
<path fill="none" stroke="#63b8ff" d="M407.16,-232.29C403.03,-192.95 388.47,-108.98 338,-64.62 334.39,-61.45 330.32,-58.8 325.99,-56.61"/>
<polygon fill="#63b8ff" stroke="#63b8ff" points="403.66,-232.44 408.04,-242.08 410.63,-231.81 403.66,-232.44"/>
</a>
</g>
</g>
<!-- Node15 -->
<g id="Node000015" class="node">
<title>Node15</title>
<g id="a_Node000015"><a xlink:href="classllm_1_1Master.html#ad1f614f5d44a61a8507ae34968fa7903" target="_top" xlink:title=" ">
<polygon fill="white" stroke="#666666" points="337.25,-19.25 182.5,-19.25 182.5,0 337.25,0 337.25,-19.25"/>
<text text-anchor="middle" x="259.88" y="-5.75" font-family="Helvetica,sans-Serif" font-size="10.00">llm::Master::parseResponseTCP</text>
</a>
</g>
</g>
<!-- Node1&#45;&gt;Node15 -->
<g id="edge19_Node000001_Node000015" class="edge">
<title>Node1&#45;&gt;Node15</title>
<g id="a_edge19_Node000001_Node000015"><a xlink:title=" ">
<path fill="none" stroke="#63b8ff" d="M408.68,-232.27C407.31,-187.39 397.51,-82.88 338,-27.62 334.57,-24.44 330.7,-21.79 326.55,-19.58"/>
<polygon fill="#63b8ff" stroke="#63b8ff" points="405.18,-232.26 408.85,-242.2 412.18,-232.14 405.18,-232.26"/>
</a>
</g>
</g>
<!-- Node5&#45;&gt;Node2 -->
<g id="edge5_Node000005_Node000002" class="edge">
<title>Node5&#45;&gt;Node2</title>
<g id="a_edge5_Node000005_Node000002"><a xlink:title=" ">
<path fill="none" stroke="#63b8ff" d="M180.5,-469.67C169.06,-470.85 157.32,-472.06 146.01,-473.22"/>
<polygon fill="#63b8ff" stroke="#63b8ff" points="180.73,-473.17 190.32,-468.67 180.01,-466.21 180.73,-473.17"/>
</a>
</g>
</g>
<!-- Node6&#45;&gt;Node3 -->
<g id="edge7_Node000006_Node000003" class="edge">
<title>Node6&#45;&gt;Node3</title>
<g id="a_edge7_Node000006_Node000003"><a xlink:title=" ">
<path fill="none" stroke="#63b8ff" d="M181.21,-393.6C169.46,-394.81 157.38,-396.05 145.76,-397.24"/>
<polygon fill="#63b8ff" stroke="#63b8ff" points="181.25,-397.12 190.84,-392.61 180.54,-390.15 181.25,-397.12"/>
</a>
</g>
</g>
<!-- Node7&#45;&gt;Node4 -->
<g id="edge9_Node000007_Node000004" class="edge">
<title>Node7&#45;&gt;Node4</title>
<g id="a_edge9_Node000007_Node000004"><a xlink:title=" ">
<path fill="none" stroke="#63b8ff" d="M181.3,-317.59C169.37,-318.82 157.1,-320.08 145.31,-321.29"/>
<polygon fill="#63b8ff" stroke="#63b8ff" points="181.51,-321.09 191.1,-316.59 180.8,-314.13 181.51,-321.09"/>
</a>
</g>
</g>
<!-- Node8&#45;&gt;Node9 -->
<g id="edge11_Node000008_Node000009" class="edge">
<title>Node8&#45;&gt;Node9</title>
<g id="a_edge11_Node000008_Node000009"><a xlink:title=" ">
<path fill="none" stroke="#63b8ff" d="M182.12,-264.74C169.7,-263.47 156.88,-262.15 144.61,-260.89"/>
<polygon fill="#63b8ff" stroke="#63b8ff" points="181.58,-268.2 191.88,-265.74 182.29,-261.24 181.58,-268.2"/>
</a>
</g>
</g>
<!-- Node10&#45;&gt;Node11 -->
<g id="edge13_Node000010_Node000011" class="edge">
<title>Node10&#45;&gt;Node11</title>
<g id="a_edge13_Node000010_Node000011"><a xlink:title=" ">
<path fill="none" stroke="#63b8ff" d="M182.22,-188.75C169.61,-187.46 156.6,-186.12 144.16,-184.84"/>
<polygon fill="#63b8ff" stroke="#63b8ff" points="181.84,-192.23 192.15,-189.77 182.56,-185.27 181.84,-192.23"/>
</a>
</g>
</g>
</g>
</svg>
