<?xml version="1.0" encoding="UTF-8" standalone="no"?>
<!DOCTYPE svg PUBLIC "-//W3C//DTD SVG 1.1//EN"
 "http://www.w3.org/Graphics/SVG/1.1/DTD/svg11.dtd">
<!-- Generated by graphviz version 9.0.0 (20230911.1827)
 -->
<!-- Title: modbusUnpackRTU Pages: 1 -->
<svg width="480pt" height="64pt"
 viewBox="0.00 0.00 479.75 64.25" xmlns="http://www.w3.org/2000/svg" xmlns:xlink="http://www.w3.org/1999/xlink">
<g id="graph0" class="graph" transform="scale(1 1) rotate(0) translate(4 60.25)">
<title>modbusUnpackRTU</title>
<!-- Node1 -->
<g id="Node000001" class="node">
<title>Node1</title>
<g id="a_Node000001"><a xlink:title="Unpacks data from a Modbus RTU frame and optionally checks CRC.">
<polygon fill="#999999" stroke="#666666" points="471.75,-37.25 367.25,-37.25 367.25,-18 471.75,-18 471.75,-37.25"/>
<text text-anchor="middle" x="419.5" y="-23.75" font-family="Helvetica,sans-Serif" font-size="10.00">modbusUnpackRTU</text>
</a>
</g>
</g>
<!-- Node2 -->
<g id="Node000002" class="node">
<title>Node2</title>
<g id="a_Node000002"><a xlink:href="slave_8impl_8h.html#a6a1e63faa64b7ca4b91d1ce7988be850" target="_top" xlink:title="Parses provided Modbus RTU request frame and generates a Modbus RTU response.">
<polygon fill="white" stroke="#666666" points="327.5,-56.25 195.25,-56.25 195.25,-37 327.5,-37 327.5,-56.25"/>
<text text-anchor="middle" x="261.38" y="-42.75" font-family="Helvetica,sans-Serif" font-size="10.00">modbusParseRequestRTU</text>
</a>
</g>
</g>
<!-- Node1&#45;&gt;Node2 -->
<g id="edge1_Node000001_Node000002" class="edge">
<title>Node1&#45;&gt;Node2</title>
<g id="a_edge1_Node000001_Node000002"><a xlink:title=" ">
<path fill="none" stroke="#63b8ff" d="M355.56,-35.28C346.42,-36.4 336.99,-37.55 327.8,-38.66"/>
<polygon fill="#63b8ff" stroke="#63b8ff" points="355.94,-38.76 365.44,-34.08 355.09,-31.82 355.94,-38.76"/>
</a>
</g>
</g>
<!-- Node4 -->
<g id="Node000004" class="node">
<title>Node4</title>
<g id="a_Node000004"><a xlink:href="master_8impl_8h.html#a151b85c221ae43804856eb92737498e5" target="_top" xlink:title="Parses a Modbus RTU slave response.">
<polygon fill="white" stroke="#666666" points="331.25,-19.25 191.5,-19.25 191.5,0 331.25,0 331.25,-19.25"/>
<text text-anchor="middle" x="261.38" y="-5.75" font-family="Helvetica,sans-Serif" font-size="10.00">modbusParseResponseRTU</text>
</a>
</g>
</g>
<!-- Node1&#45;&gt;Node4 -->
<g id="edge3_Node000001_Node000004" class="edge">
<title>Node1&#45;&gt;Node4</title>
<g id="a_edge3_Node000001_Node000004"><a xlink:title=" ">
<path fill="none" stroke="#63b8ff" d="M355.61,-20.37C347.74,-19.47 339.66,-18.54 331.7,-17.62"/>
<polygon fill="#63b8ff" stroke="#63b8ff" points="355.11,-23.84 365.44,-21.51 355.91,-16.89 355.11,-23.84"/>
</a>
</g>
</g>
<!-- Node3 -->
<g id="Node000003" class="node">
<title>Node3</title>
<g id="a_Node000003"><a xlink:href="classllm_1_1Slave.html#a001591b9a38b69cf29adc853872a09fe" target="_top" xlink:title=" ">
<polygon fill="white" stroke="#666666" points="149.12,-56.25 6.38,-56.25 6.38,-37 149.12,-37 149.12,-56.25"/>
<text text-anchor="middle" x="77.75" y="-42.75" font-family="Helvetica,sans-Serif" font-size="10.00">llm::Slave::parseRequestRTU</text>
</a>
</g>
</g>
<!-- Node2&#45;&gt;Node3 -->
<g id="edge2_Node000002_Node000003" class="edge">
<title>Node2&#45;&gt;Node3</title>
<g id="a_edge2_Node000002_Node000003"><a xlink:title=" ">
<path fill="none" stroke="#63b8ff" d="M183.6,-46.62C172.27,-46.62 160.64,-46.62 149.44,-46.62"/>
<polygon fill="#63b8ff" stroke="#63b8ff" points="183.29,-50.13 193.29,-46.63 183.29,-43.13 183.29,-50.13"/>
</a>
</g>
</g>
<!-- Node5 -->
<g id="Node000005" class="node">
<title>Node5</title>
<g id="a_Node000005"><a xlink:href="classllm_1_1Master.html#ab052e172e96808744ee43a8eff80b679" target="_top" xlink:title=" ">
<polygon fill="white" stroke="#666666" points="155.5,-19.25 0,-19.25 0,0 155.5,0 155.5,-19.25"/>
<text text-anchor="middle" x="77.75" y="-5.75" font-family="Helvetica,sans-Serif" font-size="10.00">llm::Master::parseResponseRTU</text>
</a>
</g>
</g>
<!-- Node4&#45;&gt;Node5 -->
<g id="edge4_Node000004_Node000005" class="edge">
<title>Node4&#45;&gt;Node5</title>
<g id="a_edge4_Node000004_Node000005"><a xlink:title=" ">
<path fill="none" stroke="#63b8ff" d="M179.71,-9.62C171.81,-9.62 163.8,-9.62 155.93,-9.62"/>
<polygon fill="#63b8ff" stroke="#63b8ff" points="179.68,-13.13 189.68,-9.63 179.68,-6.13 179.68,-13.13"/>
</a>
</g>
</g>
</g>
</svg>
