<?xml version="1.0" encoding="UTF-8" standalone="no"?>
<!DOCTYPE svg PUBLIC "-//W3C//DTD SVG 1.1//EN"
 "http://www.w3.org/Graphics/SVG/1.1/DTD/svg11.dtd">
<!-- Generated by graphviz version 9.0.0 (20230911.1827)
 -->
<!-- Title: modbusBufferModeRTU Pages: 1 -->
<svg width="475pt" height="64pt"
 viewBox="0.00 0.00 475.25 64.25" xmlns="http://www.w3.org/2000/svg" xmlns:xlink="http://www.w3.org/1999/xlink">
<g id="graph0" class="graph" transform="scale(1 1) rotate(0) translate(4 60.25)">
<title>modbusBufferModeRTU</title>
<!-- Node1 -->
<g id="Node000001" class="node">
<title>Node1</title>
<g id="a_Node000001"><a xlink:title="Prepares buffer to store a Modbus RTU message.">
<polygon fill="#999999" stroke="#666666" points="467.25,-37.25 347,-37.25 347,-18 467.25,-18 467.25,-37.25"/>
<text text-anchor="middle" x="407.12" y="-23.75" font-family="Helvetica,sans-Serif" font-size="10.00">modbusBufferModeRTU</text>
</a>
</g>
</g>
<!-- Node2 -->
<g id="Node000002" class="node">
<title>Node2</title>
<g id="a_Node000002"><a xlink:href="master_8impl_8h.html#ade3cfa7c2201895b2f768cca5d424ee5" target="_top" xlink:title="Begins a RTU request.">
<polygon fill="white" stroke="#666666" points="310.62,-56.25 179.12,-56.25 179.12,-37 310.62,-37 310.62,-56.25"/>
<text text-anchor="middle" x="244.88" y="-42.75" font-family="Helvetica,sans-Serif" font-size="10.00">modbusBeginRequestRTU</text>
</a>
</g>
</g>
<!-- Node1&#45;&gt;Node2 -->
<g id="edge1_Node000001_Node000002" class="edge">
<title>Node1&#45;&gt;Node2</title>
<g id="a_edge1_Node000001_Node000002"><a xlink:title=" ">
<path fill="none" stroke="#63b8ff" d="M335.53,-36C327.39,-36.96 319.11,-37.94 311.05,-38.9"/>
<polygon fill="#63b8ff" stroke="#63b8ff" points="335.89,-39.48 345.41,-34.82 335.06,-32.53 335.89,-39.48"/>
</a>
</g>
</g>
<!-- Node3 -->
<g id="Node000003" class="node">
<title>Node3</title>
<g id="a_Node000003"><a xlink:href="slave_8impl_8h.html#a6a1e63faa64b7ca4b91d1ce7988be850" target="_top" xlink:title="Parses provided Modbus RTU request frame and generates a Modbus RTU response.">
<polygon fill="white" stroke="#666666" points="311,-19.25 178.75,-19.25 178.75,0 311,0 311,-19.25"/>
<text text-anchor="middle" x="244.88" y="-5.75" font-family="Helvetica,sans-Serif" font-size="10.00">modbusParseRequestRTU</text>
</a>
</g>
</g>
<!-- Node1&#45;&gt;Node3 -->
<g id="edge2_Node000001_Node000003" class="edge">
<title>Node1&#45;&gt;Node3</title>
<g id="a_edge2_Node000001_Node000003"><a xlink:title=" ">
<path fill="none" stroke="#63b8ff" d="M335.61,-19.7C327.54,-18.8 319.33,-17.88 311.32,-16.98"/>
<polygon fill="#63b8ff" stroke="#63b8ff" points="335.08,-23.17 345.41,-20.8 335.86,-16.21 335.08,-23.17"/>
</a>
</g>
</g>
<!-- Node4 -->
<g id="Node000004" class="node">
<title>Node4</title>
<g id="a_Node000004"><a xlink:href="classllm_1_1Slave.html#a001591b9a38b69cf29adc853872a09fe" target="_top" xlink:title=" ">
<polygon fill="white" stroke="#666666" points="142.75,-19.25 0,-19.25 0,0 142.75,0 142.75,-19.25"/>
<text text-anchor="middle" x="71.38" y="-5.75" font-family="Helvetica,sans-Serif" font-size="10.00">llm::Slave::parseRequestRTU</text>
</a>
</g>
</g>
<!-- Node3&#45;&gt;Node4 -->
<g id="edge3_Node000003_Node000004" class="edge">
<title>Node3&#45;&gt;Node4</title>
<g id="a_edge3_Node000003_Node000004"><a xlink:title=" ">
<path fill="none" stroke="#63b8ff" d="M167.04,-9.62C159.12,-9.62 151.09,-9.62 143.23,-9.62"/>
<polygon fill="#63b8ff" stroke="#63b8ff" points="167.04,-13.13 177.04,-9.63 167.04,-6.13 167.04,-13.13"/>
</a>
</g>
</g>
</g>
</svg>
