<?xml version="1.0" encoding="UTF-8" standalone="no"?>
<!DOCTYPE svg PUBLIC "-//W3C//DTD SVG 1.1//EN"
 "http://www.w3.org/Graphics/SVG/1.1/DTD/svg11.dtd">
<!-- Generated by graphviz version 9.0.0 (20230911.1827)
 -->
<!-- Title: modbusErrorStr Pages: 1 -->
<svg width="243pt" height="113pt"
 viewBox="0.00 0.00 242.50 113.25" xmlns="http://www.w3.org/2000/svg" xmlns:xlink="http://www.w3.org/1999/xlink">
<g id="graph0" class="graph" transform="scale(1 1) rotate(0) translate(4 109.25)">
<title>modbusErrorStr</title>
<!-- Node1 -->
<g id="Node000001" class="node">
<title>Node1</title>
<g id="a_Node000001"><a xlink:title="Returns a string containing the name of the ModbusError value.">
<polygon fill="#999999" stroke="#666666" points="234.5,-62.25 151,-62.25 151,-43 234.5,-43 234.5,-62.25"/>
<text text-anchor="middle" x="192.75" y="-48.75" font-family="Helvetica,sans-Serif" font-size="10.00">modbusErrorStr</text>
</a>
</g>
</g>
<!-- Node2 -->
<g id="Node000002" class="node">
<title>Node2</title>
<g id="a_Node000002"><a xlink:href="classllm_1_1RequestError.html#a7b7541907d4fea3a7e2dcb438abf9090" target="_top" xlink:title=" ">
<polygon fill="white" stroke="#666666" points="115,-105.25 0,-105.25 0,-86 115,-86 115,-105.25"/>
<text text-anchor="middle" x="57.5" y="-91.75" font-family="Helvetica,sans-Serif" font-size="10.00">llm::RequestError::what</text>
</a>
</g>
</g>
<!-- Node1&#45;&gt;Node2 -->
<g id="edge1_Node000001_Node000002" class="edge">
<title>Node1&#45;&gt;Node2</title>
<g id="a_edge1_Node000001_Node000002"><a xlink:title=" ">
<path fill="none" stroke="#63b8ff" d="M149.76,-66.17C130.26,-72.47 107.47,-79.82 89.55,-85.61"/>
<polygon fill="#63b8ff" stroke="#63b8ff" points="150.63,-69.57 159.07,-63.17 148.48,-62.91 150.63,-69.57"/>
</a>
</g>
</g>
<!-- Node3 -->
<g id="Node000003" class="node">
<title>Node3</title>
<g id="a_Node000003"><a xlink:href="classllm_1_1ResponseError.html#aeb25fb1e58b1e063e2134377ec7cfe97" target="_top" xlink:title=" ">
<polygon fill="white" stroke="#666666" points="106,-67.88 9,-67.88 9,-37.38 106,-37.38 106,-67.88"/>
<text text-anchor="start" x="17" y="-54.38" font-family="Helvetica,sans-Serif" font-size="10.00">llm::ResponseError</text>
<text text-anchor="middle" x="57.5" y="-43.12" font-family="Helvetica,sans-Serif" font-size="10.00">::what</text>
</a>
</g>
</g>
<!-- Node1&#45;&gt;Node3 -->
<g id="edge2_Node000001_Node000003" class="edge">
<title>Node1&#45;&gt;Node3</title>
<g id="a_edge2_Node000001_Node000003"><a xlink:title=" ">
<path fill="none" stroke="#63b8ff" d="M139.5,-52.62C128.52,-52.62 117,-52.62 106.2,-52.62"/>
<polygon fill="#63b8ff" stroke="#63b8ff" points="139.17,-56.13 149.17,-52.63 139.17,-49.13 139.17,-56.13"/>
</a>
</g>
</g>
<!-- Node4 -->
<g id="Node000004" class="node">
<title>Node4</title>
<g id="a_Node000004"><a xlink:href="classllm_1_1GeneralError.html#acab0f7922118a949b9f7e91fd5d8bac6" target="_top" xlink:title=" ">
<polygon fill="white" stroke="#666666" points="113.88,-19.25 1.12,-19.25 1.12,0 113.88,0 113.88,-19.25"/>
<text text-anchor="middle" x="57.5" y="-5.75" font-family="Helvetica,sans-Serif" font-size="10.00">llm::GeneralError::what</text>
</a>
</g>
</g>
<!-- Node1&#45;&gt;Node4 -->
<g id="edge3_Node000001_Node000004" class="edge">
<title>Node1&#45;&gt;Node4</title>
<g id="a_edge3_Node000001_Node000004"><a xlink:title=" ">
<path fill="none" stroke="#63b8ff" d="M149.76,-39.08C130.26,-32.78 107.47,-25.43 89.55,-19.64"/>
<polygon fill="#63b8ff" stroke="#63b8ff" points="148.48,-42.34 159.07,-42.08 150.63,-35.68 148.48,-42.34"/>
</a>
</g>
</g>
</g>
</svg>
