<?xml version="1.0" encoding="UTF-8" standalone="no"?>
<!DOCTYPE svg PUBLIC "-//W3C//DTD SVG 1.1//EN"
 "http://www.w3.org/Graphics/SVG/1.1/DTD/svg11.dtd">
<!-- Generated by graphviz version 9.0.0 (20230911.1827)
 -->
<!-- Title: modbusParseResponse01020304 Pages: 1 -->
<svg width="330pt" height="138pt"
 viewBox="0.00 0.00 329.50 138.25" xmlns="http://www.w3.org/2000/svg" xmlns:xlink="http://www.w3.org/1999/xlink">
<g id="graph0" class="graph" transform="scale(1 1) rotate(0) translate(4 134.25)">
<title>modbusParseResponse01020304</title>
<!-- Node1 -->
<g id="Node000001" class="node">
<title>Node1</title>
<g id="a_Node000001"><a xlink:title="Parses response to requests 01, 02, 03 and 04.">
<polygon fill="#999999" stroke="#666666" points="161.5,-74.25 0,-74.25 0,-55 161.5,-55 161.5,-74.25"/>
<text text-anchor="middle" x="80.75" y="-60.75" font-family="Helvetica,sans-Serif" font-size="10.00">modbusParseResponse01020304</text>
</a>
</g>
</g>
<!-- Node2 -->
<g id="Node000002" class="node">
<title>Node2</title>
<g id="a_Node000002"><a xlink:href="base_8h.html#af23a50b36bef9c09ac82214a52ff4d58" target="_top" xlink:title="Returns number of bytes necessary to hold given number of bits.">
<polygon fill="white" stroke="#666666" points="311.38,-130.25 207.62,-130.25 207.62,-111 311.38,-111 311.38,-130.25"/>
<text text-anchor="middle" x="259.5" y="-116.75" font-family="Helvetica,sans-Serif" font-size="10.00">modbusBitsToBytes</text>
</a>
</g>
</g>
<!-- Node1&#45;&gt;Node2 -->
<g id="edge1_Node000001_Node000002" class="edge">
<title>Node1&#45;&gt;Node2</title>
<g id="a_edge1_Node000001_Node000002"><a xlink:title=" ">
<path fill="none" stroke="#63b8ff" d="M111.65,-74.72C134.97,-82.52 168.22,-93.5 197.5,-102.62 202.51,-104.19 207.76,-105.79 212.99,-107.36"/>
<polygon fill="#63b8ff" stroke="#63b8ff" points="211.57,-110.59 222.16,-110.09 213.57,-103.88 211.57,-110.59"/>
</a>
</g>
</g>
<!-- Node3 -->
<g id="Node000003" class="node">
<title>Node3</title>
<g id="a_Node000003"><a xlink:href="base_8h.html#a61619958551d902c14ab6e51fb842ea0" target="_top" xlink:title="Checks whether provided address range causes an uint16_t overflow.">
<polygon fill="white" stroke="#666666" points="321.5,-93.25 197.5,-93.25 197.5,-74 321.5,-74 321.5,-93.25"/>
<text text-anchor="middle" x="259.5" y="-79.75" font-family="Helvetica,sans-Serif" font-size="10.00">modbusCheckRangeU16</text>
</a>
</g>
</g>
<!-- Node1&#45;&gt;Node3 -->
<g id="edge2_Node000001_Node000003" class="edge">
<title>Node1&#45;&gt;Node3</title>
<g id="a_edge2_Node000001_Node000003"><a xlink:title=" ">
<path fill="none" stroke="#63b8ff" d="M161.85,-73.24C169.83,-74.09 177.9,-74.96 185.79,-75.81"/>
<polygon fill="#63b8ff" stroke="#63b8ff" points="185.39,-79.29 195.7,-76.87 186.13,-72.33 185.39,-79.29"/>
</a>
</g>
</g>
<!-- Node4 -->
<g id="Node000004" class="node">
<title>Node4</title>
<g id="a_Node000004"><a xlink:href="base_8h.html#aff2248343762719cdacf818e4dae3709" target="_top" xlink:title="Reads n&#45;th bit from an array.">
<polygon fill="white" stroke="#666666" points="308,-56.25 211,-56.25 211,-37 308,-37 308,-56.25"/>
<text text-anchor="middle" x="259.5" y="-42.75" font-family="Helvetica,sans-Serif" font-size="10.00">modbusMaskRead</text>
</a>
</g>
</g>
<!-- Node1&#45;&gt;Node4 -->
<g id="edge3_Node000001_Node000004" class="edge">
<title>Node1&#45;&gt;Node4</title>
<g id="a_edge3_Node000001_Node000004"><a xlink:title=" ">
<path fill="none" stroke="#63b8ff" d="M161.85,-56.47C174.45,-55.18 187.27,-53.88 199.29,-52.66"/>
<polygon fill="#63b8ff" stroke="#63b8ff" points="199.42,-56.16 209.02,-51.66 198.71,-49.2 199.42,-56.16"/>
</a>
</g>
</g>
<!-- Node5 -->
<g id="Node000005" class="node">
<title>Node5</title>
<g id="a_Node000005"><a xlink:href="base_8h.html#ace96da9afdf1e1796a6e2d7ac1f6c81a" target="_top" xlink:title="Safely reads a big&#45;endian 16&#45;bit word from provided pointer.">
<polygon fill="white" stroke="#666666" points="294.5,-19.25 224.5,-19.25 224.5,0 294.5,0 294.5,-19.25"/>
<text text-anchor="middle" x="259.5" y="-5.75" font-family="Helvetica,sans-Serif" font-size="10.00">modbusRBE</text>
</a>
</g>
</g>
<!-- Node1&#45;&gt;Node5 -->
<g id="edge4_Node000001_Node000005" class="edge">
<title>Node1&#45;&gt;Node5</title>
<g id="a_edge4_Node000001_Node000005"><a xlink:title=" ">
<path fill="none" stroke="#63b8ff" d="M112.64,-54.54C135.92,-46.99 168.66,-36.49 197.5,-27.62 202.64,-26.05 208.03,-24.42 213.39,-22.81"/>
<polygon fill="#63b8ff" stroke="#63b8ff" points="214.22,-26.22 222.81,-20.01 212.23,-19.51 214.22,-26.22"/>
</a>
</g>
</g>
</g>
</svg>
