<?xml version="1.0" encoding="UTF-8" standalone="no"?>
<!DOCTYPE svg PUBLIC "-//W3C//DTD SVG 1.1//EN"
 "http://www.w3.org/Graphics/SVG/1.1/DTD/svg11.dtd">
<!-- Generated by graphviz version 9.0.0 (20230911.1827)
 -->
<!-- Title: modbusParseResponsePDU Pages: 1 -->
<svg width="532pt" height="101pt"
 viewBox="0.00 0.00 532.25 101.25" xmlns="http://www.w3.org/2000/svg" xmlns:xlink="http://www.w3.org/1999/xlink">
<g id="graph0" class="graph" transform="scale(1 1) rotate(0) translate(4 97.25)">
<title>modbusParseResponsePDU</title>
<!-- Node1 -->
<g id="Node000001" class="node">
<title>Node1</title>
<g id="a_Node000001"><a xlink:title="Parses a PDU section of a slave response.">
<polygon fill="#999999" stroke="#666666" points="524.25,-56.25 383.75,-56.25 383.75,-37 524.25,-37 524.25,-56.25"/>
<text text-anchor="middle" x="454" y="-42.75" font-family="Helvetica,sans-Serif" font-size="10.00">modbusParseResponsePDU</text>
</a>
</g>
</g>
<!-- Node2 -->
<g id="Node000002" class="node">
<title>Node2</title>
<g id="a_Node000002"><a xlink:href="master_8impl_8h.html#a151b85c221ae43804856eb92737498e5" target="_top" xlink:title="Parses a Modbus RTU slave response.">
<polygon fill="white" stroke="#666666" points="339.5,-93.25 199.75,-93.25 199.75,-74 339.5,-74 339.5,-93.25"/>
<text text-anchor="middle" x="269.62" y="-79.75" font-family="Helvetica,sans-Serif" font-size="10.00">modbusParseResponseRTU</text>
</a>
</g>
</g>
<!-- Node1&#45;&gt;Node2 -->
<g id="edge1_Node000001_Node000002" class="edge">
<title>Node1&#45;&gt;Node2</title>
<g id="a_edge1_Node000001_Node000002"><a xlink:title=" ">
<path fill="none" stroke="#63b8ff" d="M392.01,-59C368.74,-63.72 342.51,-69.04 320.4,-73.53"/>
<polygon fill="#63b8ff" stroke="#63b8ff" points="392.58,-62.45 401.68,-57.04 391.19,-55.59 392.58,-62.45"/>
</a>
</g>
</g>
<!-- Node4 -->
<g id="Node000004" class="node">
<title>Node4</title>
<g id="a_Node000004"><a xlink:href="master_8impl_8h.html#a53ea67c733b1e627e1cdcb0003270a1b" target="_top" xlink:title="Parses a Modbus TCP slave response.">
<polygon fill="white" stroke="#666666" points="339.12,-56.25 200.12,-56.25 200.12,-37 339.12,-37 339.12,-56.25"/>
<text text-anchor="middle" x="269.62" y="-42.75" font-family="Helvetica,sans-Serif" font-size="10.00">modbusParseResponseTCP</text>
</a>
</g>
</g>
<!-- Node1&#45;&gt;Node4 -->
<g id="edge3_Node000001_Node000004" class="edge">
<title>Node1&#45;&gt;Node4</title>
<g id="a_edge3_Node000001_Node000004"><a xlink:title=" ">
<path fill="none" stroke="#63b8ff" d="M372.03,-46.62C361.14,-46.62 350.06,-46.62 339.41,-46.62"/>
<polygon fill="#63b8ff" stroke="#63b8ff" points="371.76,-50.13 381.76,-46.63 371.76,-43.13 371.76,-50.13"/>
</a>
</g>
</g>
<!-- Node6 -->
<g id="Node000006" class="node">
<title>Node6</title>
<g id="a_Node000006"><a xlink:href="classllm_1_1Master.html#a39b0210172c76ef4dc9e43668daef7c9" target="_top" xlink:title=" ">
<polygon fill="white" stroke="#666666" points="347.75,-19.25 191.5,-19.25 191.5,0 347.75,0 347.75,-19.25"/>
<text text-anchor="middle" x="269.62" y="-5.75" font-family="Helvetica,sans-Serif" font-size="10.00">llm::Master::parseResponsePDU</text>
</a>
</g>
</g>
<!-- Node1&#45;&gt;Node6 -->
<g id="edge5_Node000001_Node000006" class="edge">
<title>Node1&#45;&gt;Node6</title>
<g id="a_edge5_Node000001_Node000006"><a xlink:title=" ">
<path fill="none" stroke="#63b8ff" d="M392.01,-34.25C368.74,-29.53 342.51,-24.21 320.4,-19.72"/>
<polygon fill="#63b8ff" stroke="#63b8ff" points="391.19,-37.66 401.68,-36.21 392.58,-30.8 391.19,-37.66"/>
</a>
</g>
</g>
<!-- Node3 -->
<g id="Node000003" class="node">
<title>Node3</title>
<g id="a_Node000003"><a xlink:href="classllm_1_1Master.html#ab052e172e96808744ee43a8eff80b679" target="_top" xlink:title=" ">
<polygon fill="white" stroke="#666666" points="155.5,-93.25 0,-93.25 0,-74 155.5,-74 155.5,-93.25"/>
<text text-anchor="middle" x="77.75" y="-79.75" font-family="Helvetica,sans-Serif" font-size="10.00">llm::Master::parseResponseRTU</text>
</a>
</g>
</g>
<!-- Node2&#45;&gt;Node3 -->
<g id="edge2_Node000002_Node000003" class="edge">
<title>Node2&#45;&gt;Node3</title>
<g id="a_edge2_Node000002_Node000003"><a xlink:title=" ">
<path fill="none" stroke="#63b8ff" d="M187.9,-83.62C177.3,-83.62 166.47,-83.62 155.94,-83.62"/>
<polygon fill="#63b8ff" stroke="#63b8ff" points="187.76,-87.13 197.76,-83.63 187.76,-80.13 187.76,-87.13"/>
</a>
</g>
</g>
<!-- Node5 -->
<g id="Node000005" class="node">
<title>Node5</title>
<g id="a_Node000005"><a xlink:href="classllm_1_1Master.html#ad1f614f5d44a61a8507ae34968fa7903" target="_top" xlink:title=" ">
<polygon fill="white" stroke="#666666" points="155.12,-56.25 0.38,-56.25 0.38,-37 155.12,-37 155.12,-56.25"/>
<text text-anchor="middle" x="77.75" y="-42.75" font-family="Helvetica,sans-Serif" font-size="10.00">llm::Master::parseResponseTCP</text>
</a>
</g>
</g>
<!-- Node4&#45;&gt;Node5 -->
<g id="edge4_Node000004_Node000005" class="edge">
<title>Node4&#45;&gt;Node5</title>
<g id="a_edge4_Node000004_Node000005"><a xlink:title=" ">
<path fill="none" stroke="#63b8ff" d="M188.49,-46.62C177.52,-46.62 166.28,-46.62 155.37,-46.62"/>
<polygon fill="#63b8ff" stroke="#63b8ff" points="188.29,-50.13 198.29,-46.63 188.29,-43.13 188.29,-50.13"/>
</a>
</g>
</g>
</g>
</svg>
