<?xml version="1.0" encoding="UTF-8" standalone="no"?>
<!DOCTYPE svg PUBLIC "-//W3C//DTD SVG 1.1//EN"
 "http://www.w3.org/Graphics/SVG/1.1/DTD/svg11.dtd">
<!-- Generated by graphviz version 9.0.0 (20230911.1827)
 -->
<!-- Title: modbusMasterGetUserPointer Pages: 1 -->
<svg width="685pt" height="360pt"
 viewBox="0.00 0.00 684.75 360.25" xmlns="http://www.w3.org/2000/svg" xmlns:xlink="http://www.w3.org/1999/xlink">
<g id="graph0" class="graph" transform="scale(1 1) rotate(0) translate(4 356.25)">
<title>modbusMasterGetUserPointer</title>
<!-- Node1 -->
<g id="Node000001" class="node">
<title>Node1</title>
<g id="a_Node000001"><a xlink:title="Retreieves the custom context pointer.">
<polygon fill="#999999" stroke="#666666" points="676.75,-111.25 528.75,-111.25 528.75,-92 676.75,-92 676.75,-111.25"/>
<text text-anchor="middle" x="602.75" y="-97.75" font-family="Helvetica,sans-Serif" font-size="10.00">modbusMasterGetUserPointer</text>
</a>
</g>
</g>
<!-- Node2 -->
<g id="Node000002" class="node">
<title>Node2</title>
<g id="a_Node000002"><a xlink:href="classllm_1_1Master.html#abd27128b7899148b8aa8531587e51ddc" target="_top" xlink:title=" ">
<polygon fill="white" stroke="#666666" points="483.38,-167.25 350.38,-167.25 350.38,-148 483.38,-148 483.38,-167.25"/>
<text text-anchor="middle" x="416.88" y="-153.75" font-family="Helvetica,sans-Serif" font-size="10.00">llm::Master::getUserPointer</text>
</a>
</g>
</g>
<!-- Node1&#45;&gt;Node2 -->
<g id="edge1_Node000001_Node000002" class="edge">
<title>Node1&#45;&gt;Node2</title>
<g id="a_edge1_Node000001_Node000002"><a xlink:title=" ">
<path fill="none" stroke="#63b8ff" d="M564.44,-115.66C543.53,-123.27 516.87,-132.54 492.75,-139.62 483.13,-142.45 472.72,-145.17 462.81,-147.59"/>
<polygon fill="#63b8ff" stroke="#63b8ff" points="565.51,-119 573.69,-112.27 563.1,-112.43 565.51,-119"/>
</a>
</g>
</g>
<!-- Node3 -->
<g id="Node000003" class="node">
<title>Node3</title>
<g id="a_Node000003"><a xlink:href="master_8h.html#a004b932b2b69ad0c6649c26d974146b2" target="_top" xlink:title="Allocates memory for the request frame.">
<polygon fill="white" stroke="#666666" points="492.75,-130.25 341,-130.25 341,-111 492.75,-111 492.75,-130.25"/>
<text text-anchor="middle" x="416.88" y="-116.75" font-family="Helvetica,sans-Serif" font-size="10.00">modbusMasterAllocateRequest</text>
</a>
</g>
</g>
<!-- Node1&#45;&gt;Node3 -->
<g id="edge2_Node000001_Node000003" class="edge">
<title>Node1&#45;&gt;Node3</title>
<g id="a_edge2_Node000001_Node000003"><a xlink:title=" ">
<path fill="none" stroke="#63b8ff" d="M517.03,-110.38C509.02,-111.21 500.94,-112.04 493.03,-112.86"/>
<polygon fill="#63b8ff" stroke="#63b8ff" points="517.19,-113.88 526.78,-109.37 516.47,-106.92 517.19,-113.88"/>
</a>
</g>
</g>
<!-- Node15 -->
<g id="Node000015" class="node">
<title>Node15</title>
<g id="a_Node000015"><a xlink:href="master_8impl_8h.html#a5fe38fae0f89de04fa616d105f660d25" target="_top" xlink:title="Deinitializes a ModbusMaster struct.">
<polygon fill="white" stroke="#666666" points="473.62,-83.25 360.12,-83.25 360.12,-64 473.62,-64 473.62,-83.25"/>
<text text-anchor="middle" x="416.88" y="-69.75" font-family="Helvetica,sans-Serif" font-size="10.00">modbusMasterDestroy</text>
</a>
</g>
</g>
<!-- Node1&#45;&gt;Node15 -->
<g id="edge14_Node000001_Node000015" class="edge">
<title>Node1&#45;&gt;Node15</title>
<g id="a_edge14_Node000001_Node000015"><a xlink:title=" ">
<path fill="none" stroke="#63b8ff" d="M524.35,-89.84C507.4,-87.26 489.77,-84.57 473.86,-82.15"/>
<polygon fill="#63b8ff" stroke="#63b8ff" points="523.46,-93.24 533.87,-91.29 524.51,-86.32 523.46,-93.24"/>
</a>
</g>
</g>
<!-- Node17 -->
<g id="Node000017" class="node">
<title>Node17</title>
<g id="a_Node000017"><a xlink:href="master_8h.html#a040a82085ce05ff95c53d3dca4c3acfd" target="_top" xlink:title="Frees memory allocated for master&#39;s request frame.">
<polygon fill="white" stroke="#666666" points="484.88,-37.25 348.88,-37.25 348.88,-18 484.88,-18 484.88,-37.25"/>
<text text-anchor="middle" x="416.88" y="-23.75" font-family="Helvetica,sans-Serif" font-size="10.00">modbusMasterFreeRequest</text>
</a>
</g>
</g>
<!-- Node1&#45;&gt;Node17 -->
<g id="edge16_Node000001_Node000017" class="edge">
<title>Node1&#45;&gt;Node17</title>
<g id="a_edge16_Node000001_Node000017"><a xlink:title=" ">
<path fill="none" stroke="#63b8ff" d="M569.54,-87.12C547.95,-77.56 518.82,-64.93 492.75,-54.62 477.84,-48.73 461.07,-42.63 447.19,-37.73"/>
<polygon fill="#63b8ff" stroke="#63b8ff" points="567.84,-90.2 578.4,-91.07 570.69,-83.8 567.84,-90.2"/>
</a>
</g>
</g>
<!-- Node4 -->
<g id="Node000004" class="node">
<title>Node4</title>
<g id="a_Node000004"><a xlink:href="master__func_8impl_8h.html#ad3a6d4576d762da3eb0bd73aa5bb24fe" target="_top" xlink:title="Read mutiple coils/discrete inputs/holding registers/input registers.">
<polygon fill="white" stroke="#666666" points="305,-278.25 154.75,-278.25 154.75,-259 305,-259 305,-278.25"/>
<text text-anchor="middle" x="229.88" y="-264.75" font-family="Helvetica,sans-Serif" font-size="10.00">modbusBuildRequest01020304</text>
</a>
</g>
</g>
<!-- Node3&#45;&gt;Node4 -->
<g id="edge3_Node000003_Node000004" class="edge">
<title>Node3&#45;&gt;Node4</title>
<g id="a_edge3_Node000003_Node000004"><a xlink:title=" ">
<path fill="none" stroke="#63b8ff" d="M344.44,-136.06C343.26,-136.87 342.11,-137.73 341,-138.62 312.24,-161.86 328.54,-185.11 305,-213.62 289.19,-232.78 265.35,-248.9 249,-258.64"/>
<polygon fill="#63b8ff" stroke="#63b8ff" points="345.77,-139.33 352.74,-131.35 342.31,-133.24 345.77,-139.33"/>
</a>
</g>
</g>
<!-- Node9 -->
<g id="Node000009" class="node">
<title>Node9</title>
<g id="a_Node000009"><a xlink:href="master__func_8impl_8h.html#a5309a3003ea2d248e51193e75ab30044" target="_top" xlink:title="Write single coil/holding register.">
<polygon fill="white" stroke="#666666" points="294.5,-204.25 165.25,-204.25 165.25,-185 294.5,-185 294.5,-204.25"/>
<text text-anchor="middle" x="229.88" y="-190.75" font-family="Helvetica,sans-Serif" font-size="10.00">modbusBuildRequest0506</text>
</a>
</g>
</g>
<!-- Node3&#45;&gt;Node9 -->
<g id="edge8_Node000003_Node000009" class="edge">
<title>Node3&#45;&gt;Node9</title>
<g id="a_edge8_Node000003_Node000009"><a xlink:title=" ">
<path fill="none" stroke="#63b8ff" d="M347.87,-135.06C345.51,-136.16 343.21,-137.35 341,-138.62 320.86,-150.27 325.13,-164.96 305,-176.62 299.5,-179.81 293.46,-182.44 287.27,-184.6"/>
<polygon fill="#63b8ff" stroke="#63b8ff" points="349.17,-138.31 357.12,-131.31 346.54,-131.82 349.17,-138.31"/>
</a>
</g>
</g>
<!-- Node12 -->
<g id="Node000012" class="node">
<title>Node12</title>
<g id="a_Node000012"><a xlink:href="master__func_8impl_8h.html#ae9842e659ccd8942905e685923de8916" target="_top" xlink:title="Write multiple coils.">
<polygon fill="white" stroke="#666666" points="289.25,-167.25 170.5,-167.25 170.5,-148 289.25,-148 289.25,-167.25"/>
<text text-anchor="middle" x="229.88" y="-153.75" font-family="Helvetica,sans-Serif" font-size="10.00">modbusBuildRequest15</text>
</a>
</g>
</g>
<!-- Node3&#45;&gt;Node12 -->
<g id="edge11_Node000003_Node000012" class="edge">
<title>Node3&#45;&gt;Node12</title>
<g id="a_edge11_Node000003_Node000012"><a xlink:title=" ">
<path fill="none" stroke="#63b8ff" d="M354.33,-132.93C330.64,-137.67 303.89,-143.02 281.37,-147.53"/>
<polygon fill="#63b8ff" stroke="#63b8ff" points="354.72,-136.43 363.84,-131.03 353.35,-129.56 354.72,-136.43"/>
</a>
</g>
</g>
<!-- Node13 -->
<g id="Node000013" class="node">
<title>Node13</title>
<g id="a_Node000013"><a xlink:href="master__func_8impl_8h.html#aca022c438a427d8f4b03db4427c2b344" target="_top" xlink:title="Write multiple holding registers.">
<polygon fill="white" stroke="#666666" points="289.25,-130.25 170.5,-130.25 170.5,-111 289.25,-111 289.25,-130.25"/>
<text text-anchor="middle" x="229.88" y="-116.75" font-family="Helvetica,sans-Serif" font-size="10.00">modbusBuildRequest16</text>
</a>
</g>
</g>
<!-- Node3&#45;&gt;Node13 -->
<g id="edge12_Node000003_Node000013" class="edge">
<title>Node3&#45;&gt;Node13</title>
<g id="a_edge12_Node000003_Node000013"><a xlink:title=" ">
<path fill="none" stroke="#63b8ff" d="M329.38,-120.62C315.91,-120.62 302.26,-120.62 289.6,-120.62"/>
<polygon fill="#63b8ff" stroke="#63b8ff" points="329.11,-124.13 339.11,-120.63 329.11,-117.13 329.11,-124.13"/>
</a>
</g>
</g>
<!-- Node14 -->
<g id="Node000014" class="node">
<title>Node14</title>
<g id="a_Node000014"><a xlink:href="master__func_8impl_8h.html#a6f2c5d59dee73c80ad54e53cca38aeec" target="_top" xlink:title="Mask write register request.">
<polygon fill="white" stroke="#666666" points="289.25,-93.25 170.5,-93.25 170.5,-74 289.25,-74 289.25,-93.25"/>
<text text-anchor="middle" x="229.88" y="-79.75" font-family="Helvetica,sans-Serif" font-size="10.00">modbusBuildRequest22</text>
</a>
</g>
</g>
<!-- Node3&#45;&gt;Node14 -->
<g id="edge13_Node000003_Node000014" class="edge">
<title>Node3&#45;&gt;Node14</title>
<g id="a_edge13_Node000003_Node000014"><a xlink:title=" ">
<path fill="none" stroke="#63b8ff" d="M354.33,-108.32C330.64,-103.58 303.89,-98.23 281.37,-93.72"/>
<polygon fill="#63b8ff" stroke="#63b8ff" points="353.35,-111.69 363.84,-110.22 354.72,-104.82 353.35,-111.69"/>
</a>
</g>
</g>
<!-- Node5 -->
<g id="Node000005" class="node">
<title>Node5</title>
<g id="a_Node000005"><a xlink:href="master__func_8h.html#aadb2b7e2d3ee4fbde22cdf076713d75e" target="_top" xlink:title="Read multiple coils &#45; a wrapper for modbusBuildRequest01020304()">
<polygon fill="white" stroke="#666666" points="118.75,-352.25 0,-352.25 0,-333 118.75,-333 118.75,-352.25"/>
<text text-anchor="middle" x="59.38" y="-338.75" font-family="Helvetica,sans-Serif" font-size="10.00">modbusBuildRequest01</text>
</a>
</g>
</g>
<!-- Node4&#45;&gt;Node5 -->
<g id="edge4_Node000004_Node000005" class="edge">
<title>Node4&#45;&gt;Node5</title>
<g id="a_edge4_Node000004_Node000005"><a xlink:title=" ">
<path fill="none" stroke="#63b8ff" d="M201.47,-284.22C179.55,-296.29 147.79,-312.86 118.75,-324.62 111.67,-327.49 103.96,-330.17 96.53,-332.54"/>
<polygon fill="#63b8ff" stroke="#63b8ff" points="203.03,-287.36 210.06,-279.44 199.62,-281.25 203.03,-287.36"/>
</a>
</g>
</g>
<!-- Node6 -->
<g id="Node000006" class="node">
<title>Node6</title>
<g id="a_Node000006"><a xlink:href="master__func_8h.html#a2a6452a8200d77483254bef08ee2cf8c" target="_top" xlink:title="Read multiple discrete inputs &#45; a wrapper for modbusBuildRequest01020304()">
<polygon fill="white" stroke="#666666" points="118.75,-315.25 0,-315.25 0,-296 118.75,-296 118.75,-315.25"/>
<text text-anchor="middle" x="59.38" y="-301.75" font-family="Helvetica,sans-Serif" font-size="10.00">modbusBuildRequest02</text>
</a>
</g>
</g>
<!-- Node4&#45;&gt;Node6 -->
<g id="edge5_Node000004_Node000006" class="edge">
<title>Node4&#45;&gt;Node6</title>
<g id="a_edge5_Node000004_Node000006"><a xlink:title=" ">
<path fill="none" stroke="#63b8ff" d="M171.64,-281.19C150.36,-285.87 126.51,-291.1 106.36,-295.53"/>
<polygon fill="#63b8ff" stroke="#63b8ff" points="172.34,-284.62 181.35,-279.06 170.84,-277.79 172.34,-284.62"/>
</a>
</g>
</g>
<!-- Node7 -->
<g id="Node000007" class="node">
<title>Node7</title>
<g id="a_Node000007"><a xlink:href="master__func_8h.html#a1c7ed51c58b1ef42ee176833c7fd0515" target="_top" xlink:title="Read multiple holding registers &#45; a wrapper for modbusBuildRequest01020304()">
<polygon fill="white" stroke="#666666" points="118.75,-278.25 0,-278.25 0,-259 118.75,-259 118.75,-278.25"/>
<text text-anchor="middle" x="59.38" y="-264.75" font-family="Helvetica,sans-Serif" font-size="10.00">modbusBuildRequest03</text>
</a>
</g>
</g>
<!-- Node4&#45;&gt;Node7 -->
<g id="edge6_Node000004_Node000007" class="edge">
<title>Node4&#45;&gt;Node7</title>
<g id="a_edge6_Node000004_Node000007"><a xlink:title=" ">
<path fill="none" stroke="#63b8ff" d="M143.08,-268.62C135,-268.62 126.94,-268.62 119.2,-268.62"/>
<polygon fill="#63b8ff" stroke="#63b8ff" points="142.96,-272.13 152.96,-268.63 142.96,-265.13 142.96,-272.13"/>
</a>
</g>
</g>
<!-- Node8 -->
<g id="Node000008" class="node">
<title>Node8</title>
<g id="a_Node000008"><a xlink:href="master__func_8h.html#a22bf4541196b3e88c0a86861d334e3b1" target="_top" xlink:title="Read multiple input registers &#45; a wrapper for modbusBuildRequest01020304()">
<polygon fill="white" stroke="#666666" points="118.75,-241.25 0,-241.25 0,-222 118.75,-222 118.75,-241.25"/>
<text text-anchor="middle" x="59.38" y="-227.75" font-family="Helvetica,sans-Serif" font-size="10.00">modbusBuildRequest04</text>
</a>
</g>
</g>
<!-- Node4&#45;&gt;Node8 -->
<g id="edge7_Node000004_Node000008" class="edge">
<title>Node4&#45;&gt;Node8</title>
<g id="a_edge7_Node000004_Node000008"><a xlink:title=" ">
<path fill="none" stroke="#63b8ff" d="M171.64,-256.06C150.36,-251.38 126.51,-246.15 106.36,-241.72"/>
<polygon fill="#63b8ff" stroke="#63b8ff" points="170.84,-259.46 181.35,-258.19 172.34,-252.63 170.84,-259.46"/>
</a>
</g>
</g>
<!-- Node10 -->
<g id="Node000010" class="node">
<title>Node10</title>
<g id="a_Node000010"><a xlink:href="master__func_8h.html#a7151355c8c34af355fd779f88a64e125" target="_top" xlink:title="Write single coil &#45; a wrapper for modbusBuildRequest0506()">
<polygon fill="white" stroke="#666666" points="118.75,-204.25 0,-204.25 0,-185 118.75,-185 118.75,-204.25"/>
<text text-anchor="middle" x="59.38" y="-190.75" font-family="Helvetica,sans-Serif" font-size="10.00">modbusBuildRequest05</text>
</a>
</g>
</g>
<!-- Node9&#45;&gt;Node10 -->
<g id="edge9_Node000009_Node000010" class="edge">
<title>Node9&#45;&gt;Node10</title>
<g id="a_edge9_Node000009_Node000010"><a xlink:title=" ">
<path fill="none" stroke="#63b8ff" d="M153.71,-194.62C142.13,-194.62 130.32,-194.62 119.17,-194.62"/>
<polygon fill="#63b8ff" stroke="#63b8ff" points="153.66,-198.13 163.66,-194.63 153.66,-191.13 153.66,-198.13"/>
</a>
</g>
</g>
<!-- Node11 -->
<g id="Node000011" class="node">
<title>Node11</title>
<g id="a_Node000011"><a xlink:href="master__func_8h.html#a56779853bdfd2bb75601be746c20eb09" target="_top" xlink:title="Write single holding register &#45; a wrapper for modbusBuildRequest0506()">
<polygon fill="white" stroke="#666666" points="118.75,-167.25 0,-167.25 0,-148 118.75,-148 118.75,-167.25"/>
<text text-anchor="middle" x="59.38" y="-153.75" font-family="Helvetica,sans-Serif" font-size="10.00">modbusBuildRequest06</text>
</a>
</g>
</g>
<!-- Node9&#45;&gt;Node11 -->
<g id="edge10_Node000009_Node000011" class="edge">
<title>Node9&#45;&gt;Node11</title>
<g id="a_edge10_Node000009_Node000011"><a xlink:title=" ">
<path fill="none" stroke="#63b8ff" d="M171.64,-182.06C150.36,-177.38 126.51,-172.15 106.36,-167.72"/>
<polygon fill="#63b8ff" stroke="#63b8ff" points="170.84,-185.46 181.35,-184.19 172.34,-178.63 170.84,-185.46"/>
</a>
</g>
</g>
<!-- Node16 -->
<g id="Node000016" class="node">
<title>Node16</title>
<g id="a_Node000016"><a xlink:href="classllm_1_1Master.html#adae54d760d1eb2f0babcaff59325376d" target="_top" xlink:title=" ">
<polygon fill="white" stroke="#666666" points="281.38,-56.25 178.38,-56.25 178.38,-37 281.38,-37 281.38,-56.25"/>
<text text-anchor="middle" x="229.88" y="-42.75" font-family="Helvetica,sans-Serif" font-size="10.00">llm::Master::~Master</text>
</a>
</g>
</g>
<!-- Node15&#45;&gt;Node16 -->
<g id="edge15_Node000015_Node000016" class="edge">
<title>Node15&#45;&gt;Node16</title>
<g id="a_edge15_Node000015_Node000016"><a xlink:title=" ">
<path fill="none" stroke="#63b8ff" d="M348.54,-63.8C326.45,-60.57 302.3,-57.05 281.65,-54.04"/>
<polygon fill="#63b8ff" stroke="#63b8ff" points="347.97,-67.25 358.37,-65.23 348.98,-60.32 347.97,-67.25"/>
</a>
</g>
</g>
<!-- Node18 -->
<g id="Node000018" class="node">
<title>Node18</title>
<g id="a_Node000018"><a xlink:href="classllm_1_1Master.html#a6c3883d0f98a5b4255a02f46f33c2423" target="_top" xlink:title=" ">
<polygon fill="white" stroke="#666666" points="290,-19.25 169.75,-19.25 169.75,0 290,0 290,-19.25"/>
<text text-anchor="middle" x="229.88" y="-5.75" font-family="Helvetica,sans-Serif" font-size="10.00">llm::Master::freeRequest</text>
</a>
</g>
</g>
<!-- Node17&#45;&gt;Node18 -->
<g id="edge17_Node000017_Node000018" class="edge">
<title>Node17&#45;&gt;Node18</title>
<g id="a_edge17_Node000017_Node000018"><a xlink:title=" ">
<path fill="none" stroke="#63b8ff" d="M337.27,-19.98C321.6,-18.45 305.39,-16.88 290.48,-15.42"/>
<polygon fill="#63b8ff" stroke="#63b8ff" points="336.76,-23.44 347.06,-20.93 337.44,-16.48 336.76,-23.44"/>
</a>
</g>
</g>
</g>
</svg>
