<?xml version="1.0" encoding="UTF-8" standalone="no"?>
<!DOCTYPE svg PUBLIC "-//W3C//DTD SVG 1.1//EN"
 "http://www.w3.org/Graphics/SVG/1.1/DTD/svg11.dtd">
<!-- Generated by graphviz version 9.0.0 (20230911.1827)
 -->
<!-- Title: modbusBuildRequest01020304 Pages: 1 -->
<svg width="530pt" height="101pt"
 viewBox="0.00 0.00 530.00 101.25" xmlns="http://www.w3.org/2000/svg" xmlns:xlink="http://www.w3.org/1999/xlink">
<g id="graph0" class="graph" transform="scale(1 1) rotate(0) translate(4 97.25)">
<title>modbusBuildRequest01020304</title>
<!-- Node1 -->
<g id="Node000001" class="node">
<title>Node1</title>
<g id="a_Node000001"><a xlink:title="Read mutiple coils/discrete inputs/holding registers/input registers.">
<polygon fill="#999999" stroke="#666666" points="150.25,-56.25 0,-56.25 0,-37 150.25,-37 150.25,-56.25"/>
<text text-anchor="middle" x="75.12" y="-42.75" font-family="Helvetica,sans-Serif" font-size="10.00">modbusBuildRequest01020304</text>
</a>
</g>
</g>
<!-- Node2 -->
<g id="Node000002" class="node">
<title>Node2</title>
<g id="a_Node000002"><a xlink:href="base_8h.html#a61619958551d902c14ab6e51fb842ea0" target="_top" xlink:title="Checks whether provided address range causes an uint16_t overflow.">
<polygon fill="white" stroke="#666666" points="324.12,-93.25 200.12,-93.25 200.12,-74 324.12,-74 324.12,-93.25"/>
<text text-anchor="middle" x="262.12" y="-79.75" font-family="Helvetica,sans-Serif" font-size="10.00">modbusCheckRangeU16</text>
</a>
</g>
</g>
<!-- Node1&#45;&gt;Node2 -->
<g id="edge1_Node000001_Node000002" class="edge">
<title>Node1&#45;&gt;Node2</title>
<g id="a_edge1_Node000001_Node000002"><a xlink:title=" ">
<path fill="none" stroke="#63b8ff" d="M126.68,-56.74C149.21,-61.24 175.96,-66.59 199.64,-71.33"/>
<polygon fill="#63b8ff" stroke="#63b8ff" points="198.66,-74.7 209.15,-73.23 200.03,-67.84 198.66,-74.7"/>
</a>
</g>
</g>
<!-- Node3 -->
<g id="Node000003" class="node">
<title>Node3</title>
<g id="a_Node000003"><a xlink:href="master_8h.html#a004b932b2b69ad0c6649c26d974146b2" target="_top" xlink:title="Allocates memory for the request frame.">
<polygon fill="white" stroke="#666666" points="338,-56.25 186.25,-56.25 186.25,-37 338,-37 338,-56.25"/>
<text text-anchor="middle" x="262.12" y="-42.75" font-family="Helvetica,sans-Serif" font-size="10.00">modbusMasterAllocateRequest</text>
</a>
</g>
</g>
<!-- Node1&#45;&gt;Node3 -->
<g id="edge2_Node000001_Node000003" class="edge">
<title>Node1&#45;&gt;Node3</title>
<g id="a_edge2_Node000001_Node000003"><a xlink:title=" ">
<path fill="none" stroke="#63b8ff" d="M150.57,-46.62C158.49,-46.62 166.59,-46.62 174.63,-46.62"/>
<polygon fill="#63b8ff" stroke="#63b8ff" points="174.41,-50.13 184.41,-46.63 174.41,-43.13 174.41,-50.13"/>
</a>
</g>
</g>
<!-- Node6 -->
<g id="Node000006" class="node">
<title>Node6</title>
<g id="a_Node000006"><a xlink:href="base_8h.html#a73b9f793bbe67a1968cc8c53a22d4c4b" target="_top" xlink:title="Safely writes a big&#45;endian 16&#45;bit word to provided pointer.">
<polygon fill="white" stroke="#666666" points="298.25,-19.25 226,-19.25 226,0 298.25,0 298.25,-19.25"/>
<text text-anchor="middle" x="262.12" y="-5.75" font-family="Helvetica,sans-Serif" font-size="10.00">modbusWBE</text>
</a>
</g>
</g>
<!-- Node1&#45;&gt;Node6 -->
<g id="edge5_Node000001_Node000006" class="edge">
<title>Node1&#45;&gt;Node6</title>
<g id="a_edge5_Node000001_Node000006"><a xlink:title=" ">
<path fill="none" stroke="#63b8ff" d="M126.68,-36.51C154.1,-31.03 187.78,-24.29 214.56,-18.94"/>
<polygon fill="#63b8ff" stroke="#63b8ff" points="214.97,-22.42 224.09,-17.03 213.6,-15.56 214.97,-22.42"/>
</a>
</g>
</g>
<!-- Node4 -->
<g id="Node000004" class="node">
<title>Node4</title>
<g id="a_Node000004"><a xlink:href="base_8impl_8h.html#a54f7d1db7f58ffd329b1955ad1a66f37" target="_top" xlink:title="Allocates memory to hold Modbus ADU.">
<polygon fill="white" stroke="#666666" points="514.12,-74.25 381.88,-74.25 381.88,-55 514.12,-55 514.12,-74.25"/>
<text text-anchor="middle" x="448" y="-60.75" font-family="Helvetica,sans-Serif" font-size="10.00">modbusBufferAllocateADU</text>
</a>
</g>
</g>
<!-- Node3&#45;&gt;Node4 -->
<g id="edge3_Node000003_Node000004" class="edge">
<title>Node3&#45;&gt;Node4</title>
<g id="a_edge3_Node000003_Node000004"><a xlink:title=" ">
<path fill="none" stroke="#63b8ff" d="M338.44,-54C348.93,-55.02 359.72,-56.08 370.23,-57.11"/>
<polygon fill="#63b8ff" stroke="#63b8ff" points="369.71,-60.58 380,-58.07 370.39,-53.61 369.71,-60.58"/>
</a>
</g>
</g>
<!-- Node5 -->
<g id="Node000005" class="node">
<title>Node5</title>
<g id="a_Node000005"><a xlink:href="master_8h.html#a39dfa809ec99fbff3a4acef1bc543b9f" target="_top" xlink:title="Retreieves the custom context pointer.">
<polygon fill="white" stroke="#666666" points="522,-37.25 374,-37.25 374,-18 522,-18 522,-37.25"/>
<text text-anchor="middle" x="448" y="-23.75" font-family="Helvetica,sans-Serif" font-size="10.00">modbusMasterGetUserPointer</text>
</a>
</g>
</g>
<!-- Node3&#45;&gt;Node5 -->
<g id="edge4_Node000003_Node000005" class="edge">
<title>Node3&#45;&gt;Node5</title>
<g id="a_edge4_Node000003_Node000005"><a xlink:title=" ">
<path fill="none" stroke="#63b8ff" d="M338.44,-38.84C346.33,-38.03 354.39,-37.19 362.37,-36.37"/>
<polygon fill="#63b8ff" stroke="#63b8ff" points="362.49,-39.88 372.07,-35.37 361.77,-32.91 362.49,-39.88"/>
</a>
</g>
</g>
</g>
</svg>
