<?xml version="1.0" encoding="UTF-8" standalone="no"?>
<!DOCTYPE svg PUBLIC "-//W3C//DTD SVG 1.1//EN"
 "http://www.w3.org/Graphics/SVG/1.1/DTD/svg11.dtd">
<!-- Generated by graphviz version 9.0.0 (20230911.1827)
 -->
<!-- Title: modbusEndRequestTCP Pages: 1 -->
<svg width="367pt" height="27pt"
 viewBox="0.00 0.00 367.25 27.25" xmlns="http://www.w3.org/2000/svg" xmlns:xlink="http://www.w3.org/1999/xlink">
<g id="graph0" class="graph" transform="scale(1 1) rotate(0) translate(4 23.25)">
<title>modbusEndRequestTCP</title>
<!-- Node1 -->
<g id="Node000001" class="node">
<title>Node1</title>
<g id="a_Node000001"><a xlink:title="Finalizes a Modbus TCP request.">
<polygon fill="#999999" stroke="#666666" points="122.5,-19.25 0,-19.25 0,0 122.5,0 122.5,-19.25"/>
<text text-anchor="middle" x="61.25" y="-5.75" font-family="Helvetica,sans-Serif" font-size="10.00">modbusEndRequestTCP</text>
</a>
</g>
</g>
<!-- Node2 -->
<g id="Node000002" class="node">
<title>Node2</title>
<g id="a_Node000002"><a xlink:href="base_8h.html#a39dcd3aad118a779b7e1775fea3e5d77" target="_top" xlink:title="Sets up the MBAP header in a Modbus TCP frame.">
<polygon fill="white" stroke="#666666" points="251,-19.25 158.5,-19.25 158.5,0 251,0 251,-19.25"/>
<text text-anchor="middle" x="204.75" y="-5.75" font-family="Helvetica,sans-Serif" font-size="10.00">modbusPackTCP</text>
</a>
</g>
</g>
<!-- Node1&#45;&gt;Node2 -->
<g id="edge1_Node000001_Node000002" class="edge">
<title>Node1&#45;&gt;Node2</title>
<g id="a_edge1_Node000001_Node000002"><a xlink:title=" ">
<path fill="none" stroke="#63b8ff" d="M122.67,-9.62C130.64,-9.62 138.8,-9.62 146.71,-9.62"/>
<polygon fill="#63b8ff" stroke="#63b8ff" points="146.57,-13.13 156.57,-9.63 146.57,-6.13 146.57,-13.13"/>
</a>
</g>
</g>
<!-- Node3 -->
<g id="Node000003" class="node">
<title>Node3</title>
<g id="a_Node000003"><a xlink:href="base_8h.html#a73b9f793bbe67a1968cc8c53a22d4c4b" target="_top" xlink:title="Safely writes a big&#45;endian 16&#45;bit word to provided pointer.">
<polygon fill="white" stroke="#666666" points="359.25,-19.25 287,-19.25 287,0 359.25,0 359.25,-19.25"/>
<text text-anchor="middle" x="323.12" y="-5.75" font-family="Helvetica,sans-Serif" font-size="10.00">modbusWBE</text>
</a>
</g>
</g>
<!-- Node2&#45;&gt;Node3 -->
<g id="edge2_Node000002_Node000003" class="edge">
<title>Node2&#45;&gt;Node3</title>
<g id="a_edge2_Node000002_Node000003"><a xlink:title=" ">
<path fill="none" stroke="#63b8ff" d="M251.41,-9.62C259.28,-9.62 267.48,-9.62 275.38,-9.62"/>
<polygon fill="#63b8ff" stroke="#63b8ff" points="275.16,-13.13 285.16,-9.63 275.16,-6.13 275.16,-13.13"/>
</a>
</g>
</g>
</g>
</svg>
