<?xml version="1.0" encoding="UTF-8" standalone="no"?>
<!DOCTYPE svg PUBLIC "-//W3C//DTD SVG 1.1//EN"
 "http://www.w3.org/Graphics/SVG/1.1/DTD/svg11.dtd">
<!-- Generated by graphviz version 9.0.0 (20230911.1827)
 -->
<!-- Title: modbusParseResponse1516 Pages: 1 -->
<svg width="309pt" height="101pt"
 viewBox="0.00 0.00 308.50 101.25" xmlns="http://www.w3.org/2000/svg" xmlns:xlink="http://www.w3.org/1999/xlink">
<g id="graph0" class="graph" transform="scale(1 1) rotate(0) translate(4 97.25)">
<title>modbusParseResponse1516</title>
<!-- Node1 -->
<g id="Node000001" class="node">
<title>Node1</title>
<g id="a_Node000001"><a xlink:title="Parses response to requests 15 and 16 (write mutliple regsiters/coils)">
<polygon fill="#999999" stroke="#666666" points="140.5,-56.25 0,-56.25 0,-37 140.5,-37 140.5,-56.25"/>
<text text-anchor="middle" x="70.25" y="-42.75" font-family="Helvetica,sans-Serif" font-size="10.00">modbusParseResponse1516</text>
</a>
</g>
</g>
<!-- Node2 -->
<g id="Node000002" class="node">
<title>Node2</title>
<g id="a_Node000002"><a xlink:href="base_8h.html#af23a50b36bef9c09ac82214a52ff4d58" target="_top" xlink:title="Returns number of bytes necessary to hold given number of bits.">
<polygon fill="white" stroke="#666666" points="290.38,-93.25 186.62,-93.25 186.62,-74 290.38,-74 290.38,-93.25"/>
<text text-anchor="middle" x="238.5" y="-79.75" font-family="Helvetica,sans-Serif" font-size="10.00">modbusBitsToBytes</text>
</a>
</g>
</g>
<!-- Node1&#45;&gt;Node2 -->
<g id="edge1_Node000001_Node000002" class="edge">
<title>Node1&#45;&gt;Node2</title>
<g id="a_edge1_Node000001_Node000002"><a xlink:title=" ">
<path fill="none" stroke="#63b8ff" d="M116.68,-56.74C136.56,-61.16 160.1,-66.4 181.09,-71.07"/>
<polygon fill="#63b8ff" stroke="#63b8ff" points="180.13,-74.44 190.65,-73.2 181.65,-67.61 180.13,-74.44"/>
</a>
</g>
</g>
<!-- Node3 -->
<g id="Node000003" class="node">
<title>Node3</title>
<g id="a_Node000003"><a xlink:href="base_8h.html#a61619958551d902c14ab6e51fb842ea0" target="_top" xlink:title="Checks whether provided address range causes an uint16_t overflow.">
<polygon fill="white" stroke="#666666" points="300.5,-56.25 176.5,-56.25 176.5,-37 300.5,-37 300.5,-56.25"/>
<text text-anchor="middle" x="238.5" y="-42.75" font-family="Helvetica,sans-Serif" font-size="10.00">modbusCheckRangeU16</text>
</a>
</g>
</g>
<!-- Node1&#45;&gt;Node3 -->
<g id="edge2_Node000001_Node000003" class="edge">
<title>Node1&#45;&gt;Node3</title>
<g id="a_edge2_Node000001_Node000003"><a xlink:title=" ">
<path fill="none" stroke="#63b8ff" d="M140.79,-46.62C148.68,-46.62 156.74,-46.62 164.67,-46.62"/>
<polygon fill="#63b8ff" stroke="#63b8ff" points="164.66,-50.13 174.66,-46.63 164.66,-43.13 164.66,-50.13"/>
</a>
</g>
</g>
<!-- Node4 -->
<g id="Node000004" class="node">
<title>Node4</title>
<g id="a_Node000004"><a xlink:href="base_8h.html#ace96da9afdf1e1796a6e2d7ac1f6c81a" target="_top" xlink:title="Safely reads a big&#45;endian 16&#45;bit word from provided pointer.">
<polygon fill="white" stroke="#666666" points="273.5,-19.25 203.5,-19.25 203.5,0 273.5,0 273.5,-19.25"/>
<text text-anchor="middle" x="238.5" y="-5.75" font-family="Helvetica,sans-Serif" font-size="10.00">modbusRBE</text>
</a>
</g>
</g>
<!-- Node1&#45;&gt;Node4 -->
<g id="edge3_Node000001_Node000004" class="edge">
<title>Node1&#45;&gt;Node4</title>
<g id="a_edge3_Node000001_Node000004"><a xlink:title=" ">
<path fill="none" stroke="#63b8ff" d="M116.68,-36.51C140.14,-31.29 168.69,-24.94 192.14,-19.72"/>
<polygon fill="#63b8ff" stroke="#63b8ff" points="192.73,-23.18 201.73,-17.59 191.21,-16.34 192.73,-23.18"/>
</a>
</g>
</g>
</g>
</svg>
