<?xml version="1.0" encoding="UTF-8" standalone="no"?>
<!DOCTYPE svg PUBLIC "-//W3C//DTD SVG 1.1//EN"
 "http://www.w3.org/Graphics/SVG/1.1/DTD/svg11.dtd">
<!-- Generated by graphviz version 9.0.0 (20230911.1827)
 -->
<!-- Title: modbusBuildRequest22 Pages: 1 -->
<svg width="499pt" height="82pt"
 viewBox="0.00 0.00 498.50 82.25" xmlns="http://www.w3.org/2000/svg" xmlns:xlink="http://www.w3.org/1999/xlink">
<g id="graph0" class="graph" transform="scale(1 1) rotate(0) translate(4 78.25)">
<title>modbusBuildRequest22</title>
<!-- Node1 -->
<g id="Node000001" class="node">
<title>Node1</title>
<g id="a_Node000001"><a xlink:title="Mask write register request.">
<polygon fill="#999999" stroke="#666666" points="118.75,-37.25 0,-37.25 0,-18 118.75,-18 118.75,-37.25"/>
<text text-anchor="middle" x="59.38" y="-23.75" font-family="Helvetica,sans-Serif" font-size="10.00">modbusBuildRequest22</text>
</a>
</g>
</g>
<!-- Node2 -->
<g id="Node000002" class="node">
<title>Node2</title>
<g id="a_Node000002"><a xlink:href="master_8h.html#a004b932b2b69ad0c6649c26d974146b2" target="_top" xlink:title="Allocates memory for the request frame.">
<polygon fill="white" stroke="#666666" points="306.5,-56.25 154.75,-56.25 154.75,-37 306.5,-37 306.5,-56.25"/>
<text text-anchor="middle" x="230.62" y="-42.75" font-family="Helvetica,sans-Serif" font-size="10.00">modbusMasterAllocateRequest</text>
</a>
</g>
</g>
<!-- Node1&#45;&gt;Node2 -->
<g id="edge1_Node000001_Node000002" class="edge">
<title>Node1&#45;&gt;Node2</title>
<g id="a_edge1_Node000001_Node000002"><a xlink:title=" ">
<path fill="none" stroke="#63b8ff" d="M119.1,-34.22C126.82,-35.08 134.86,-35.99 142.92,-36.89"/>
<polygon fill="#63b8ff" stroke="#63b8ff" points="142.48,-40.36 152.81,-38 143.26,-33.41 142.48,-40.36"/>
</a>
</g>
</g>
<!-- Node5 -->
<g id="Node000005" class="node">
<title>Node5</title>
<g id="a_Node000005"><a xlink:href="base_8h.html#a73b9f793bbe67a1968cc8c53a22d4c4b" target="_top" xlink:title="Safely writes a big&#45;endian 16&#45;bit word to provided pointer.">
<polygon fill="white" stroke="#666666" points="266.75,-19.25 194.5,-19.25 194.5,0 266.75,0 266.75,-19.25"/>
<text text-anchor="middle" x="230.62" y="-5.75" font-family="Helvetica,sans-Serif" font-size="10.00">modbusWBE</text>
</a>
</g>
</g>
<!-- Node1&#45;&gt;Node5 -->
<g id="edge4_Node000001_Node000005" class="edge">
<title>Node1&#45;&gt;Node5</title>
<g id="a_edge4_Node000001_Node000005"><a xlink:title=" ">
<path fill="none" stroke="#63b8ff" d="M119.1,-21.38C140.01,-19.16 163.25,-16.68 183.01,-14.58"/>
<polygon fill="#63b8ff" stroke="#63b8ff" points="183.12,-18.09 192.69,-13.55 182.38,-11.13 183.12,-18.09"/>
</a>
</g>
</g>
<!-- Node3 -->
<g id="Node000003" class="node">
<title>Node3</title>
<g id="a_Node000003"><a xlink:href="base_8impl_8h.html#a54f7d1db7f58ffd329b1955ad1a66f37" target="_top" xlink:title="Allocates memory to hold Modbus ADU.">
<polygon fill="white" stroke="#666666" points="482.62,-74.25 350.38,-74.25 350.38,-55 482.62,-55 482.62,-74.25"/>
<text text-anchor="middle" x="416.5" y="-60.75" font-family="Helvetica,sans-Serif" font-size="10.00">modbusBufferAllocateADU</text>
</a>
</g>
</g>
<!-- Node2&#45;&gt;Node3 -->
<g id="edge2_Node000002_Node000003" class="edge">
<title>Node2&#45;&gt;Node3</title>
<g id="a_edge2_Node000002_Node000003"><a xlink:title=" ">
<path fill="none" stroke="#63b8ff" d="M306.94,-54C317.43,-55.02 328.22,-56.08 338.73,-57.11"/>
<polygon fill="#63b8ff" stroke="#63b8ff" points="338.21,-60.58 348.5,-58.07 338.89,-53.61 338.21,-60.58"/>
</a>
</g>
</g>
<!-- Node4 -->
<g id="Node000004" class="node">
<title>Node4</title>
<g id="a_Node000004"><a xlink:href="master_8h.html#a39dfa809ec99fbff3a4acef1bc543b9f" target="_top" xlink:title="Retreieves the custom context pointer.">
<polygon fill="white" stroke="#666666" points="490.5,-37.25 342.5,-37.25 342.5,-18 490.5,-18 490.5,-37.25"/>
<text text-anchor="middle" x="416.5" y="-23.75" font-family="Helvetica,sans-Serif" font-size="10.00">modbusMasterGetUserPointer</text>
</a>
</g>
</g>
<!-- Node2&#45;&gt;Node4 -->
<g id="edge3_Node000002_Node000004" class="edge">
<title>Node2&#45;&gt;Node4</title>
<g id="a_edge3_Node000002_Node000004"><a xlink:title=" ">
<path fill="none" stroke="#63b8ff" d="M306.94,-38.84C314.83,-38.03 322.89,-37.19 330.87,-36.37"/>
<polygon fill="#63b8ff" stroke="#63b8ff" points="330.99,-39.88 340.57,-35.37 330.27,-32.91 330.99,-39.88"/>
</a>
</g>
</g>
</g>
</svg>
