<?xml version="1.0" encoding="UTF-8" standalone="no"?>
<!DOCTYPE svg PUBLIC "-//W3C//DTD SVG 1.1//EN"
 "http://www.w3.org/Graphics/SVG/1.1/DTD/svg11.dtd">
<!-- Generated by graphviz version 9.0.0 (20230911.1827)
 -->
<!-- Title: modbusMasterAllocateRequest Pages: 1 -->
<svg width="501pt" height="286pt"
 viewBox="0.00 0.00 500.75 286.25" xmlns="http://www.w3.org/2000/svg" xmlns:xlink="http://www.w3.org/1999/xlink">
<g id="graph0" class="graph" transform="scale(1 1) rotate(0) translate(4 282.25)">
<title>modbusMasterAllocateRequest</title>
<!-- Node1 -->
<g id="Node000001" class="node">
<title>Node1</title>
<g id="a_Node000001"><a xlink:title="Allocates memory for the request frame.">
<polygon fill="#999999" stroke="#666666" points="492.75,-93.25 341,-93.25 341,-74 492.75,-74 492.75,-93.25"/>
<text text-anchor="middle" x="416.88" y="-79.75" font-family="Helvetica,sans-Serif" font-size="10.00">modbusMasterAllocateRequest</text>
</a>
</g>
</g>
<!-- Node2 -->
<g id="Node000002" class="node">
<title>Node2</title>
<g id="a_Node000002"><a xlink:href="master__func_8impl_8h.html#ad3a6d4576d762da3eb0bd73aa5bb24fe" target="_top" xlink:title="Read mutiple coils/discrete inputs/holding registers/input registers.">
<polygon fill="white" stroke="#666666" points="305,-204.25 154.75,-204.25 154.75,-185 305,-185 305,-204.25"/>
<text text-anchor="middle" x="229.88" y="-190.75" font-family="Helvetica,sans-Serif" font-size="10.00">modbusBuildRequest01020304</text>
</a>
</g>
</g>
<!-- Node1&#45;&gt;Node2 -->
<g id="edge1_Node000001_Node000002" class="edge">
<title>Node1&#45;&gt;Node2</title>
<g id="a_edge1_Node000001_Node000002"><a xlink:title=" ">
<path fill="none" stroke="#63b8ff" d="M389.61,-99.38C351.01,-122.55 280.04,-165.13 247.71,-184.52"/>
<polygon fill="#63b8ff" stroke="#63b8ff" points="391.06,-102.6 397.83,-94.45 387.46,-96.59 391.06,-102.6"/>
</a>
</g>
</g>
<!-- Node7 -->
<g id="Node000007" class="node">
<title>Node7</title>
<g id="a_Node000007"><a xlink:href="master__func_8impl_8h.html#a5309a3003ea2d248e51193e75ab30044" target="_top" xlink:title="Write single coil/holding register.">
<polygon fill="white" stroke="#666666" points="294.5,-130.25 165.25,-130.25 165.25,-111 294.5,-111 294.5,-130.25"/>
<text text-anchor="middle" x="229.88" y="-116.75" font-family="Helvetica,sans-Serif" font-size="10.00">modbusBuildRequest0506</text>
</a>
</g>
</g>
<!-- Node1&#45;&gt;Node7 -->
<g id="edge6_Node000001_Node000007" class="edge">
<title>Node1&#45;&gt;Node7</title>
<g id="a_edge6_Node000001_Node000007"><a xlink:title=" ">
<path fill="none" stroke="#63b8ff" d="M354.33,-95.93C330.64,-100.67 303.89,-106.02 281.37,-110.53"/>
<polygon fill="#63b8ff" stroke="#63b8ff" points="354.72,-99.43 363.84,-94.03 353.35,-92.56 354.72,-99.43"/>
</a>
</g>
</g>
<!-- Node10 -->
<g id="Node000010" class="node">
<title>Node10</title>
<g id="a_Node000010"><a xlink:href="master__func_8impl_8h.html#ae9842e659ccd8942905e685923de8916" target="_top" xlink:title="Write multiple coils.">
<polygon fill="white" stroke="#666666" points="289.25,-93.25 170.5,-93.25 170.5,-74 289.25,-74 289.25,-93.25"/>
<text text-anchor="middle" x="229.88" y="-79.75" font-family="Helvetica,sans-Serif" font-size="10.00">modbusBuildRequest15</text>
</a>
</g>
</g>
<!-- Node1&#45;&gt;Node10 -->
<g id="edge9_Node000001_Node000010" class="edge">
<title>Node1&#45;&gt;Node10</title>
<g id="a_edge9_Node000001_Node000010"><a xlink:title=" ">
<path fill="none" stroke="#63b8ff" d="M329.38,-83.62C315.91,-83.62 302.26,-83.62 289.6,-83.62"/>
<polygon fill="#63b8ff" stroke="#63b8ff" points="329.11,-87.13 339.11,-83.63 329.11,-80.13 329.11,-87.13"/>
</a>
</g>
</g>
<!-- Node11 -->
<g id="Node000011" class="node">
<title>Node11</title>
<g id="a_Node000011"><a xlink:href="master__func_8impl_8h.html#aca022c438a427d8f4b03db4427c2b344" target="_top" xlink:title="Write multiple holding registers.">
<polygon fill="white" stroke="#666666" points="289.25,-56.25 170.5,-56.25 170.5,-37 289.25,-37 289.25,-56.25"/>
<text text-anchor="middle" x="229.88" y="-42.75" font-family="Helvetica,sans-Serif" font-size="10.00">modbusBuildRequest16</text>
</a>
</g>
</g>
<!-- Node1&#45;&gt;Node11 -->
<g id="edge10_Node000001_Node000011" class="edge">
<title>Node1&#45;&gt;Node11</title>
<g id="a_edge10_Node000001_Node000011"><a xlink:title=" ">
<path fill="none" stroke="#63b8ff" d="M354.33,-71.32C330.64,-66.58 303.89,-61.23 281.37,-56.72"/>
<polygon fill="#63b8ff" stroke="#63b8ff" points="353.35,-74.69 363.84,-73.22 354.72,-67.82 353.35,-74.69"/>
</a>
</g>
</g>
<!-- Node12 -->
<g id="Node000012" class="node">
<title>Node12</title>
<g id="a_Node000012"><a xlink:href="master__func_8impl_8h.html#a6f2c5d59dee73c80ad54e53cca38aeec" target="_top" xlink:title="Mask write register request.">
<polygon fill="white" stroke="#666666" points="289.25,-19.25 170.5,-19.25 170.5,0 289.25,0 289.25,-19.25"/>
<text text-anchor="middle" x="229.88" y="-5.75" font-family="Helvetica,sans-Serif" font-size="10.00">modbusBuildRequest22</text>
</a>
</g>
</g>
<!-- Node1&#45;&gt;Node12 -->
<g id="edge11_Node000001_Node000012" class="edge">
<title>Node1&#45;&gt;Node12</title>
<g id="a_edge11_Node000001_Node000012"><a xlink:title=" ">
<path fill="none" stroke="#63b8ff" d="M389.23,-67.98C367.24,-55.61 334.91,-38.64 305,-27.62 296.8,-24.6 287.9,-21.94 279.21,-19.66"/>
<polygon fill="#63b8ff" stroke="#63b8ff" points="387.4,-70.96 397.82,-72.88 390.88,-64.89 387.4,-70.96"/>
</a>
</g>
</g>
<!-- Node3 -->
<g id="Node000003" class="node">
<title>Node3</title>
<g id="a_Node000003"><a xlink:href="master__func_8h.html#aadb2b7e2d3ee4fbde22cdf076713d75e" target="_top" xlink:title="Read multiple coils &#45; a wrapper for modbusBuildRequest01020304()">
<polygon fill="white" stroke="#666666" points="118.75,-278.25 0,-278.25 0,-259 118.75,-259 118.75,-278.25"/>
<text text-anchor="middle" x="59.38" y="-264.75" font-family="Helvetica,sans-Serif" font-size="10.00">modbusBuildRequest01</text>
</a>
</g>
</g>
<!-- Node2&#45;&gt;Node3 -->
<g id="edge2_Node000002_Node000003" class="edge">
<title>Node2&#45;&gt;Node3</title>
<g id="a_edge2_Node000002_Node000003"><a xlink:title=" ">
<path fill="none" stroke="#63b8ff" d="M201.47,-210.22C179.55,-222.29 147.79,-238.86 118.75,-250.62 111.67,-253.49 103.96,-256.17 96.53,-258.54"/>
<polygon fill="#63b8ff" stroke="#63b8ff" points="203.03,-213.36 210.06,-205.44 199.62,-207.25 203.03,-213.36"/>
</a>
</g>
</g>
<!-- Node4 -->
<g id="Node000004" class="node">
<title>Node4</title>
<g id="a_Node000004"><a xlink:href="master__func_8h.html#a2a6452a8200d77483254bef08ee2cf8c" target="_top" xlink:title="Read multiple discrete inputs &#45; a wrapper for modbusBuildRequest01020304()">
<polygon fill="white" stroke="#666666" points="118.75,-241.25 0,-241.25 0,-222 118.75,-222 118.75,-241.25"/>
<text text-anchor="middle" x="59.38" y="-227.75" font-family="Helvetica,sans-Serif" font-size="10.00">modbusBuildRequest02</text>
</a>
</g>
</g>
<!-- Node2&#45;&gt;Node4 -->
<g id="edge3_Node000002_Node000004" class="edge">
<title>Node2&#45;&gt;Node4</title>
<g id="a_edge3_Node000002_Node000004"><a xlink:title=" ">
<path fill="none" stroke="#63b8ff" d="M171.64,-207.19C150.36,-211.87 126.51,-217.1 106.36,-221.53"/>
<polygon fill="#63b8ff" stroke="#63b8ff" points="172.34,-210.62 181.35,-205.06 170.84,-203.79 172.34,-210.62"/>
</a>
</g>
</g>
<!-- Node5 -->
<g id="Node000005" class="node">
<title>Node5</title>
<g id="a_Node000005"><a xlink:href="master__func_8h.html#a1c7ed51c58b1ef42ee176833c7fd0515" target="_top" xlink:title="Read multiple holding registers &#45; a wrapper for modbusBuildRequest01020304()">
<polygon fill="white" stroke="#666666" points="118.75,-204.25 0,-204.25 0,-185 118.75,-185 118.75,-204.25"/>
<text text-anchor="middle" x="59.38" y="-190.75" font-family="Helvetica,sans-Serif" font-size="10.00">modbusBuildRequest03</text>
</a>
</g>
</g>
<!-- Node2&#45;&gt;Node5 -->
<g id="edge4_Node000002_Node000005" class="edge">
<title>Node2&#45;&gt;Node5</title>
<g id="a_edge4_Node000002_Node000005"><a xlink:title=" ">
<path fill="none" stroke="#63b8ff" d="M143.08,-194.62C135,-194.62 126.94,-194.62 119.2,-194.62"/>
<polygon fill="#63b8ff" stroke="#63b8ff" points="142.96,-198.13 152.96,-194.63 142.96,-191.13 142.96,-198.13"/>
</a>
</g>
</g>
<!-- Node6 -->
<g id="Node000006" class="node">
<title>Node6</title>
<g id="a_Node000006"><a xlink:href="master__func_8h.html#a22bf4541196b3e88c0a86861d334e3b1" target="_top" xlink:title="Read multiple input registers &#45; a wrapper for modbusBuildRequest01020304()">
<polygon fill="white" stroke="#666666" points="118.75,-167.25 0,-167.25 0,-148 118.75,-148 118.75,-167.25"/>
<text text-anchor="middle" x="59.38" y="-153.75" font-family="Helvetica,sans-Serif" font-size="10.00">modbusBuildRequest04</text>
</a>
</g>
</g>
<!-- Node2&#45;&gt;Node6 -->
<g id="edge5_Node000002_Node000006" class="edge">
<title>Node2&#45;&gt;Node6</title>
<g id="a_edge5_Node000002_Node000006"><a xlink:title=" ">
<path fill="none" stroke="#63b8ff" d="M171.64,-182.06C150.36,-177.38 126.51,-172.15 106.36,-167.72"/>
<polygon fill="#63b8ff" stroke="#63b8ff" points="170.84,-185.46 181.35,-184.19 172.34,-178.63 170.84,-185.46"/>
</a>
</g>
</g>
<!-- Node8 -->
<g id="Node000008" class="node">
<title>Node8</title>
<g id="a_Node000008"><a xlink:href="master__func_8h.html#a7151355c8c34af355fd779f88a64e125" target="_top" xlink:title="Write single coil &#45; a wrapper for modbusBuildRequest0506()">
<polygon fill="white" stroke="#666666" points="118.75,-130.25 0,-130.25 0,-111 118.75,-111 118.75,-130.25"/>
<text text-anchor="middle" x="59.38" y="-116.75" font-family="Helvetica,sans-Serif" font-size="10.00">modbusBuildRequest05</text>
</a>
</g>
</g>
<!-- Node7&#45;&gt;Node8 -->
<g id="edge7_Node000007_Node000008" class="edge">
<title>Node7&#45;&gt;Node8</title>
<g id="a_edge7_Node000007_Node000008"><a xlink:title=" ">
<path fill="none" stroke="#63b8ff" d="M153.71,-120.62C142.13,-120.62 130.32,-120.62 119.17,-120.62"/>
<polygon fill="#63b8ff" stroke="#63b8ff" points="153.66,-124.13 163.66,-120.63 153.66,-117.13 153.66,-124.13"/>
</a>
</g>
</g>
<!-- Node9 -->
<g id="Node000009" class="node">
<title>Node9</title>
<g id="a_Node000009"><a xlink:href="master__func_8h.html#a56779853bdfd2bb75601be746c20eb09" target="_top" xlink:title="Write single holding register &#45; a wrapper for modbusBuildRequest0506()">
<polygon fill="white" stroke="#666666" points="118.75,-93.25 0,-93.25 0,-74 118.75,-74 118.75,-93.25"/>
<text text-anchor="middle" x="59.38" y="-79.75" font-family="Helvetica,sans-Serif" font-size="10.00">modbusBuildRequest06</text>
</a>
</g>
</g>
<!-- Node7&#45;&gt;Node9 -->
<g id="edge8_Node000007_Node000009" class="edge">
<title>Node7&#45;&gt;Node9</title>
<g id="a_edge8_Node000007_Node000009"><a xlink:title=" ">
<path fill="none" stroke="#63b8ff" d="M171.64,-108.06C150.36,-103.38 126.51,-98.15 106.36,-93.72"/>
<polygon fill="#63b8ff" stroke="#63b8ff" points="170.84,-111.46 181.35,-110.19 172.34,-104.63 170.84,-111.46"/>
</a>
</g>
</g>
</g>
</svg>
