<?xml version="1.0" encoding="UTF-8" standalone="no"?>
<!DOCTYPE svg PUBLIC "-//W3C//DTD SVG 1.1//EN"
 "http://www.w3.org/Graphics/SVG/1.1/DTD/svg11.dtd">
<!-- Generated by graphviz version 9.0.0 (20230911.1827)
 -->
<!-- Title: modbusBuildRequest0506 Pages: 1 -->
<svg width="509pt" height="82pt"
 viewBox="0.00 0.00 509.00 82.25" xmlns="http://www.w3.org/2000/svg" xmlns:xlink="http://www.w3.org/1999/xlink">
<g id="graph0" class="graph" transform="scale(1 1) rotate(0) translate(4 78.25)">
<title>modbusBuildRequest0506</title>
<!-- Node1 -->
<g id="Node000001" class="node">
<title>Node1</title>
<g id="a_Node000001"><a xlink:title="Write single coil/holding register.">
<polygon fill="#999999" stroke="#666666" points="129.25,-37.25 0,-37.25 0,-18 129.25,-18 129.25,-37.25"/>
<text text-anchor="middle" x="64.62" y="-23.75" font-family="Helvetica,sans-Serif" font-size="10.00">modbusBuildRequest0506</text>
</a>
</g>
</g>
<!-- Node2 -->
<g id="Node000002" class="node">
<title>Node2</title>
<g id="a_Node000002"><a xlink:href="master_8h.html#a004b932b2b69ad0c6649c26d974146b2" target="_top" xlink:title="Allocates memory for the request frame.">
<polygon fill="white" stroke="#666666" points="317,-56.25 165.25,-56.25 165.25,-37 317,-37 317,-56.25"/>
<text text-anchor="middle" x="241.12" y="-42.75" font-family="Helvetica,sans-Serif" font-size="10.00">modbusMasterAllocateRequest</text>
</a>
</g>
</g>
<!-- Node1&#45;&gt;Node2 -->
<g id="edge1_Node000001_Node000002" class="edge">
<title>Node1&#45;&gt;Node2</title>
<g id="a_edge1_Node000001_Node000002"><a xlink:title=" ">
<path fill="none" stroke="#63b8ff" d="M129.61,-34.59C137.41,-35.44 145.48,-36.32 153.54,-37.2"/>
<polygon fill="#63b8ff" stroke="#63b8ff" points="153.08,-40.67 163.4,-38.27 153.84,-33.71 153.08,-40.67"/>
</a>
</g>
</g>
<!-- Node5 -->
<g id="Node000005" class="node">
<title>Node5</title>
<g id="a_Node000005"><a xlink:href="base_8h.html#a73b9f793bbe67a1968cc8c53a22d4c4b" target="_top" xlink:title="Safely writes a big&#45;endian 16&#45;bit word to provided pointer.">
<polygon fill="white" stroke="#666666" points="277.25,-19.25 205,-19.25 205,0 277.25,0 277.25,-19.25"/>
<text text-anchor="middle" x="241.12" y="-5.75" font-family="Helvetica,sans-Serif" font-size="10.00">modbusWBE</text>
</a>
</g>
</g>
<!-- Node1&#45;&gt;Node5 -->
<g id="edge4_Node000001_Node000005" class="edge">
<title>Node1&#45;&gt;Node5</title>
<g id="a_edge4_Node000001_Node000005"><a xlink:title=" ">
<path fill="none" stroke="#63b8ff" d="M129.61,-21.02C150.65,-18.85 173.64,-16.48 193.18,-14.47"/>
<polygon fill="#63b8ff" stroke="#63b8ff" points="193.45,-17.96 203.04,-13.45 192.73,-11 193.45,-17.96"/>
</a>
</g>
</g>
<!-- Node3 -->
<g id="Node000003" class="node">
<title>Node3</title>
<g id="a_Node000003"><a xlink:href="base_8impl_8h.html#a54f7d1db7f58ffd329b1955ad1a66f37" target="_top" xlink:title="Allocates memory to hold Modbus ADU.">
<polygon fill="white" stroke="#666666" points="493.12,-74.25 360.88,-74.25 360.88,-55 493.12,-55 493.12,-74.25"/>
<text text-anchor="middle" x="427" y="-60.75" font-family="Helvetica,sans-Serif" font-size="10.00">modbusBufferAllocateADU</text>
</a>
</g>
</g>
<!-- Node2&#45;&gt;Node3 -->
<g id="edge2_Node000002_Node000003" class="edge">
<title>Node2&#45;&gt;Node3</title>
<g id="a_edge2_Node000002_Node000003"><a xlink:title=" ">
<path fill="none" stroke="#63b8ff" d="M317.44,-54C327.93,-55.02 338.72,-56.08 349.23,-57.11"/>
<polygon fill="#63b8ff" stroke="#63b8ff" points="348.71,-60.58 359,-58.07 349.39,-53.61 348.71,-60.58"/>
</a>
</g>
</g>
<!-- Node4 -->
<g id="Node000004" class="node">
<title>Node4</title>
<g id="a_Node000004"><a xlink:href="master_8h.html#a39dfa809ec99fbff3a4acef1bc543b9f" target="_top" xlink:title="Retreieves the custom context pointer.">
<polygon fill="white" stroke="#666666" points="501,-37.25 353,-37.25 353,-18 501,-18 501,-37.25"/>
<text text-anchor="middle" x="427" y="-23.75" font-family="Helvetica,sans-Serif" font-size="10.00">modbusMasterGetUserPointer</text>
</a>
</g>
</g>
<!-- Node2&#45;&gt;Node4 -->
<g id="edge3_Node000002_Node000004" class="edge">
<title>Node2&#45;&gt;Node4</title>
<g id="a_edge3_Node000002_Node000004"><a xlink:title=" ">
<path fill="none" stroke="#63b8ff" d="M317.44,-38.84C325.33,-38.03 333.39,-37.19 341.37,-36.37"/>
<polygon fill="#63b8ff" stroke="#63b8ff" points="341.49,-39.88 351.07,-35.37 340.77,-32.91 341.49,-39.88"/>
</a>
</g>
</g>
</g>
</svg>
