<?xml version="1.0" encoding="UTF-8" standalone="no"?>
<!DOCTYPE svg PUBLIC "-//W3C//DTD SVG 1.1//EN"
 "http://www.w3.org/Graphics/SVG/1.1/DTD/svg11.dtd">
<!-- Generated by graphviz version 9.0.0 (20230911.1827)
 -->
<!-- Title: modbusBuildRequest16 Pages: 1 -->
<svg width="499pt" height="101pt"
 viewBox="0.00 0.00 498.50 101.25" xmlns="http://www.w3.org/2000/svg" xmlns:xlink="http://www.w3.org/1999/xlink">
<g id="graph0" class="graph" transform="scale(1 1) rotate(0) translate(4 97.25)">
<title>modbusBuildRequest16</title>
<!-- Node1 -->
<g id="Node000001" class="node">
<title>Node1</title>
<g id="a_Node000001"><a xlink:title="Write multiple holding registers.">
<polygon fill="#999999" stroke="#666666" points="118.75,-56.25 0,-56.25 0,-37 118.75,-37 118.75,-56.25"/>
<text text-anchor="middle" x="59.38" y="-42.75" font-family="Helvetica,sans-Serif" font-size="10.00">modbusBuildRequest16</text>
</a>
</g>
</g>
<!-- Node2 -->
<g id="Node000002" class="node">
<title>Node2</title>
<g id="a_Node000002"><a xlink:href="base_8h.html#a61619958551d902c14ab6e51fb842ea0" target="_top" xlink:title="Checks whether provided address range causes an uint16_t overflow.">
<polygon fill="white" stroke="#666666" points="292.62,-93.25 168.62,-93.25 168.62,-74 292.62,-74 292.62,-93.25"/>
<text text-anchor="middle" x="230.62" y="-79.75" font-family="Helvetica,sans-Serif" font-size="10.00">modbusCheckRangeU16</text>
</a>
</g>
</g>
<!-- Node1&#45;&gt;Node2 -->
<g id="edge1_Node000001_Node000002" class="edge">
<title>Node1&#45;&gt;Node2</title>
<g id="a_edge1_Node000001_Node000002"><a xlink:title=" ">
<path fill="none" stroke="#63b8ff" d="M106.62,-56.74C126.87,-61.16 150.83,-66.4 172.2,-71.07"/>
<polygon fill="#63b8ff" stroke="#63b8ff" points="171.44,-74.49 181.95,-73.2 172.93,-67.65 171.44,-74.49"/>
</a>
</g>
</g>
<!-- Node3 -->
<g id="Node000003" class="node">
<title>Node3</title>
<g id="a_Node000003"><a xlink:href="master_8h.html#a004b932b2b69ad0c6649c26d974146b2" target="_top" xlink:title="Allocates memory for the request frame.">
<polygon fill="white" stroke="#666666" points="306.5,-56.25 154.75,-56.25 154.75,-37 306.5,-37 306.5,-56.25"/>
<text text-anchor="middle" x="230.62" y="-42.75" font-family="Helvetica,sans-Serif" font-size="10.00">modbusMasterAllocateRequest</text>
</a>
</g>
</g>
<!-- Node1&#45;&gt;Node3 -->
<g id="edge2_Node000001_Node000003" class="edge">
<title>Node1&#45;&gt;Node3</title>
<g id="a_edge2_Node000001_Node000003"><a xlink:title=" ">
<path fill="none" stroke="#63b8ff" d="M119.1,-46.62C126.82,-46.62 134.86,-46.62 142.92,-46.62"/>
<polygon fill="#63b8ff" stroke="#63b8ff" points="142.8,-50.13 152.8,-46.63 142.8,-43.13 142.8,-50.13"/>
</a>
</g>
</g>
<!-- Node6 -->
<g id="Node000006" class="node">
<title>Node6</title>
<g id="a_Node000006"><a xlink:href="base_8h.html#a73b9f793bbe67a1968cc8c53a22d4c4b" target="_top" xlink:title="Safely writes a big&#45;endian 16&#45;bit word to provided pointer.">
<polygon fill="white" stroke="#666666" points="266.75,-19.25 194.5,-19.25 194.5,0 266.75,0 266.75,-19.25"/>
<text text-anchor="middle" x="230.62" y="-5.75" font-family="Helvetica,sans-Serif" font-size="10.00">modbusWBE</text>
</a>
</g>
</g>
<!-- Node1&#45;&gt;Node6 -->
<g id="edge5_Node000001_Node000006" class="edge">
<title>Node1&#45;&gt;Node6</title>
<g id="a_edge5_Node000001_Node000006"><a xlink:title=" ">
<path fill="none" stroke="#63b8ff" d="M106.62,-36.51C130.34,-31.33 159.17,-25.03 182.95,-19.83"/>
<polygon fill="#63b8ff" stroke="#63b8ff" points="183.67,-23.25 192.69,-17.7 182.18,-16.42 183.67,-23.25"/>
</a>
</g>
</g>
<!-- Node4 -->
<g id="Node000004" class="node">
<title>Node4</title>
<g id="a_Node000004"><a xlink:href="base_8impl_8h.html#a54f7d1db7f58ffd329b1955ad1a66f37" target="_top" xlink:title="Allocates memory to hold Modbus ADU.">
<polygon fill="white" stroke="#666666" points="482.62,-74.25 350.38,-74.25 350.38,-55 482.62,-55 482.62,-74.25"/>
<text text-anchor="middle" x="416.5" y="-60.75" font-family="Helvetica,sans-Serif" font-size="10.00">modbusBufferAllocateADU</text>
</a>
</g>
</g>
<!-- Node3&#45;&gt;Node4 -->
<g id="edge3_Node000003_Node000004" class="edge">
<title>Node3&#45;&gt;Node4</title>
<g id="a_edge3_Node000003_Node000004"><a xlink:title=" ">
<path fill="none" stroke="#63b8ff" d="M306.94,-54C317.43,-55.02 328.22,-56.08 338.73,-57.11"/>
<polygon fill="#63b8ff" stroke="#63b8ff" points="338.21,-60.58 348.5,-58.07 338.89,-53.61 338.21,-60.58"/>
</a>
</g>
</g>
<!-- Node5 -->
<g id="Node000005" class="node">
<title>Node5</title>
<g id="a_Node000005"><a xlink:href="master_8h.html#a39dfa809ec99fbff3a4acef1bc543b9f" target="_top" xlink:title="Retreieves the custom context pointer.">
<polygon fill="white" stroke="#666666" points="490.5,-37.25 342.5,-37.25 342.5,-18 490.5,-18 490.5,-37.25"/>
<text text-anchor="middle" x="416.5" y="-23.75" font-family="Helvetica,sans-Serif" font-size="10.00">modbusMasterGetUserPointer</text>
</a>
</g>
</g>
<!-- Node3&#45;&gt;Node5 -->
<g id="edge4_Node000003_Node000005" class="edge">
<title>Node3&#45;&gt;Node5</title>
<g id="a_edge4_Node000003_Node000005"><a xlink:title=" ">
<path fill="none" stroke="#63b8ff" d="M306.94,-38.84C314.83,-38.03 322.89,-37.19 330.87,-36.37"/>
<polygon fill="#63b8ff" stroke="#63b8ff" points="330.99,-39.88 340.57,-35.37 330.27,-32.91 330.99,-39.88"/>
</a>
</g>
</g>
</g>
</svg>
