<?xml version="1.0" encoding="UTF-8" standalone="no"?>
<!DOCTYPE svg PUBLIC "-//W3C//DTD SVG 1.1//EN"
 "http://www.w3.org/Graphics/SVG/1.1/DTD/svg11.dtd">
<!-- Generated by graphviz version 9.0.0 (20230911.1827)
 -->
<!-- Title: modbusParseResponseRTU Pages: 1 -->
<svg width="431pt" height="82pt"
 viewBox="0.00 0.00 431.00 82.25" xmlns="http://www.w3.org/2000/svg" xmlns:xlink="http://www.w3.org/1999/xlink">
<g id="graph0" class="graph" transform="scale(1 1) rotate(0) translate(4 78.25)">
<title>modbusParseResponseRTU</title>
<!-- Node1 -->
<g id="Node000001" class="node">
<title>Node1</title>
<g id="a_Node000001"><a xlink:title="Parses a Modbus RTU slave response.">
<polygon fill="#999999" stroke="#666666" points="139.75,-55.25 0,-55.25 0,-36 139.75,-36 139.75,-55.25"/>
<text text-anchor="middle" x="69.88" y="-41.75" font-family="Helvetica,sans-Serif" font-size="10.00">modbusParseResponseRTU</text>
</a>
</g>
</g>
<!-- Node2 -->
<g id="Node000002" class="node">
<title>Node2</title>
<g id="a_Node000002"><a xlink:href="master_8impl_8h.html#ad8e87b7bdda035ea42cacc2241b406e3" target="_top" xlink:title="Parses a PDU section of a slave response.">
<polygon fill="white" stroke="#666666" points="316.25,-74.25 175.75,-74.25 175.75,-55 316.25,-55 316.25,-74.25"/>
<text text-anchor="middle" x="246" y="-60.75" font-family="Helvetica,sans-Serif" font-size="10.00">modbusParseResponsePDU</text>
</a>
</g>
</g>
<!-- Node1&#45;&gt;Node2 -->
<g id="edge1_Node000001_Node000002" class="edge">
<title>Node1&#45;&gt;Node2</title>
<g id="a_edge1_Node000001_Node000002"><a xlink:title=" ">
<path fill="none" stroke="#63b8ff" d="M140.19,-53.19C148.06,-54.05 156.12,-54.93 164.12,-55.8"/>
<polygon fill="#63b8ff" stroke="#63b8ff" points="163.52,-59.26 173.85,-56.86 164.28,-52.3 163.52,-59.26"/>
</a>
</g>
</g>
<!-- Node3 -->
<g id="Node000003" class="node">
<title>Node3</title>
<g id="a_Node000003"><a xlink:href="base_8h.html#a4dba88e9baf690b8dafa0fad81eb7d07" target="_top" xlink:title="Unpacks data from a Modbus RTU frame and optionally checks CRC.">
<polygon fill="white" stroke="#666666" points="298.25,-37.25 193.75,-37.25 193.75,-18 298.25,-18 298.25,-37.25"/>
<text text-anchor="middle" x="246" y="-23.75" font-family="Helvetica,sans-Serif" font-size="10.00">modbusUnpackRTU</text>
</a>
</g>
</g>
<!-- Node1&#45;&gt;Node3 -->
<g id="edge2_Node000001_Node000003" class="edge">
<title>Node1&#45;&gt;Node3</title>
<g id="a_edge2_Node000001_Node000003"><a xlink:title=" ">
<path fill="none" stroke="#63b8ff" d="M140.19,-38.46C154.05,-37.03 168.53,-35.53 182.15,-34.12"/>
<polygon fill="#63b8ff" stroke="#63b8ff" points="182.27,-37.63 191.86,-33.12 181.55,-30.67 182.27,-37.63"/>
</a>
</g>
</g>
<!-- Node4 -->
<g id="Node000004" class="node">
<title>Node4</title>
<g id="a_Node000004"><a xlink:href="base_8impl_8h.html#a11346a546b84663cd92cb30f4ffd1393" target="_top" xlink:title="Calculates 16&#45;bit Modbus CRC of provided data.">
<polygon fill="white" stroke="#666666" points="423,-56.25 352.25,-56.25 352.25,-37 423,-37 423,-56.25"/>
<text text-anchor="middle" x="387.62" y="-42.75" font-family="Helvetica,sans-Serif" font-size="10.00">modbusCRC</text>
</a>
</g>
</g>
<!-- Node3&#45;&gt;Node4 -->
<g id="edge3_Node000003_Node000004" class="edge">
<title>Node3&#45;&gt;Node4</title>
<g id="a_edge3_Node000003_Node000004"><a xlink:title=" ">
<path fill="none" stroke="#63b8ff" d="M298.59,-34.65C312.29,-36.51 327,-38.51 340.39,-40.33"/>
<polygon fill="#63b8ff" stroke="#63b8ff" points="339.89,-43.8 350.27,-41.68 340.83,-36.86 339.89,-43.8"/>
</a>
</g>
</g>
<!-- Node5 -->
<g id="Node000005" class="node">
<title>Node5</title>
<g id="a_Node000005"><a xlink:href="base_8h.html#a0fc3f293c746d39a93e4c1158f792404" target="_top" xlink:title="Safely reads a little&#45;endian 16&#45;bit word from provided pointer.">
<polygon fill="white" stroke="#666666" points="422.25,-19.25 353,-19.25 353,0 422.25,0 422.25,-19.25"/>
<text text-anchor="middle" x="387.62" y="-5.75" font-family="Helvetica,sans-Serif" font-size="10.00">modbusRLE</text>
</a>
</g>
</g>
<!-- Node3&#45;&gt;Node5 -->
<g id="edge4_Node000003_Node000005" class="edge">
<title>Node3&#45;&gt;Node5</title>
<g id="a_edge4_Node000003_Node000005"><a xlink:title=" ">
<path fill="none" stroke="#63b8ff" d="M298.59,-20.97C312.67,-19.16 327.82,-17.21 341.51,-15.44"/>
<polygon fill="#63b8ff" stroke="#63b8ff" points="341.64,-18.95 351.11,-14.2 340.74,-12.01 341.64,-18.95"/>
</a>
</g>
</g>
</g>
</svg>
