<?xml version="1.0" encoding="UTF-8" standalone="no"?>
<!DOCTYPE svg PUBLIC "-//W3C//DTD SVG 1.1//EN"
 "http://www.w3.org/Graphics/SVG/1.1/DTD/svg11.dtd">
<!-- Generated by graphviz version 9.0.0 (20230911.1827)
 -->
<!-- Title: modbusBuildRequest15 Pages: 1 -->
<svg width="499pt" height="212pt"
 viewBox="0.00 0.00 498.50 212.25" xmlns="http://www.w3.org/2000/svg" xmlns:xlink="http://www.w3.org/1999/xlink">
<g id="graph0" class="graph" transform="scale(1 1) rotate(0) translate(4 208.25)">
<title>modbusBuildRequest15</title>
<!-- Node1 -->
<g id="Node000001" class="node">
<title>Node1</title>
<g id="a_Node000001"><a xlink:title="Write multiple coils.">
<polygon fill="#999999" stroke="#666666" points="118.75,-111.25 0,-111.25 0,-92 118.75,-92 118.75,-111.25"/>
<text text-anchor="middle" x="59.38" y="-97.75" font-family="Helvetica,sans-Serif" font-size="10.00">modbusBuildRequest15</text>
</a>
</g>
</g>
<!-- Node2 -->
<g id="Node000002" class="node">
<title>Node2</title>
<g id="a_Node000002"><a xlink:href="base_8h.html#af23a50b36bef9c09ac82214a52ff4d58" target="_top" xlink:title="Returns number of bytes necessary to hold given number of bits.">
<polygon fill="white" stroke="#666666" points="282.5,-204.25 178.75,-204.25 178.75,-185 282.5,-185 282.5,-204.25"/>
<text text-anchor="middle" x="230.62" y="-190.75" font-family="Helvetica,sans-Serif" font-size="10.00">modbusBitsToBytes</text>
</a>
</g>
</g>
<!-- Node1&#45;&gt;Node2 -->
<g id="edge1_Node000001_Node000002" class="edge">
<title>Node1&#45;&gt;Node2</title>
<g id="a_edge1_Node000001_Node000002"><a xlink:title=" ">
<path fill="none" stroke="#63b8ff" d="M69.84,-111.55C85.8,-127.7 119.76,-159.56 154.75,-176.62 158.94,-178.67 163.38,-180.49 167.92,-182.11"/>
<polygon fill="#63b8ff" stroke="#63b8ff" points="166.6,-185.36 177.19,-185.08 168.74,-178.7 166.6,-185.36"/>
</a>
</g>
</g>
<!-- Node3 -->
<g id="Node000003" class="node">
<title>Node3</title>
<g id="a_Node000003"><a xlink:href="base_8h.html#a61619958551d902c14ab6e51fb842ea0" target="_top" xlink:title="Checks whether provided address range causes an uint16_t overflow.">
<polygon fill="white" stroke="#666666" points="292.62,-167.25 168.62,-167.25 168.62,-148 292.62,-148 292.62,-167.25"/>
<text text-anchor="middle" x="230.62" y="-153.75" font-family="Helvetica,sans-Serif" font-size="10.00">modbusCheckRangeU16</text>
</a>
</g>
</g>
<!-- Node1&#45;&gt;Node3 -->
<g id="edge2_Node000001_Node000003" class="edge">
<title>Node1&#45;&gt;Node3</title>
<g id="a_edge2_Node000001_Node000003"><a xlink:title=" ">
<path fill="none" stroke="#63b8ff" d="M82.54,-111.63C101.45,-119.9 129.51,-131.56 154.75,-139.62 160.26,-141.39 166.05,-143.07 171.86,-144.64"/>
<polygon fill="#63b8ff" stroke="#63b8ff" points="170.98,-148.03 181.53,-147.16 172.74,-141.25 170.98,-148.03"/>
</a>
</g>
</g>
<!-- Node4 -->
<g id="Node000004" class="node">
<title>Node4</title>
<g id="a_Node000004"><a xlink:href="base_8h.html#aff2248343762719cdacf818e4dae3709" target="_top" xlink:title="Reads n&#45;th bit from an array.">
<polygon fill="white" stroke="#666666" points="279.12,-130.25 182.12,-130.25 182.12,-111 279.12,-111 279.12,-130.25"/>
<text text-anchor="middle" x="230.62" y="-116.75" font-family="Helvetica,sans-Serif" font-size="10.00">modbusMaskRead</text>
</a>
</g>
</g>
<!-- Node1&#45;&gt;Node4 -->
<g id="edge3_Node000001_Node000004" class="edge">
<title>Node1&#45;&gt;Node4</title>
<g id="a_edge3_Node000001_Node000004"><a xlink:title=" ">
<path fill="none" stroke="#63b8ff" d="M119.1,-108.22C135.7,-110.08 153.77,-112.11 170.4,-113.98"/>
<polygon fill="#63b8ff" stroke="#63b8ff" points="169.81,-117.43 180.14,-115.07 170.6,-110.48 169.81,-117.43"/>
</a>
</g>
</g>
<!-- Node5 -->
<g id="Node000005" class="node">
<title>Node5</title>
<g id="a_Node000005"><a xlink:href="base_8h.html#a5d9947eb500e2d0c87491a0adce53c2a" target="_top" xlink:title="Writes n&#45;th bit in an array.">
<polygon fill="white" stroke="#666666" points="279.12,-93.25 182.12,-93.25 182.12,-74 279.12,-74 279.12,-93.25"/>
<text text-anchor="middle" x="230.62" y="-79.75" font-family="Helvetica,sans-Serif" font-size="10.00">modbusMaskWrite</text>
</a>
</g>
</g>
<!-- Node1&#45;&gt;Node5 -->
<g id="edge4_Node000001_Node000005" class="edge">
<title>Node1&#45;&gt;Node5</title>
<g id="a_edge4_Node000001_Node000005"><a xlink:title=" ">
<path fill="none" stroke="#63b8ff" d="M119.1,-95.38C135.7,-93.61 153.77,-91.69 170.4,-89.92"/>
<polygon fill="#63b8ff" stroke="#63b8ff" points="170.57,-93.43 180.14,-88.89 169.83,-86.46 170.57,-93.43"/>
</a>
</g>
</g>
<!-- Node6 -->
<g id="Node000006" class="node">
<title>Node6</title>
<g id="a_Node000006"><a xlink:href="master_8h.html#a004b932b2b69ad0c6649c26d974146b2" target="_top" xlink:title="Allocates memory for the request frame.">
<polygon fill="white" stroke="#666666" points="306.5,-56.25 154.75,-56.25 154.75,-37 306.5,-37 306.5,-56.25"/>
<text text-anchor="middle" x="230.62" y="-42.75" font-family="Helvetica,sans-Serif" font-size="10.00">modbusMasterAllocateRequest</text>
</a>
</g>
</g>
<!-- Node1&#45;&gt;Node6 -->
<g id="edge5_Node000001_Node000006" class="edge">
<title>Node1&#45;&gt;Node6</title>
<g id="a_edge5_Node000001_Node000006"><a xlink:title=" ">
<path fill="none" stroke="#63b8ff" d="M83.33,-91.6C102.24,-83.59 129.9,-72.44 154.75,-64.62 160.49,-62.82 166.52,-61.09 172.57,-59.47"/>
<polygon fill="#63b8ff" stroke="#63b8ff" points="173.14,-62.94 181.95,-57.06 171.39,-56.16 173.14,-62.94"/>
</a>
</g>
</g>
<!-- Node9 -->
<g id="Node000009" class="node">
<title>Node9</title>
<g id="a_Node000009"><a xlink:href="base_8h.html#a73b9f793bbe67a1968cc8c53a22d4c4b" target="_top" xlink:title="Safely writes a big&#45;endian 16&#45;bit word to provided pointer.">
<polygon fill="white" stroke="#666666" points="266.75,-19.25 194.5,-19.25 194.5,0 266.75,0 266.75,-19.25"/>
<text text-anchor="middle" x="230.62" y="-5.75" font-family="Helvetica,sans-Serif" font-size="10.00">modbusWBE</text>
</a>
</g>
</g>
<!-- Node1&#45;&gt;Node9 -->
<g id="edge8_Node000001_Node000009" class="edge">
<title>Node1&#45;&gt;Node9</title>
<g id="a_edge8_Node000001_Node000009"><a xlink:title=" ">
<path fill="none" stroke="#63b8ff" d="M70.12,-91.58C86.23,-75.57 120.07,-44.39 154.75,-27.62 163.57,-23.36 173.48,-20.06 183.14,-17.52"/>
<polygon fill="#63b8ff" stroke="#63b8ff" points="183.87,-20.95 192.79,-15.23 182.26,-14.13 183.87,-20.95"/>
</a>
</g>
</g>
<!-- Node7 -->
<g id="Node000007" class="node">
<title>Node7</title>
<g id="a_Node000007"><a xlink:href="base_8impl_8h.html#a54f7d1db7f58ffd329b1955ad1a66f37" target="_top" xlink:title="Allocates memory to hold Modbus ADU.">
<polygon fill="white" stroke="#666666" points="482.62,-74.25 350.38,-74.25 350.38,-55 482.62,-55 482.62,-74.25"/>
<text text-anchor="middle" x="416.5" y="-60.75" font-family="Helvetica,sans-Serif" font-size="10.00">modbusBufferAllocateADU</text>
</a>
</g>
</g>
<!-- Node6&#45;&gt;Node7 -->
<g id="edge6_Node000006_Node000007" class="edge">
<title>Node6&#45;&gt;Node7</title>
<g id="a_edge6_Node000006_Node000007"><a xlink:title=" ">
<path fill="none" stroke="#63b8ff" d="M306.94,-54C317.43,-55.02 328.22,-56.08 338.73,-57.11"/>
<polygon fill="#63b8ff" stroke="#63b8ff" points="338.21,-60.58 348.5,-58.07 338.89,-53.61 338.21,-60.58"/>
</a>
</g>
</g>
<!-- Node8 -->
<g id="Node000008" class="node">
<title>Node8</title>
<g id="a_Node000008"><a xlink:href="master_8h.html#a39dfa809ec99fbff3a4acef1bc543b9f" target="_top" xlink:title="Retreieves the custom context pointer.">
<polygon fill="white" stroke="#666666" points="490.5,-37.25 342.5,-37.25 342.5,-18 490.5,-18 490.5,-37.25"/>
<text text-anchor="middle" x="416.5" y="-23.75" font-family="Helvetica,sans-Serif" font-size="10.00">modbusMasterGetUserPointer</text>
</a>
</g>
</g>
<!-- Node6&#45;&gt;Node8 -->
<g id="edge7_Node000006_Node000008" class="edge">
<title>Node6&#45;&gt;Node8</title>
<g id="a_edge7_Node000006_Node000008"><a xlink:title=" ">
<path fill="none" stroke="#63b8ff" d="M306.94,-38.84C314.83,-38.03 322.89,-37.19 330.87,-36.37"/>
<polygon fill="#63b8ff" stroke="#63b8ff" points="330.99,-39.88 340.57,-35.37 330.27,-32.91 330.99,-39.88"/>
</a>
</g>
</g>
</g>
</svg>
