<?xml version="1.0" encoding="UTF-8" standalone="no"?>
<!DOCTYPE svg PUBLIC "-//W3C//DTD SVG 1.1//EN"
 "http://www.w3.org/Graphics/SVG/1.1/DTD/svg11.dtd">
<!-- Generated by graphviz version 9.0.0 (20230911.1827)
 -->
<!-- Title: modbusBuildRequest05 Pages: 1 -->
<svg width="664pt" height="82pt"
 viewBox="0.00 0.00 663.75 82.25" xmlns="http://www.w3.org/2000/svg" xmlns:xlink="http://www.w3.org/1999/xlink">
<g id="graph0" class="graph" transform="scale(1 1) rotate(0) translate(4 78.25)">
<title>modbusBuildRequest05</title>
<!-- Node1 -->
<g id="Node000001" class="node">
<title>Node1</title>
<g id="a_Node000001"><a xlink:title="Write single coil &#45; a wrapper for modbusBuildRequest0506()">
<polygon fill="#999999" stroke="#666666" points="118.75,-37.25 0,-37.25 0,-18 118.75,-18 118.75,-37.25"/>
<text text-anchor="middle" x="59.38" y="-23.75" font-family="Helvetica,sans-Serif" font-size="10.00">modbusBuildRequest05</text>
</a>
</g>
</g>
<!-- Node2 -->
<g id="Node000002" class="node">
<title>Node2</title>
<g id="a_Node000002"><a xlink:href="master__func_8impl_8h.html#a5309a3003ea2d248e51193e75ab30044" target="_top" xlink:title="Write single coil/holding register.">
<polygon fill="white" stroke="#666666" points="284,-37.25 154.75,-37.25 154.75,-18 284,-18 284,-37.25"/>
<text text-anchor="middle" x="219.38" y="-23.75" font-family="Helvetica,sans-Serif" font-size="10.00">modbusBuildRequest0506</text>
</a>
</g>
</g>
<!-- Node1&#45;&gt;Node2 -->
<g id="edge1_Node000001_Node000002" class="edge">
<title>Node1&#45;&gt;Node2</title>
<g id="a_edge1_Node000001_Node000002"><a xlink:title=" ">
<path fill="none" stroke="#63b8ff" d="M119.21,-27.62C127.02,-27.62 135.11,-27.62 143.16,-27.62"/>
<polygon fill="#63b8ff" stroke="#63b8ff" points="142.94,-31.13 152.94,-27.63 142.94,-24.13 142.94,-31.13"/>
</a>
</g>
</g>
<!-- Node3 -->
<g id="Node000003" class="node">
<title>Node3</title>
<g id="a_Node000003"><a xlink:href="master_8h.html#a004b932b2b69ad0c6649c26d974146b2" target="_top" xlink:title="Allocates memory for the request frame.">
<polygon fill="white" stroke="#666666" points="471.75,-56.25 320,-56.25 320,-37 471.75,-37 471.75,-56.25"/>
<text text-anchor="middle" x="395.88" y="-42.75" font-family="Helvetica,sans-Serif" font-size="10.00">modbusMasterAllocateRequest</text>
</a>
</g>
</g>
<!-- Node2&#45;&gt;Node3 -->
<g id="edge2_Node000002_Node000003" class="edge">
<title>Node2&#45;&gt;Node3</title>
<g id="a_edge2_Node000002_Node000003"><a xlink:title=" ">
<path fill="none" stroke="#63b8ff" d="M284.36,-34.59C292.16,-35.44 300.23,-36.32 308.29,-37.2"/>
<polygon fill="#63b8ff" stroke="#63b8ff" points="307.83,-40.67 318.15,-38.27 308.59,-33.71 307.83,-40.67"/>
</a>
</g>
</g>
<!-- Node6 -->
<g id="Node000006" class="node">
<title>Node6</title>
<g id="a_Node000006"><a xlink:href="base_8h.html#a73b9f793bbe67a1968cc8c53a22d4c4b" target="_top" xlink:title="Safely writes a big&#45;endian 16&#45;bit word to provided pointer.">
<polygon fill="white" stroke="#666666" points="432,-19.25 359.75,-19.25 359.75,0 432,0 432,-19.25"/>
<text text-anchor="middle" x="395.88" y="-5.75" font-family="Helvetica,sans-Serif" font-size="10.00">modbusWBE</text>
</a>
</g>
</g>
<!-- Node2&#45;&gt;Node6 -->
<g id="edge5_Node000002_Node000006" class="edge">
<title>Node2&#45;&gt;Node6</title>
<g id="a_edge5_Node000002_Node000006"><a xlink:title=" ">
<path fill="none" stroke="#63b8ff" d="M284.36,-21.02C305.4,-18.85 328.39,-16.48 347.93,-14.47"/>
<polygon fill="#63b8ff" stroke="#63b8ff" points="348.2,-17.96 357.79,-13.45 347.48,-11 348.2,-17.96"/>
</a>
</g>
</g>
<!-- Node4 -->
<g id="Node000004" class="node">
<title>Node4</title>
<g id="a_Node000004"><a xlink:href="base_8impl_8h.html#a54f7d1db7f58ffd329b1955ad1a66f37" target="_top" xlink:title="Allocates memory to hold Modbus ADU.">
<polygon fill="white" stroke="#666666" points="647.88,-74.25 515.62,-74.25 515.62,-55 647.88,-55 647.88,-74.25"/>
<text text-anchor="middle" x="581.75" y="-60.75" font-family="Helvetica,sans-Serif" font-size="10.00">modbusBufferAllocateADU</text>
</a>
</g>
</g>
<!-- Node3&#45;&gt;Node4 -->
<g id="edge3_Node000003_Node000004" class="edge">
<title>Node3&#45;&gt;Node4</title>
<g id="a_edge3_Node000003_Node000004"><a xlink:title=" ">
<path fill="none" stroke="#63b8ff" d="M472.19,-54C482.68,-55.02 493.47,-56.08 503.98,-57.11"/>
<polygon fill="#63b8ff" stroke="#63b8ff" points="503.46,-60.58 513.75,-58.07 504.14,-53.61 503.46,-60.58"/>
</a>
</g>
</g>
<!-- Node5 -->
<g id="Node000005" class="node">
<title>Node5</title>
<g id="a_Node000005"><a xlink:href="master_8h.html#a39dfa809ec99fbff3a4acef1bc543b9f" target="_top" xlink:title="Retreieves the custom context pointer.">
<polygon fill="white" stroke="#666666" points="655.75,-37.25 507.75,-37.25 507.75,-18 655.75,-18 655.75,-37.25"/>
<text text-anchor="middle" x="581.75" y="-23.75" font-family="Helvetica,sans-Serif" font-size="10.00">modbusMasterGetUserPointer</text>
</a>
</g>
</g>
<!-- Node3&#45;&gt;Node5 -->
<g id="edge4_Node000003_Node000005" class="edge">
<title>Node3&#45;&gt;Node5</title>
<g id="a_edge4_Node000003_Node000005"><a xlink:title=" ">
<path fill="none" stroke="#63b8ff" d="M472.19,-38.84C480.08,-38.03 488.14,-37.19 496.12,-36.37"/>
<polygon fill="#63b8ff" stroke="#63b8ff" points="496.24,-39.88 505.82,-35.37 495.52,-32.91 496.24,-39.88"/>
</a>
</g>
</g>
</g>
</svg>
