<?xml version="1.0" encoding="UTF-8" standalone="no"?>
<!DOCTYPE svg PUBLIC "-//W3C//DTD SVG 1.1//EN"
 "http://www.w3.org/Graphics/SVG/1.1/DTD/svg11.dtd">
<!-- Generated by graphviz version 9.0.0 (20230911.1827)
 -->
<!-- Title: modbusEndRequestRTU Pages: 1 -->
<svg width="368pt" height="64pt"
 viewBox="0.00 0.00 368.00 64.25" xmlns="http://www.w3.org/2000/svg" xmlns:xlink="http://www.w3.org/1999/xlink">
<g id="graph0" class="graph" transform="scale(1 1) rotate(0) translate(4 60.25)">
<title>modbusEndRequestRTU</title>
<!-- Node1 -->
<g id="Node000001" class="node">
<title>Node1</title>
<g id="a_Node000001"><a xlink:title="Finalizes a Modbus RTU request.">
<polygon fill="#999999" stroke="#666666" points="123.25,-37.25 0,-37.25 0,-18 123.25,-18 123.25,-37.25"/>
<text text-anchor="middle" x="61.62" y="-23.75" font-family="Helvetica,sans-Serif" font-size="10.00">modbusEndRequestRTU</text>
</a>
</g>
</g>
<!-- Node2 -->
<g id="Node000002" class="node">
<title>Node2</title>
<g id="a_Node000002"><a xlink:href="base_8h.html#af2cafe9debf86bea7042b4c40bb288cd" target="_top" xlink:title="Sets up address and CRC in a Modbus RTU frame.">
<polygon fill="white" stroke="#666666" points="252.5,-37.25 159.25,-37.25 159.25,-18 252.5,-18 252.5,-37.25"/>
<text text-anchor="middle" x="205.88" y="-23.75" font-family="Helvetica,sans-Serif" font-size="10.00">modbusPackRTU</text>
</a>
</g>
</g>
<!-- Node1&#45;&gt;Node2 -->
<g id="edge1_Node000001_Node000002" class="edge">
<title>Node1&#45;&gt;Node2</title>
<g id="a_edge1_Node000001_Node000002"><a xlink:title=" ">
<path fill="none" stroke="#63b8ff" d="M123.36,-27.62C131.38,-27.62 139.58,-27.62 147.53,-27.62"/>
<polygon fill="#63b8ff" stroke="#63b8ff" points="147.46,-31.13 157.46,-27.63 147.46,-24.13 147.46,-31.13"/>
</a>
</g>
</g>
<!-- Node3 -->
<g id="Node000003" class="node">
<title>Node3</title>
<g id="a_Node000003"><a xlink:href="base_8impl_8h.html#a11346a546b84663cd92cb30f4ffd1393" target="_top" xlink:title="Calculates 16&#45;bit Modbus CRC of provided data.">
<polygon fill="white" stroke="#666666" points="359.62,-56.25 288.88,-56.25 288.88,-37 359.62,-37 359.62,-56.25"/>
<text text-anchor="middle" x="324.25" y="-42.75" font-family="Helvetica,sans-Serif" font-size="10.00">modbusCRC</text>
</a>
</g>
</g>
<!-- Node2&#45;&gt;Node3 -->
<g id="edge2_Node000002_Node000003" class="edge">
<title>Node2&#45;&gt;Node3</title>
<g id="a_edge2_Node000002_Node000003"><a xlink:title=" ">
<path fill="none" stroke="#63b8ff" d="M252.87,-35.13C260.99,-36.46 269.44,-37.84 277.55,-39.16"/>
<polygon fill="#63b8ff" stroke="#63b8ff" points="276.79,-42.59 287.22,-40.74 277.92,-35.68 276.79,-42.59"/>
</a>
</g>
</g>
<!-- Node4 -->
<g id="Node000004" class="node">
<title>Node4</title>
<g id="a_Node000004"><a xlink:href="base_8h.html#af718da7da634f311c2ae8db6be3d9027" target="_top" xlink:title="Safely writes a little&#45;endian 16&#45;bit word to provided pointer.">
<polygon fill="white" stroke="#666666" points="360,-19.25 288.5,-19.25 288.5,0 360,0 360,-19.25"/>
<text text-anchor="middle" x="324.25" y="-5.75" font-family="Helvetica,sans-Serif" font-size="10.00">modbusWLE</text>
</a>
</g>
</g>
<!-- Node2&#45;&gt;Node4 -->
<g id="edge3_Node000002_Node000004" class="edge">
<title>Node2&#45;&gt;Node4</title>
<g id="a_edge3_Node000002_Node000004"><a xlink:title=" ">
<path fill="none" stroke="#63b8ff" d="M252.87,-20.51C260.81,-19.28 269.07,-18.01 277.01,-16.78"/>
<polygon fill="#63b8ff" stroke="#63b8ff" points="277.52,-20.24 286.86,-15.25 276.45,-13.32 277.52,-20.24"/>
</a>
</g>
</g>
</g>
</svg>
