<?xml version="1.0" encoding="UTF-8" standalone="no"?>
<!DOCTYPE svg PUBLIC "-//W3C//DTD SVG 1.1//EN"
 "http://www.w3.org/Graphics/SVG/1.1/DTD/svg11.dtd">
<!-- Generated by graphviz version 9.0.0 (20230911.1827)
 -->
<!-- Title: modbusBuildRequest01020304 Pages: 1 -->
<svg width="313pt" height="138pt"
 viewBox="0.00 0.00 313.00 138.25" xmlns="http://www.w3.org/2000/svg" xmlns:xlink="http://www.w3.org/1999/xlink">
<g id="graph0" class="graph" transform="scale(1 1) rotate(0) translate(4 134.25)">
<title>modbusBuildRequest01020304</title>
<!-- Node1 -->
<g id="Node000001" class="node">
<title>Node1</title>
<g id="a_Node000001"><a xlink:title="Read mutiple coils/discrete inputs/holding registers/input registers.">
<polygon fill="#999999" stroke="#666666" points="305,-74.25 154.75,-74.25 154.75,-55 305,-55 305,-74.25"/>
<text text-anchor="middle" x="229.88" y="-60.75" font-family="Helvetica,sans-Serif" font-size="10.00">modbusBuildRequest01020304</text>
</a>
</g>
</g>
<!-- Node2 -->
<g id="Node000002" class="node">
<title>Node2</title>
<g id="a_Node000002"><a xlink:href="master__func_8h.html#aadb2b7e2d3ee4fbde22cdf076713d75e" target="_top" xlink:title="Read multiple coils &#45; a wrapper for modbusBuildRequest01020304()">
<polygon fill="white" stroke="#666666" points="118.75,-130.25 0,-130.25 0,-111 118.75,-111 118.75,-130.25"/>
<text text-anchor="middle" x="59.38" y="-116.75" font-family="Helvetica,sans-Serif" font-size="10.00">modbusBuildRequest01</text>
</a>
</g>
</g>
<!-- Node1&#45;&gt;Node2 -->
<g id="edge1_Node000001_Node000002" class="edge">
<title>Node1&#45;&gt;Node2</title>
<g id="a_edge1_Node000001_Node000002"><a xlink:title=" ">
<path fill="none" stroke="#63b8ff" d="M189.69,-78.5C168.71,-85.84 142.38,-94.91 118.75,-102.62 110.68,-105.26 101.96,-108 93.77,-110.53"/>
<polygon fill="#63b8ff" stroke="#63b8ff" points="190.74,-81.84 199.01,-75.23 188.42,-75.24 190.74,-81.84"/>
</a>
</g>
</g>
<!-- Node3 -->
<g id="Node000003" class="node">
<title>Node3</title>
<g id="a_Node000003"><a xlink:href="master__func_8h.html#a2a6452a8200d77483254bef08ee2cf8c" target="_top" xlink:title="Read multiple discrete inputs &#45; a wrapper for modbusBuildRequest01020304()">
<polygon fill="white" stroke="#666666" points="118.75,-93.25 0,-93.25 0,-74 118.75,-74 118.75,-93.25"/>
<text text-anchor="middle" x="59.38" y="-79.75" font-family="Helvetica,sans-Serif" font-size="10.00">modbusBuildRequest02</text>
</a>
</g>
</g>
<!-- Node1&#45;&gt;Node3 -->
<g id="edge2_Node000001_Node000003" class="edge">
<title>Node1&#45;&gt;Node3</title>
<g id="a_edge2_Node000001_Node000003"><a xlink:title=" ">
<path fill="none" stroke="#63b8ff" d="M143.08,-74.3C135,-75.21 126.94,-76.12 119.2,-76.99"/>
<polygon fill="#63b8ff" stroke="#63b8ff" points="143.43,-77.78 152.97,-73.18 142.64,-70.83 143.43,-77.78"/>
</a>
</g>
</g>
<!-- Node4 -->
<g id="Node000004" class="node">
<title>Node4</title>
<g id="a_Node000004"><a xlink:href="master__func_8h.html#a1c7ed51c58b1ef42ee176833c7fd0515" target="_top" xlink:title="Read multiple holding registers &#45; a wrapper for modbusBuildRequest01020304()">
<polygon fill="white" stroke="#666666" points="118.75,-56.25 0,-56.25 0,-37 118.75,-37 118.75,-56.25"/>
<text text-anchor="middle" x="59.38" y="-42.75" font-family="Helvetica,sans-Serif" font-size="10.00">modbusBuildRequest03</text>
</a>
</g>
</g>
<!-- Node1&#45;&gt;Node4 -->
<g id="edge3_Node000001_Node000004" class="edge">
<title>Node1&#45;&gt;Node4</title>
<g id="a_edge3_Node000001_Node000004"><a xlink:title=" ">
<path fill="none" stroke="#63b8ff" d="M143.08,-55.46C135,-54.6 126.94,-53.74 119.2,-52.91"/>
<polygon fill="#63b8ff" stroke="#63b8ff" points="142.66,-58.93 152.97,-56.52 143.4,-51.97 142.66,-58.93"/>
</a>
</g>
</g>
<!-- Node5 -->
<g id="Node000005" class="node">
<title>Node5</title>
<g id="a_Node000005"><a xlink:href="master__func_8h.html#a22bf4541196b3e88c0a86861d334e3b1" target="_top" xlink:title="Read multiple input registers &#45; a wrapper for modbusBuildRequest01020304()">
<polygon fill="white" stroke="#666666" points="118.75,-19.25 0,-19.25 0,0 118.75,0 118.75,-19.25"/>
<text text-anchor="middle" x="59.38" y="-5.75" font-family="Helvetica,sans-Serif" font-size="10.00">modbusBuildRequest04</text>
</a>
</g>
</g>
<!-- Node1&#45;&gt;Node5 -->
<g id="edge4_Node000001_Node000005" class="edge">
<title>Node1&#45;&gt;Node5</title>
<g id="a_edge4_Node000001_Node000005"><a xlink:title=" ">
<path fill="none" stroke="#63b8ff" d="M188.79,-50.89C167.94,-43.81 142.02,-35.12 118.75,-27.62 110.57,-24.99 101.73,-22.22 93.45,-19.67"/>
<polygon fill="#63b8ff" stroke="#63b8ff" points="187.47,-54.14 198.06,-54.04 189.72,-47.51 187.47,-54.14"/>
</a>
</g>
</g>
</g>
</svg>
