<?xml version="1.0" encoding="UTF-8" standalone="no"?>
<!DOCTYPE svg PUBLIC "-//W3C//DTD SVG 1.1//EN"
 "http://www.w3.org/Graphics/SVG/1.1/DTD/svg11.dtd">
<!-- Generated by graphviz version 9.0.0 (20230911.1827)
 -->
<!-- Title: modbusBuildRequest0506 Pages: 1 -->
<svg width="292pt" height="64pt"
 viewBox="0.00 0.00 292.00 64.25" xmlns="http://www.w3.org/2000/svg" xmlns:xlink="http://www.w3.org/1999/xlink">
<g id="graph0" class="graph" transform="scale(1 1) rotate(0) translate(4 60.25)">
<title>modbusBuildRequest0506</title>
<!-- Node1 -->
<g id="Node000001" class="node">
<title>Node1</title>
<g id="a_Node000001"><a xlink:title="Write single coil/holding register.">
<polygon fill="#999999" stroke="#666666" points="284,-37.25 154.75,-37.25 154.75,-18 284,-18 284,-37.25"/>
<text text-anchor="middle" x="219.38" y="-23.75" font-family="Helvetica,sans-Serif" font-size="10.00">modbusBuildRequest0506</text>
</a>
</g>
</g>
<!-- Node2 -->
<g id="Node000002" class="node">
<title>Node2</title>
<g id="a_Node000002"><a xlink:href="master__func_8h.html#a7151355c8c34af355fd779f88a64e125" target="_top" xlink:title="Write single coil &#45; a wrapper for modbusBuildRequest0506()">
<polygon fill="white" stroke="#666666" points="118.75,-56.25 0,-56.25 0,-37 118.75,-37 118.75,-56.25"/>
<text text-anchor="middle" x="59.38" y="-42.75" font-family="Helvetica,sans-Serif" font-size="10.00">modbusBuildRequest05</text>
</a>
</g>
</g>
<!-- Node1&#45;&gt;Node2 -->
<g id="edge1_Node000001_Node000002" class="edge">
<title>Node1&#45;&gt;Node2</title>
<g id="a_edge1_Node000001_Node000002"><a xlink:title=" ">
<path fill="none" stroke="#63b8ff" d="M143.18,-36.67C135.08,-37.64 126.93,-38.62 119.06,-39.57"/>
<polygon fill="#63b8ff" stroke="#63b8ff" points="143.55,-40.15 153.06,-35.48 142.72,-33.2 143.55,-40.15"/>
</a>
</g>
</g>
<!-- Node3 -->
<g id="Node000003" class="node">
<title>Node3</title>
<g id="a_Node000003"><a xlink:href="master__func_8h.html#a56779853bdfd2bb75601be746c20eb09" target="_top" xlink:title="Write single holding register &#45; a wrapper for modbusBuildRequest0506()">
<polygon fill="white" stroke="#666666" points="118.75,-19.25 0,-19.25 0,0 118.75,0 118.75,-19.25"/>
<text text-anchor="middle" x="59.38" y="-5.75" font-family="Helvetica,sans-Serif" font-size="10.00">modbusBuildRequest06</text>
</a>
</g>
</g>
<!-- Node1&#45;&gt;Node3 -->
<g id="edge2_Node000001_Node000003" class="edge">
<title>Node1&#45;&gt;Node3</title>
<g id="a_edge2_Node000001_Node000003"><a xlink:title=" ">
<path fill="none" stroke="#63b8ff" d="M143.18,-19.06C135.08,-18.14 126.93,-17.21 119.06,-16.31"/>
<polygon fill="#63b8ff" stroke="#63b8ff" points="142.73,-22.53 153.06,-20.18 143.52,-15.57 142.73,-22.53"/>
</a>
</g>
</g>
</g>
</svg>
