<?xml version="1.0" encoding="UTF-8" standalone="no"?>
<!DOCTYPE svg PUBLIC "-//W3C//DTD SVG 1.1//EN"
 "http://www.w3.org/Graphics/SVG/1.1/DTD/svg11.dtd">
<!-- Generated by graphviz version 9.0.0 (20230911.1827)
 -->
<!-- Title: modbusSlaveAllocateResponse Pages: 1 -->
<svg width="864pt" height="287pt"
 viewBox="0.00 0.00 863.50 287.25" xmlns="http://www.w3.org/2000/svg" xmlns:xlink="http://www.w3.org/1999/xlink">
<g id="graph0" class="graph" transform="scale(1 1) rotate(0) translate(4 283.25)">
<title>modbusSlaveAllocateResponse</title>
<!-- Node1 -->
<g id="Node000001" class="node">
<title>Node1</title>
<g id="a_Node000001"><a xlink:title="Allocates memory for slave&#39;s response frame.">
<polygon fill="#999999" stroke="#666666" points="855.5,-94.25 701.5,-94.25 701.5,-75 855.5,-75 855.5,-94.25"/>
<text text-anchor="middle" x="778.5" y="-80.75" font-family="Helvetica,sans-Serif" font-size="10.00">modbusSlaveAllocateResponse</text>
</a>
</g>
</g>
<!-- Node2 -->
<g id="Node000002" class="node">
<title>Node2</title>
<g id="a_Node000002"><a xlink:href="slave_8impl_8h.html#a58243ce1e1adaffd0a3260edc2d03603" target="_top" xlink:title="Builds an exception response frame.">
<polygon fill="white" stroke="#666666" points="665.5,-170.25 551.25,-170.25 551.25,-151 665.5,-151 665.5,-170.25"/>
<text text-anchor="middle" x="608.38" y="-156.75" font-family="Helvetica,sans-Serif" font-size="10.00">modbusBuildException</text>
</a>
</g>
</g>
<!-- Node1&#45;&gt;Node2 -->
<g id="edge1_Node000001_Node000002" class="edge">
<title>Node1&#45;&gt;Node2</title>
<g id="a_edge1_Node000001_Node000002"><a xlink:title=" ">
<path fill="none" stroke="#63b8ff" d="M746.27,-99.43C723.87,-109.98 692.93,-124.4 665.5,-136.62 655.05,-141.29 643.42,-146.29 633.48,-150.51"/>
<polygon fill="#63b8ff" stroke="#63b8ff" points="747.61,-102.67 755.16,-95.24 744.63,-96.34 747.61,-102.67"/>
</a>
</g>
</g>
<!-- Node16 -->
<g id="Node000016" class="node">
<title>Node16</title>
<g id="a_Node000016"><a xlink:href="slave__func_8impl_8h.html#aaff57f2a5c6a8e6c77d36c5dc7e48cfa" target="_top" xlink:title="Handles requests 01, 02, 03 and 04 (Read Multiple XX) and generates response.">
<polygon fill="white" stroke="#666666" points="515.25,-131.25 361.25,-131.25 361.25,-112 515.25,-112 515.25,-131.25"/>
<text text-anchor="middle" x="438.25" y="-117.75" font-family="Helvetica,sans-Serif" font-size="10.00">modbusParseRequest01020304</text>
</a>
</g>
</g>
<!-- Node1&#45;&gt;Node16 -->
<g id="edge19_Node000001_Node000016" class="edge">
<title>Node1&#45;&gt;Node16</title>
<g id="a_edge19_Node000001_Node000016"><a xlink:title=" ">
<path fill="none" stroke="#63b8ff" d="M689.82,-95.78C681.6,-96.77 673.4,-97.73 665.5,-98.62 615.68,-104.27 559.61,-109.98 515.75,-114.29"/>
<polygon fill="#63b8ff" stroke="#63b8ff" points="690,-99.28 699.51,-94.61 689.16,-92.34 690,-99.28"/>
</a>
</g>
</g>
<!-- Node17 -->
<g id="Node000017" class="node">
<title>Node17</title>
<g id="a_Node000017"><a xlink:href="slave__func_8impl_8h.html#a236881fe30a95d4cc9b031a9e24ae2a8" target="_top" xlink:title="Handles requests 05 and 06 (Write Single XX) and generates response.">
<polygon fill="white" stroke="#666666" points="504.75,-94.25 371.75,-94.25 371.75,-75 504.75,-75 504.75,-94.25"/>
<text text-anchor="middle" x="438.25" y="-80.75" font-family="Helvetica,sans-Serif" font-size="10.00">modbusParseRequest0506</text>
</a>
</g>
</g>
<!-- Node1&#45;&gt;Node17 -->
<g id="edge20_Node000001_Node000017" class="edge">
<title>Node1&#45;&gt;Node17</title>
<g id="a_edge20_Node000001_Node000017"><a xlink:title=" ">
<path fill="none" stroke="#63b8ff" d="M689.85,-84.62C632.11,-84.62 557.73,-84.62 505.04,-84.62"/>
<polygon fill="#63b8ff" stroke="#63b8ff" points="689.65,-88.13 699.65,-84.63 689.65,-81.13 689.65,-88.13"/>
</a>
</g>
</g>
<!-- Node18 -->
<g id="Node000018" class="node">
<title>Node18</title>
<g id="a_Node000018"><a xlink:href="slave__func_8impl_8h.html#a0cb2a7bf59d4014088e1ce1c61523071" target="_top" xlink:title="Handles requests 15 and 16 (Write Multiple XX) and generates response.">
<polygon fill="white" stroke="#666666" points="504.75,-56.25 371.75,-56.25 371.75,-37 504.75,-37 504.75,-56.25"/>
<text text-anchor="middle" x="438.25" y="-42.75" font-family="Helvetica,sans-Serif" font-size="10.00">modbusParseRequest1516</text>
</a>
</g>
</g>
<!-- Node1&#45;&gt;Node18 -->
<g id="edge21_Node000001_Node000018" class="edge">
<title>Node1&#45;&gt;Node18</title>
<g id="a_edge21_Node000001_Node000018"><a xlink:title=" ">
<path fill="none" stroke="#63b8ff" d="M689.85,-74.78C632.11,-68.29 557.73,-59.93 505.04,-54.02"/>
<polygon fill="#63b8ff" stroke="#63b8ff" points="689.34,-78.24 699.66,-75.88 690.12,-71.29 689.34,-78.24"/>
</a>
</g>
</g>
<!-- Node19 -->
<g id="Node000019" class="node">
<title>Node19</title>
<g id="a_Node000019"><a xlink:href="slave__func_8impl_8h.html#a814f041d9acfa578998b8ce8fe53815c" target="_top" xlink:title="Handles request 22 (Mask Write Register) and generates response.">
<polygon fill="white" stroke="#666666" points="499.5,-19.25 377,-19.25 377,0 499.5,0 499.5,-19.25"/>
<text text-anchor="middle" x="438.25" y="-5.75" font-family="Helvetica,sans-Serif" font-size="10.00">modbusParseRequest22</text>
</a>
</g>
</g>
<!-- Node1&#45;&gt;Node19 -->
<g id="edge22_Node000001_Node000019" class="edge">
<title>Node1&#45;&gt;Node19</title>
<g id="a_edge22_Node000001_Node000019"><a xlink:title=" ">
<path fill="none" stroke="#63b8ff" d="M729.63,-71.64C709.84,-66.42 686.62,-60.5 665.5,-55.62 606.72,-42.05 538.86,-28.54 492.91,-19.71"/>
<polygon fill="#63b8ff" stroke="#63b8ff" points="728.52,-74.96 739.08,-74.14 730.31,-68.2 728.52,-74.96"/>
</a>
</g>
</g>
<!-- Node3 -->
<g id="Node000003" class="node">
<title>Node3</title>
<g id="a_Node000003"><a xlink:href="slave_8impl_8h.html#a384f75966903cc0c249eb68a6a20180e" target="_top" xlink:title="Builds an exception PDU.">
<polygon fill="white" stroke="#666666" points="505.88,-279.25 370.62,-279.25 370.62,-260 505.88,-260 505.88,-279.25"/>
<text text-anchor="middle" x="438.25" y="-265.75" font-family="Helvetica,sans-Serif" font-size="10.00">modbusBuildExceptionPDU</text>
</a>
</g>
</g>
<!-- Node2&#45;&gt;Node3 -->
<g id="edge2_Node000002_Node000003" class="edge">
<title>Node2&#45;&gt;Node3</title>
<g id="a_edge2_Node000002_Node000003"><a xlink:title=" ">
<path fill="none" stroke="#63b8ff" d="M593.51,-179.52C577.15,-200.4 548.01,-233.47 515.25,-251.62 509.56,-254.78 503.33,-257.38 496.96,-259.53"/>
<polygon fill="#63b8ff" stroke="#63b8ff" points="596.09,-181.91 599.36,-171.83 590.52,-177.67 596.09,-181.91"/>
</a>
</g>
</g>
<!-- Node5 -->
<g id="Node000005" class="node">
<title>Node5</title>
<g id="a_Node000005"><a xlink:href="slave_8impl_8h.html#a1da09df8858b91c61fe02c25783c2946" target="_top" xlink:title="Builds a Modbus RTU exception.">
<polygon fill="white" stroke="#666666" points="505.5,-242.25 371,-242.25 371,-223 505.5,-223 505.5,-242.25"/>
<text text-anchor="middle" x="438.25" y="-228.75" font-family="Helvetica,sans-Serif" font-size="10.00">modbusBuildExceptionRTU</text>
</a>
</g>
</g>
<!-- Node2&#45;&gt;Node5 -->
<g id="edge4_Node000002_Node000005" class="edge">
<title>Node2&#45;&gt;Node5</title>
<g id="a_edge4_Node000002_Node000005"><a xlink:title=" ">
<path fill="none" stroke="#63b8ff" d="M583.99,-176.98C565.94,-188.93 539.96,-204.72 515.25,-214.62 507.57,-217.7 499.24,-220.34 491,-222.56"/>
<polygon fill="#63b8ff" stroke="#63b8ff" points="585.8,-179.98 592.13,-171.48 581.88,-174.18 585.8,-179.98"/>
</a>
</g>
</g>
<!-- Node7 -->
<g id="Node000007" class="node">
<title>Node7</title>
<g id="a_Node000007"><a xlink:href="slave_8impl_8h.html#a778e65356f7da66831f18ec53b975383" target="_top" xlink:title="Builds a Modbus TCP exception.">
<polygon fill="white" stroke="#666666" points="505.12,-205.25 371.38,-205.25 371.38,-186 505.12,-186 505.12,-205.25"/>
<text text-anchor="middle" x="438.25" y="-191.75" font-family="Helvetica,sans-Serif" font-size="10.00">modbusBuildExceptionTCP</text>
</a>
</g>
</g>
<!-- Node2&#45;&gt;Node7 -->
<g id="edge6_Node000002_Node000007" class="edge">
<title>Node2&#45;&gt;Node7</title>
<g id="a_edge6_Node000002_Node000007"><a xlink:title=" ">
<path fill="none" stroke="#63b8ff" d="M547.47,-173.09C527.9,-177.17 506.4,-181.64 487.77,-185.52"/>
<polygon fill="#63b8ff" stroke="#63b8ff" points="548.19,-176.52 557.26,-171.06 546.76,-169.67 548.19,-176.52"/>
</a>
</g>
</g>
<!-- Node9 -->
<g id="Node000009" class="node">
<title>Node9</title>
<g id="a_Node000009"><a xlink:href="slave_8impl_8h.html#aff0a9164a0e37aa619232ae86e3ff97a" target="_top" xlink:title="Parses provided PDU and generates response honorinng pduOffset and padding set in ModbusSlave during ...">
<polygon fill="white" stroke="#666666" points="494.25,-168.25 382.25,-168.25 382.25,-149 494.25,-149 494.25,-168.25"/>
<text text-anchor="middle" x="438.25" y="-154.75" font-family="Helvetica,sans-Serif" font-size="10.00">modbusParseRequest</text>
</a>
</g>
</g>
<!-- Node2&#45;&gt;Node9 -->
<g id="edge8_Node000002_Node000009" class="edge">
<title>Node2&#45;&gt;Node9</title>
<g id="a_edge8_Node000002_Node000009"><a xlink:title=" ">
<path fill="none" stroke="#63b8ff" d="M539.67,-159.82C524.74,-159.64 509.08,-159.46 494.7,-159.28"/>
<polygon fill="#63b8ff" stroke="#63b8ff" points="539.37,-163.32 549.41,-159.94 539.45,-156.32 539.37,-163.32"/>
</a>
</g>
</g>
<!-- Node2&#45;&gt;Node16 -->
<g id="edge15_Node000002_Node000016" class="edge">
<title>Node2&#45;&gt;Node16</title>
<g id="a_edge15_Node000002_Node000016"><a xlink:title=" ">
<path fill="none" stroke="#63b8ff" d="M552.88,-147.98C530.14,-142.71 504.1,-136.67 482.69,-131.7"/>
<polygon fill="#63b8ff" stroke="#63b8ff" points="552.07,-151.39 562.6,-150.24 553.65,-144.57 552.07,-151.39"/>
</a>
</g>
</g>
<!-- Node2&#45;&gt;Node17 -->
<g id="edge16_Node000002_Node000017" class="edge">
<title>Node2&#45;&gt;Node17</title>
<g id="a_edge16_Node000002_Node000017"><a xlink:title=" ">
<path fill="none" stroke="#63b8ff" d="M585.36,-143.83C567.37,-130.86 540.84,-113.36 515.25,-102.62 507.87,-99.53 499.86,-96.91 491.89,-94.7"/>
<polygon fill="#63b8ff" stroke="#63b8ff" points="583.06,-146.49 593.19,-149.6 587.22,-140.85 583.06,-146.49"/>
</a>
</g>
</g>
<!-- Node2&#45;&gt;Node18 -->
<g id="edge17_Node000002_Node000018" class="edge">
<title>Node2&#45;&gt;Node18</title>
<g id="a_edge17_Node000002_Node000018"><a xlink:title=" ">
<path fill="none" stroke="#63b8ff" d="M593.9,-141.3C577.73,-119.57 548.59,-84.84 515.25,-65.62 509,-62.03 502.09,-59.1 495.05,-56.73"/>
<polygon fill="#63b8ff" stroke="#63b8ff" points="590.99,-143.24 599.69,-149.3 596.67,-139.14 590.99,-143.24"/>
</a>
</g>
</g>
<!-- Node2&#45;&gt;Node19 -->
<g id="edge18_Node000002_Node000019" class="edge">
<title>Node2&#45;&gt;Node19</title>
<g id="a_edge18_Node000002_Node000019"><a xlink:title=" ">
<path fill="none" stroke="#63b8ff" d="M599.09,-140.43C585.9,-110.89 557.24,-56.28 515.25,-27.62 510.55,-24.42 505.34,-21.77 499.92,-19.6"/>
<polygon fill="#63b8ff" stroke="#63b8ff" points="595.77,-141.56 602.93,-149.37 602.2,-138.8 595.77,-141.56"/>
</a>
</g>
</g>
<!-- Node4 -->
<g id="Node000004" class="node">
<title>Node4</title>
<g id="a_Node000004"><a xlink:href="classllm_1_1Slave.html#ac915e0947f733a784a9069f5ff5b9737" target="_top" xlink:title=" ">
<polygon fill="white" stroke="#666666" points="325.25,-279.25 179.5,-279.25 179.5,-260 325.25,-260 325.25,-279.25"/>
<text text-anchor="middle" x="252.38" y="-265.75" font-family="Helvetica,sans-Serif" font-size="10.00">llm::Slave::buildExceptionPDU</text>
</a>
</g>
</g>
<!-- Node3&#45;&gt;Node4 -->
<g id="edge3_Node000003_Node000004" class="edge">
<title>Node3&#45;&gt;Node4</title>
<g id="a_edge3_Node000003_Node000004"><a xlink:title=" ">
<path fill="none" stroke="#63b8ff" d="M358.92,-269.62C347.83,-269.62 336.47,-269.62 325.5,-269.62"/>
<polygon fill="#63b8ff" stroke="#63b8ff" points="358.83,-273.13 368.83,-269.63 358.83,-266.13 358.83,-273.13"/>
</a>
</g>
</g>
<!-- Node6 -->
<g id="Node000006" class="node">
<title>Node6</title>
<g id="a_Node000006"><a xlink:href="classllm_1_1Slave.html#a10e79600053c725e639225264d966e63" target="_top" xlink:title=" ">
<polygon fill="white" stroke="#666666" points="324.88,-242.25 179.88,-242.25 179.88,-223 324.88,-223 324.88,-242.25"/>
<text text-anchor="middle" x="252.38" y="-228.75" font-family="Helvetica,sans-Serif" font-size="10.00">llm::Slave::buildExceptionRTU</text>
</a>
</g>
</g>
<!-- Node5&#45;&gt;Node6 -->
<g id="edge5_Node000005_Node000006" class="edge">
<title>Node5&#45;&gt;Node6</title>
<g id="a_edge5_Node000005_Node000006"><a xlink:title=" ">
<path fill="none" stroke="#63b8ff" d="M359.36,-232.62C347.98,-232.62 336.31,-232.62 325.07,-232.62"/>
<polygon fill="#63b8ff" stroke="#63b8ff" points="359.09,-236.13 369.09,-232.63 359.09,-229.13 359.09,-236.13"/>
</a>
</g>
</g>
<!-- Node8 -->
<g id="Node000008" class="node">
<title>Node8</title>
<g id="a_Node000008"><a xlink:href="classllm_1_1Slave.html#a844c37870a4e98bffc091ddfafb8f959" target="_top" xlink:title=" ">
<polygon fill="white" stroke="#666666" points="324.5,-205.25 180.25,-205.25 180.25,-186 324.5,-186 324.5,-205.25"/>
<text text-anchor="middle" x="252.38" y="-191.75" font-family="Helvetica,sans-Serif" font-size="10.00">llm::Slave::buildExceptionTCP</text>
</a>
</g>
</g>
<!-- Node7&#45;&gt;Node8 -->
<g id="edge7_Node000007_Node000008" class="edge">
<title>Node7&#45;&gt;Node8</title>
<g id="a_edge7_Node000007_Node000008"><a xlink:title=" ">
<path fill="none" stroke="#63b8ff" d="M359.69,-195.62C348.13,-195.62 336.25,-195.62 324.82,-195.62"/>
<polygon fill="#63b8ff" stroke="#63b8ff" points="359.61,-199.13 369.61,-195.63 359.61,-192.13 359.61,-199.13"/>
</a>
</g>
</g>
<!-- Node10 -->
<g id="Node000010" class="node">
<title>Node10</title>
<g id="a_Node000010"><a xlink:href="slave_8impl_8h.html#ab5c5f3146a46cf8d221aca22e9c8a052" target="_top" xlink:title="Parses provided PDU and generates PDU for the response frame.">
<polygon fill="white" stroke="#666666" points="318.88,-168.25 185.88,-168.25 185.88,-149 318.88,-149 318.88,-168.25"/>
<text text-anchor="middle" x="252.38" y="-154.75" font-family="Helvetica,sans-Serif" font-size="10.00">modbusParseRequestPDU</text>
</a>
</g>
</g>
<!-- Node9&#45;&gt;Node10 -->
<g id="edge9_Node000009_Node000010" class="edge">
<title>Node9&#45;&gt;Node10</title>
<g id="a_edge9_Node000009_Node000010"><a xlink:title=" ">
<path fill="none" stroke="#63b8ff" d="M370.7,-158.62C353.93,-158.62 335.94,-158.62 319.2,-158.62"/>
<polygon fill="#63b8ff" stroke="#63b8ff" points="370.57,-162.13 380.57,-158.63 370.57,-155.13 370.57,-162.13"/>
</a>
</g>
</g>
<!-- Node12 -->
<g id="Node000012" class="node">
<title>Node12</title>
<g id="a_Node000012"><a xlink:href="slave_8impl_8h.html#a6a1e63faa64b7ca4b91d1ce7988be850" target="_top" xlink:title="Parses provided Modbus RTU request frame and generates a Modbus RTU response.">
<polygon fill="white" stroke="#666666" points="318.5,-131.25 186.25,-131.25 186.25,-112 318.5,-112 318.5,-131.25"/>
<text text-anchor="middle" x="252.38" y="-117.75" font-family="Helvetica,sans-Serif" font-size="10.00">modbusParseRequestRTU</text>
</a>
</g>
</g>
<!-- Node9&#45;&gt;Node12 -->
<g id="edge11_Node000009_Node000012" class="edge">
<title>Node9&#45;&gt;Node12</title>
<g id="a_edge11_Node000009_Node000012"><a xlink:title=" ">
<path fill="none" stroke="#63b8ff" d="M375.76,-146.25C352.29,-141.53 325.85,-136.21 303.56,-131.72"/>
<polygon fill="#63b8ff" stroke="#63b8ff" points="375.03,-149.67 385.52,-148.22 376.41,-142.81 375.03,-149.67"/>
</a>
</g>
</g>
<!-- Node14 -->
<g id="Node000014" class="node">
<title>Node14</title>
<g id="a_Node000014"><a xlink:href="slave_8impl_8h.html#a5ad3fe86aa14f8982d7c459c68cd8b3e" target="_top" xlink:title="Parses provided Modbus TCP request frame and generates a Modbus TCP response.">
<polygon fill="white" stroke="#666666" points="318.12,-94.25 186.62,-94.25 186.62,-75 318.12,-75 318.12,-94.25"/>
<text text-anchor="middle" x="252.38" y="-80.75" font-family="Helvetica,sans-Serif" font-size="10.00">modbusParseRequestTCP</text>
</a>
</g>
</g>
<!-- Node9&#45;&gt;Node14 -->
<g id="edge13_Node000009_Node000014" class="edge">
<title>Node9&#45;&gt;Node14</title>
<g id="a_edge13_Node000009_Node000014"><a xlink:title=" ">
<path fill="none" stroke="#63b8ff" d="M371.22,-145.57C367.77,-144.09 364.42,-142.45 361.25,-140.62 341.09,-129.02 345.34,-114.36 325.25,-102.62 319.81,-99.44 313.82,-96.82 307.68,-94.66"/>
<polygon fill="#63b8ff" stroke="#63b8ff" points="369.81,-148.78 380.4,-148.99 372.25,-142.22 369.81,-148.78"/>
</a>
</g>
</g>
<!-- Node11 -->
<g id="Node000011" class="node">
<title>Node11</title>
<g id="a_Node000011"><a xlink:href="classllm_1_1Slave.html#af8cc9d8d58bf7f632f3f3cf7e6b9c84b" target="_top" xlink:title=" ">
<polygon fill="white" stroke="#666666" points="143.5,-168.25 0,-168.25 0,-149 143.5,-149 143.5,-168.25"/>
<text text-anchor="middle" x="71.75" y="-154.75" font-family="Helvetica,sans-Serif" font-size="10.00">llm::Slave::parseRequestPDU</text>
</a>
</g>
</g>
<!-- Node10&#45;&gt;Node11 -->
<g id="edge10_Node000010_Node000011" class="edge">
<title>Node10&#45;&gt;Node11</title>
<g id="a_edge10_Node000010_Node000011"><a xlink:title=" ">
<path fill="none" stroke="#63b8ff" d="M174.29,-158.62C164.16,-158.62 153.8,-158.62 143.77,-158.62"/>
<polygon fill="#63b8ff" stroke="#63b8ff" points="174.11,-162.13 184.11,-158.63 174.11,-155.13 174.11,-162.13"/>
</a>
</g>
</g>
<!-- Node13 -->
<g id="Node000013" class="node">
<title>Node13</title>
<g id="a_Node000013"><a xlink:href="classllm_1_1Slave.html#a001591b9a38b69cf29adc853872a09fe" target="_top" xlink:title=" ">
<polygon fill="white" stroke="#666666" points="143.12,-131.25 0.38,-131.25 0.38,-112 143.12,-112 143.12,-131.25"/>
<text text-anchor="middle" x="71.75" y="-117.75" font-family="Helvetica,sans-Serif" font-size="10.00">llm::Slave::parseRequestRTU</text>
</a>
</g>
</g>
<!-- Node12&#45;&gt;Node13 -->
<g id="edge12_Node000012_Node000013" class="edge">
<title>Node12&#45;&gt;Node13</title>
<g id="a_edge12_Node000012_Node000013"><a xlink:title=" ">
<path fill="none" stroke="#63b8ff" d="M174.37,-121.62C164.07,-121.62 153.54,-121.62 143.35,-121.62"/>
<polygon fill="#63b8ff" stroke="#63b8ff" points="174.36,-125.13 184.36,-121.63 174.36,-118.13 174.36,-125.13"/>
</a>
</g>
</g>
<!-- Node15 -->
<g id="Node000015" class="node">
<title>Node15</title>
<g id="a_Node000015"><a xlink:href="classllm_1_1Slave.html#a05169339916c3727c780c75157b399b9" target="_top" xlink:title=" ">
<polygon fill="white" stroke="#666666" points="142.75,-94.25 0.75,-94.25 0.75,-75 142.75,-75 142.75,-94.25"/>
<text text-anchor="middle" x="71.75" y="-80.75" font-family="Helvetica,sans-Serif" font-size="10.00">llm::Slave::parseRequestTCP</text>
</a>
</g>
</g>
<!-- Node14&#45;&gt;Node15 -->
<g id="edge14_Node000014_Node000015" class="edge">
<title>Node14&#45;&gt;Node15</title>
<g id="a_edge14_Node000014_Node000015"><a xlink:title=" ">
<path fill="none" stroke="#63b8ff" d="M174.86,-84.62C164.36,-84.62 153.62,-84.62 143.24,-84.62"/>
<polygon fill="#63b8ff" stroke="#63b8ff" points="174.62,-88.13 184.62,-84.63 174.62,-81.13 174.62,-88.13"/>
</a>
</g>
</g>
</g>
</svg>
