<?xml version="1.0" encoding="UTF-8" standalone="no"?>
<!DOCTYPE svg PUBLIC "-//W3C//DTD SVG 1.1//EN"
 "http://www.w3.org/Graphics/SVG/1.1/DTD/svg11.dtd">
<!-- Generated by graphviz version 9.0.0 (20230911.1827)
 -->
<!-- Title: modbusBuildExceptionTCP Pages: 1 -->
<svg width="661pt" height="156pt"
 viewBox="0.00 0.00 660.75 156.25" xmlns="http://www.w3.org/2000/svg" xmlns:xlink="http://www.w3.org/1999/xlink">
<g id="graph0" class="graph" transform="scale(1 1) rotate(0) translate(4 152.25)">
<title>modbusBuildExceptionTCP</title>
<!-- Node1 -->
<g id="Node000001" class="node">
<title>Node1</title>
<g id="a_Node000001"><a xlink:title="Builds a Modbus TCP exception.">
<polygon fill="#999999" stroke="#666666" points="133.75,-83.25 0,-83.25 0,-64 133.75,-64 133.75,-83.25"/>
<text text-anchor="middle" x="66.88" y="-69.75" font-family="Helvetica,sans-Serif" font-size="10.00">modbusBuildExceptionTCP</text>
</a>
</g>
</g>
<!-- Node2 -->
<g id="Node000002" class="node">
<title>Node2</title>
<g id="a_Node000002"><a xlink:href="slave_8impl_8h.html#a58243ce1e1adaffd0a3260edc2d03603" target="_top" xlink:title="Builds an exception response frame.">
<polygon fill="white" stroke="#666666" points="284,-125.25 169.75,-125.25 169.75,-106 284,-106 284,-125.25"/>
<text text-anchor="middle" x="226.88" y="-111.75" font-family="Helvetica,sans-Serif" font-size="10.00">modbusBuildException</text>
</a>
</g>
</g>
<!-- Node1&#45;&gt;Node2 -->
<g id="edge1_Node000001_Node000002" class="edge">
<title>Node1&#45;&gt;Node2</title>
<g id="a_edge1_Node000001_Node000002"><a xlink:title=" ">
<path fill="none" stroke="#63b8ff" d="M105.72,-83.69C127.06,-89.36 153.96,-96.51 176.89,-102.6"/>
<polygon fill="#63b8ff" stroke="#63b8ff" points="175.76,-105.93 186.33,-105.11 177.56,-99.16 175.76,-105.93"/>
</a>
</g>
</g>
<!-- Node6 -->
<g id="Node000006" class="node">
<title>Node6</title>
<g id="a_Node000006"><a xlink:href="base_8h.html#a64880e7075f445881485396f3aa869c5" target="_top" xlink:title="Checks if ModbusErrorInfo contains an error.">
<polygon fill="white" stroke="#666666" points="262.62,-83.25 191.12,-83.25 191.12,-64 262.62,-64 262.62,-83.25"/>
<text text-anchor="middle" x="226.88" y="-69.75" font-family="Helvetica,sans-Serif" font-size="10.00">modbusIsOk</text>
</a>
</g>
</g>
<!-- Node1&#45;&gt;Node6 -->
<g id="edge5_Node000001_Node000006" class="edge">
<title>Node1&#45;&gt;Node6</title>
<g id="a_edge5_Node000001_Node000006"><a xlink:title=" ">
<path fill="none" stroke="#63b8ff" d="M133.97,-73.62C149.16,-73.62 165.01,-73.62 179.18,-73.62"/>
<polygon fill="#63b8ff" stroke="#63b8ff" points="179.13,-77.13 189.13,-73.63 179.13,-70.13 179.13,-77.13"/>
</a>
</g>
</g>
<!-- Node9 -->
<g id="Node000009" class="node">
<title>Node9</title>
<g id="a_Node000009"><a xlink:href="base_8h.html#a39dcd3aad118a779b7e1775fea3e5d77" target="_top" xlink:title="Sets up the MBAP header in a Modbus TCP frame.">
<polygon fill="white" stroke="#666666" points="273.12,-37.25 180.62,-37.25 180.62,-18 273.12,-18 273.12,-37.25"/>
<text text-anchor="middle" x="226.88" y="-23.75" font-family="Helvetica,sans-Serif" font-size="10.00">modbusPackTCP</text>
</a>
</g>
</g>
<!-- Node1&#45;&gt;Node9 -->
<g id="edge8_Node000001_Node000009" class="edge">
<title>Node1&#45;&gt;Node9</title>
<g id="a_edge8_Node000001_Node000009"><a xlink:title=" ">
<path fill="none" stroke="#63b8ff" d="M102.55,-63.53C125.39,-56.88 155.55,-48.1 180.32,-40.89"/>
<polygon fill="#63b8ff" stroke="#63b8ff" points="181.21,-44.28 189.83,-38.12 179.25,-37.55 181.21,-44.28"/>
</a>
</g>
</g>
<!-- Node3 -->
<g id="Node000003" class="node">
<title>Node3</title>
<g id="a_Node000003"><a xlink:href="slave_8h.html#ad1165bb6d12af1db502a05df5da55aed" target="_top" xlink:title="Allocates memory for slave&#39;s response frame.">
<polygon fill="white" stroke="#666666" points="474,-130.25 320,-130.25 320,-111 474,-111 474,-130.25"/>
<text text-anchor="middle" x="397" y="-116.75" font-family="Helvetica,sans-Serif" font-size="10.00">modbusSlaveAllocateResponse</text>
</a>
</g>
</g>
<!-- Node2&#45;&gt;Node3 -->
<g id="edge2_Node000002_Node000003" class="edge">
<title>Node2&#45;&gt;Node3</title>
<g id="a_edge2_Node000002_Node000003"><a xlink:title=" ">
<path fill="none" stroke="#63b8ff" d="M284.33,-117.3C292.04,-117.53 300.11,-117.77 308.22,-118.01"/>
<polygon fill="#63b8ff" stroke="#63b8ff" points="308.07,-121.51 318.17,-118.31 308.28,-114.51 308.07,-121.51"/>
</a>
</g>
</g>
<!-- Node4 -->
<g id="Node000004" class="node">
<title>Node4</title>
<g id="a_Node000004"><a xlink:href="base_8impl_8h.html#a54f7d1db7f58ffd329b1955ad1a66f37" target="_top" xlink:title="Allocates memory to hold Modbus ADU.">
<polygon fill="white" stroke="#666666" points="647.5,-148.25 515.25,-148.25 515.25,-129 647.5,-129 647.5,-148.25"/>
<text text-anchor="middle" x="581.38" y="-134.75" font-family="Helvetica,sans-Serif" font-size="10.00">modbusBufferAllocateADU</text>
</a>
</g>
</g>
<!-- Node3&#45;&gt;Node4 -->
<g id="edge3_Node000003_Node000004" class="edge">
<title>Node3&#45;&gt;Node4</title>
<g id="a_edge3_Node000003_Node000004"><a xlink:title=" ">
<path fill="none" stroke="#63b8ff" d="M474.29,-128.15C483.97,-129.11 493.88,-130.09 503.57,-131.04"/>
<polygon fill="#63b8ff" stroke="#63b8ff" points="503.01,-134.51 513.31,-132.01 503.7,-127.54 503.01,-134.51"/>
</a>
</g>
</g>
<!-- Node5 -->
<g id="Node000005" class="node">
<title>Node5</title>
<g id="a_Node000005"><a xlink:href="slave_8h.html#a6517cff5567f0f07444d140edc7dfafd" target="_top" xlink:title="Retreieves the custom context pointer.">
<polygon fill="white" stroke="#666666" points="652.75,-111.25 510,-111.25 510,-92 652.75,-92 652.75,-111.25"/>
<text text-anchor="middle" x="581.38" y="-97.75" font-family="Helvetica,sans-Serif" font-size="10.00">modbusSlaveGetUserPointer</text>
</a>
</g>
</g>
<!-- Node3&#45;&gt;Node5 -->
<g id="edge4_Node000003_Node000005" class="edge">
<title>Node3&#45;&gt;Node5</title>
<g id="a_edge4_Node000003_Node000005"><a xlink:title=" ">
<path fill="none" stroke="#63b8ff" d="M474.29,-112.68C482.25,-111.85 490.36,-111 498.39,-110.17"/>
<polygon fill="#63b8ff" stroke="#63b8ff" points="498.55,-113.67 508.13,-109.15 497.82,-106.71 498.55,-113.67"/>
</a>
</g>
</g>
<!-- Node7 -->
<g id="Node000007" class="node">
<title>Node7</title>
<g id="a_Node000007"><a xlink:href="base_8h.html#a29d2a7853b328113e4fcddae85fd3ce5" target="_top" xlink:title="Returns ModbusError contained in ModbusErrorInfo.">
<polygon fill="white" stroke="#666666" points="451.5,-93.25 342.5,-93.25 342.5,-74 451.5,-74 451.5,-93.25"/>
<text text-anchor="middle" x="397" y="-79.75" font-family="Helvetica,sans-Serif" font-size="10.00">modbusGetErrorCode</text>
</a>
</g>
</g>
<!-- Node6&#45;&gt;Node7 -->
<g id="edge6_Node000006_Node000007" class="edge">
<title>Node6&#45;&gt;Node7</title>
<g id="a_edge6_Node000006_Node000007"><a xlink:title=" ">
<path fill="none" stroke="#63b8ff" d="M263.12,-75.72C282.72,-76.89 307.75,-78.38 330.78,-79.75"/>
<polygon fill="#63b8ff" stroke="#63b8ff" points="330.55,-83.24 340.74,-80.34 330.97,-76.25 330.55,-83.24"/>
</a>
</g>
</g>
<!-- Node8 -->
<g id="Node000008" class="node">
<title>Node8</title>
<g id="a_Node000008"><a xlink:href="base_8h.html#a9ee4c2e633c7a42f88acc09b95f8171e" target="_top" xlink:title="Returns uint8_t describing error source of ModbusErrorInfo.">
<polygon fill="white" stroke="#666666" points="455.62,-56.25 338.38,-56.25 338.38,-37 455.62,-37 455.62,-56.25"/>
<text text-anchor="middle" x="397" y="-42.75" font-family="Helvetica,sans-Serif" font-size="10.00">modbusGetErrorSource</text>
</a>
</g>
</g>
<!-- Node6&#45;&gt;Node8 -->
<g id="edge7_Node000006_Node000008" class="edge">
<title>Node6&#45;&gt;Node8</title>
<g id="a_edge7_Node000006_Node000008"><a xlink:title=" ">
<path fill="none" stroke="#63b8ff" d="M263.12,-67.96C281.57,-65 304.82,-61.27 326.69,-57.76"/>
<polygon fill="#63b8ff" stroke="#63b8ff" points="327.16,-61.23 336.48,-56.18 326.05,-54.31 327.16,-61.23"/>
</a>
</g>
</g>
<!-- Node10 -->
<g id="Node000010" class="node">
<title>Node10</title>
<g id="a_Node000010"><a xlink:href="base_8h.html#a73b9f793bbe67a1968cc8c53a22d4c4b" target="_top" xlink:title="Safely writes a big&#45;endian 16&#45;bit word to provided pointer.">
<polygon fill="white" stroke="#666666" points="433.12,-19.25 360.88,-19.25 360.88,0 433.12,0 433.12,-19.25"/>
<text text-anchor="middle" x="397" y="-5.75" font-family="Helvetica,sans-Serif" font-size="10.00">modbusWBE</text>
</a>
</g>
</g>
<!-- Node9&#45;&gt;Node10 -->
<g id="edge9_Node000009_Node000010" class="edge">
<title>Node9&#45;&gt;Node10</title>
<g id="a_edge9_Node000009_Node000010"><a xlink:title=" ">
<path fill="none" stroke="#63b8ff" d="M273.37,-22.75C296.94,-20.23 325.67,-17.15 349.4,-14.61"/>
<polygon fill="#63b8ff" stroke="#63b8ff" points="349.52,-18.12 359.09,-13.58 348.78,-11.16 349.52,-18.12"/>
</a>
</g>
</g>
</g>
</svg>
