<?xml version="1.0" encoding="UTF-8" standalone="no"?>
<!DOCTYPE svg PUBLIC "-//W3C//DTD SVG 1.1//EN"
 "http://www.w3.org/Graphics/SVG/1.1/DTD/svg11.dtd">
<!-- Generated by graphviz version 9.0.0 (20230911.1827)
 -->
<!-- Title: modbusBuildExceptionPDU Pages: 1 -->
<svg width="662pt" height="119pt"
 viewBox="0.00 0.00 662.25 119.25" xmlns="http://www.w3.org/2000/svg" xmlns:xlink="http://www.w3.org/1999/xlink">
<g id="graph0" class="graph" transform="scale(1 1) rotate(0) translate(4 115.25)">
<title>modbusBuildExceptionPDU</title>
<!-- Node1 -->
<g id="Node000001" class="node">
<title>Node1</title>
<g id="a_Node000001"><a xlink:title="Builds an exception PDU.">
<polygon fill="#999999" stroke="#666666" points="135.25,-74.25 0,-74.25 0,-55 135.25,-55 135.25,-74.25"/>
<text text-anchor="middle" x="67.62" y="-60.75" font-family="Helvetica,sans-Serif" font-size="10.00">modbusBuildExceptionPDU</text>
</a>
</g>
</g>
<!-- Node2 -->
<g id="Node000002" class="node">
<title>Node2</title>
<g id="a_Node000002"><a xlink:href="slave_8impl_8h.html#a58243ce1e1adaffd0a3260edc2d03603" target="_top" xlink:title="Builds an exception response frame.">
<polygon fill="white" stroke="#666666" points="285.5,-93.25 171.25,-93.25 171.25,-74 285.5,-74 285.5,-93.25"/>
<text text-anchor="middle" x="228.38" y="-79.75" font-family="Helvetica,sans-Serif" font-size="10.00">modbusBuildException</text>
</a>
</g>
</g>
<!-- Node1&#45;&gt;Node2 -->
<g id="edge1_Node000001_Node000002" class="edge">
<title>Node1&#45;&gt;Node2</title>
<g id="a_edge1_Node000001_Node000002"><a xlink:title=" ">
<path fill="none" stroke="#63b8ff" d="M135.49,-72.63C143.55,-73.59 151.79,-74.58 159.86,-75.55"/>
<polygon fill="#63b8ff" stroke="#63b8ff" points="159.28,-79 169.63,-76.71 160.11,-72.05 159.28,-79"/>
</a>
</g>
</g>
<!-- Node6 -->
<g id="Node000006" class="node">
<title>Node6</title>
<g id="a_Node000006"><a xlink:href="base_8h.html#a64880e7075f445881485396f3aa869c5" target="_top" xlink:title="Checks if ModbusErrorInfo contains an error.">
<polygon fill="white" stroke="#666666" points="264.12,-56.25 192.62,-56.25 192.62,-37 264.12,-37 264.12,-56.25"/>
<text text-anchor="middle" x="228.38" y="-42.75" font-family="Helvetica,sans-Serif" font-size="10.00">modbusIsOk</text>
</a>
</g>
</g>
<!-- Node1&#45;&gt;Node6 -->
<g id="edge5_Node000001_Node000006" class="edge">
<title>Node1&#45;&gt;Node6</title>
<g id="a_edge5_Node000001_Node000006"><a xlink:title=" ">
<path fill="none" stroke="#63b8ff" d="M135.49,-57.04C150.87,-55.3 166.89,-53.48 181.16,-51.86"/>
<polygon fill="#63b8ff" stroke="#63b8ff" points="181.15,-55.39 190.69,-50.78 180.36,-48.43 181.15,-55.39"/>
</a>
</g>
</g>
<!-- Node3 -->
<g id="Node000003" class="node">
<title>Node3</title>
<g id="a_Node000003"><a xlink:href="slave_8h.html#ad1165bb6d12af1db502a05df5da55aed" target="_top" xlink:title="Allocates memory for slave&#39;s response frame.">
<polygon fill="white" stroke="#666666" points="475.5,-93.25 321.5,-93.25 321.5,-74 475.5,-74 475.5,-93.25"/>
<text text-anchor="middle" x="398.5" y="-79.75" font-family="Helvetica,sans-Serif" font-size="10.00">modbusSlaveAllocateResponse</text>
</a>
</g>
</g>
<!-- Node2&#45;&gt;Node3 -->
<g id="edge2_Node000002_Node000003" class="edge">
<title>Node2&#45;&gt;Node3</title>
<g id="a_edge2_Node000002_Node000003"><a xlink:title=" ">
<path fill="none" stroke="#63b8ff" d="M285.83,-83.62C293.54,-83.62 301.61,-83.62 309.72,-83.62"/>
<polygon fill="#63b8ff" stroke="#63b8ff" points="309.67,-87.13 319.67,-83.63 309.67,-80.13 309.67,-87.13"/>
</a>
</g>
</g>
<!-- Node4 -->
<g id="Node000004" class="node">
<title>Node4</title>
<g id="a_Node000004"><a xlink:href="base_8impl_8h.html#a54f7d1db7f58ffd329b1955ad1a66f37" target="_top" xlink:title="Allocates memory to hold Modbus ADU.">
<polygon fill="white" stroke="#666666" points="649,-111.25 516.75,-111.25 516.75,-92 649,-92 649,-111.25"/>
<text text-anchor="middle" x="582.88" y="-97.75" font-family="Helvetica,sans-Serif" font-size="10.00">modbusBufferAllocateADU</text>
</a>
</g>
</g>
<!-- Node3&#45;&gt;Node4 -->
<g id="edge3_Node000003_Node000004" class="edge">
<title>Node3&#45;&gt;Node4</title>
<g id="a_edge3_Node000003_Node000004"><a xlink:title=" ">
<path fill="none" stroke="#63b8ff" d="M475.79,-91.15C485.47,-92.11 495.38,-93.09 505.07,-94.04"/>
<polygon fill="#63b8ff" stroke="#63b8ff" points="504.51,-97.51 514.81,-95.01 505.2,-90.54 504.51,-97.51"/>
</a>
</g>
</g>
<!-- Node5 -->
<g id="Node000005" class="node">
<title>Node5</title>
<g id="a_Node000005"><a xlink:href="slave_8h.html#a6517cff5567f0f07444d140edc7dfafd" target="_top" xlink:title="Retreieves the custom context pointer.">
<polygon fill="white" stroke="#666666" points="654.25,-74.25 511.5,-74.25 511.5,-55 654.25,-55 654.25,-74.25"/>
<text text-anchor="middle" x="582.88" y="-60.75" font-family="Helvetica,sans-Serif" font-size="10.00">modbusSlaveGetUserPointer</text>
</a>
</g>
</g>
<!-- Node3&#45;&gt;Node5 -->
<g id="edge4_Node000003_Node000005" class="edge">
<title>Node3&#45;&gt;Node5</title>
<g id="a_edge4_Node000003_Node000005"><a xlink:title=" ">
<path fill="none" stroke="#63b8ff" d="M475.79,-75.68C483.75,-74.85 491.86,-74 499.89,-73.17"/>
<polygon fill="#63b8ff" stroke="#63b8ff" points="500.05,-76.67 509.63,-72.15 499.32,-69.71 500.05,-76.67"/>
</a>
</g>
</g>
<!-- Node7 -->
<g id="Node000007" class="node">
<title>Node7</title>
<g id="a_Node000007"><a xlink:href="base_8h.html#a29d2a7853b328113e4fcddae85fd3ce5" target="_top" xlink:title="Returns ModbusError contained in ModbusErrorInfo.">
<polygon fill="white" stroke="#666666" points="453,-56.25 344,-56.25 344,-37 453,-37 453,-56.25"/>
<text text-anchor="middle" x="398.5" y="-42.75" font-family="Helvetica,sans-Serif" font-size="10.00">modbusGetErrorCode</text>
</a>
</g>
</g>
<!-- Node6&#45;&gt;Node7 -->
<g id="edge6_Node000006_Node000007" class="edge">
<title>Node6&#45;&gt;Node7</title>
<g id="a_edge6_Node000006_Node000007"><a xlink:title=" ">
<path fill="none" stroke="#63b8ff" d="M264.62,-46.62C284.22,-46.62 309.25,-46.62 332.28,-46.62"/>
<polygon fill="#63b8ff" stroke="#63b8ff" points="332.24,-50.13 342.24,-46.63 332.24,-43.13 332.24,-50.13"/>
</a>
</g>
</g>
<!-- Node8 -->
<g id="Node000008" class="node">
<title>Node8</title>
<g id="a_Node000008"><a xlink:href="base_8h.html#a9ee4c2e633c7a42f88acc09b95f8171e" target="_top" xlink:title="Returns uint8_t describing error source of ModbusErrorInfo.">
<polygon fill="white" stroke="#666666" points="457.12,-19.25 339.88,-19.25 339.88,0 457.12,0 457.12,-19.25"/>
<text text-anchor="middle" x="398.5" y="-5.75" font-family="Helvetica,sans-Serif" font-size="10.00">modbusGetErrorSource</text>
</a>
</g>
</g>
<!-- Node6&#45;&gt;Node8 -->
<g id="edge7_Node000006_Node000008" class="edge">
<title>Node6&#45;&gt;Node8</title>
<g id="a_edge7_Node000006_Node000008"><a xlink:title=" ">
<path fill="none" stroke="#63b8ff" d="M264.62,-38.87C286.68,-34.01 315.6,-27.65 340.83,-22.1"/>
<polygon fill="#63b8ff" stroke="#63b8ff" points="341.26,-25.59 350.27,-20.02 339.76,-18.75 341.26,-25.59"/>
</a>
</g>
</g>
</g>
</svg>
