<?xml version="1.0" encoding="UTF-8" standalone="no"?>
<!DOCTYPE svg PUBLIC "-//W3C//DTD SVG 1.1//EN"
 "http://www.w3.org/Graphics/SVG/1.1/DTD/svg11.dtd">
<!-- Generated by graphviz version 9.0.0 (20230911.1827)
 -->
<!-- Title: modbusParseRequest0506 Pages: 1 -->
<svg width="660pt" height="140pt"
 viewBox="0.00 0.00 660.00 140.25" xmlns="http://www.w3.org/2000/svg" xmlns:xlink="http://www.w3.org/1999/xlink">
<g id="graph0" class="graph" transform="scale(1 1) rotate(0) translate(4 136.25)">
<title>modbusParseRequest0506</title>
<!-- Node1 -->
<g id="Node000001" class="node">
<title>Node1</title>
<g id="a_Node000001"><a xlink:title="Handles requests 05 and 06 (Write Single XX) and generates response.">
<polygon fill="#999999" stroke="#666666" points="133,-75.25 0,-75.25 0,-56 133,-56 133,-75.25"/>
<text text-anchor="middle" x="66.5" y="-61.75" font-family="Helvetica,sans-Serif" font-size="10.00">modbusParseRequest0506</text>
</a>
</g>
</g>
<!-- Node2 -->
<g id="Node000002" class="node">
<title>Node2</title>
<g id="a_Node000002"><a xlink:href="slave_8impl_8h.html#a58243ce1e1adaffd0a3260edc2d03603" target="_top" xlink:title="Builds an exception response frame.">
<polygon fill="white" stroke="#666666" points="283.25,-132.25 169,-132.25 169,-113 283.25,-113 283.25,-132.25"/>
<text text-anchor="middle" x="226.12" y="-118.75" font-family="Helvetica,sans-Serif" font-size="10.00">modbusBuildException</text>
</a>
</g>
</g>
<!-- Node1&#45;&gt;Node2 -->
<g id="edge1_Node000001_Node000002" class="edge">
<title>Node1&#45;&gt;Node2</title>
<g id="a_edge1_Node000001_Node000002"><a xlink:title=" ">
<path fill="none" stroke="#63b8ff" d="M95.32,-75.68C120.68,-84.85 158.38,-98.49 186.62,-108.7"/>
<polygon fill="#63b8ff" stroke="#63b8ff" points="185.3,-111.95 195.9,-112.06 187.68,-105.36 185.3,-111.95"/>
</a>
</g>
</g>
<!-- Node3 -->
<g id="Node000003" class="node">
<title>Node3</title>
<g id="a_Node000003"><a xlink:href="slave_8h.html#ad1165bb6d12af1db502a05df5da55aed" target="_top" xlink:title="Allocates memory for slave&#39;s response frame.">
<polygon fill="white" stroke="#666666" points="473.25,-113.25 319.25,-113.25 319.25,-94 473.25,-94 473.25,-113.25"/>
<text text-anchor="middle" x="396.25" y="-99.75" font-family="Helvetica,sans-Serif" font-size="10.00">modbusSlaveAllocateResponse</text>
</a>
</g>
</g>
<!-- Node1&#45;&gt;Node3 -->
<g id="edge6_Node000001_Node000003" class="edge">
<title>Node1&#45;&gt;Node3</title>
<g id="a_edge6_Node000001_Node000003"><a xlink:title=" ">
<path fill="none" stroke="#63b8ff" d="M133.43,-73.27C183.53,-79.08 252.93,-87.12 307.69,-93.47"/>
<polygon fill="#63b8ff" stroke="#63b8ff" points="306.95,-96.91 317.29,-94.59 307.76,-89.96 306.95,-96.91"/>
</a>
</g>
</g>
<!-- Node6 -->
<g id="Node000006" class="node">
<title>Node6</title>
<g id="a_Node000006"><a xlink:href="base_8h.html#ace96da9afdf1e1796a6e2d7ac1f6c81a" target="_top" xlink:title="Safely reads a big&#45;endian 16&#45;bit word from provided pointer.">
<polygon fill="white" stroke="#666666" points="261.12,-56.25 191.12,-56.25 191.12,-37 261.12,-37 261.12,-56.25"/>
<text text-anchor="middle" x="226.12" y="-42.75" font-family="Helvetica,sans-Serif" font-size="10.00">modbusRBE</text>
</a>
</g>
</g>
<!-- Node1&#45;&gt;Node6 -->
<g id="edge5_Node000001_Node000006" class="edge">
<title>Node1&#45;&gt;Node6</title>
<g id="a_edge5_Node000001_Node000006"><a xlink:title=" ">
<path fill="none" stroke="#63b8ff" d="M133.43,-57.68C149.01,-55.8 165.28,-53.84 179.71,-52.1"/>
<polygon fill="#63b8ff" stroke="#63b8ff" points="179.83,-55.61 189.34,-50.94 178.99,-48.66 179.83,-55.61"/>
</a>
</g>
</g>
<!-- Node7 -->
<g id="Node000007" class="node">
<title>Node7</title>
<g id="a_Node000007"><a xlink:href="base_8h.html#a73b9f793bbe67a1968cc8c53a22d4c4b" target="_top" xlink:title="Safely writes a big&#45;endian 16&#45;bit word to provided pointer.">
<polygon fill="white" stroke="#666666" points="262.25,-19.25 190,-19.25 190,0 262.25,0 262.25,-19.25"/>
<text text-anchor="middle" x="226.12" y="-5.75" font-family="Helvetica,sans-Serif" font-size="10.00">modbusWBE</text>
</a>
</g>
</g>
<!-- Node1&#45;&gt;Node7 -->
<g id="edge7_Node000001_Node000007" class="edge">
<title>Node1&#45;&gt;Node7</title>
<g id="a_edge7_Node000001_Node000007"><a xlink:title=" ">
<path fill="none" stroke="#63b8ff" d="M93.24,-55.6C113.69,-47.73 143.05,-36.64 169,-27.62 173.18,-26.17 177.54,-24.7 181.91,-23.25"/>
<polygon fill="#63b8ff" stroke="#63b8ff" points="182.83,-26.64 191.25,-20.21 180.66,-19.98 182.83,-26.64"/>
</a>
</g>
</g>
<!-- Node2&#45;&gt;Node3 -->
<g id="edge2_Node000002_Node000003" class="edge">
<title>Node2&#45;&gt;Node3</title>
<g id="a_edge2_Node000002_Node000003"><a xlink:title=" ">
<path fill="none" stroke="#63b8ff" d="M283.58,-116.25C291.38,-115.36 299.54,-114.44 307.75,-113.51"/>
<polygon fill="#63b8ff" stroke="#63b8ff" points="307.89,-117.02 317.43,-112.42 307.1,-110.06 307.89,-117.02"/>
</a>
</g>
</g>
<!-- Node4 -->
<g id="Node000004" class="node">
<title>Node4</title>
<g id="a_Node000004"><a xlink:href="base_8impl_8h.html#a54f7d1db7f58ffd329b1955ad1a66f37" target="_top" xlink:title="Allocates memory to hold Modbus ADU.">
<polygon fill="white" stroke="#666666" points="646.75,-132.25 514.5,-132.25 514.5,-113 646.75,-113 646.75,-132.25"/>
<text text-anchor="middle" x="580.62" y="-118.75" font-family="Helvetica,sans-Serif" font-size="10.00">modbusBufferAllocateADU</text>
</a>
</g>
</g>
<!-- Node3&#45;&gt;Node4 -->
<g id="edge3_Node000003_Node000004" class="edge">
<title>Node3&#45;&gt;Node4</title>
<g id="a_edge3_Node000003_Node000004"><a xlink:title=" ">
<path fill="none" stroke="#63b8ff" d="M473.54,-111.57C483.22,-112.58 493.13,-113.61 502.82,-114.62"/>
<polygon fill="#63b8ff" stroke="#63b8ff" points="502.25,-118.08 512.56,-115.64 502.98,-111.12 502.25,-118.08"/>
</a>
</g>
</g>
<!-- Node5 -->
<g id="Node000005" class="node">
<title>Node5</title>
<g id="a_Node000005"><a xlink:href="slave_8h.html#a6517cff5567f0f07444d140edc7dfafd" target="_top" xlink:title="Retreieves the custom context pointer.">
<polygon fill="white" stroke="#666666" points="652,-95.25 509.25,-95.25 509.25,-76 652,-76 652,-95.25"/>
<text text-anchor="middle" x="580.62" y="-81.75" font-family="Helvetica,sans-Serif" font-size="10.00">modbusSlaveGetUserPointer</text>
</a>
</g>
</g>
<!-- Node3&#45;&gt;Node5 -->
<g id="edge4_Node000003_Node000005" class="edge">
<title>Node3&#45;&gt;Node5</title>
<g id="a_edge4_Node000003_Node000005"><a xlink:title=" ">
<path fill="none" stroke="#63b8ff" d="M473.54,-96.1C481.5,-95.31 489.61,-94.51 497.64,-93.72"/>
<polygon fill="#63b8ff" stroke="#63b8ff" points="497.77,-97.22 507.38,-92.76 497.08,-90.25 497.77,-97.22"/>
</a>
</g>
</g>
</g>
</svg>
