<?xml version="1.0" encoding="UTF-8" standalone="no"?>
<!DOCTYPE svg PUBLIC "-//W3C//DTD SVG 1.1//EN"
 "http://www.w3.org/Graphics/SVG/1.1/DTD/svg11.dtd">
<!-- Generated by graphviz version 9.0.0 (20230911.1827)
 -->
<!-- Title: modbusParseRequest1516 Pages: 1 -->
<svg width="670pt" height="251pt"
 viewBox="0.00 0.00 669.75 251.25" xmlns="http://www.w3.org/2000/svg" xmlns:xlink="http://www.w3.org/1999/xlink">
<g id="graph0" class="graph" transform="scale(1 1) rotate(0) translate(4 247.25)">
<title>modbusParseRequest1516</title>
<!-- Node1 -->
<g id="Node000001" class="node">
<title>Node1</title>
<g id="a_Node000001"><a xlink:title="Handles requests 15 and 16 (Write Multiple XX) and generates response.">
<polygon fill="#999999" stroke="#666666" points="133,-130.25 0,-130.25 0,-111 133,-111 133,-130.25"/>
<text text-anchor="middle" x="66.5" y="-116.75" font-family="Helvetica,sans-Serif" font-size="10.00">modbusParseRequest1516</text>
</a>
</g>
</g>
<!-- Node2 -->
<g id="Node000002" class="node">
<title>Node2</title>
<g id="a_Node000002"><a xlink:href="base_8h.html#af23a50b36bef9c09ac82214a52ff4d58" target="_top" xlink:title="Returns number of bytes necessary to hold given number of bits.">
<polygon fill="white" stroke="#666666" points="282.88,-243.25 179.12,-243.25 179.12,-224 282.88,-224 282.88,-243.25"/>
<text text-anchor="middle" x="231" y="-229.75" font-family="Helvetica,sans-Serif" font-size="10.00">modbusBitsToBytes</text>
</a>
</g>
</g>
<!-- Node1&#45;&gt;Node2 -->
<g id="edge1_Node000001_Node000002" class="edge">
<title>Node1&#45;&gt;Node2</title>
<g id="a_edge1_Node000001_Node000002"><a xlink:title=" ">
<path fill="none" stroke="#63b8ff" d="M75.32,-130.55C91.02,-149.81 128.36,-192.37 169,-215.62 171.3,-216.94 173.71,-218.17 176.19,-219.32"/>
<polygon fill="#63b8ff" stroke="#63b8ff" points="174.65,-222.47 185.23,-223 177.29,-215.99 174.65,-222.47"/>
</a>
</g>
</g>
<!-- Node3 -->
<g id="Node000003" class="node">
<title>Node3</title>
<g id="a_Node000003"><a xlink:href="slave_8impl_8h.html#a58243ce1e1adaffd0a3260edc2d03603" target="_top" xlink:title="Builds an exception response frame.">
<polygon fill="white" stroke="#666666" points="288.12,-206.25 173.88,-206.25 173.88,-187 288.12,-187 288.12,-206.25"/>
<text text-anchor="middle" x="231" y="-192.75" font-family="Helvetica,sans-Serif" font-size="10.00">modbusBuildException</text>
</a>
</g>
</g>
<!-- Node1&#45;&gt;Node3 -->
<g id="edge2_Node000001_Node000003" class="edge">
<title>Node1&#45;&gt;Node3</title>
<g id="a_edge2_Node000001_Node000003"><a xlink:title=" ">
<path fill="none" stroke="#63b8ff" d="M85.57,-130.57C105.67,-141.46 139.23,-159.18 169,-172.62 176.4,-175.97 184.42,-179.31 192.13,-182.4"/>
<polygon fill="#63b8ff" stroke="#63b8ff" points="190.74,-185.61 201.33,-186.01 193.3,-179.09 190.74,-185.61"/>
</a>
</g>
</g>
<!-- Node4 -->
<g id="Node000004" class="node">
<title>Node4</title>
<g id="a_Node000004"><a xlink:href="slave_8h.html#ad1165bb6d12af1db502a05df5da55aed" target="_top" xlink:title="Allocates memory for slave&#39;s response frame.">
<polygon fill="white" stroke="#666666" points="483,-187.25 329,-187.25 329,-168 483,-168 483,-187.25"/>
<text text-anchor="middle" x="406" y="-173.75" font-family="Helvetica,sans-Serif" font-size="10.00">modbusSlaveAllocateResponse</text>
</a>
</g>
</g>
<!-- Node1&#45;&gt;Node4 -->
<g id="edge9_Node000001_Node000004" class="edge">
<title>Node1&#45;&gt;Node4</title>
<g id="a_edge9_Node000001_Node000004"><a xlink:title=" ">
<path fill="none" stroke="#63b8ff" d="M120.13,-130.74C135.84,-133.69 153.1,-136.86 169,-139.62 222.07,-148.86 281.99,-158.5 328.18,-165.76"/>
<polygon fill="#63b8ff" stroke="#63b8ff" points="327.39,-169.18 337.81,-167.27 328.48,-162.26 327.39,-169.18"/>
</a>
</g>
</g>
<!-- Node7 -->
<g id="Node000007" class="node">
<title>Node7</title>
<g id="a_Node000007"><a xlink:href="base_8h.html#a61619958551d902c14ab6e51fb842ea0" target="_top" xlink:title="Checks whether provided address range causes an uint16_t overflow.">
<polygon fill="white" stroke="#666666" points="293,-130.25 169,-130.25 169,-111 293,-111 293,-130.25"/>
<text text-anchor="middle" x="231" y="-116.75" font-family="Helvetica,sans-Serif" font-size="10.00">modbusCheckRangeU16</text>
</a>
</g>
</g>
<!-- Node1&#45;&gt;Node7 -->
<g id="edge6_Node000001_Node000007" class="edge">
<title>Node1&#45;&gt;Node7</title>
<g id="a_edge6_Node000001_Node000007"><a xlink:title=" ">
<path fill="none" stroke="#63b8ff" d="M133.13,-120.62C141.09,-120.62 149.26,-120.62 157.32,-120.62"/>
<polygon fill="#63b8ff" stroke="#63b8ff" points="157.09,-124.13 167.09,-120.63 157.09,-117.13 157.09,-124.13"/>
</a>
</g>
</g>
<!-- Node8 -->
<g id="Node000008" class="node">
<title>Node8</title>
<g id="a_Node000008"><a xlink:href="base_8h.html#aff2248343762719cdacf818e4dae3709" target="_top" xlink:title="Reads n&#45;th bit from an array.">
<polygon fill="white" stroke="#666666" points="279.5,-93.25 182.5,-93.25 182.5,-74 279.5,-74 279.5,-93.25"/>
<text text-anchor="middle" x="231" y="-79.75" font-family="Helvetica,sans-Serif" font-size="10.00">modbusMaskRead</text>
</a>
</g>
</g>
<!-- Node1&#45;&gt;Node8 -->
<g id="edge7_Node000001_Node000008" class="edge">
<title>Node1&#45;&gt;Node8</title>
<g id="a_edge7_Node000001_Node000008"><a xlink:title=" ">
<path fill="none" stroke="#63b8ff" d="M111.9,-110.51C131.25,-106.11 154.13,-100.9 174.58,-96.24"/>
<polygon fill="#63b8ff" stroke="#63b8ff" points="175.2,-99.69 184.17,-94.06 173.65,-92.87 175.2,-99.69"/>
</a>
</g>
</g>
<!-- Node9 -->
<g id="Node000009" class="node">
<title>Node9</title>
<g id="a_Node000009"><a xlink:href="base_8h.html#ace96da9afdf1e1796a6e2d7ac1f6c81a" target="_top" xlink:title="Safely reads a big&#45;endian 16&#45;bit word from provided pointer.">
<polygon fill="white" stroke="#666666" points="266,-56.25 196,-56.25 196,-37 266,-37 266,-56.25"/>
<text text-anchor="middle" x="231" y="-42.75" font-family="Helvetica,sans-Serif" font-size="10.00">modbusRBE</text>
</a>
</g>
</g>
<!-- Node1&#45;&gt;Node9 -->
<g id="edge8_Node000001_Node000009" class="edge">
<title>Node1&#45;&gt;Node9</title>
<g id="a_edge8_Node000001_Node000009"><a xlink:title=" ">
<path fill="none" stroke="#63b8ff" d="M83.14,-110.59C102.62,-98.42 137.24,-77.89 169,-64.62 174.02,-62.53 179.37,-60.57 184.73,-58.78"/>
<polygon fill="#63b8ff" stroke="#63b8ff" points="185.73,-62.13 194.22,-55.79 183.63,-55.46 185.73,-62.13"/>
</a>
</g>
</g>
<!-- Node10 -->
<g id="Node000010" class="node">
<title>Node10</title>
<g id="a_Node000010"><a xlink:href="base_8h.html#a73b9f793bbe67a1968cc8c53a22d4c4b" target="_top" xlink:title="Safely writes a big&#45;endian 16&#45;bit word to provided pointer.">
<polygon fill="white" stroke="#666666" points="267.12,-19.25 194.88,-19.25 194.88,0 267.12,0 267.12,-19.25"/>
<text text-anchor="middle" x="231" y="-5.75" font-family="Helvetica,sans-Serif" font-size="10.00">modbusWBE</text>
</a>
</g>
</g>
<!-- Node1&#45;&gt;Node10 -->
<g id="edge10_Node000001_Node000010" class="edge">
<title>Node1&#45;&gt;Node10</title>
<g id="a_edge10_Node000001_Node000010"><a xlink:title=" ">
<path fill="none" stroke="#63b8ff" d="M75.62,-110.62C91.54,-91.65 128.84,-50.32 169,-27.62 173.68,-24.98 178.79,-22.69 183.99,-20.72"/>
<polygon fill="#63b8ff" stroke="#63b8ff" points="184.91,-24.1 193.26,-17.58 182.66,-17.47 184.91,-24.1"/>
</a>
</g>
</g>
<!-- Node3&#45;&gt;Node4 -->
<g id="edge3_Node000003_Node000004" class="edge">
<title>Node3&#45;&gt;Node4</title>
<g id="a_edge3_Node000003_Node000004"><a xlink:title=" ">
<path fill="none" stroke="#63b8ff" d="M288.17,-190.46C297.56,-189.42 307.5,-188.33 317.45,-187.24"/>
<polygon fill="#63b8ff" stroke="#63b8ff" points="317.61,-190.74 327.17,-186.17 316.84,-183.79 317.61,-190.74"/>
</a>
</g>
</g>
<!-- Node5 -->
<g id="Node000005" class="node">
<title>Node5</title>
<g id="a_Node000005"><a xlink:href="base_8impl_8h.html#a54f7d1db7f58ffd329b1955ad1a66f37" target="_top" xlink:title="Allocates memory to hold Modbus ADU.">
<polygon fill="white" stroke="#666666" points="656.5,-206.25 524.25,-206.25 524.25,-187 656.5,-187 656.5,-206.25"/>
<text text-anchor="middle" x="590.38" y="-192.75" font-family="Helvetica,sans-Serif" font-size="10.00">modbusBufferAllocateADU</text>
</a>
</g>
</g>
<!-- Node4&#45;&gt;Node5 -->
<g id="edge4_Node000004_Node000005" class="edge">
<title>Node4&#45;&gt;Node5</title>
<g id="a_edge4_Node000004_Node000005"><a xlink:title=" ">
<path fill="none" stroke="#63b8ff" d="M483.29,-185.57C492.97,-186.58 502.88,-187.61 512.57,-188.62"/>
<polygon fill="#63b8ff" stroke="#63b8ff" points="512,-192.08 522.31,-189.64 512.73,-185.12 512,-192.08"/>
</a>
</g>
</g>
<!-- Node6 -->
<g id="Node000006" class="node">
<title>Node6</title>
<g id="a_Node000006"><a xlink:href="slave_8h.html#a6517cff5567f0f07444d140edc7dfafd" target="_top" xlink:title="Retreieves the custom context pointer.">
<polygon fill="white" stroke="#666666" points="661.75,-169.25 519,-169.25 519,-150 661.75,-150 661.75,-169.25"/>
<text text-anchor="middle" x="590.38" y="-155.75" font-family="Helvetica,sans-Serif" font-size="10.00">modbusSlaveGetUserPointer</text>
</a>
</g>
</g>
<!-- Node4&#45;&gt;Node6 -->
<g id="edge5_Node000004_Node000006" class="edge">
<title>Node4&#45;&gt;Node6</title>
<g id="a_edge5_Node000004_Node000006"><a xlink:title=" ">
<path fill="none" stroke="#63b8ff" d="M483.29,-170.1C491.25,-169.31 499.36,-168.51 507.39,-167.72"/>
<polygon fill="#63b8ff" stroke="#63b8ff" points="507.52,-171.22 517.13,-166.76 506.83,-164.25 507.52,-171.22"/>
</a>
</g>
</g>
</g>
</svg>
