<?xml version="1.0" encoding="UTF-8" standalone="no"?>
<!DOCTYPE svg PUBLIC "-//W3C//DTD SVG 1.1//EN"
 "http://www.w3.org/Graphics/SVG/1.1/DTD/svg11.dtd">
<!-- Generated by graphviz version 9.0.0 (20230911.1827)
 -->
<!-- Title: modbusParseRequest22 Pages: 1 -->
<svg width="650pt" height="140pt"
 viewBox="0.00 0.00 649.50 140.25" xmlns="http://www.w3.org/2000/svg" xmlns:xlink="http://www.w3.org/1999/xlink">
<g id="graph0" class="graph" transform="scale(1 1) rotate(0) translate(4 136.25)">
<title>modbusParseRequest22</title>
<!-- Node1 -->
<g id="Node000001" class="node">
<title>Node1</title>
<g id="a_Node000001"><a xlink:title="Handles request 22 (Mask Write Register) and generates response.">
<polygon fill="#999999" stroke="#666666" points="122.5,-75.25 0,-75.25 0,-56 122.5,-56 122.5,-75.25"/>
<text text-anchor="middle" x="61.25" y="-61.75" font-family="Helvetica,sans-Serif" font-size="10.00">modbusParseRequest22</text>
</a>
</g>
</g>
<!-- Node2 -->
<g id="Node000002" class="node">
<title>Node2</title>
<g id="a_Node000002"><a xlink:href="slave_8impl_8h.html#a58243ce1e1adaffd0a3260edc2d03603" target="_top" xlink:title="Builds an exception response frame.">
<polygon fill="white" stroke="#666666" points="272.75,-132.25 158.5,-132.25 158.5,-113 272.75,-113 272.75,-132.25"/>
<text text-anchor="middle" x="215.62" y="-118.75" font-family="Helvetica,sans-Serif" font-size="10.00">modbusBuildException</text>
</a>
</g>
</g>
<!-- Node1&#45;&gt;Node2 -->
<g id="edge1_Node000001_Node000002" class="edge">
<title>Node1&#45;&gt;Node2</title>
<g id="a_edge1_Node000001_Node000002"><a xlink:title=" ">
<path fill="none" stroke="#63b8ff" d="M89.14,-75.68C113.55,-84.81 149.78,-98.37 177.04,-108.57"/>
<polygon fill="#63b8ff" stroke="#63b8ff" points="175.74,-111.81 186.33,-112.04 178.19,-105.26 175.74,-111.81"/>
</a>
</g>
</g>
<!-- Node3 -->
<g id="Node000003" class="node">
<title>Node3</title>
<g id="a_Node000003"><a xlink:href="slave_8h.html#ad1165bb6d12af1db502a05df5da55aed" target="_top" xlink:title="Allocates memory for slave&#39;s response frame.">
<polygon fill="white" stroke="#666666" points="462.75,-113.25 308.75,-113.25 308.75,-94 462.75,-94 462.75,-113.25"/>
<text text-anchor="middle" x="385.75" y="-99.75" font-family="Helvetica,sans-Serif" font-size="10.00">modbusSlaveAllocateResponse</text>
</a>
</g>
</g>
<!-- Node1&#45;&gt;Node3 -->
<g id="edge6_Node000001_Node000003" class="edge">
<title>Node1&#45;&gt;Node3</title>
<g id="a_edge6_Node000001_Node000003"><a xlink:title=" ">
<path fill="none" stroke="#63b8ff" d="M122.91,-72.77C172.07,-78.57 242,-86.81 297.23,-93.31"/>
<polygon fill="#63b8ff" stroke="#63b8ff" points="296.58,-96.76 306.92,-94.45 297.4,-89.81 296.58,-96.76"/>
</a>
</g>
</g>
<!-- Node6 -->
<g id="Node000006" class="node">
<title>Node6</title>
<g id="a_Node000006"><a xlink:href="base_8h.html#ace96da9afdf1e1796a6e2d7ac1f6c81a" target="_top" xlink:title="Safely reads a big&#45;endian 16&#45;bit word from provided pointer.">
<polygon fill="white" stroke="#666666" points="250.62,-56.25 180.62,-56.25 180.62,-37 250.62,-37 250.62,-56.25"/>
<text text-anchor="middle" x="215.62" y="-42.75" font-family="Helvetica,sans-Serif" font-size="10.00">modbusRBE</text>
</a>
</g>
</g>
<!-- Node1&#45;&gt;Node6 -->
<g id="edge5_Node000001_Node000006" class="edge">
<title>Node1&#45;&gt;Node6</title>
<g id="a_edge5_Node000001_Node000006"><a xlink:title=" ">
<path fill="none" stroke="#63b8ff" d="M122.91,-58.06C138.37,-56.13 154.71,-54.1 169.25,-52.28"/>
<polygon fill="#63b8ff" stroke="#63b8ff" points="169.49,-55.78 178.98,-51.07 168.62,-48.83 169.49,-55.78"/>
</a>
</g>
</g>
<!-- Node7 -->
<g id="Node000007" class="node">
<title>Node7</title>
<g id="a_Node000007"><a xlink:href="base_8h.html#a73b9f793bbe67a1968cc8c53a22d4c4b" target="_top" xlink:title="Safely writes a big&#45;endian 16&#45;bit word to provided pointer.">
<polygon fill="white" stroke="#666666" points="251.75,-19.25 179.5,-19.25 179.5,0 251.75,0 251.75,-19.25"/>
<text text-anchor="middle" x="215.62" y="-5.75" font-family="Helvetica,sans-Serif" font-size="10.00">modbusWBE</text>
</a>
</g>
</g>
<!-- Node1&#45;&gt;Node7 -->
<g id="edge7_Node000001_Node000007" class="edge">
<title>Node1&#45;&gt;Node7</title>
<g id="a_edge7_Node000001_Node000007"><a xlink:title=" ">
<path fill="none" stroke="#63b8ff" d="M86.21,-55.66C105.59,-47.72 133.63,-36.51 158.5,-27.62 162.61,-26.16 166.91,-24.68 171.22,-23.23"/>
<polygon fill="#63b8ff" stroke="#63b8ff" points="172.01,-26.66 180.42,-20.21 169.83,-20.01 172.01,-26.66"/>
</a>
</g>
</g>
<!-- Node2&#45;&gt;Node3 -->
<g id="edge2_Node000002_Node000003" class="edge">
<title>Node2&#45;&gt;Node3</title>
<g id="a_edge2_Node000002_Node000003"><a xlink:title=" ">
<path fill="none" stroke="#63b8ff" d="M273.08,-116.25C280.88,-115.36 289.04,-114.44 297.25,-113.51"/>
<polygon fill="#63b8ff" stroke="#63b8ff" points="297.39,-117.02 306.93,-112.42 296.6,-110.06 297.39,-117.02"/>
</a>
</g>
</g>
<!-- Node4 -->
<g id="Node000004" class="node">
<title>Node4</title>
<g id="a_Node000004"><a xlink:href="base_8impl_8h.html#a54f7d1db7f58ffd329b1955ad1a66f37" target="_top" xlink:title="Allocates memory to hold Modbus ADU.">
<polygon fill="white" stroke="#666666" points="636.25,-132.25 504,-132.25 504,-113 636.25,-113 636.25,-132.25"/>
<text text-anchor="middle" x="570.12" y="-118.75" font-family="Helvetica,sans-Serif" font-size="10.00">modbusBufferAllocateADU</text>
</a>
</g>
</g>
<!-- Node3&#45;&gt;Node4 -->
<g id="edge3_Node000003_Node000004" class="edge">
<title>Node3&#45;&gt;Node4</title>
<g id="a_edge3_Node000003_Node000004"><a xlink:title=" ">
<path fill="none" stroke="#63b8ff" d="M463.04,-111.57C472.72,-112.58 482.63,-113.61 492.32,-114.62"/>
<polygon fill="#63b8ff" stroke="#63b8ff" points="491.75,-118.08 502.06,-115.64 492.48,-111.12 491.75,-118.08"/>
</a>
</g>
</g>
<!-- Node5 -->
<g id="Node000005" class="node">
<title>Node5</title>
<g id="a_Node000005"><a xlink:href="slave_8h.html#a6517cff5567f0f07444d140edc7dfafd" target="_top" xlink:title="Retreieves the custom context pointer.">
<polygon fill="white" stroke="#666666" points="641.5,-95.25 498.75,-95.25 498.75,-76 641.5,-76 641.5,-95.25"/>
<text text-anchor="middle" x="570.12" y="-81.75" font-family="Helvetica,sans-Serif" font-size="10.00">modbusSlaveGetUserPointer</text>
</a>
</g>
</g>
<!-- Node3&#45;&gt;Node5 -->
<g id="edge4_Node000003_Node000005" class="edge">
<title>Node3&#45;&gt;Node5</title>
<g id="a_edge4_Node000003_Node000005"><a xlink:title=" ">
<path fill="none" stroke="#63b8ff" d="M463.04,-96.1C471,-95.31 479.11,-94.51 487.14,-93.72"/>
<polygon fill="#63b8ff" stroke="#63b8ff" points="487.27,-97.22 496.88,-92.76 486.58,-90.25 487.27,-97.22"/>
</a>
</g>
</g>
</g>
</svg>
