<?xml version="1.0" encoding="UTF-8" standalone="no"?>
<!DOCTYPE svg PUBLIC "-//W3C//DTD SVG 1.1//EN"
 "http://www.w3.org/Graphics/SVG/1.1/DTD/svg11.dtd">
<!-- Generated by graphviz version 9.0.0 (20230911.1827)
 -->
<!-- Title: modbusParseRequest01020304 Pages: 1 -->
<svg width="691pt" height="251pt"
 viewBox="0.00 0.00 690.75 251.25" xmlns="http://www.w3.org/2000/svg" xmlns:xlink="http://www.w3.org/1999/xlink">
<g id="graph0" class="graph" transform="scale(1 1) rotate(0) translate(4 247.25)">
<title>modbusParseRequest01020304</title>
<!-- Node1 -->
<g id="Node000001" class="node">
<title>Node1</title>
<g id="a_Node000001"><a xlink:title="Handles requests 01, 02, 03 and 04 (Read Multiple XX) and generates response.">
<polygon fill="#999999" stroke="#666666" points="154,-130.25 0,-130.25 0,-111 154,-111 154,-130.25"/>
<text text-anchor="middle" x="77" y="-116.75" font-family="Helvetica,sans-Serif" font-size="10.00">modbusParseRequest01020304</text>
</a>
</g>
</g>
<!-- Node2 -->
<g id="Node000002" class="node">
<title>Node2</title>
<g id="a_Node000002"><a xlink:href="base_8h.html#af23a50b36bef9c09ac82214a52ff4d58" target="_top" xlink:title="Returns number of bytes necessary to hold given number of bits.">
<polygon fill="white" stroke="#666666" points="303.88,-243.25 200.12,-243.25 200.12,-224 303.88,-224 303.88,-243.25"/>
<text text-anchor="middle" x="252" y="-229.75" font-family="Helvetica,sans-Serif" font-size="10.00">modbusBitsToBytes</text>
</a>
</g>
</g>
<!-- Node1&#45;&gt;Node2 -->
<g id="edge1_Node000001_Node000002" class="edge">
<title>Node1&#45;&gt;Node2</title>
<g id="a_edge1_Node000001_Node000002"><a xlink:title=" ">
<path fill="none" stroke="#63b8ff" d="M86.87,-130.51C104.6,-149.68 146.48,-192.12 190,-215.62 192.51,-216.98 195.13,-218.24 197.82,-219.42"/>
<polygon fill="#63b8ff" stroke="#63b8ff" points="196.41,-222.63 207,-223 198.95,-216.11 196.41,-222.63"/>
</a>
</g>
</g>
<!-- Node3 -->
<g id="Node000003" class="node">
<title>Node3</title>
<g id="a_Node000003"><a xlink:href="slave_8impl_8h.html#a58243ce1e1adaffd0a3260edc2d03603" target="_top" xlink:title="Builds an exception response frame.">
<polygon fill="white" stroke="#666666" points="309.12,-206.25 194.88,-206.25 194.88,-187 309.12,-187 309.12,-206.25"/>
<text text-anchor="middle" x="252" y="-192.75" font-family="Helvetica,sans-Serif" font-size="10.00">modbusBuildException</text>
</a>
</g>
</g>
<!-- Node1&#45;&gt;Node3 -->
<g id="edge2_Node000001_Node000003" class="edge">
<title>Node1&#45;&gt;Node3</title>
<g id="a_edge2_Node000001_Node000003"><a xlink:title=" ">
<path fill="none" stroke="#63b8ff" d="M98.48,-130.58C120.81,-141.33 157.68,-158.78 190,-172.62 197.7,-175.92 206,-179.31 213.94,-182.45"/>
<polygon fill="#63b8ff" stroke="#63b8ff" points="212.44,-185.63 223.03,-186.02 215,-179.11 212.44,-185.63"/>
</a>
</g>
</g>
<!-- Node4 -->
<g id="Node000004" class="node">
<title>Node4</title>
<g id="a_Node000004"><a xlink:href="slave_8h.html#ad1165bb6d12af1db502a05df5da55aed" target="_top" xlink:title="Allocates memory for slave&#39;s response frame.">
<polygon fill="white" stroke="#666666" points="504,-187.25 350,-187.25 350,-168 504,-168 504,-187.25"/>
<text text-anchor="middle" x="427" y="-173.75" font-family="Helvetica,sans-Serif" font-size="10.00">modbusSlaveAllocateResponse</text>
</a>
</g>
</g>
<!-- Node1&#45;&gt;Node4 -->
<g id="edge9_Node000001_Node000004" class="edge">
<title>Node1&#45;&gt;Node4</title>
<g id="a_edge9_Node000001_Node000004"><a xlink:title=" ">
<path fill="none" stroke="#63b8ff" d="M136.98,-130.73C154.08,-133.63 172.78,-136.78 190,-139.62 243.9,-148.54 304.77,-158.33 351.2,-165.74"/>
<polygon fill="#63b8ff" stroke="#63b8ff" points="350.45,-169.17 360.88,-167.29 351.55,-162.26 350.45,-169.17"/>
</a>
</g>
</g>
<!-- Node7 -->
<g id="Node000007" class="node">
<title>Node7</title>
<g id="a_Node000007"><a xlink:href="base_8h.html#a61619958551d902c14ab6e51fb842ea0" target="_top" xlink:title="Checks whether provided address range causes an uint16_t overflow.">
<polygon fill="white" stroke="#666666" points="314,-130.25 190,-130.25 190,-111 314,-111 314,-130.25"/>
<text text-anchor="middle" x="252" y="-116.75" font-family="Helvetica,sans-Serif" font-size="10.00">modbusCheckRangeU16</text>
</a>
</g>
</g>
<!-- Node1&#45;&gt;Node7 -->
<g id="edge6_Node000001_Node000007" class="edge">
<title>Node1&#45;&gt;Node7</title>
<g id="a_edge6_Node000001_Node000007"><a xlink:title=" ">
<path fill="none" stroke="#63b8ff" d="M154.38,-120.62C162.29,-120.62 170.31,-120.62 178.18,-120.62"/>
<polygon fill="#63b8ff" stroke="#63b8ff" points="178.04,-124.13 188.04,-120.63 178.04,-117.13 178.04,-124.13"/>
</a>
</g>
</g>
<!-- Node8 -->
<g id="Node000008" class="node">
<title>Node8</title>
<g id="a_Node000008"><a xlink:href="base_8h.html#a5d9947eb500e2d0c87491a0adce53c2a" target="_top" xlink:title="Writes n&#45;th bit in an array.">
<polygon fill="white" stroke="#666666" points="300.5,-93.25 203.5,-93.25 203.5,-74 300.5,-74 300.5,-93.25"/>
<text text-anchor="middle" x="252" y="-79.75" font-family="Helvetica,sans-Serif" font-size="10.00">modbusMaskWrite</text>
</a>
</g>
</g>
<!-- Node1&#45;&gt;Node8 -->
<g id="edge7_Node000001_Node000008" class="edge">
<title>Node1&#45;&gt;Node8</title>
<g id="a_edge7_Node000001_Node000008"><a xlink:title=" ">
<path fill="none" stroke="#63b8ff" d="M125.27,-110.51C146.06,-106.07 170.68,-100.8 192.6,-96.11"/>
<polygon fill="#63b8ff" stroke="#63b8ff" points="193.26,-99.55 202.3,-94.04 191.79,-92.71 193.26,-99.55"/>
</a>
</g>
</g>
<!-- Node9 -->
<g id="Node000009" class="node">
<title>Node9</title>
<g id="a_Node000009"><a xlink:href="base_8h.html#ace96da9afdf1e1796a6e2d7ac1f6c81a" target="_top" xlink:title="Safely reads a big&#45;endian 16&#45;bit word from provided pointer.">
<polygon fill="white" stroke="#666666" points="287,-56.25 217,-56.25 217,-37 287,-37 287,-56.25"/>
<text text-anchor="middle" x="252" y="-42.75" font-family="Helvetica,sans-Serif" font-size="10.00">modbusRBE</text>
</a>
</g>
</g>
<!-- Node1&#45;&gt;Node9 -->
<g id="edge8_Node000001_Node000009" class="edge">
<title>Node1&#45;&gt;Node9</title>
<g id="a_edge8_Node000001_Node000009"><a xlink:title=" ">
<path fill="none" stroke="#63b8ff" d="M95.4,-110.71C117.06,-98.66 155.41,-78.25 190,-64.62 195.06,-62.63 200.44,-60.74 205.81,-58.98"/>
<polygon fill="#63b8ff" stroke="#63b8ff" points="206.81,-62.34 215.32,-56.02 204.73,-55.65 206.81,-62.34"/>
</a>
</g>
</g>
<!-- Node10 -->
<g id="Node000010" class="node">
<title>Node10</title>
<g id="a_Node000010"><a xlink:href="base_8h.html#a73b9f793bbe67a1968cc8c53a22d4c4b" target="_top" xlink:title="Safely writes a big&#45;endian 16&#45;bit word to provided pointer.">
<polygon fill="white" stroke="#666666" points="288.12,-19.25 215.88,-19.25 215.88,0 288.12,0 288.12,-19.25"/>
<text text-anchor="middle" x="252" y="-5.75" font-family="Helvetica,sans-Serif" font-size="10.00">modbusWBE</text>
</a>
</g>
</g>
<!-- Node1&#45;&gt;Node10 -->
<g id="edge10_Node000001_Node000010" class="edge">
<title>Node1&#45;&gt;Node10</title>
<g id="a_edge10_Node000001_Node000010"><a xlink:title=" ">
<path fill="none" stroke="#63b8ff" d="M87.19,-110.67C105.16,-91.78 146.96,-50.58 190,-27.62 194.69,-25.13 199.76,-22.93 204.92,-21.01"/>
<polygon fill="#63b8ff" stroke="#63b8ff" points="205.72,-24.44 214.08,-17.94 203.49,-17.8 205.72,-24.44"/>
</a>
</g>
</g>
<!-- Node3&#45;&gt;Node4 -->
<g id="edge3_Node000003_Node000004" class="edge">
<title>Node3&#45;&gt;Node4</title>
<g id="a_edge3_Node000003_Node000004"><a xlink:title=" ">
<path fill="none" stroke="#63b8ff" d="M309.17,-190.46C318.56,-189.42 328.5,-188.33 338.45,-187.24"/>
<polygon fill="#63b8ff" stroke="#63b8ff" points="338.61,-190.74 348.17,-186.17 337.84,-183.79 338.61,-190.74"/>
</a>
</g>
</g>
<!-- Node5 -->
<g id="Node000005" class="node">
<title>Node5</title>
<g id="a_Node000005"><a xlink:href="base_8impl_8h.html#a54f7d1db7f58ffd329b1955ad1a66f37" target="_top" xlink:title="Allocates memory to hold Modbus ADU.">
<polygon fill="white" stroke="#666666" points="677.5,-206.25 545.25,-206.25 545.25,-187 677.5,-187 677.5,-206.25"/>
<text text-anchor="middle" x="611.38" y="-192.75" font-family="Helvetica,sans-Serif" font-size="10.00">modbusBufferAllocateADU</text>
</a>
</g>
</g>
<!-- Node4&#45;&gt;Node5 -->
<g id="edge4_Node000004_Node000005" class="edge">
<title>Node4&#45;&gt;Node5</title>
<g id="a_edge4_Node000004_Node000005"><a xlink:title=" ">
<path fill="none" stroke="#63b8ff" d="M504.29,-185.57C513.97,-186.58 523.88,-187.61 533.57,-188.62"/>
<polygon fill="#63b8ff" stroke="#63b8ff" points="533,-192.08 543.31,-189.64 533.73,-185.12 533,-192.08"/>
</a>
</g>
</g>
<!-- Node6 -->
<g id="Node000006" class="node">
<title>Node6</title>
<g id="a_Node000006"><a xlink:href="slave_8h.html#a6517cff5567f0f07444d140edc7dfafd" target="_top" xlink:title="Retreieves the custom context pointer.">
<polygon fill="white" stroke="#666666" points="682.75,-169.25 540,-169.25 540,-150 682.75,-150 682.75,-169.25"/>
<text text-anchor="middle" x="611.38" y="-155.75" font-family="Helvetica,sans-Serif" font-size="10.00">modbusSlaveGetUserPointer</text>
</a>
</g>
</g>
<!-- Node4&#45;&gt;Node6 -->
<g id="edge5_Node000004_Node000006" class="edge">
<title>Node4&#45;&gt;Node6</title>
<g id="a_edge5_Node000004_Node000006"><a xlink:title=" ">
<path fill="none" stroke="#63b8ff" d="M504.29,-170.1C512.25,-169.31 520.36,-168.51 528.39,-167.72"/>
<polygon fill="#63b8ff" stroke="#63b8ff" points="528.52,-171.22 538.13,-166.76 527.83,-164.25 528.52,-171.22"/>
</a>
</g>
</g>
</g>
</svg>
