<?xml version="1.0" encoding="UTF-8" standalone="no"?>
<!DOCTYPE svg PUBLIC "-//W3C//DTD SVG 1.1//EN"
 "http://www.w3.org/Graphics/SVG/1.1/DTD/svg11.dtd">
<!-- Generated by graphviz version 9.0.0 (20230911.1827)
 -->
<!-- Title: modbusBuildException Pages: 1 -->
<svg width="674pt" height="286pt"
 viewBox="0.00 0.00 673.50 286.25" xmlns="http://www.w3.org/2000/svg" xmlns:xlink="http://www.w3.org/1999/xlink">
<g id="graph0" class="graph" transform="scale(1 1) rotate(0) translate(4 282.25)">
<title>modbusBuildException</title>
<!-- Node1 -->
<g id="Node000001" class="node">
<title>Node1</title>
<g id="a_Node000001"><a xlink:title="Builds an exception response frame.">
<polygon fill="#999999" stroke="#666666" points="665.5,-148.25 551.25,-148.25 551.25,-129 665.5,-129 665.5,-148.25"/>
<text text-anchor="middle" x="608.38" y="-134.75" font-family="Helvetica,sans-Serif" font-size="10.00">modbusBuildException</text>
</a>
</g>
</g>
<!-- Node2 -->
<g id="Node000002" class="node">
<title>Node2</title>
<g id="a_Node000002"><a xlink:href="slave_8impl_8h.html#a384f75966903cc0c249eb68a6a20180e" target="_top" xlink:title="Builds an exception PDU.">
<polygon fill="white" stroke="#666666" points="505.88,-278.25 370.62,-278.25 370.62,-259 505.88,-259 505.88,-278.25"/>
<text text-anchor="middle" x="438.25" y="-264.75" font-family="Helvetica,sans-Serif" font-size="10.00">modbusBuildExceptionPDU</text>
</a>
</g>
</g>
<!-- Node1&#45;&gt;Node2 -->
<g id="edge1_Node000001_Node000002" class="edge">
<title>Node1&#45;&gt;Node2</title>
<g id="a_edge1_Node000001_Node000002"><a xlink:title=" ">
<path fill="none" stroke="#63b8ff" d="M596.57,-158.51C581.7,-183.93 552.47,-227.42 515.25,-250.62 510.19,-253.78 504.62,-256.38 498.87,-258.53"/>
<polygon fill="#63b8ff" stroke="#63b8ff" points="599.59,-160.28 601.47,-149.85 593.5,-156.83 599.59,-160.28"/>
</a>
</g>
</g>
<!-- Node4 -->
<g id="Node000004" class="node">
<title>Node4</title>
<g id="a_Node000004"><a xlink:href="slave_8impl_8h.html#a1da09df8858b91c61fe02c25783c2946" target="_top" xlink:title="Builds a Modbus RTU exception.">
<polygon fill="white" stroke="#666666" points="505.5,-241.25 371,-241.25 371,-222 505.5,-222 505.5,-241.25"/>
<text text-anchor="middle" x="438.25" y="-227.75" font-family="Helvetica,sans-Serif" font-size="10.00">modbusBuildExceptionRTU</text>
</a>
</g>
</g>
<!-- Node1&#45;&gt;Node4 -->
<g id="edge3_Node000001_Node000004" class="edge">
<title>Node1&#45;&gt;Node4</title>
<g id="a_edge3_Node000001_Node000004"><a xlink:title=" ">
<path fill="none" stroke="#63b8ff" d="M590.19,-156.72C572.86,-173.9 544.55,-199.18 515.25,-213.62 508.8,-216.8 501.77,-219.44 494.67,-221.61"/>
<polygon fill="#63b8ff" stroke="#63b8ff" points="592.62,-159.24 597.13,-149.66 587.63,-154.33 592.62,-159.24"/>
</a>
</g>
</g>
<!-- Node6 -->
<g id="Node000006" class="node">
<title>Node6</title>
<g id="a_Node000006"><a xlink:href="slave_8impl_8h.html#a778e65356f7da66831f18ec53b975383" target="_top" xlink:title="Builds a Modbus TCP exception.">
<polygon fill="white" stroke="#666666" points="505.12,-204.25 371.38,-204.25 371.38,-185 505.12,-185 505.12,-204.25"/>
<text text-anchor="middle" x="438.25" y="-190.75" font-family="Helvetica,sans-Serif" font-size="10.00">modbusBuildExceptionTCP</text>
</a>
</g>
</g>
<!-- Node1&#45;&gt;Node6 -->
<g id="edge5_Node000001_Node000006" class="edge">
<title>Node1&#45;&gt;Node6</title>
<g id="a_edge5_Node000001_Node000006"><a xlink:title=" ">
<path fill="none" stroke="#63b8ff" d="M575.53,-153.22C558,-160.89 535.7,-170.03 515.25,-176.62 506.22,-179.54 496.44,-182.2 487,-184.54"/>
<polygon fill="#63b8ff" stroke="#63b8ff" points="576.67,-156.55 584.39,-149.29 573.83,-150.15 576.67,-156.55"/>
</a>
</g>
</g>
<!-- Node8 -->
<g id="Node000008" class="node">
<title>Node8</title>
<g id="a_Node000008"><a xlink:href="slave_8impl_8h.html#aff0a9164a0e37aa619232ae86e3ff97a" target="_top" xlink:title="Parses provided PDU and generates response honorinng pduOffset and padding set in ModbusSlave during ...">
<polygon fill="white" stroke="#666666" points="494.25,-167.25 382.25,-167.25 382.25,-148 494.25,-148 494.25,-167.25"/>
<text text-anchor="middle" x="438.25" y="-153.75" font-family="Helvetica,sans-Serif" font-size="10.00">modbusParseRequest</text>
</a>
</g>
</g>
<!-- Node1&#45;&gt;Node8 -->
<g id="edge7_Node000001_Node000008" class="edge">
<title>Node1&#45;&gt;Node8</title>
<g id="a_edge7_Node000001_Node000008"><a xlink:title=" ">
<path fill="none" stroke="#63b8ff" d="M539.67,-146.28C524.74,-147.96 509.08,-149.73 494.7,-151.36"/>
<polygon fill="#63b8ff" stroke="#63b8ff" points="539.88,-149.78 549.42,-145.17 539.09,-142.82 539.88,-149.78"/>
</a>
</g>
</g>
<!-- Node15 -->
<g id="Node000015" class="node">
<title>Node15</title>
<g id="a_Node000015"><a xlink:href="slave__func_8impl_8h.html#aaff57f2a5c6a8e6c77d36c5dc7e48cfa" target="_top" xlink:title="Handles requests 01, 02, 03 and 04 (Read Multiple XX) and generates response.">
<polygon fill="white" stroke="#666666" points="515.25,-130.25 361.25,-130.25 361.25,-111 515.25,-111 515.25,-130.25"/>
<text text-anchor="middle" x="438.25" y="-116.75" font-family="Helvetica,sans-Serif" font-size="10.00">modbusParseRequest01020304</text>
</a>
</g>
</g>
<!-- Node1&#45;&gt;Node15 -->
<g id="edge14_Node000001_Node000015" class="edge">
<title>Node1&#45;&gt;Node15</title>
<g id="a_edge14_Node000001_Node000015"><a xlink:title=" ">
<path fill="none" stroke="#63b8ff" d="M539.54,-131.36C531.65,-130.52 523.56,-129.65 515.57,-128.8"/>
<polygon fill="#63b8ff" stroke="#63b8ff" points="539.1,-134.84 549.42,-132.42 539.85,-127.88 539.1,-134.84"/>
</a>
</g>
</g>
<!-- Node16 -->
<g id="Node000016" class="node">
<title>Node16</title>
<g id="a_Node000016"><a xlink:href="slave__func_8impl_8h.html#a236881fe30a95d4cc9b031a9e24ae2a8" target="_top" xlink:title="Handles requests 05 and 06 (Write Single XX) and generates response.">
<polygon fill="white" stroke="#666666" points="504.75,-93.25 371.75,-93.25 371.75,-74 504.75,-74 504.75,-93.25"/>
<text text-anchor="middle" x="438.25" y="-79.75" font-family="Helvetica,sans-Serif" font-size="10.00">modbusParseRequest0506</text>
</a>
</g>
</g>
<!-- Node1&#45;&gt;Node16 -->
<g id="edge15_Node000001_Node000016" class="edge">
<title>Node1&#45;&gt;Node16</title>
<g id="a_edge15_Node000001_Node000016"><a xlink:title=" ">
<path fill="none" stroke="#63b8ff" d="M574.79,-124.15C557.36,-116.77 535.39,-108.01 515.25,-101.62 506.07,-98.71 496.14,-96.03 486.58,-93.68"/>
<polygon fill="#63b8ff" stroke="#63b8ff" points="573.04,-127.21 583.61,-127.95 575.81,-120.78 573.04,-127.21"/>
</a>
</g>
</g>
<!-- Node17 -->
<g id="Node000017" class="node">
<title>Node17</title>
<g id="a_Node000017"><a xlink:href="slave__func_8impl_8h.html#a0cb2a7bf59d4014088e1ce1c61523071" target="_top" xlink:title="Handles requests 15 and 16 (Write Multiple XX) and generates response.">
<polygon fill="white" stroke="#666666" points="504.75,-56.25 371.75,-56.25 371.75,-37 504.75,-37 504.75,-56.25"/>
<text text-anchor="middle" x="438.25" y="-42.75" font-family="Helvetica,sans-Serif" font-size="10.00">modbusParseRequest1516</text>
</a>
</g>
</g>
<!-- Node1&#45;&gt;Node17 -->
<g id="edge16_Node000001_Node000017" class="edge">
<title>Node1&#45;&gt;Node17</title>
<g id="a_edge16_Node000001_Node000017"><a xlink:title=" ">
<path fill="none" stroke="#63b8ff" d="M589.86,-120.5C572.47,-103.57 544.29,-78.82 515.25,-64.62 508.79,-61.47 501.75,-58.85 494.65,-56.68"/>
<polygon fill="#63b8ff" stroke="#63b8ff" points="587.3,-122.89 596.84,-127.48 592.24,-117.94 587.3,-122.89"/>
</a>
</g>
</g>
<!-- Node18 -->
<g id="Node000018" class="node">
<title>Node18</title>
<g id="a_Node000018"><a xlink:href="slave__func_8impl_8h.html#a814f041d9acfa578998b8ce8fe53815c" target="_top" xlink:title="Handles request 22 (Mask Write Register) and generates response.">
<polygon fill="white" stroke="#666666" points="499.5,-19.25 377,-19.25 377,0 499.5,0 499.5,-19.25"/>
<text text-anchor="middle" x="438.25" y="-5.75" font-family="Helvetica,sans-Serif" font-size="10.00">modbusParseRequest22</text>
</a>
</g>
</g>
<!-- Node1&#45;&gt;Node18 -->
<g id="edge17_Node000001_Node000018" class="edge">
<title>Node1&#45;&gt;Node18</title>
<g id="a_edge17_Node000001_Node000018"><a xlink:title=" ">
<path fill="none" stroke="#63b8ff" d="M596.53,-118.92C581.6,-93.73 552.32,-50.63 515.25,-27.62 510.18,-24.48 504.61,-21.88 498.86,-19.74"/>
<polygon fill="#63b8ff" stroke="#63b8ff" points="593.43,-120.55 601.44,-127.49 599.5,-117.07 593.43,-120.55"/>
</a>
</g>
</g>
<!-- Node3 -->
<g id="Node000003" class="node">
<title>Node3</title>
<g id="a_Node000003"><a xlink:href="classllm_1_1Slave.html#ac915e0947f733a784a9069f5ff5b9737" target="_top" xlink:title=" ">
<polygon fill="white" stroke="#666666" points="325.25,-278.25 179.5,-278.25 179.5,-259 325.25,-259 325.25,-278.25"/>
<text text-anchor="middle" x="252.38" y="-264.75" font-family="Helvetica,sans-Serif" font-size="10.00">llm::Slave::buildExceptionPDU</text>
</a>
</g>
</g>
<!-- Node2&#45;&gt;Node3 -->
<g id="edge2_Node000002_Node000003" class="edge">
<title>Node2&#45;&gt;Node3</title>
<g id="a_edge2_Node000002_Node000003"><a xlink:title=" ">
<path fill="none" stroke="#63b8ff" d="M358.92,-268.62C347.83,-268.62 336.47,-268.62 325.5,-268.62"/>
<polygon fill="#63b8ff" stroke="#63b8ff" points="358.83,-272.13 368.83,-268.63 358.83,-265.13 358.83,-272.13"/>
</a>
</g>
</g>
<!-- Node5 -->
<g id="Node000005" class="node">
<title>Node5</title>
<g id="a_Node000005"><a xlink:href="classllm_1_1Slave.html#a10e79600053c725e639225264d966e63" target="_top" xlink:title=" ">
<polygon fill="white" stroke="#666666" points="324.88,-241.25 179.88,-241.25 179.88,-222 324.88,-222 324.88,-241.25"/>
<text text-anchor="middle" x="252.38" y="-227.75" font-family="Helvetica,sans-Serif" font-size="10.00">llm::Slave::buildExceptionRTU</text>
</a>
</g>
</g>
<!-- Node4&#45;&gt;Node5 -->
<g id="edge4_Node000004_Node000005" class="edge">
<title>Node4&#45;&gt;Node5</title>
<g id="a_edge4_Node000004_Node000005"><a xlink:title=" ">
<path fill="none" stroke="#63b8ff" d="M359.36,-231.62C347.98,-231.62 336.31,-231.62 325.07,-231.62"/>
<polygon fill="#63b8ff" stroke="#63b8ff" points="359.09,-235.13 369.09,-231.63 359.09,-228.13 359.09,-235.13"/>
</a>
</g>
</g>
<!-- Node7 -->
<g id="Node000007" class="node">
<title>Node7</title>
<g id="a_Node000007"><a xlink:href="classllm_1_1Slave.html#a844c37870a4e98bffc091ddfafb8f959" target="_top" xlink:title=" ">
<polygon fill="white" stroke="#666666" points="324.5,-204.25 180.25,-204.25 180.25,-185 324.5,-185 324.5,-204.25"/>
<text text-anchor="middle" x="252.38" y="-190.75" font-family="Helvetica,sans-Serif" font-size="10.00">llm::Slave::buildExceptionTCP</text>
</a>
</g>
</g>
<!-- Node6&#45;&gt;Node7 -->
<g id="edge6_Node000006_Node000007" class="edge">
<title>Node6&#45;&gt;Node7</title>
<g id="a_edge6_Node000006_Node000007"><a xlink:title=" ">
<path fill="none" stroke="#63b8ff" d="M359.69,-194.62C348.13,-194.62 336.25,-194.62 324.82,-194.62"/>
<polygon fill="#63b8ff" stroke="#63b8ff" points="359.61,-198.13 369.61,-194.63 359.61,-191.13 359.61,-198.13"/>
</a>
</g>
</g>
<!-- Node9 -->
<g id="Node000009" class="node">
<title>Node9</title>
<g id="a_Node000009"><a xlink:href="slave_8impl_8h.html#ab5c5f3146a46cf8d221aca22e9c8a052" target="_top" xlink:title="Parses provided PDU and generates PDU for the response frame.">
<polygon fill="white" stroke="#666666" points="318.88,-167.25 185.88,-167.25 185.88,-148 318.88,-148 318.88,-167.25"/>
<text text-anchor="middle" x="252.38" y="-153.75" font-family="Helvetica,sans-Serif" font-size="10.00">modbusParseRequestPDU</text>
</a>
</g>
</g>
<!-- Node8&#45;&gt;Node9 -->
<g id="edge8_Node000008_Node000009" class="edge">
<title>Node8&#45;&gt;Node9</title>
<g id="a_edge8_Node000008_Node000009"><a xlink:title=" ">
<path fill="none" stroke="#63b8ff" d="M370.7,-157.62C353.93,-157.62 335.94,-157.62 319.2,-157.62"/>
<polygon fill="#63b8ff" stroke="#63b8ff" points="370.57,-161.13 380.57,-157.63 370.57,-154.13 370.57,-161.13"/>
</a>
</g>
</g>
<!-- Node11 -->
<g id="Node000011" class="node">
<title>Node11</title>
<g id="a_Node000011"><a xlink:href="slave_8impl_8h.html#a6a1e63faa64b7ca4b91d1ce7988be850" target="_top" xlink:title="Parses provided Modbus RTU request frame and generates a Modbus RTU response.">
<polygon fill="white" stroke="#666666" points="318.5,-130.25 186.25,-130.25 186.25,-111 318.5,-111 318.5,-130.25"/>
<text text-anchor="middle" x="252.38" y="-116.75" font-family="Helvetica,sans-Serif" font-size="10.00">modbusParseRequestRTU</text>
</a>
</g>
</g>
<!-- Node8&#45;&gt;Node11 -->
<g id="edge10_Node000008_Node000011" class="edge">
<title>Node8&#45;&gt;Node11</title>
<g id="a_edge10_Node000008_Node000011"><a xlink:title=" ">
<path fill="none" stroke="#63b8ff" d="M375.76,-145.25C352.29,-140.53 325.85,-135.21 303.56,-130.72"/>
<polygon fill="#63b8ff" stroke="#63b8ff" points="375.03,-148.67 385.52,-147.22 376.41,-141.81 375.03,-148.67"/>
</a>
</g>
</g>
<!-- Node13 -->
<g id="Node000013" class="node">
<title>Node13</title>
<g id="a_Node000013"><a xlink:href="slave_8impl_8h.html#a5ad3fe86aa14f8982d7c459c68cd8b3e" target="_top" xlink:title="Parses provided Modbus TCP request frame and generates a Modbus TCP response.">
<polygon fill="white" stroke="#666666" points="318.12,-93.25 186.62,-93.25 186.62,-74 318.12,-74 318.12,-93.25"/>
<text text-anchor="middle" x="252.38" y="-79.75" font-family="Helvetica,sans-Serif" font-size="10.00">modbusParseRequestTCP</text>
</a>
</g>
</g>
<!-- Node8&#45;&gt;Node13 -->
<g id="edge12_Node000008_Node000013" class="edge">
<title>Node8&#45;&gt;Node13</title>
<g id="a_edge12_Node000008_Node000013"><a xlink:title=" ">
<path fill="none" stroke="#63b8ff" d="M371.22,-144.57C367.77,-143.09 364.42,-141.45 361.25,-139.62 341.09,-128.02 345.34,-113.36 325.25,-101.62 319.81,-98.44 313.82,-95.82 307.68,-93.66"/>
<polygon fill="#63b8ff" stroke="#63b8ff" points="369.81,-147.78 380.4,-147.99 372.25,-141.22 369.81,-147.78"/>
</a>
</g>
</g>
<!-- Node10 -->
<g id="Node000010" class="node">
<title>Node10</title>
<g id="a_Node000010"><a xlink:href="classllm_1_1Slave.html#af8cc9d8d58bf7f632f3f3cf7e6b9c84b" target="_top" xlink:title=" ">
<polygon fill="white" stroke="#666666" points="143.5,-167.25 0,-167.25 0,-148 143.5,-148 143.5,-167.25"/>
<text text-anchor="middle" x="71.75" y="-153.75" font-family="Helvetica,sans-Serif" font-size="10.00">llm::Slave::parseRequestPDU</text>
</a>
</g>
</g>
<!-- Node9&#45;&gt;Node10 -->
<g id="edge9_Node000009_Node000010" class="edge">
<title>Node9&#45;&gt;Node10</title>
<g id="a_edge9_Node000009_Node000010"><a xlink:title=" ">
<path fill="none" stroke="#63b8ff" d="M174.29,-157.62C164.16,-157.62 153.8,-157.62 143.77,-157.62"/>
<polygon fill="#63b8ff" stroke="#63b8ff" points="174.11,-161.13 184.11,-157.63 174.11,-154.13 174.11,-161.13"/>
</a>
</g>
</g>
<!-- Node12 -->
<g id="Node000012" class="node">
<title>Node12</title>
<g id="a_Node000012"><a xlink:href="classllm_1_1Slave.html#a001591b9a38b69cf29adc853872a09fe" target="_top" xlink:title=" ">
<polygon fill="white" stroke="#666666" points="143.12,-130.25 0.38,-130.25 0.38,-111 143.12,-111 143.12,-130.25"/>
<text text-anchor="middle" x="71.75" y="-116.75" font-family="Helvetica,sans-Serif" font-size="10.00">llm::Slave::parseRequestRTU</text>
</a>
</g>
</g>
<!-- Node11&#45;&gt;Node12 -->
<g id="edge11_Node000011_Node000012" class="edge">
<title>Node11&#45;&gt;Node12</title>
<g id="a_edge11_Node000011_Node000012"><a xlink:title=" ">
<path fill="none" stroke="#63b8ff" d="M174.37,-120.62C164.07,-120.62 153.54,-120.62 143.35,-120.62"/>
<polygon fill="#63b8ff" stroke="#63b8ff" points="174.36,-124.13 184.36,-120.63 174.36,-117.13 174.36,-124.13"/>
</a>
</g>
</g>
<!-- Node14 -->
<g id="Node000014" class="node">
<title>Node14</title>
<g id="a_Node000014"><a xlink:href="classllm_1_1Slave.html#a05169339916c3727c780c75157b399b9" target="_top" xlink:title=" ">
<polygon fill="white" stroke="#666666" points="142.75,-93.25 0.75,-93.25 0.75,-74 142.75,-74 142.75,-93.25"/>
<text text-anchor="middle" x="71.75" y="-79.75" font-family="Helvetica,sans-Serif" font-size="10.00">llm::Slave::parseRequestTCP</text>
</a>
</g>
</g>
<!-- Node13&#45;&gt;Node14 -->
<g id="edge13_Node000013_Node000014" class="edge">
<title>Node13&#45;&gt;Node14</title>
<g id="a_edge13_Node000013_Node000014"><a xlink:title=" ">
<path fill="none" stroke="#63b8ff" d="M174.86,-83.62C164.36,-83.62 153.62,-83.62 143.24,-83.62"/>
<polygon fill="#63b8ff" stroke="#63b8ff" points="174.62,-87.13 184.62,-83.63 174.62,-80.13 174.62,-87.13"/>
</a>
</g>
</g>
</g>
</svg>
