<?xml version="1.0" encoding="UTF-8" standalone="no"?>
<!DOCTYPE svg PUBLIC "-//W3C//DTD SVG 1.1//EN"
 "http://www.w3.org/Graphics/SVG/1.1/DTD/svg11.dtd">
<!-- Generated by graphviz version 9.0.0 (20230911.1827)
 -->
<!-- Title: modbusParseRequest Pages: 1 -->
<svg width="639pt" height="64pt"
 viewBox="0.00 0.00 639.00 64.25" xmlns="http://www.w3.org/2000/svg" xmlns:xlink="http://www.w3.org/1999/xlink">
<g id="graph0" class="graph" transform="scale(1 1) rotate(0) translate(4 60.25)">
<title>modbusParseRequest</title>
<!-- Node1 -->
<g id="Node000001" class="node">
<title>Node1</title>
<g id="a_Node000001"><a xlink:title="Parses provided PDU and generates response honorinng pduOffset and padding set in ModbusSlave during ...">
<polygon fill="#999999" stroke="#666666" points="112,-37.25 0,-37.25 0,-18 112,-18 112,-37.25"/>
<text text-anchor="middle" x="56" y="-23.75" font-family="Helvetica,sans-Serif" font-size="10.00">modbusParseRequest</text>
</a>
</g>
</g>
<!-- Node2 -->
<g id="Node000002" class="node">
<title>Node2</title>
<g id="a_Node000002"><a xlink:href="slave_8impl_8h.html#a58243ce1e1adaffd0a3260edc2d03603" target="_top" xlink:title="Builds an exception response frame.">
<polygon fill="white" stroke="#666666" points="262.25,-37.25 148,-37.25 148,-18 262.25,-18 262.25,-37.25"/>
<text text-anchor="middle" x="205.12" y="-23.75" font-family="Helvetica,sans-Serif" font-size="10.00">modbusBuildException</text>
</a>
</g>
</g>
<!-- Node1&#45;&gt;Node2 -->
<g id="edge1_Node000001_Node000002" class="edge">
<title>Node1&#45;&gt;Node2</title>
<g id="a_edge1_Node000001_Node000002"><a xlink:title=" ">
<path fill="none" stroke="#63b8ff" d="M112.2,-27.62C120.07,-27.62 128.24,-27.62 136.32,-27.62"/>
<polygon fill="#63b8ff" stroke="#63b8ff" points="136.12,-31.13 146.12,-27.63 136.12,-24.13 136.12,-31.13"/>
</a>
</g>
</g>
<!-- Node3 -->
<g id="Node000003" class="node">
<title>Node3</title>
<g id="a_Node000003"><a xlink:href="slave_8h.html#ad1165bb6d12af1db502a05df5da55aed" target="_top" xlink:title="Allocates memory for slave&#39;s response frame.">
<polygon fill="white" stroke="#666666" points="452.25,-37.25 298.25,-37.25 298.25,-18 452.25,-18 452.25,-37.25"/>
<text text-anchor="middle" x="375.25" y="-23.75" font-family="Helvetica,sans-Serif" font-size="10.00">modbusSlaveAllocateResponse</text>
</a>
</g>
</g>
<!-- Node2&#45;&gt;Node3 -->
<g id="edge2_Node000002_Node000003" class="edge">
<title>Node2&#45;&gt;Node3</title>
<g id="a_edge2_Node000002_Node000003"><a xlink:title=" ">
<path fill="none" stroke="#63b8ff" d="M262.58,-27.62C270.29,-27.62 278.36,-27.62 286.47,-27.62"/>
<polygon fill="#63b8ff" stroke="#63b8ff" points="286.42,-31.13 296.42,-27.63 286.42,-24.13 286.42,-31.13"/>
</a>
</g>
</g>
<!-- Node4 -->
<g id="Node000004" class="node">
<title>Node4</title>
<g id="a_Node000004"><a xlink:href="base_8impl_8h.html#a54f7d1db7f58ffd329b1955ad1a66f37" target="_top" xlink:title="Allocates memory to hold Modbus ADU.">
<polygon fill="white" stroke="#666666" points="625.75,-56.25 493.5,-56.25 493.5,-37 625.75,-37 625.75,-56.25"/>
<text text-anchor="middle" x="559.62" y="-42.75" font-family="Helvetica,sans-Serif" font-size="10.00">modbusBufferAllocateADU</text>
</a>
</g>
</g>
<!-- Node3&#45;&gt;Node4 -->
<g id="edge3_Node000003_Node000004" class="edge">
<title>Node3&#45;&gt;Node4</title>
<g id="a_edge3_Node000003_Node000004"><a xlink:title=" ">
<path fill="none" stroke="#63b8ff" d="M452.54,-35.57C462.22,-36.58 472.13,-37.61 481.82,-38.62"/>
<polygon fill="#63b8ff" stroke="#63b8ff" points="481.25,-42.08 491.56,-39.64 481.98,-35.12 481.25,-42.08"/>
</a>
</g>
</g>
<!-- Node5 -->
<g id="Node000005" class="node">
<title>Node5</title>
<g id="a_Node000005"><a xlink:href="slave_8h.html#a6517cff5567f0f07444d140edc7dfafd" target="_top" xlink:title="Retreieves the custom context pointer.">
<polygon fill="white" stroke="#666666" points="631,-19.25 488.25,-19.25 488.25,0 631,0 631,-19.25"/>
<text text-anchor="middle" x="559.62" y="-5.75" font-family="Helvetica,sans-Serif" font-size="10.00">modbusSlaveGetUserPointer</text>
</a>
</g>
</g>
<!-- Node3&#45;&gt;Node5 -->
<g id="edge4_Node000003_Node000005" class="edge">
<title>Node3&#45;&gt;Node5</title>
<g id="a_edge4_Node000003_Node000005"><a xlink:title=" ">
<path fill="none" stroke="#63b8ff" d="M452.54,-20.1C460.5,-19.31 468.61,-18.51 476.64,-17.72"/>
<polygon fill="#63b8ff" stroke="#63b8ff" points="476.77,-21.22 486.38,-16.76 476.08,-14.25 476.77,-21.22"/>
</a>
</g>
</g>
</g>
</svg>
