<?xml version="1.0" encoding="UTF-8" standalone="no"?>
<!DOCTYPE svg PUBLIC "-//W3C//DTD SVG 1.1//EN"
 "http://www.w3.org/Graphics/SVG/1.1/DTD/svg11.dtd">
<!-- Generated by graphviz version 9.0.0 (20230911.1827)
 -->
<!-- Title: modbusParseRequestTCP Pages: 1 -->
<svg width="817pt" height="175pt"
 viewBox="0.00 0.00 817.00 175.25" xmlns="http://www.w3.org/2000/svg" xmlns:xlink="http://www.w3.org/1999/xlink">
<g id="graph0" class="graph" transform="scale(1 1) rotate(0) translate(4 171.25)">
<title>modbusParseRequestTCP</title>
<!-- Node1 -->
<g id="Node000001" class="node">
<title>Node1</title>
<g id="a_Node000001"><a xlink:title="Parses provided Modbus TCP request frame and generates a Modbus TCP response.">
<polygon fill="#999999" stroke="#666666" points="131.5,-93.25 0,-93.25 0,-74 131.5,-74 131.5,-93.25"/>
<text text-anchor="middle" x="65.75" y="-79.75" font-family="Helvetica,sans-Serif" font-size="10.00">modbusParseRequestTCP</text>
</a>
</g>
</g>
<!-- Node2 -->
<g id="Node000002" class="node">
<title>Node2</title>
<g id="a_Node000002"><a xlink:href="base_8h.html#ae82c3ced0b1698622b222761851d02c0" target="_top" xlink:title="Prepares buffer to store a Modbus TCP message.">
<polygon fill="white" stroke="#666666" points="287,-167.25 167.5,-167.25 167.5,-148 287,-148 287,-167.25"/>
<text text-anchor="middle" x="227.25" y="-153.75" font-family="Helvetica,sans-Serif" font-size="10.00">modbusBufferModeTCP</text>
</a>
</g>
</g>
<!-- Node1&#45;&gt;Node2 -->
<g id="edge1_Node000001_Node000002" class="edge">
<title>Node1&#45;&gt;Node2</title>
<g id="a_edge1_Node000001_Node000002"><a xlink:title=" ">
<path fill="none" stroke="#63b8ff" d="M82.28,-93.62C101.64,-105.74 136.01,-126.23 167.5,-139.62 171.04,-141.13 174.75,-142.57 178.52,-143.93"/>
<polygon fill="#63b8ff" stroke="#63b8ff" points="177.13,-147.16 187.72,-147.07 179.39,-140.53 177.13,-147.16"/>
</a>
</g>
</g>
<!-- Node3 -->
<g id="Node000003" class="node">
<title>Node3</title>
<g id="a_Node000003"><a xlink:href="base_8h.html#a64880e7075f445881485396f3aa869c5" target="_top" xlink:title="Checks if ModbusErrorInfo contains an error.">
<polygon fill="white" stroke="#666666" points="263,-130.25 191.5,-130.25 191.5,-111 263,-111 263,-130.25"/>
<text text-anchor="middle" x="227.25" y="-116.75" font-family="Helvetica,sans-Serif" font-size="10.00">modbusIsOk</text>
</a>
</g>
</g>
<!-- Node1&#45;&gt;Node3 -->
<g id="edge2_Node000001_Node000003" class="edge">
<title>Node1&#45;&gt;Node3</title>
<g id="a_edge2_Node000001_Node000003"><a xlink:title=" ">
<path fill="none" stroke="#63b8ff" d="M110.33,-93.74C131.93,-98.75 158.02,-104.8 179.98,-109.89"/>
<polygon fill="#63b8ff" stroke="#63b8ff" points="179.03,-113.26 189.56,-112.11 180.61,-106.45 179.03,-113.26"/>
</a>
</g>
</g>
<!-- Node6 -->
<g id="Node000006" class="node">
<title>Node6</title>
<g id="a_Node000006"><a xlink:href="base_8h.html#a39dcd3aad118a779b7e1775fea3e5d77" target="_top" xlink:title="Sets up the MBAP header in a Modbus TCP frame.">
<polygon fill="white" stroke="#666666" points="273.5,-93.25 181,-93.25 181,-74 273.5,-74 273.5,-93.25"/>
<text text-anchor="middle" x="227.25" y="-79.75" font-family="Helvetica,sans-Serif" font-size="10.00">modbusPackTCP</text>
</a>
</g>
</g>
<!-- Node1&#45;&gt;Node6 -->
<g id="edge5_Node000001_Node000006" class="edge">
<title>Node1&#45;&gt;Node6</title>
<g id="a_edge5_Node000001_Node000006"><a xlink:title=" ">
<path fill="none" stroke="#63b8ff" d="M131.62,-83.62C144.17,-83.62 157.23,-83.62 169.5,-83.62"/>
<polygon fill="#63b8ff" stroke="#63b8ff" points="169.46,-87.13 179.46,-83.63 169.46,-80.13 169.46,-87.13"/>
</a>
</g>
</g>
<!-- Node8 -->
<g id="Node000008" class="node">
<title>Node8</title>
<g id="a_Node000008"><a xlink:href="slave_8impl_8h.html#aff0a9164a0e37aa619232ae86e3ff97a" target="_top" xlink:title="Parses provided PDU and generates response honorinng pduOffset and padding set in ModbusSlave during ...">
<polygon fill="white" stroke="#666666" points="283.25,-56.25 171.25,-56.25 171.25,-37 283.25,-37 283.25,-56.25"/>
<text text-anchor="middle" x="227.25" y="-42.75" font-family="Helvetica,sans-Serif" font-size="10.00">modbusParseRequest</text>
</a>
</g>
</g>
<!-- Node1&#45;&gt;Node8 -->
<g id="edge7_Node000001_Node000008" class="edge">
<title>Node1&#45;&gt;Node8</title>
<g id="a_edge7_Node000001_Node000008"><a xlink:title=" ">
<path fill="none" stroke="#63b8ff" d="M110.33,-73.51C129.24,-69.13 151.58,-63.95 171.57,-59.31"/>
<polygon fill="#63b8ff" stroke="#63b8ff" points="172.29,-62.73 181.24,-57.07 170.71,-55.92 172.29,-62.73"/>
</a>
</g>
</g>
<!-- Node13 -->
<g id="Node000013" class="node">
<title>Node13</title>
<g id="a_Node000013"><a xlink:href="base_8h.html#a616e5bdb5ebcd57b1604421f6ca22bc9" target="_top" xlink:title="Unpacks data from a Modbus TCP frame.">
<polygon fill="white" stroke="#666666" points="279.12,-19.25 175.38,-19.25 175.38,0 279.12,0 279.12,-19.25"/>
<text text-anchor="middle" x="227.25" y="-5.75" font-family="Helvetica,sans-Serif" font-size="10.00">modbusUnpackTCP</text>
</a>
</g>
</g>
<!-- Node1&#45;&gt;Node13 -->
<g id="edge12_Node000001_Node000013" class="edge">
<title>Node1&#45;&gt;Node13</title>
<g id="a_edge12_Node000001_Node000013"><a xlink:title=" ">
<path fill="none" stroke="#63b8ff" d="M82.28,-73.63C101.64,-61.51 136.01,-41.02 167.5,-27.62 171.04,-26.12 174.75,-24.68 178.52,-23.32"/>
<polygon fill="#63b8ff" stroke="#63b8ff" points="179.39,-26.72 187.72,-20.18 177.13,-20.09 179.39,-26.72"/>
</a>
</g>
</g>
<!-- Node4 -->
<g id="Node000004" class="node">
<title>Node4</title>
<g id="a_Node000004"><a xlink:href="base_8h.html#a29d2a7853b328113e4fcddae85fd3ce5" target="_top" xlink:title="Returns ModbusError contained in ModbusErrorInfo.">
<polygon fill="white" stroke="#666666" points="436.12,-167.25 327.12,-167.25 327.12,-148 436.12,-148 436.12,-167.25"/>
<text text-anchor="middle" x="381.62" y="-153.75" font-family="Helvetica,sans-Serif" font-size="10.00">modbusGetErrorCode</text>
</a>
</g>
</g>
<!-- Node3&#45;&gt;Node4 -->
<g id="edge3_Node000003_Node000004" class="edge">
<title>Node3&#45;&gt;Node4</title>
<g id="a_edge3_Node000003_Node000004"><a xlink:title=" ">
<path fill="none" stroke="#63b8ff" d="M263.21,-129.11C282.44,-133.78 306.68,-139.67 328.14,-144.88"/>
<polygon fill="#63b8ff" stroke="#63b8ff" points="327.05,-148.22 337.59,-147.18 328.7,-141.42 327.05,-148.22"/>
</a>
</g>
</g>
<!-- Node5 -->
<g id="Node000005" class="node">
<title>Node5</title>
<g id="a_Node000005"><a xlink:href="base_8h.html#a9ee4c2e633c7a42f88acc09b95f8171e" target="_top" xlink:title="Returns uint8_t describing error source of ModbusErrorInfo.">
<polygon fill="white" stroke="#666666" points="440.25,-130.25 323,-130.25 323,-111 440.25,-111 440.25,-130.25"/>
<text text-anchor="middle" x="381.62" y="-116.75" font-family="Helvetica,sans-Serif" font-size="10.00">modbusGetErrorSource</text>
</a>
</g>
</g>
<!-- Node3&#45;&gt;Node5 -->
<g id="edge4_Node000003_Node000005" class="edge">
<title>Node3&#45;&gt;Node5</title>
<g id="a_edge4_Node000003_Node000005"><a xlink:title=" ">
<path fill="none" stroke="#63b8ff" d="M263.21,-120.62C277.49,-120.62 294.53,-120.62 311.14,-120.62"/>
<polygon fill="#63b8ff" stroke="#63b8ff" points="311.02,-124.13 321.02,-120.63 311.02,-117.13 311.02,-124.13"/>
</a>
</g>
</g>
<!-- Node7 -->
<g id="Node000007" class="node">
<title>Node7</title>
<g id="a_Node000007"><a xlink:href="base_8h.html#a73b9f793bbe67a1968cc8c53a22d4c4b" target="_top" xlink:title="Safely writes a big&#45;endian 16&#45;bit word to provided pointer.">
<polygon fill="white" stroke="#666666" points="417.75,-93.25 345.5,-93.25 345.5,-74 417.75,-74 417.75,-93.25"/>
<text text-anchor="middle" x="381.62" y="-79.75" font-family="Helvetica,sans-Serif" font-size="10.00">modbusWBE</text>
</a>
</g>
</g>
<!-- Node6&#45;&gt;Node7 -->
<g id="edge6_Node000006_Node000007" class="edge">
<title>Node6&#45;&gt;Node7</title>
<g id="a_edge6_Node000006_Node000007"><a xlink:title=" ">
<path fill="none" stroke="#63b8ff" d="M273.97,-83.62C292.84,-83.62 314.7,-83.62 333.7,-83.62"/>
<polygon fill="#63b8ff" stroke="#63b8ff" points="333.6,-87.13 343.6,-83.63 333.6,-80.13 333.6,-87.13"/>
</a>
</g>
</g>
<!-- Node9 -->
<g id="Node000009" class="node">
<title>Node9</title>
<g id="a_Node000009"><a xlink:href="slave_8impl_8h.html#a58243ce1e1adaffd0a3260edc2d03603" target="_top" xlink:title="Builds an exception response frame.">
<polygon fill="white" stroke="#666666" points="438.75,-56.25 324.5,-56.25 324.5,-37 438.75,-37 438.75,-56.25"/>
<text text-anchor="middle" x="381.62" y="-42.75" font-family="Helvetica,sans-Serif" font-size="10.00">modbusBuildException</text>
</a>
</g>
</g>
<!-- Node8&#45;&gt;Node9 -->
<g id="edge8_Node000008_Node000009" class="edge">
<title>Node8&#45;&gt;Node9</title>
<g id="a_edge8_Node000008_Node000009"><a xlink:title=" ">
<path fill="none" stroke="#63b8ff" d="M283.69,-46.62C293.17,-46.62 303.12,-46.62 312.87,-46.62"/>
<polygon fill="#63b8ff" stroke="#63b8ff" points="312.69,-50.13 322.69,-46.63 312.69,-43.13 312.69,-50.13"/>
</a>
</g>
</g>
<!-- Node10 -->
<g id="Node000010" class="node">
<title>Node10</title>
<g id="a_Node000010"><a xlink:href="slave_8h.html#ad1165bb6d12af1db502a05df5da55aed" target="_top" xlink:title="Allocates memory for slave&#39;s response frame.">
<polygon fill="white" stroke="#666666" points="630.25,-56.25 476.25,-56.25 476.25,-37 630.25,-37 630.25,-56.25"/>
<text text-anchor="middle" x="553.25" y="-42.75" font-family="Helvetica,sans-Serif" font-size="10.00">modbusSlaveAllocateResponse</text>
</a>
</g>
</g>
<!-- Node9&#45;&gt;Node10 -->
<g id="edge9_Node000009_Node000010" class="edge">
<title>Node9&#45;&gt;Node10</title>
<g id="a_edge9_Node000009_Node000010"><a xlink:title=" ">
<path fill="none" stroke="#63b8ff" d="M439.11,-46.62C447.28,-46.62 455.86,-46.62 464.47,-46.62"/>
<polygon fill="#63b8ff" stroke="#63b8ff" points="464.27,-50.13 474.27,-46.63 464.27,-43.13 464.27,-50.13"/>
</a>
</g>
</g>
<!-- Node11 -->
<g id="Node000011" class="node">
<title>Node11</title>
<g id="a_Node000011"><a xlink:href="base_8impl_8h.html#a54f7d1db7f58ffd329b1955ad1a66f37" target="_top" xlink:title="Allocates memory to hold Modbus ADU.">
<polygon fill="white" stroke="#666666" points="803.75,-75.25 671.5,-75.25 671.5,-56 803.75,-56 803.75,-75.25"/>
<text text-anchor="middle" x="737.62" y="-61.75" font-family="Helvetica,sans-Serif" font-size="10.00">modbusBufferAllocateADU</text>
</a>
</g>
</g>
<!-- Node10&#45;&gt;Node11 -->
<g id="edge10_Node000010_Node000011" class="edge">
<title>Node10&#45;&gt;Node11</title>
<g id="a_edge10_Node000010_Node000011"><a xlink:title=" ">
<path fill="none" stroke="#63b8ff" d="M630.54,-54.57C640.22,-55.58 650.13,-56.61 659.82,-57.62"/>
<polygon fill="#63b8ff" stroke="#63b8ff" points="659.25,-61.08 669.56,-58.64 659.98,-54.12 659.25,-61.08"/>
</a>
</g>
</g>
<!-- Node12 -->
<g id="Node000012" class="node">
<title>Node12</title>
<g id="a_Node000012"><a xlink:href="slave_8h.html#a6517cff5567f0f07444d140edc7dfafd" target="_top" xlink:title="Retreieves the custom context pointer.">
<polygon fill="white" stroke="#666666" points="809,-38.25 666.25,-38.25 666.25,-19 809,-19 809,-38.25"/>
<text text-anchor="middle" x="737.62" y="-24.75" font-family="Helvetica,sans-Serif" font-size="10.00">modbusSlaveGetUserPointer</text>
</a>
</g>
</g>
<!-- Node10&#45;&gt;Node12 -->
<g id="edge11_Node000010_Node000012" class="edge">
<title>Node10&#45;&gt;Node12</title>
<g id="a_edge11_Node000010_Node000012"><a xlink:title=" ">
<path fill="none" stroke="#63b8ff" d="M630.54,-39.1C638.5,-38.31 646.61,-37.51 654.64,-36.72"/>
<polygon fill="#63b8ff" stroke="#63b8ff" points="654.77,-40.22 664.38,-35.76 654.08,-33.25 654.77,-40.22"/>
</a>
</g>
</g>
<!-- Node14 -->
<g id="Node000014" class="node">
<title>Node14</title>
<g id="a_Node000014"><a xlink:href="base_8h.html#ace96da9afdf1e1796a6e2d7ac1f6c81a" target="_top" xlink:title="Safely reads a big&#45;endian 16&#45;bit word from provided pointer.">
<polygon fill="white" stroke="#666666" points="416.62,-19.25 346.62,-19.25 346.62,0 416.62,0 416.62,-19.25"/>
<text text-anchor="middle" x="381.62" y="-5.75" font-family="Helvetica,sans-Serif" font-size="10.00">modbusRBE</text>
</a>
</g>
</g>
<!-- Node13&#45;&gt;Node14 -->
<g id="edge13_Node000013_Node000014" class="edge">
<title>Node13&#45;&gt;Node14</title>
<g id="a_edge13_Node000013_Node000014"><a xlink:title=" ">
<path fill="none" stroke="#63b8ff" d="M279.41,-9.62C297.43,-9.62 317.54,-9.62 335.06,-9.62"/>
<polygon fill="#63b8ff" stroke="#63b8ff" points="334.64,-13.13 344.64,-9.63 334.64,-6.13 334.64,-13.13"/>
</a>
</g>
</g>
</g>
</svg>
