<?xml version="1.0" encoding="UTF-8" standalone="no"?>
<!DOCTYPE svg PUBLIC "-//W3C//DTD SVG 1.1//EN"
 "http://www.w3.org/Graphics/SVG/1.1/DTD/svg11.dtd">
<!-- Generated by graphviz version 9.0.0 (20230911.1827)
 -->
<!-- Title: modbusParseRequestPDU Pages: 1 -->
<svg width="817pt" height="82pt"
 viewBox="0.00 0.00 817.00 82.25" xmlns="http://www.w3.org/2000/svg" xmlns:xlink="http://www.w3.org/1999/xlink">
<g id="graph0" class="graph" transform="scale(1 1) rotate(0) translate(4 78.25)">
<title>modbusParseRequestPDU</title>
<!-- Node1 -->
<g id="Node000001" class="node">
<title>Node1</title>
<g id="a_Node000001"><a xlink:title="Parses provided PDU and generates PDU for the response frame.">
<polygon fill="#999999" stroke="#666666" points="133,-55.25 0,-55.25 0,-36 133,-36 133,-55.25"/>
<text text-anchor="middle" x="66.5" y="-41.75" font-family="Helvetica,sans-Serif" font-size="10.00">modbusParseRequestPDU</text>
</a>
</g>
</g>
<!-- Node2 -->
<g id="Node000002" class="node">
<title>Node2</title>
<g id="a_Node000002"><a xlink:href="base_8h.html#a6574e0a670ec60b09a3f2e8bbd6ad827" target="_top" xlink:title="Prepares buffer to only store a Modbus PDU.">
<polygon fill="white" stroke="#666666" points="290,-74.25 169,-74.25 169,-55 290,-55 290,-74.25"/>
<text text-anchor="middle" x="229.5" y="-60.75" font-family="Helvetica,sans-Serif" font-size="10.00">modbusBufferModePDU</text>
</a>
</g>
</g>
<!-- Node1&#45;&gt;Node2 -->
<g id="edge1_Node000001_Node000002" class="edge">
<title>Node1&#45;&gt;Node2</title>
<g id="a_edge1_Node000001_Node000002"><a xlink:title=" ">
<path fill="none" stroke="#63b8ff" d="M133.45,-53.41C141.36,-54.34 149.46,-55.3 157.44,-56.24"/>
<polygon fill="#63b8ff" stroke="#63b8ff" points="156.76,-59.68 167.1,-57.38 157.58,-52.73 156.76,-59.68"/>
</a>
</g>
</g>
<!-- Node3 -->
<g id="Node000003" class="node">
<title>Node3</title>
<g id="a_Node000003"><a xlink:href="slave_8impl_8h.html#aff0a9164a0e37aa619232ae86e3ff97a" target="_top" xlink:title="Parses provided PDU and generates response honorinng pduOffset and padding set in ModbusSlave during ...">
<polygon fill="white" stroke="#666666" points="285.5,-37.25 173.5,-37.25 173.5,-18 285.5,-18 285.5,-37.25"/>
<text text-anchor="middle" x="229.5" y="-23.75" font-family="Helvetica,sans-Serif" font-size="10.00">modbusParseRequest</text>
</a>
</g>
</g>
<!-- Node1&#45;&gt;Node3 -->
<g id="edge2_Node000001_Node000003" class="edge">
<title>Node1&#45;&gt;Node3</title>
<g id="a_edge2_Node000001_Node000003"><a xlink:title=" ">
<path fill="none" stroke="#63b8ff" d="M133.45,-38.25C142.83,-37.2 152.49,-36.12 161.89,-35.07"/>
<polygon fill="#63b8ff" stroke="#63b8ff" points="162.13,-38.57 171.68,-33.98 161.35,-31.61 162.13,-38.57"/>
</a>
</g>
</g>
<!-- Node4 -->
<g id="Node000004" class="node">
<title>Node4</title>
<g id="a_Node000004"><a xlink:href="slave_8impl_8h.html#a58243ce1e1adaffd0a3260edc2d03603" target="_top" xlink:title="Builds an exception response frame.">
<polygon fill="white" stroke="#666666" points="440.25,-37.25 326,-37.25 326,-18 440.25,-18 440.25,-37.25"/>
<text text-anchor="middle" x="383.12" y="-23.75" font-family="Helvetica,sans-Serif" font-size="10.00">modbusBuildException</text>
</a>
</g>
</g>
<!-- Node3&#45;&gt;Node4 -->
<g id="edge3_Node000003_Node000004" class="edge">
<title>Node3&#45;&gt;Node4</title>
<g id="a_edge3_Node000003_Node000004"><a xlink:title=" ">
<path fill="none" stroke="#63b8ff" d="M285.67,-27.62C295.04,-27.62 304.87,-27.62 314.52,-27.62"/>
<polygon fill="#63b8ff" stroke="#63b8ff" points="314.21,-31.13 324.21,-27.63 314.21,-24.13 314.21,-31.13"/>
</a>
</g>
</g>
<!-- Node5 -->
<g id="Node000005" class="node">
<title>Node5</title>
<g id="a_Node000005"><a xlink:href="slave_8h.html#ad1165bb6d12af1db502a05df5da55aed" target="_top" xlink:title="Allocates memory for slave&#39;s response frame.">
<polygon fill="white" stroke="#666666" points="630.25,-37.25 476.25,-37.25 476.25,-18 630.25,-18 630.25,-37.25"/>
<text text-anchor="middle" x="553.25" y="-23.75" font-family="Helvetica,sans-Serif" font-size="10.00">modbusSlaveAllocateResponse</text>
</a>
</g>
</g>
<!-- Node4&#45;&gt;Node5 -->
<g id="edge4_Node000004_Node000005" class="edge">
<title>Node4&#45;&gt;Node5</title>
<g id="a_edge4_Node000004_Node000005"><a xlink:title=" ">
<path fill="none" stroke="#63b8ff" d="M440.58,-27.62C448.29,-27.62 456.36,-27.62 464.47,-27.62"/>
<polygon fill="#63b8ff" stroke="#63b8ff" points="464.42,-31.13 474.42,-27.63 464.42,-24.13 464.42,-31.13"/>
</a>
</g>
</g>
<!-- Node6 -->
<g id="Node000006" class="node">
<title>Node6</title>
<g id="a_Node000006"><a xlink:href="base_8impl_8h.html#a54f7d1db7f58ffd329b1955ad1a66f37" target="_top" xlink:title="Allocates memory to hold Modbus ADU.">
<polygon fill="white" stroke="#666666" points="803.75,-56.25 671.5,-56.25 671.5,-37 803.75,-37 803.75,-56.25"/>
<text text-anchor="middle" x="737.62" y="-42.75" font-family="Helvetica,sans-Serif" font-size="10.00">modbusBufferAllocateADU</text>
</a>
</g>
</g>
<!-- Node5&#45;&gt;Node6 -->
<g id="edge5_Node000005_Node000006" class="edge">
<title>Node5&#45;&gt;Node6</title>
<g id="a_edge5_Node000005_Node000006"><a xlink:title=" ">
<path fill="none" stroke="#63b8ff" d="M630.54,-35.57C640.22,-36.58 650.13,-37.61 659.82,-38.62"/>
<polygon fill="#63b8ff" stroke="#63b8ff" points="659.25,-42.08 669.56,-39.64 659.98,-35.12 659.25,-42.08"/>
</a>
</g>
</g>
<!-- Node7 -->
<g id="Node000007" class="node">
<title>Node7</title>
<g id="a_Node000007"><a xlink:href="slave_8h.html#a6517cff5567f0f07444d140edc7dfafd" target="_top" xlink:title="Retreieves the custom context pointer.">
<polygon fill="white" stroke="#666666" points="809,-19.25 666.25,-19.25 666.25,0 809,0 809,-19.25"/>
<text text-anchor="middle" x="737.62" y="-5.75" font-family="Helvetica,sans-Serif" font-size="10.00">modbusSlaveGetUserPointer</text>
</a>
</g>
</g>
<!-- Node5&#45;&gt;Node7 -->
<g id="edge6_Node000005_Node000007" class="edge">
<title>Node5&#45;&gt;Node7</title>
<g id="a_edge6_Node000005_Node000007"><a xlink:title=" ">
<path fill="none" stroke="#63b8ff" d="M630.54,-20.1C638.5,-19.31 646.61,-18.51 654.64,-17.72"/>
<polygon fill="#63b8ff" stroke="#63b8ff" points="654.77,-21.22 664.38,-16.76 654.08,-14.25 654.77,-21.22"/>
</a>
</g>
</g>
</g>
</svg>
