<?xml version="1.0" encoding="UTF-8" standalone="no"?>
<!DOCTYPE svg PUBLIC "-//W3C//DTD SVG 1.1//EN"
 "http://www.w3.org/Graphics/SVG/1.1/DTD/svg11.dtd">
<!-- Generated by graphviz version 9.0.0 (20230911.1827)
 -->
<!-- Title: modbusBuildExceptionRTU Pages: 1 -->
<svg width="662pt" height="193pt"
 viewBox="0.00 0.00 661.50 193.25" xmlns="http://www.w3.org/2000/svg" xmlns:xlink="http://www.w3.org/1999/xlink">
<g id="graph0" class="graph" transform="scale(1 1) rotate(0) translate(4 189.25)">
<title>modbusBuildExceptionRTU</title>
<!-- Node1 -->
<g id="Node000001" class="node">
<title>Node1</title>
<g id="a_Node000001"><a xlink:title="Builds a Modbus RTU exception.">
<polygon fill="#999999" stroke="#666666" points="134.5,-111.25 0,-111.25 0,-92 134.5,-92 134.5,-111.25"/>
<text text-anchor="middle" x="67.25" y="-97.75" font-family="Helvetica,sans-Serif" font-size="10.00">modbusBuildExceptionRTU</text>
</a>
</g>
</g>
<!-- Node2 -->
<g id="Node000002" class="node">
<title>Node2</title>
<g id="a_Node000002"><a xlink:href="slave_8impl_8h.html#a58243ce1e1adaffd0a3260edc2d03603" target="_top" xlink:title="Builds an exception response frame.">
<polygon fill="white" stroke="#666666" points="284.75,-157.25 170.5,-157.25 170.5,-138 284.75,-138 284.75,-157.25"/>
<text text-anchor="middle" x="227.62" y="-143.75" font-family="Helvetica,sans-Serif" font-size="10.00">modbusBuildException</text>
</a>
</g>
</g>
<!-- Node1&#45;&gt;Node2 -->
<g id="edge1_Node000001_Node000002" class="edge">
<title>Node1&#45;&gt;Node2</title>
<g id="a_edge1_Node000001_Node000002"><a xlink:title=" ">
<path fill="none" stroke="#63b8ff" d="M103.01,-111.72C125.91,-118.37 156.13,-127.15 180.97,-134.36"/>
<polygon fill="#63b8ff" stroke="#63b8ff" points="179.92,-137.7 190.5,-137.13 181.87,-130.98 179.92,-137.7"/>
</a>
</g>
</g>
<!-- Node6 -->
<g id="Node000006" class="node">
<title>Node6</title>
<g id="a_Node000006"><a xlink:href="base_8h.html#a64880e7075f445881485396f3aa869c5" target="_top" xlink:title="Checks if ModbusErrorInfo contains an error.">
<polygon fill="white" stroke="#666666" points="263.38,-111.25 191.88,-111.25 191.88,-92 263.38,-92 263.38,-111.25"/>
<text text-anchor="middle" x="227.62" y="-97.75" font-family="Helvetica,sans-Serif" font-size="10.00">modbusIsOk</text>
</a>
</g>
</g>
<!-- Node1&#45;&gt;Node6 -->
<g id="edge5_Node000001_Node000006" class="edge">
<title>Node1&#45;&gt;Node6</title>
<g id="a_edge5_Node000001_Node000006"><a xlink:title=" ">
<path fill="none" stroke="#63b8ff" d="M134.96,-101.62C150.15,-101.62 165.97,-101.62 180.1,-101.62"/>
<polygon fill="#63b8ff" stroke="#63b8ff" points="180.01,-105.13 190.01,-101.63 180.01,-98.13 180.01,-105.13"/>
</a>
</g>
</g>
<!-- Node9 -->
<g id="Node000009" class="node">
<title>Node9</title>
<g id="a_Node000009"><a xlink:href="base_8h.html#af2cafe9debf86bea7042b4c40bb288cd" target="_top" xlink:title="Sets up address and CRC in a Modbus RTU frame.">
<polygon fill="white" stroke="#666666" points="274.25,-56.25 181,-56.25 181,-37 274.25,-37 274.25,-56.25"/>
<text text-anchor="middle" x="227.62" y="-42.75" font-family="Helvetica,sans-Serif" font-size="10.00">modbusPackRTU</text>
</a>
</g>
</g>
<!-- Node1&#45;&gt;Node9 -->
<g id="edge8_Node000001_Node000009" class="edge">
<title>Node1&#45;&gt;Node9</title>
<g id="a_edge8_Node000001_Node000009"><a xlink:title=" ">
<path fill="none" stroke="#63b8ff" d="M97.3,-91.54C122.45,-82.8 159.06,-70.09 186.91,-60.42"/>
<polygon fill="#63b8ff" stroke="#63b8ff" points="187.76,-63.83 196.06,-57.24 185.47,-57.21 187.76,-63.83"/>
</a>
</g>
</g>
<!-- Node3 -->
<g id="Node000003" class="node">
<title>Node3</title>
<g id="a_Node000003"><a xlink:href="slave_8h.html#ad1165bb6d12af1db502a05df5da55aed" target="_top" xlink:title="Allocates memory for slave&#39;s response frame.">
<polygon fill="white" stroke="#666666" points="474.75,-167.25 320.75,-167.25 320.75,-148 474.75,-148 474.75,-167.25"/>
<text text-anchor="middle" x="397.75" y="-153.75" font-family="Helvetica,sans-Serif" font-size="10.00">modbusSlaveAllocateResponse</text>
</a>
</g>
</g>
<!-- Node2&#45;&gt;Node3 -->
<g id="edge2_Node000002_Node000003" class="edge">
<title>Node2&#45;&gt;Node3</title>
<g id="a_edge2_Node000002_Node000003"><a xlink:title=" ">
<path fill="none" stroke="#63b8ff" d="M285.08,-150.98C292.79,-151.44 300.86,-151.92 308.97,-152.4"/>
<polygon fill="#63b8ff" stroke="#63b8ff" points="308.73,-155.9 318.92,-153 309.15,-148.91 308.73,-155.9"/>
</a>
</g>
</g>
<!-- Node4 -->
<g id="Node000004" class="node">
<title>Node4</title>
<g id="a_Node000004"><a xlink:href="base_8impl_8h.html#a54f7d1db7f58ffd329b1955ad1a66f37" target="_top" xlink:title="Allocates memory to hold Modbus ADU.">
<polygon fill="white" stroke="#666666" points="648.25,-185.25 516,-185.25 516,-166 648.25,-166 648.25,-185.25"/>
<text text-anchor="middle" x="582.12" y="-171.75" font-family="Helvetica,sans-Serif" font-size="10.00">modbusBufferAllocateADU</text>
</a>
</g>
</g>
<!-- Node3&#45;&gt;Node4 -->
<g id="edge3_Node000003_Node000004" class="edge">
<title>Node3&#45;&gt;Node4</title>
<g id="a_edge3_Node000003_Node000004"><a xlink:title=" ">
<path fill="none" stroke="#63b8ff" d="M475.04,-165.15C484.72,-166.11 494.63,-167.09 504.32,-168.04"/>
<polygon fill="#63b8ff" stroke="#63b8ff" points="503.76,-171.51 514.06,-169.01 504.45,-164.54 503.76,-171.51"/>
</a>
</g>
</g>
<!-- Node5 -->
<g id="Node000005" class="node">
<title>Node5</title>
<g id="a_Node000005"><a xlink:href="slave_8h.html#a6517cff5567f0f07444d140edc7dfafd" target="_top" xlink:title="Retreieves the custom context pointer.">
<polygon fill="white" stroke="#666666" points="653.5,-148.25 510.75,-148.25 510.75,-129 653.5,-129 653.5,-148.25"/>
<text text-anchor="middle" x="582.12" y="-134.75" font-family="Helvetica,sans-Serif" font-size="10.00">modbusSlaveGetUserPointer</text>
</a>
</g>
</g>
<!-- Node3&#45;&gt;Node5 -->
<g id="edge4_Node000003_Node000005" class="edge">
<title>Node3&#45;&gt;Node5</title>
<g id="a_edge4_Node000003_Node000005"><a xlink:title=" ">
<path fill="none" stroke="#63b8ff" d="M475.04,-149.68C483,-148.85 491.11,-148 499.14,-147.17"/>
<polygon fill="#63b8ff" stroke="#63b8ff" points="499.3,-150.67 508.88,-146.15 498.57,-143.71 499.3,-150.67"/>
</a>
</g>
</g>
<!-- Node7 -->
<g id="Node000007" class="node">
<title>Node7</title>
<g id="a_Node000007"><a xlink:href="base_8h.html#a29d2a7853b328113e4fcddae85fd3ce5" target="_top" xlink:title="Returns ModbusError contained in ModbusErrorInfo.">
<polygon fill="white" stroke="#666666" points="452.25,-130.25 343.25,-130.25 343.25,-111 452.25,-111 452.25,-130.25"/>
<text text-anchor="middle" x="397.75" y="-116.75" font-family="Helvetica,sans-Serif" font-size="10.00">modbusGetErrorCode</text>
</a>
</g>
</g>
<!-- Node6&#45;&gt;Node7 -->
<g id="edge6_Node000006_Node000007" class="edge">
<title>Node6&#45;&gt;Node7</title>
<g id="a_edge6_Node000006_Node000007"><a xlink:title=" ">
<path fill="none" stroke="#63b8ff" d="M263.87,-105.61C283.56,-107.83 308.73,-110.68 331.85,-113.29"/>
<polygon fill="#63b8ff" stroke="#63b8ff" points="331.17,-116.74 341.5,-114.38 331.96,-109.78 331.17,-116.74"/>
</a>
</g>
</g>
<!-- Node8 -->
<g id="Node000008" class="node">
<title>Node8</title>
<g id="a_Node000008"><a xlink:href="base_8h.html#a9ee4c2e633c7a42f88acc09b95f8171e" target="_top" xlink:title="Returns uint8_t describing error source of ModbusErrorInfo.">
<polygon fill="white" stroke="#666666" points="456.38,-93.25 339.12,-93.25 339.12,-74 456.38,-74 456.38,-93.25"/>
<text text-anchor="middle" x="397.75" y="-79.75" font-family="Helvetica,sans-Serif" font-size="10.00">modbusGetErrorSource</text>
</a>
</g>
</g>
<!-- Node6&#45;&gt;Node8 -->
<g id="edge7_Node000006_Node000008" class="edge">
<title>Node6&#45;&gt;Node8</title>
<g id="a_edge7_Node000006_Node000008"><a xlink:title=" ">
<path fill="none" stroke="#63b8ff" d="M263.87,-97.85C282.32,-95.88 305.57,-93.39 327.44,-91.05"/>
<polygon fill="#63b8ff" stroke="#63b8ff" points="327.65,-94.54 337.22,-90 326.9,-87.58 327.65,-94.54"/>
</a>
</g>
</g>
<!-- Node10 -->
<g id="Node000010" class="node">
<title>Node10</title>
<g id="a_Node000010"><a xlink:href="base_8impl_8h.html#a11346a546b84663cd92cb30f4ffd1393" target="_top" xlink:title="Calculates 16&#45;bit Modbus CRC of provided data.">
<polygon fill="white" stroke="#666666" points="433.12,-56.25 362.38,-56.25 362.38,-37 433.12,-37 433.12,-56.25"/>
<text text-anchor="middle" x="397.75" y="-42.75" font-family="Helvetica,sans-Serif" font-size="10.00">modbusCRC</text>
</a>
</g>
</g>
<!-- Node9&#45;&gt;Node10 -->
<g id="edge9_Node000009_Node000010" class="edge">
<title>Node9&#45;&gt;Node10</title>
<g id="a_edge9_Node000009_Node000010"><a xlink:title=" ">
<path fill="none" stroke="#63b8ff" d="M274.57,-46.62C298.19,-46.62 326.9,-46.62 350.56,-46.62"/>
<polygon fill="#63b8ff" stroke="#63b8ff" points="350.55,-50.13 360.55,-46.63 350.55,-43.13 350.55,-50.13"/>
</a>
</g>
</g>
<!-- Node11 -->
<g id="Node000011" class="node">
<title>Node11</title>
<g id="a_Node000011"><a xlink:href="base_8h.html#af718da7da634f311c2ae8db6be3d9027" target="_top" xlink:title="Safely writes a little&#45;endian 16&#45;bit word to provided pointer.">
<polygon fill="white" stroke="#666666" points="433.5,-19.25 362,-19.25 362,0 433.5,0 433.5,-19.25"/>
<text text-anchor="middle" x="397.75" y="-5.75" font-family="Helvetica,sans-Serif" font-size="10.00">modbusWLE</text>
</a>
</g>
</g>
<!-- Node9&#45;&gt;Node11 -->
<g id="edge10_Node000009_Node000011" class="edge">
<title>Node9&#45;&gt;Node11</title>
<g id="a_edge10_Node000009_Node000011"><a xlink:title=" ">
<path fill="none" stroke="#63b8ff" d="M274.57,-36.51C298.13,-31.33 326.76,-25.03 350.38,-19.83"/>
<polygon fill="#63b8ff" stroke="#63b8ff" points="351.04,-23.27 360.05,-17.7 349.53,-16.43 351.04,-23.27"/>
</a>
</g>
</g>
</g>
</svg>
