<?xml version="1.0" encoding="UTF-8" standalone="no"?>
<!DOCTYPE svg PUBLIC "-//W3C//DTD SVG 1.1//EN"
 "http://www.w3.org/Graphics/SVG/1.1/DTD/svg11.dtd">
<!-- Generated by graphviz version 9.0.0 (20230911.1827)
 -->
<!-- Title: modbusSlaveGetUserPointer Pages: 1 -->
<svg width="1051pt" height="349pt"
 viewBox="0.00 0.00 1050.50 348.84" xmlns="http://www.w3.org/2000/svg" xmlns:xlink="http://www.w3.org/1999/xlink">
<g id="graph0" class="graph" transform="scale(1 1) rotate(0) translate(4 344.84)">
<title>modbusSlaveGetUserPointer</title>
<!-- Node1 -->
<g id="Node000001" class="node">
<title>Node1</title>
<g id="a_Node000001"><a xlink:title="Retreieves the custom context pointer.">
<polygon fill="#999999" stroke="#666666" points="1042.5,-239.25 899.75,-239.25 899.75,-220 1042.5,-220 1042.5,-239.25"/>
<text text-anchor="middle" x="971.12" y="-225.75" font-family="Helvetica,sans-Serif" font-size="10.00">modbusSlaveGetUserPointer</text>
</a>
</g>
</g>
<!-- Node2 -->
<g id="Node000002" class="node">
<title>Node2</title>
<g id="a_Node000002"><a xlink:href="classllm_1_1Slave.html#aed386c714ccc44c9f3151ba18826a9d5" target="_top" xlink:title=" ">
<polygon fill="white" stroke="#666666" points="850.62,-333.25 722.88,-333.25 722.88,-314 850.62,-314 850.62,-333.25"/>
<text text-anchor="middle" x="786.75" y="-319.75" font-family="Helvetica,sans-Serif" font-size="10.00">llm::Slave::getUserPointer</text>
</a>
</g>
</g>
<!-- Node1&#45;&gt;Node2 -->
<g id="edge1_Node000001_Node000002" class="edge">
<title>Node1&#45;&gt;Node2</title>
<g id="a_edge1_Node000001_Node000002"><a xlink:title=" ">
<path fill="none" stroke="#63b8ff" d="M950.63,-247.15C930.34,-264.49 896.93,-290.55 863.75,-305.62 856.84,-308.77 849.31,-311.39 841.77,-313.58"/>
<polygon fill="#63b8ff" stroke="#63b8ff" points="952.86,-249.85 958.09,-240.64 948.26,-244.58 952.86,-249.85"/>
</a>
</g>
</g>
<!-- Node3 -->
<g id="Node000003" class="node">
<title>Node3</title>
<g id="a_Node000003"><a xlink:href="slave_8h.html#ad1165bb6d12af1db502a05df5da55aed" target="_top" xlink:title="Allocates memory for slave&#39;s response frame.">
<polygon fill="white" stroke="#666666" points="863.75,-221.25 709.75,-221.25 709.75,-202 863.75,-202 863.75,-221.25"/>
<text text-anchor="middle" x="786.75" y="-207.75" font-family="Helvetica,sans-Serif" font-size="10.00">modbusSlaveAllocateResponse</text>
</a>
</g>
</g>
<!-- Node1&#45;&gt;Node3 -->
<g id="edge2_Node000001_Node000003" class="edge">
<title>Node1&#45;&gt;Node3</title>
<g id="a_edge2_Node000001_Node000003"><a xlink:title=" ">
<path fill="none" stroke="#63b8ff" d="M887.9,-221.51C880.02,-220.73 872.05,-219.94 864.22,-219.17"/>
<polygon fill="#63b8ff" stroke="#63b8ff" points="887.55,-224.99 897.85,-222.49 888.24,-218.03 887.55,-224.99"/>
</a>
</g>
</g>
<!-- Node22 -->
<g id="Node000022" class="node">
<title>Node22</title>
<g id="a_Node000022"><a xlink:href="slave_8impl_8h.html#a70695c3b7355bc0a3e6d49c46a4eef1f" target="_top" xlink:title="Frees memory allocated in the ModbusSlave struct.">
<polygon fill="white" stroke="#666666" points="840.88,-146.25 732.62,-146.25 732.62,-127 840.88,-127 840.88,-146.25"/>
<text text-anchor="middle" x="786.75" y="-132.75" font-family="Helvetica,sans-Serif" font-size="10.00">modbusSlaveDestroy</text>
</a>
</g>
</g>
<!-- Node1&#45;&gt;Node22 -->
<g id="edge25_Node000001_Node000022" class="edge">
<title>Node1&#45;&gt;Node22</title>
<g id="a_edge25_Node000001_Node000022"><a xlink:title=" ">
<path fill="none" stroke="#63b8ff" d="M940.79,-214.66C903.32,-195.56 839.49,-163.01 807.4,-146.65"/>
<polygon fill="#63b8ff" stroke="#63b8ff" points="938.76,-217.56 949.26,-218.98 941.94,-211.32 938.76,-217.56"/>
</a>
</g>
</g>
<!-- Node24 -->
<g id="Node000024" class="node">
<title>Node24</title>
<g id="a_Node000024"><a xlink:href="slave_8h.html#aac289ce160ea61287c98e8a1ee4353d5" target="_top" xlink:title="Frees memory allocated for slave&#39;s response frame.">
<polygon fill="white" stroke="#666666" points="855.88,-296.25 717.62,-296.25 717.62,-277 855.88,-277 855.88,-296.25"/>
<text text-anchor="middle" x="786.75" y="-282.75" font-family="Helvetica,sans-Serif" font-size="10.00">modbusSlaveFreeResponse</text>
</a>
</g>
</g>
<!-- Node1&#45;&gt;Node24 -->
<g id="edge27_Node000001_Node000024" class="edge">
<title>Node1&#45;&gt;Node24</title>
<g id="a_edge27_Node000001_Node000024"><a xlink:title=" ">
<path fill="none" stroke="#63b8ff" d="M927.29,-243.01C894.42,-253.29 849.77,-267.24 819.92,-276.57"/>
<polygon fill="#63b8ff" stroke="#63b8ff" points="927.99,-246.46 936.5,-240.14 925.91,-239.78 927.99,-246.46"/>
</a>
</g>
</g>
<!-- Node4 -->
<g id="Node000004" class="node">
<title>Node4</title>
<g id="a_Node000004"><a xlink:href="slave_8impl_8h.html#a58243ce1e1adaffd0a3260edc2d03603" target="_top" xlink:title="Builds an exception response frame.">
<polygon fill="white" stroke="#666666" points="669.62,-164.25 555.38,-164.25 555.38,-145 669.62,-145 669.62,-164.25"/>
<text text-anchor="middle" x="612.5" y="-150.75" font-family="Helvetica,sans-Serif" font-size="10.00">modbusBuildException</text>
</a>
</g>
</g>
<!-- Node3&#45;&gt;Node4 -->
<g id="edge3_Node000003_Node000004" class="edge">
<title>Node3&#45;&gt;Node4</title>
<g id="a_edge3_Node000003_Node000004"><a xlink:title=" ">
<path fill="none" stroke="#63b8ff" d="M744.48,-197.97C713.52,-187.72 671.83,-173.93 643.88,-164.68"/>
<polygon fill="#63b8ff" stroke="#63b8ff" points="743.32,-201.27 753.91,-201.09 745.52,-194.63 743.32,-201.27"/>
</a>
</g>
</g>
<!-- Node18 -->
<g id="Node000018" class="node">
<title>Node18</title>
<g id="a_Node000018"><a xlink:href="slave__func_8impl_8h.html#aaff57f2a5c6a8e6c77d36c5dc7e48cfa" target="_top" xlink:title="Handles requests 01, 02, 03 and 04 (Read Multiple XX) and generates response.">
<polygon fill="white" stroke="#666666" points="515.25,-19.25 361.25,-19.25 361.25,0 515.25,0 515.25,-19.25"/>
<text text-anchor="middle" x="438.25" y="-5.75" font-family="Helvetica,sans-Serif" font-size="10.00">modbusParseRequest01020304</text>
</a>
</g>
</g>
<!-- Node3&#45;&gt;Node18 -->
<g id="edge21_Node000003_Node000018" class="edge">
<title>Node3&#45;&gt;Node18</title>
<g id="a_edge21_Node000003_Node000018"><a xlink:title=" ">
<path fill="none" stroke="#63b8ff" d="M764.78,-194.59C743.1,-177.68 707.72,-151.97 673.75,-135.62 622.38,-110.91 594.91,-134.27 551.25,-97.62 524.45,-75.13 542.8,-49.19 515.25,-27.62 511.19,-24.45 506.67,-21.82 501.9,-19.64"/>
<polygon fill="#63b8ff" stroke="#63b8ff" points="762.53,-197.27 772.54,-200.74 766.87,-191.79 762.53,-197.27"/>
</a>
</g>
</g>
<!-- Node19 -->
<g id="Node000019" class="node">
<title>Node19</title>
<g id="a_Node000019"><a xlink:href="slave__func_8impl_8h.html#a236881fe30a95d4cc9b031a9e24ae2a8" target="_top" xlink:title="Handles requests 05 and 06 (Write Single XX) and generates response.">
<polygon fill="white" stroke="#666666" points="504.75,-278.25 371.75,-278.25 371.75,-259 504.75,-259 504.75,-278.25"/>
<text text-anchor="middle" x="438.25" y="-264.75" font-family="Helvetica,sans-Serif" font-size="10.00">modbusParseRequest0506</text>
</a>
</g>
</g>
<!-- Node3&#45;&gt;Node19 -->
<g id="edge22_Node000003_Node000019" class="edge">
<title>Node3&#45;&gt;Node19</title>
<g id="a_edge22_Node000003_Node000019"><a xlink:title=" ">
<path fill="none" stroke="#63b8ff" d="M731.25,-224.12C713.02,-228.08 692.56,-232.29 673.75,-235.62 617.08,-245.67 552.26,-254.6 505.15,-260.63"/>
<polygon fill="#63b8ff" stroke="#63b8ff" points="731.78,-227.59 740.8,-222.02 730.28,-220.75 731.78,-227.59"/>
</a>
</g>
</g>
<!-- Node20 -->
<g id="Node000020" class="node">
<title>Node20</title>
<g id="a_Node000020"><a xlink:href="slave__func_8impl_8h.html#a0cb2a7bf59d4014088e1ce1c61523071" target="_top" xlink:title="Handles requests 15 and 16 (Write Multiple XX) and generates response.">
<polygon fill="white" stroke="#666666" points="504.75,-241.25 371.75,-241.25 371.75,-222 504.75,-222 504.75,-241.25"/>
<text text-anchor="middle" x="438.25" y="-227.75" font-family="Helvetica,sans-Serif" font-size="10.00">modbusParseRequest1516</text>
</a>
</g>
</g>
<!-- Node3&#45;&gt;Node20 -->
<g id="edge23_Node000003_Node000020" class="edge">
<title>Node3&#45;&gt;Node20</title>
<g id="a_edge23_Node000003_Node000020"><a xlink:title=" ">
<path fill="none" stroke="#63b8ff" d="M697.92,-216.69C637.91,-220.16 559.68,-224.67 505.03,-227.83"/>
<polygon fill="#63b8ff" stroke="#63b8ff" points="697.99,-220.2 707.77,-216.13 697.58,-213.21 697.99,-220.2"/>
</a>
</g>
</g>
<!-- Node21 -->
<g id="Node000021" class="node">
<title>Node21</title>
<g id="a_Node000021"><a xlink:href="slave__func_8impl_8h.html#a814f041d9acfa578998b8ce8fe53815c" target="_top" xlink:title="Handles request 22 (Mask Write Register) and generates response.">
<polygon fill="white" stroke="#666666" points="499.5,-204.25 377,-204.25 377,-185 499.5,-185 499.5,-204.25"/>
<text text-anchor="middle" x="438.25" y="-190.75" font-family="Helvetica,sans-Serif" font-size="10.00">modbusParseRequest22</text>
</a>
</g>
</g>
<!-- Node3&#45;&gt;Node21 -->
<g id="edge24_Node000003_Node000021" class="edge">
<title>Node3&#45;&gt;Node21</title>
<g id="a_edge24_Node000003_Node000021"><a xlink:title=" ">
<path fill="none" stroke="#63b8ff" d="M697.96,-207.32C636.08,-204.28 554.79,-200.29 499.98,-197.6"/>
<polygon fill="#63b8ff" stroke="#63b8ff" points="697.61,-210.8 707.77,-207.8 697.95,-203.81 697.61,-210.8"/>
</a>
</g>
</g>
<!-- Node5 -->
<g id="Node000005" class="node">
<title>Node5</title>
<g id="a_Node000005"><a xlink:href="slave_8impl_8h.html#a384f75966903cc0c249eb68a6a20180e" target="_top" xlink:title="Builds an exception PDU.">
<polygon fill="white" stroke="#666666" points="505.88,-130.25 370.62,-130.25 370.62,-111 505.88,-111 505.88,-130.25"/>
<text text-anchor="middle" x="438.25" y="-116.75" font-family="Helvetica,sans-Serif" font-size="10.00">modbusBuildExceptionPDU</text>
</a>
</g>
</g>
<!-- Node4&#45;&gt;Node5 -->
<g id="edge4_Node000004_Node000005" class="edge">
<title>Node4&#45;&gt;Node5</title>
<g id="a_edge4_Node000004_Node000005"><a xlink:title=" ">
<path fill="none" stroke="#63b8ff" d="M549.14,-142.31C529.8,-138.5 508.74,-134.34 490.27,-130.7"/>
<polygon fill="#63b8ff" stroke="#63b8ff" points="548.31,-145.72 558.8,-144.22 549.67,-138.85 548.31,-145.72"/>
</a>
</g>
</g>
<!-- Node7 -->
<g id="Node000007" class="node">
<title>Node7</title>
<g id="a_Node000007"><a xlink:href="slave_8impl_8h.html#a1da09df8858b91c61fe02c25783c2946" target="_top" xlink:title="Builds a Modbus RTU exception.">
<polygon fill="white" stroke="#666666" points="505.5,-93.25 371,-93.25 371,-74 505.5,-74 505.5,-93.25"/>
<text text-anchor="middle" x="438.25" y="-79.75" font-family="Helvetica,sans-Serif" font-size="10.00">modbusBuildExceptionRTU</text>
</a>
</g>
</g>
<!-- Node4&#45;&gt;Node7 -->
<g id="edge6_Node000004_Node000007" class="edge">
<title>Node4&#45;&gt;Node7</title>
<g id="a_edge6_Node000004_Node000007"><a xlink:title=" ">
<path fill="none" stroke="#63b8ff" d="M570.85,-140.37C564.13,-137.47 557.38,-134.2 551.25,-130.62 533.51,-120.26 533.7,-110.66 515.25,-101.62 508.8,-98.46 501.76,-95.84 494.65,-93.67"/>
<polygon fill="#63b8ff" stroke="#63b8ff" points="569.27,-143.51 579.85,-144.04 571.91,-137.02 569.27,-143.51"/>
</a>
</g>
</g>
<!-- Node9 -->
<g id="Node000009" class="node">
<title>Node9</title>
<g id="a_Node000009"><a xlink:href="slave_8impl_8h.html#a778e65356f7da66831f18ec53b975383" target="_top" xlink:title="Builds a Modbus TCP exception.">
<polygon fill="white" stroke="#666666" points="505.12,-56.25 371.38,-56.25 371.38,-37 505.12,-37 505.12,-56.25"/>
<text text-anchor="middle" x="438.25" y="-42.75" font-family="Helvetica,sans-Serif" font-size="10.00">modbusBuildExceptionTCP</text>
</a>
</g>
</g>
<!-- Node4&#45;&gt;Node9 -->
<g id="edge8_Node000004_Node000009" class="edge">
<title>Node4&#45;&gt;Node9</title>
<g id="a_edge8_Node000004_Node000009"><a xlink:title=" ">
<path fill="none" stroke="#63b8ff" d="M564.11,-139.55C559.49,-136.99 555.1,-134.04 551.25,-130.62 526.25,-108.46 541.81,-84.9 515.25,-64.62 511.05,-61.42 506.36,-58.77 501.44,-56.58"/>
<polygon fill="#63b8ff" stroke="#63b8ff" points="562.57,-142.7 573.1,-143.88 565.61,-136.39 562.57,-142.7"/>
</a>
</g>
</g>
<!-- Node11 -->
<g id="Node000011" class="node">
<title>Node11</title>
<g id="a_Node000011"><a xlink:href="slave_8impl_8h.html#aff0a9164a0e37aa619232ae86e3ff97a" target="_top" xlink:title="Parses provided PDU and generates response honorinng pduOffset and padding set in ModbusSlave during ...">
<polygon fill="white" stroke="#666666" points="494.25,-167.25 382.25,-167.25 382.25,-148 494.25,-148 494.25,-167.25"/>
<text text-anchor="middle" x="438.25" y="-153.75" font-family="Helvetica,sans-Serif" font-size="10.00">modbusParseRequest</text>
</a>
</g>
</g>
<!-- Node4&#45;&gt;Node11 -->
<g id="edge10_Node000004_Node000011" class="edge">
<title>Node4&#45;&gt;Node11</title>
<g id="a_edge10_Node000004_Node000011"><a xlink:title=" ">
<path fill="none" stroke="#63b8ff" d="M543.96,-155.8C527.61,-156.09 510.32,-156.39 494.6,-156.66"/>
<polygon fill="#63b8ff" stroke="#63b8ff" points="543.65,-159.31 553.59,-155.63 543.53,-152.31 543.65,-159.31"/>
</a>
</g>
</g>
<!-- Node4&#45;&gt;Node18 -->
<g id="edge17_Node000004_Node000018" class="edge">
<title>Node4&#45;&gt;Node18</title>
<g id="a_edge17_Node000004_Node000018"><a xlink:title=" ">
<path fill="none" stroke="#63b8ff" d="M562.33,-139.44C558.27,-136.93 554.49,-134.01 551.25,-130.62 517.7,-95.61 551.27,-60.09 515.25,-27.62 511.72,-24.45 507.74,-21.8 503.5,-19.6"/>
<polygon fill="#63b8ff" stroke="#63b8ff" points="560.36,-142.36 570.84,-143.9 563.61,-136.16 560.36,-142.36"/>
</a>
</g>
</g>
<!-- Node4&#45;&gt;Node19 -->
<g id="edge18_Node000004_Node000019" class="edge">
<title>Node4&#45;&gt;Node19</title>
<g id="a_edge18_Node000004_Node000019"><a xlink:title=" ">
<path fill="none" stroke="#63b8ff" d="M597.81,-173.59C580.92,-195.55 550.11,-231.2 515.25,-250.62 509.56,-253.79 503.34,-256.41 496.98,-258.56"/>
<polygon fill="#63b8ff" stroke="#63b8ff" points="600.46,-175.88 603.65,-165.78 594.86,-171.69 600.46,-175.88"/>
</a>
</g>
</g>
<!-- Node4&#45;&gt;Node20 -->
<g id="edge19_Node000004_Node000020" class="edge">
<title>Node4&#45;&gt;Node20</title>
<g id="a_edge19_Node000004_Node000020"><a xlink:title=" ">
<path fill="none" stroke="#63b8ff" d="M589.01,-171.27C570.17,-184.49 542.13,-202.54 515.25,-213.62 507.73,-216.73 499.56,-219.36 491.46,-221.58"/>
<polygon fill="#63b8ff" stroke="#63b8ff" points="590.89,-174.23 596.98,-165.56 586.81,-168.54 590.89,-174.23"/>
</a>
</g>
</g>
<!-- Node4&#45;&gt;Node21 -->
<g id="edge20_Node000004_Node000021" class="edge">
<title>Node4&#45;&gt;Node21</title>
<g id="a_edge20_Node000004_Node000021"><a xlink:title=" ">
<path fill="none" stroke="#63b8ff" d="M556.97,-167.29C533,-172.85 505.24,-179.3 482.7,-184.53"/>
<polygon fill="#63b8ff" stroke="#63b8ff" points="557.61,-170.73 566.56,-165.06 556.03,-163.91 557.61,-170.73"/>
</a>
</g>
</g>
<!-- Node6 -->
<g id="Node000006" class="node">
<title>Node6</title>
<g id="a_Node000006"><a xlink:href="classllm_1_1Slave.html#ac915e0947f733a784a9069f5ff5b9737" target="_top" xlink:title=" ">
<polygon fill="white" stroke="#666666" points="325.25,-130.25 179.5,-130.25 179.5,-111 325.25,-111 325.25,-130.25"/>
<text text-anchor="middle" x="252.38" y="-116.75" font-family="Helvetica,sans-Serif" font-size="10.00">llm::Slave::buildExceptionPDU</text>
</a>
</g>
</g>
<!-- Node5&#45;&gt;Node6 -->
<g id="edge5_Node000005_Node000006" class="edge">
<title>Node5&#45;&gt;Node6</title>
<g id="a_edge5_Node000005_Node000006"><a xlink:title=" ">
<path fill="none" stroke="#63b8ff" d="M358.92,-120.62C347.83,-120.62 336.47,-120.62 325.5,-120.62"/>
<polygon fill="#63b8ff" stroke="#63b8ff" points="358.83,-124.13 368.83,-120.63 358.83,-117.13 358.83,-124.13"/>
</a>
</g>
</g>
<!-- Node8 -->
<g id="Node000008" class="node">
<title>Node8</title>
<g id="a_Node000008"><a xlink:href="classllm_1_1Slave.html#a10e79600053c725e639225264d966e63" target="_top" xlink:title=" ">
<polygon fill="white" stroke="#666666" points="324.88,-93.25 179.88,-93.25 179.88,-74 324.88,-74 324.88,-93.25"/>
<text text-anchor="middle" x="252.38" y="-79.75" font-family="Helvetica,sans-Serif" font-size="10.00">llm::Slave::buildExceptionRTU</text>
</a>
</g>
</g>
<!-- Node7&#45;&gt;Node8 -->
<g id="edge7_Node000007_Node000008" class="edge">
<title>Node7&#45;&gt;Node8</title>
<g id="a_edge7_Node000007_Node000008"><a xlink:title=" ">
<path fill="none" stroke="#63b8ff" d="M359.36,-83.62C347.98,-83.62 336.31,-83.62 325.07,-83.62"/>
<polygon fill="#63b8ff" stroke="#63b8ff" points="359.09,-87.13 369.09,-83.63 359.09,-80.13 359.09,-87.13"/>
</a>
</g>
</g>
<!-- Node10 -->
<g id="Node000010" class="node">
<title>Node10</title>
<g id="a_Node000010"><a xlink:href="classllm_1_1Slave.html#a844c37870a4e98bffc091ddfafb8f959" target="_top" xlink:title=" ">
<polygon fill="white" stroke="#666666" points="324.5,-56.25 180.25,-56.25 180.25,-37 324.5,-37 324.5,-56.25"/>
<text text-anchor="middle" x="252.38" y="-42.75" font-family="Helvetica,sans-Serif" font-size="10.00">llm::Slave::buildExceptionTCP</text>
</a>
</g>
</g>
<!-- Node9&#45;&gt;Node10 -->
<g id="edge9_Node000009_Node000010" class="edge">
<title>Node9&#45;&gt;Node10</title>
<g id="a_edge9_Node000009_Node000010"><a xlink:title=" ">
<path fill="none" stroke="#63b8ff" d="M359.69,-46.62C348.13,-46.62 336.25,-46.62 324.82,-46.62"/>
<polygon fill="#63b8ff" stroke="#63b8ff" points="359.61,-50.13 369.61,-46.63 359.61,-43.13 359.61,-50.13"/>
</a>
</g>
</g>
<!-- Node12 -->
<g id="Node000012" class="node">
<title>Node12</title>
<g id="a_Node000012"><a xlink:href="slave_8impl_8h.html#ab5c5f3146a46cf8d221aca22e9c8a052" target="_top" xlink:title="Parses provided PDU and generates PDU for the response frame.">
<polygon fill="white" stroke="#666666" points="318.88,-167.25 185.88,-167.25 185.88,-148 318.88,-148 318.88,-167.25"/>
<text text-anchor="middle" x="252.38" y="-153.75" font-family="Helvetica,sans-Serif" font-size="10.00">modbusParseRequestPDU</text>
</a>
</g>
</g>
<!-- Node11&#45;&gt;Node12 -->
<g id="edge11_Node000011_Node000012" class="edge">
<title>Node11&#45;&gt;Node12</title>
<g id="a_edge11_Node000011_Node000012"><a xlink:title=" ">
<path fill="none" stroke="#63b8ff" d="M370.7,-157.62C353.93,-157.62 335.94,-157.62 319.2,-157.62"/>
<polygon fill="#63b8ff" stroke="#63b8ff" points="370.57,-161.13 380.57,-157.63 370.57,-154.13 370.57,-161.13"/>
</a>
</g>
</g>
<!-- Node14 -->
<g id="Node000014" class="node">
<title>Node14</title>
<g id="a_Node000014"><a xlink:href="slave_8impl_8h.html#a6a1e63faa64b7ca4b91d1ce7988be850" target="_top" xlink:title="Parses provided Modbus RTU request frame and generates a Modbus RTU response.">
<polygon fill="white" stroke="#666666" points="318.5,-297.25 186.25,-297.25 186.25,-278 318.5,-278 318.5,-297.25"/>
<text text-anchor="middle" x="252.38" y="-283.75" font-family="Helvetica,sans-Serif" font-size="10.00">modbusParseRequestRTU</text>
</a>
</g>
</g>
<!-- Node11&#45;&gt;Node14 -->
<g id="edge13_Node000011_Node000014" class="edge">
<title>Node11&#45;&gt;Node14</title>
<g id="a_edge13_Node000011_Node000014"><a xlink:title=" ">
<path fill="none" stroke="#63b8ff" d="M371.22,-170.68C367.77,-172.16 364.42,-173.8 361.25,-175.62 341.09,-187.23 341.35,-196.84 325.25,-213.62 303.18,-236.63 277.05,-263.42 263.18,-277.61"/>
<polygon fill="#63b8ff" stroke="#63b8ff" points="372.25,-174.03 380.4,-167.26 369.81,-167.47 372.25,-174.03"/>
</a>
</g>
</g>
<!-- Node16 -->
<g id="Node000016" class="node">
<title>Node16</title>
<g id="a_Node000016"><a xlink:href="slave_8impl_8h.html#a5ad3fe86aa14f8982d7c459c68cd8b3e" target="_top" xlink:title="Parses provided Modbus TCP request frame and generates a Modbus TCP response.">
<polygon fill="white" stroke="#666666" points="318.12,-204.25 186.62,-204.25 186.62,-185 318.12,-185 318.12,-204.25"/>
<text text-anchor="middle" x="252.38" y="-190.75" font-family="Helvetica,sans-Serif" font-size="10.00">modbusParseRequestTCP</text>
</a>
</g>
</g>
<!-- Node11&#45;&gt;Node16 -->
<g id="edge15_Node000011_Node000016" class="edge">
<title>Node11&#45;&gt;Node16</title>
<g id="a_edge15_Node000011_Node000016"><a xlink:title=" ">
<path fill="none" stroke="#63b8ff" d="M375.76,-170C352.29,-174.72 325.85,-180.04 303.56,-184.53"/>
<polygon fill="#63b8ff" stroke="#63b8ff" points="376.41,-173.44 385.52,-168.03 375.03,-166.58 376.41,-173.44"/>
</a>
</g>
</g>
<!-- Node13 -->
<g id="Node000013" class="node">
<title>Node13</title>
<g id="a_Node000013"><a xlink:href="classllm_1_1Slave.html#af8cc9d8d58bf7f632f3f3cf7e6b9c84b" target="_top" xlink:title=" ">
<polygon fill="white" stroke="#666666" points="143.5,-167.25 0,-167.25 0,-148 143.5,-148 143.5,-167.25"/>
<text text-anchor="middle" x="71.75" y="-153.75" font-family="Helvetica,sans-Serif" font-size="10.00">llm::Slave::parseRequestPDU</text>
</a>
</g>
</g>
<!-- Node12&#45;&gt;Node13 -->
<g id="edge12_Node000012_Node000013" class="edge">
<title>Node12&#45;&gt;Node13</title>
<g id="a_edge12_Node000012_Node000013"><a xlink:title=" ">
<path fill="none" stroke="#63b8ff" d="M174.29,-157.62C164.16,-157.62 153.8,-157.62 143.77,-157.62"/>
<polygon fill="#63b8ff" stroke="#63b8ff" points="174.11,-161.13 184.11,-157.63 174.11,-154.13 174.11,-161.13"/>
</a>
</g>
</g>
<!-- Node15 -->
<g id="Node000015" class="node">
<title>Node15</title>
<g id="a_Node000015"><a xlink:href="classllm_1_1Slave.html#a001591b9a38b69cf29adc853872a09fe" target="_top" xlink:title=" ">
<polygon fill="white" stroke="#666666" points="143.12,-297.25 0.38,-297.25 0.38,-278 143.12,-278 143.12,-297.25"/>
<text text-anchor="middle" x="71.75" y="-283.75" font-family="Helvetica,sans-Serif" font-size="10.00">llm::Slave::parseRequestRTU</text>
</a>
</g>
</g>
<!-- Node14&#45;&gt;Node15 -->
<g id="edge14_Node000014_Node000015" class="edge">
<title>Node14&#45;&gt;Node15</title>
<g id="a_edge14_Node000014_Node000015"><a xlink:title=" ">
<path fill="none" stroke="#63b8ff" d="M174.37,-287.62C164.07,-287.62 153.54,-287.62 143.35,-287.62"/>
<polygon fill="#63b8ff" stroke="#63b8ff" points="174.36,-291.13 184.36,-287.63 174.36,-284.13 174.36,-291.13"/>
</a>
</g>
</g>
<!-- Node17 -->
<g id="Node000017" class="node">
<title>Node17</title>
<g id="a_Node000017"><a xlink:href="classllm_1_1Slave.html#a05169339916c3727c780c75157b399b9" target="_top" xlink:title=" ">
<polygon fill="white" stroke="#666666" points="142.75,-204.25 0.75,-204.25 0.75,-185 142.75,-185 142.75,-204.25"/>
<text text-anchor="middle" x="71.75" y="-190.75" font-family="Helvetica,sans-Serif" font-size="10.00">llm::Slave::parseRequestTCP</text>
</a>
</g>
</g>
<!-- Node16&#45;&gt;Node17 -->
<g id="edge16_Node000016_Node000017" class="edge">
<title>Node16&#45;&gt;Node17</title>
<g id="a_edge16_Node000016_Node000017"><a xlink:title=" ">
<path fill="none" stroke="#63b8ff" d="M174.86,-194.62C164.36,-194.62 153.62,-194.62 143.24,-194.62"/>
<polygon fill="#63b8ff" stroke="#63b8ff" points="174.62,-198.13 184.62,-194.63 174.62,-191.13 174.62,-198.13"/>
</a>
</g>
</g>
<!-- Node23 -->
<g id="Node000023" class="node">
<title>Node23</title>
<g id="a_Node000023"><a xlink:href="classllm_1_1Slave.html#a46b8ac6f2b8dee5550d18bd7f1dd355d" target="_top" xlink:title=" ">
<polygon fill="white" stroke="#666666" points="658.75,-88.25 566.25,-88.25 566.25,-69 658.75,-69 658.75,-88.25"/>
<text text-anchor="middle" x="612.5" y="-74.75" font-family="Helvetica,sans-Serif" font-size="10.00">llm::Slave::~Slave</text>
</a>
</g>
</g>
<!-- Node22&#45;&gt;Node23 -->
<g id="edge26_Node000022_Node000023" class="edge">
<title>Node22&#45;&gt;Node23</title>
<g id="a_edge26_Node000022_Node000023"><a xlink:title=" ">
<path fill="none" stroke="#63b8ff" d="M745.22,-122.98C714.03,-112.48 671.62,-98.2 643.45,-88.71"/>
<polygon fill="#63b8ff" stroke="#63b8ff" points="743.72,-126.16 754.31,-126.04 745.95,-119.53 743.72,-126.16"/>
</a>
</g>
</g>
<!-- Node24&#45;&gt;Node14 -->
<g id="edge29_Node000024_Node000014" class="edge">
<title>Node24&#45;&gt;Node14</title>
<g id="a_edge29_Node000024_Node000014"><a xlink:title=" ">
<path fill="none" stroke="#63b8ff" d="M723.2,-299.86C718.6,-301.31 714.07,-302.9 709.75,-304.62 692.55,-311.5 691.63,-320.79 673.75,-325.62 532.09,-363.92 354.83,-319.05 284.35,-297.7"/>
<polygon fill="#63b8ff" stroke="#63b8ff" points="723.94,-303.29 732.55,-297.13 721.97,-296.57 723.94,-303.29"/>
</a>
</g>
</g>
<!-- Node25 -->
<g id="Node000025" class="node">
<title>Node25</title>
<g id="a_Node000025"><a xlink:href="classllm_1_1Slave.html#aadbd0a4dc7769b5c393d6dfe5a344b8a" target="_top" xlink:title=" ">
<polygon fill="white" stroke="#666666" points="673.75,-316.25 551.25,-316.25 551.25,-297 673.75,-297 673.75,-316.25"/>
<text text-anchor="middle" x="612.5" y="-302.75" font-family="Helvetica,sans-Serif" font-size="10.00">llm::Slave::freeResponse</text>
</a>
</g>
</g>
<!-- Node24&#45;&gt;Node25 -->
<g id="edge28_Node000024_Node000025" class="edge">
<title>Node24&#45;&gt;Node25</title>
<g id="a_edge28_Node000024_Node000025"><a xlink:title=" ">
<path fill="none" stroke="#63b8ff" d="M706.04,-295.88C695.28,-297.13 684.39,-298.39 674.04,-299.6"/>
<polygon fill="#63b8ff" stroke="#63b8ff" points="706.14,-299.39 715.67,-294.76 705.34,-292.44 706.14,-299.39"/>
</a>
</g>
</g>
</g>
</svg>
