<?xml version="1.0" encoding="UTF-8" standalone="no"?>
<!DOCTYPE svg PUBLIC "-//W3C//DTD SVG 1.1//EN"
 "http://www.w3.org/Graphics/SVG/1.1/DTD/svg11.dtd">
<!-- Generated by graphviz version 2.50.0 (20220203.2022)
 -->
<!-- Title: modbusParseRequestRTU Pages: 1 -->
<svg width="843pt" height="256pt"
 viewBox="0.00 0.00 843.00 256.00" xmlns="http://www.w3.org/2000/svg" xmlns:xlink="http://www.w3.org/1999/xlink">
<g id="graph0" class="graph" transform="scale(1 1) rotate(0) translate(4 252)">
<title>modbusParseRequestRTU</title>
<!-- Node1 -->
<g id="node1" class="node">
<title>Node1</title>
<g id="a_node1"><a xlink:title="Parses provided Modbus RTU request frame and generates a Modbus RTU response.">
<polygon fill="#bfbfbf" stroke="black" points="0,-114.5 0,-133.5 133,-133.5 133,-114.5 0,-114.5"/>
<text text-anchor="middle" x="66.5" y="-121.5" font-family="Helvetica,sans-Serif" font-size="10.00">modbusParseRequestRTU</text>
</a>
</g>
</g>
<!-- Node2 -->
<g id="node2" class="node">
<title>Node2</title>
<g id="a_node2"><a xlink:href="base_8h.html#ad274c6156d4373b79930b577e373692a" target="_top" xlink:title="Prepares buffer to store a Modbus RTU message.">
<polygon fill="none" stroke="black" points="169,-218.5 169,-237.5 290,-237.5 290,-218.5 169,-218.5"/>
<text text-anchor="middle" x="229.5" y="-225.5" font-family="Helvetica,sans-Serif" font-size="10.00">modbusBufferModeRTU</text>
</a>
</g>
</g>
<!-- Node1&#45;&gt;Node2 -->
<g id="edge1" class="edge">
<title>Node1&#45;&gt;Node2</title>
<path fill="none" stroke="midnightblue" d="M76.37,-133.56C92.97,-150.94 130.54,-187.83 169,-209 172.95,-211.18 177.2,-213.15 181.53,-214.92"/>
<polygon fill="midnightblue" stroke="midnightblue" points="180.48,-218.27 191.07,-218.5 182.94,-211.71 180.48,-218.27"/>
</g>
<!-- Node3 -->
<g id="node3" class="node">
<title>Node3</title>
<g id="a_node3"><a xlink:href="base_8h.html#a64880e7075f445881485396f3aa869c5" target="_top" xlink:title="Checks if ModbusErrorInfo contains an error.">
<polygon fill="none" stroke="black" points="193.5,-180.5 193.5,-199.5 265.5,-199.5 265.5,-180.5 193.5,-180.5"/>
<text text-anchor="middle" x="229.5" y="-187.5" font-family="Helvetica,sans-Serif" font-size="10.00">modbusIsOk</text>
</a>
</g>
</g>
<!-- Node1&#45;&gt;Node3 -->
<g id="edge2" class="edge">
<title>Node1&#45;&gt;Node3</title>
<path fill="none" stroke="midnightblue" d="M90.91,-133.6C118.53,-144.92 164.63,-163.82 195.78,-176.59"/>
<polygon fill="midnightblue" stroke="midnightblue" points="194.74,-179.94 205.32,-180.5 197.4,-173.47 194.74,-179.94"/>
</g>
<!-- Node6 -->
<g id="node6" class="node">
<title>Node6</title>
<g id="a_node6"><a xlink:href="base_8h.html#af2cafe9debf86bea7042b4c40bb288cd" target="_top" xlink:title="Sets up address and CRC in a Modbus RTU frame.">
<polygon fill="none" stroke="black" points="182.5,-95.5 182.5,-114.5 276.5,-114.5 276.5,-95.5 182.5,-95.5"/>
<text text-anchor="middle" x="229.5" y="-102.5" font-family="Helvetica,sans-Serif" font-size="10.00">modbusPackRTU</text>
</a>
</g>
</g>
<!-- Node1&#45;&gt;Node6 -->
<g id="edge5" class="edge">
<title>Node1&#45;&gt;Node6</title>
<path fill="none" stroke="midnightblue" d="M133.45,-116.22C146.2,-114.71 159.46,-113.15 171.89,-111.68"/>
<polygon fill="midnightblue" stroke="midnightblue" points="172.58,-115.12 182.1,-110.48 171.76,-108.17 172.58,-115.12"/>
</g>
<!-- Node9 -->
<g id="node9" class="node">
<title>Node9</title>
<g id="a_node9"><a xlink:href="slave_8impl_8h.html#aff0a9164a0e37aa619232ae86e3ff97a" target="_top" xlink:title="Parses provided PDU and generates response honorinng pduOffset and padding set in ModbusSlave during ...">
<polygon fill="none" stroke="black" points="173,-0.5 173,-19.5 286,-19.5 286,-0.5 173,-0.5"/>
<text text-anchor="middle" x="229.5" y="-7.5" font-family="Helvetica,sans-Serif" font-size="10.00">modbusParseRequest</text>
</a>
</g>
</g>
<!-- Node1&#45;&gt;Node9 -->
<g id="edge8" class="edge">
<title>Node1&#45;&gt;Node9</title>
<path fill="none" stroke="midnightblue" d="M80.95,-114.48C108.7,-94.83 172.54,-49.63 206.43,-25.63"/>
<polygon fill="midnightblue" stroke="midnightblue" points="208.61,-28.37 214.75,-19.74 204.56,-22.66 208.61,-28.37"/>
</g>
<!-- Node14 -->
<g id="node14" class="node">
<title>Node14</title>
<g id="a_node14"><a xlink:href="slave_8h.html#aac289ce160ea61287c98e8a1ee4353d5" target="_top" xlink:title="Frees memory allocated for slave&#39;s response frame.">
<polygon fill="none" stroke="black" points="326,-38.5 326,-57.5 465,-57.5 465,-38.5 326,-38.5"/>
<text text-anchor="middle" x="395.5" y="-45.5" font-family="Helvetica,sans-Serif" font-size="10.00">modbusSlaveFreeResponse</text>
</a>
</g>
</g>
<!-- Node1&#45;&gt;Node14 -->
<g id="edge13" class="edge">
<title>Node1&#45;&gt;Node14</title>
<path fill="none" stroke="midnightblue" d="M89.28,-114.46C109.57,-105.9 140.83,-93.57 169,-86 217.02,-73.09 272.03,-63.72 315.69,-57.51"/>
<polygon fill="midnightblue" stroke="midnightblue" points="316.26,-60.97 325.68,-56.12 315.29,-54.03 316.26,-60.97"/>
</g>
<!-- Node16 -->
<g id="node16" class="node">
<title>Node16</title>
<g id="a_node16"><a xlink:href="base_8h.html#a4dba88e9baf690b8dafa0fad81eb7d07" target="_top" xlink:title="Unpacks data from a Modbus RTU frame and optionally checks CRC.">
<polygon fill="none" stroke="black" points="177,-133.5 177,-152.5 282,-152.5 282,-133.5 177,-133.5"/>
<text text-anchor="middle" x="229.5" y="-140.5" font-family="Helvetica,sans-Serif" font-size="10.00">modbusUnpackRTU</text>
</a>
</g>
</g>
<!-- Node1&#45;&gt;Node16 -->
<g id="edge17" class="edge">
<title>Node1&#45;&gt;Node16</title>
<path fill="none" stroke="midnightblue" d="M133.45,-131.78C144.37,-133.07 155.67,-134.4 166.49,-135.68"/>
<polygon fill="midnightblue" stroke="midnightblue" points="166.35,-139.19 176.69,-136.89 167.17,-132.24 166.35,-139.19"/>
</g>
<!-- Node4 -->
<g id="node4" class="node">
<title>Node4</title>
<g id="a_node4"><a xlink:href="base_8h.html#a29d2a7853b328113e4fcddae85fd3ce5" target="_top" xlink:title="Returns ModbusError contained in ModbusErrorInfo.">
<polygon fill="none" stroke="black" points="340.5,-190.5 340.5,-209.5 450.5,-209.5 450.5,-190.5 340.5,-190.5"/>
<text text-anchor="middle" x="395.5" y="-197.5" font-family="Helvetica,sans-Serif" font-size="10.00">modbusGetErrorCode</text>
</a>
</g>
</g>
<!-- Node3&#45;&gt;Node4 -->
<g id="edge3" class="edge">
<title>Node3&#45;&gt;Node4</title>
<path fill="none" stroke="midnightblue" d="M265.68,-192.15C284.45,-193.29 308.14,-194.73 330.07,-196.07"/>
<polygon fill="midnightblue" stroke="midnightblue" points="330.14,-199.58 340.33,-196.7 330.56,-192.59 330.14,-199.58"/>
</g>
<!-- Node5 -->
<g id="node5" class="node">
<title>Node5</title>
<g id="a_node5"><a xlink:href="base_8h.html#a9ee4c2e633c7a42f88acc09b95f8171e" target="_top" xlink:title="Returns uint8_t describing error source of ModbusErrorInfo.">
<polygon fill="none" stroke="black" points="336.5,-228.5 336.5,-247.5 454.5,-247.5 454.5,-228.5 336.5,-228.5"/>
<text text-anchor="middle" x="395.5" y="-235.5" font-family="Helvetica,sans-Serif" font-size="10.00">modbusGetErrorSource</text>
</a>
</g>
</g>
<!-- Node3&#45;&gt;Node5 -->
<g id="edge4" class="edge">
<title>Node3&#45;&gt;Node5</title>
<path fill="none" stroke="midnightblue" d="M261.41,-199.59C280.08,-205.34 304.37,-212.72 326,-219 333.67,-221.23 341.83,-223.54 349.76,-225.76"/>
<polygon fill="midnightblue" stroke="midnightblue" points="349.03,-229.19 359.61,-228.5 350.91,-222.45 349.03,-229.19"/>
</g>
<!-- Node7 -->
<g id="node7" class="node">
<title>Node7</title>
<g id="a_node7"><a xlink:href="base_8impl_8h.html#a11346a546b84663cd92cb30f4ffd1393" target="_top" xlink:title="Calculates 16&#45;bit Modbus CRC of provided data.">
<polygon fill="none" stroke="black" points="360,-114.5 360,-133.5 431,-133.5 431,-114.5 360,-114.5"/>
<text text-anchor="middle" x="395.5" y="-121.5" font-family="Helvetica,sans-Serif" font-size="10.00">modbusCRC</text>
</a>
</g>
</g>
<!-- Node6&#45;&gt;Node7 -->
<g id="edge6" class="edge">
<title>Node6&#45;&gt;Node7</title>
<path fill="none" stroke="midnightblue" d="M276.62,-110.34C299.54,-113 327.12,-116.19 349.84,-118.83"/>
<polygon fill="midnightblue" stroke="midnightblue" points="349.57,-122.32 359.9,-119.99 350.37,-115.36 349.57,-122.32"/>
</g>
<!-- Node8 -->
<g id="node8" class="node">
<title>Node8</title>
<g id="a_node8"><a xlink:href="base_8h.html#af718da7da634f311c2ae8db6be3d9027" target="_top" xlink:title="Safely writes a little&#45;endian 16&#45;bit word to provided pointer.">
<polygon fill="none" stroke="black" points="359.5,-76.5 359.5,-95.5 431.5,-95.5 431.5,-76.5 359.5,-76.5"/>
<text text-anchor="middle" x="395.5" y="-83.5" font-family="Helvetica,sans-Serif" font-size="10.00">modbusWLE</text>
</a>
</g>
</g>
<!-- Node6&#45;&gt;Node8 -->
<g id="edge7" class="edge">
<title>Node6&#45;&gt;Node8</title>
<path fill="none" stroke="midnightblue" d="M276.62,-99.66C299.38,-97.02 326.73,-93.85 349.35,-91.23"/>
<polygon fill="midnightblue" stroke="midnightblue" points="349.85,-94.7 359.38,-90.07 349.05,-87.74 349.85,-94.7"/>
</g>
<!-- Node10 -->
<g id="node10" class="node">
<title>Node10</title>
<g id="a_node10"><a xlink:href="slave_8impl_8h.html#a58243ce1e1adaffd0a3260edc2d03603" target="_top" xlink:title="Builds an exception response frame.">
<polygon fill="none" stroke="black" points="338,-0.5 338,-19.5 453,-19.5 453,-0.5 338,-0.5"/>
<text text-anchor="middle" x="395.5" y="-7.5" font-family="Helvetica,sans-Serif" font-size="10.00">modbusBuildException</text>
</a>
</g>
</g>
<!-- Node9&#45;&gt;Node10 -->
<g id="edge9" class="edge">
<title>Node9&#45;&gt;Node10</title>
<path fill="none" stroke="midnightblue" d="M286.02,-10C299.35,-10 313.73,-10 327.51,-10"/>
<polygon fill="midnightblue" stroke="midnightblue" points="327.92,-13.5 337.92,-10 327.92,-6.5 327.92,-13.5"/>
</g>
<!-- Node11 -->
<g id="node11" class="node">
<title>Node11</title>
<g id="a_node11"><a xlink:href="slave_8h.html#ad1165bb6d12af1db502a05df5da55aed" target="_top" xlink:title="Allocates memory for slave&#39;s response frame.">
<polygon fill="none" stroke="black" points="501,-0.5 501,-19.5 656,-19.5 656,-0.5 501,-0.5"/>
<text text-anchor="middle" x="578.5" y="-7.5" font-family="Helvetica,sans-Serif" font-size="10.00">modbusSlaveAllocateResponse</text>
</a>
</g>
</g>
<!-- Node10&#45;&gt;Node11 -->
<g id="edge10" class="edge">
<title>Node10&#45;&gt;Node11</title>
<path fill="none" stroke="midnightblue" d="M453.27,-10C465.13,-10 477.9,-10 490.57,-10"/>
<polygon fill="midnightblue" stroke="midnightblue" points="490.69,-13.5 500.69,-10 490.69,-6.5 490.69,-13.5"/>
</g>
<!-- Node12 -->
<g id="node12" class="node">
<title>Node12</title>
<g id="a_node12"><a xlink:href="base_8impl_8h.html#a54f7d1db7f58ffd329b1955ad1a66f37" target="_top" xlink:title="Allocates memory to hold Modbus ADU.">
<polygon fill="none" stroke="black" points="697,-19.5 697,-38.5 830,-38.5 830,-19.5 697,-19.5"/>
<text text-anchor="middle" x="763.5" y="-26.5" font-family="Helvetica,sans-Serif" font-size="10.00">modbusBufferAllocateADU</text>
</a>
</g>
</g>
<!-- Node11&#45;&gt;Node12 -->
<g id="edge11" class="edge">
<title>Node11&#45;&gt;Node12</title>
<path fill="none" stroke="midnightblue" d="M656.05,-17.95C666.19,-19 676.57,-20.08 686.7,-21.13"/>
<polygon fill="midnightblue" stroke="midnightblue" points="686.41,-24.62 696.72,-22.17 687.13,-17.66 686.41,-24.62"/>
</g>
<!-- Node13 -->
<g id="node13" class="node">
<title>Node13</title>
<g id="a_node13"><a xlink:href="slave_8h.html#a6517cff5567f0f07444d140edc7dfafd" target="_top" xlink:title="Retreieves the custom context pointer.">
<polygon fill="none" stroke="black" points="692,-66.5 692,-85.5 835,-85.5 835,-66.5 692,-66.5"/>
<text text-anchor="middle" x="763.5" y="-73.5" font-family="Helvetica,sans-Serif" font-size="10.00">modbusSlaveGetUserPointer</text>
</a>
</g>
</g>
<!-- Node11&#45;&gt;Node13 -->
<g id="edge12" class="edge">
<title>Node11&#45;&gt;Node13</title>
<path fill="none" stroke="midnightblue" d="M625.77,-19.58C635.87,-22.2 646.41,-25.34 656,-29 672.9,-35.45 675.57,-40.43 692,-48 703.19,-53.16 715.62,-58.29 726.89,-62.72"/>
<polygon fill="midnightblue" stroke="midnightblue" points="725.85,-66.07 736.44,-66.42 728.38,-59.54 725.85,-66.07"/>
</g>
<!-- Node14&#45;&gt;Node13 -->
<g id="edge16" class="edge">
<title>Node14&#45;&gt;Node13</title>
<path fill="none" stroke="midnightblue" d="M440.79,-57.52C459.31,-61.12 481.11,-64.86 501,-67 561.34,-73.49 629.92,-75.66 681.7,-76.25"/>
<polygon fill="midnightblue" stroke="midnightblue" points="681.79,-79.75 691.83,-76.34 681.86,-72.75 681.79,-79.75"/>
</g>
<!-- Node15 -->
<g id="node15" class="node">
<title>Node15</title>
<g id="a_node15"><a xlink:href="base_8impl_8h.html#a00605b5ebcf90f8035bfaa7a7c039776" target="_top" xlink:title="Frees memory allocated inside the buffer.">
<polygon fill="none" stroke="black" points="530.5,-38.5 530.5,-57.5 626.5,-57.5 626.5,-38.5 530.5,-38.5"/>
<text text-anchor="middle" x="578.5" y="-45.5" font-family="Helvetica,sans-Serif" font-size="10.00">modbusBufferFree</text>
</a>
</g>
</g>
<!-- Node14&#45;&gt;Node15 -->
<g id="edge14" class="edge">
<title>Node14&#45;&gt;Node15</title>
<path fill="none" stroke="midnightblue" d="M465.19,-48C483.41,-48 502.89,-48 520.42,-48"/>
<polygon fill="midnightblue" stroke="midnightblue" points="520.5,-51.5 530.5,-48 520.5,-44.5 520.5,-51.5"/>
</g>
<!-- Node15&#45;&gt;Node12 -->
<g id="edge15" class="edge">
<title>Node15&#45;&gt;Node12</title>
<path fill="none" stroke="midnightblue" d="M626.63,-43.11C644.93,-41.21 666.35,-38.98 686.71,-36.87"/>
<polygon fill="midnightblue" stroke="midnightblue" points="687.33,-40.32 696.91,-35.81 686.61,-33.36 687.33,-40.32"/>
</g>
<!-- Node16&#45;&gt;Node7 -->
<g id="edge18" class="edge">
<title>Node16&#45;&gt;Node7</title>
<path fill="none" stroke="midnightblue" d="M282.39,-136.99C303.99,-134.49 328.82,-131.61 349.61,-129.2"/>
<polygon fill="midnightblue" stroke="midnightblue" points="350.24,-132.65 359.77,-128.02 349.43,-125.7 350.24,-132.65"/>
</g>
<!-- Node17 -->
<g id="node17" class="node">
<title>Node17</title>
<g id="a_node17"><a xlink:href="base_8h.html#a0fc3f293c746d39a93e4c1158f792404" target="_top" xlink:title="Safely reads a little&#45;endian 16&#45;bit word from provided pointer.">
<polygon fill="none" stroke="black" points="360.5,-152.5 360.5,-171.5 430.5,-171.5 430.5,-152.5 360.5,-152.5"/>
<text text-anchor="middle" x="395.5" y="-159.5" font-family="Helvetica,sans-Serif" font-size="10.00">modbusRLE</text>
</a>
</g>
</g>
<!-- Node16&#45;&gt;Node17 -->
<g id="edge19" class="edge">
<title>Node16&#45;&gt;Node17</title>
<path fill="none" stroke="midnightblue" d="M282.39,-149.01C304.15,-151.53 329.19,-154.43 350.07,-156.85"/>
<polygon fill="midnightblue" stroke="midnightblue" points="349.93,-160.36 360.27,-158.03 350.74,-153.41 349.93,-160.36"/>
</g>
</g>
</svg>
