<?xml version="1.0" encoding="UTF-8" standalone="no"?>
<!DOCTYPE svg PUBLIC "-//W3C//DTD SVG 1.1//EN"
 "http://www.w3.org/Graphics/SVG/1.1/DTD/svg11.dtd">
<!-- Generated by graphviz version 9.0.0 (20230911.1827)
 -->
<!-- Title: modbusParseRequestRTU Pages: 1 -->
<svg width="840pt" height="249pt"
 viewBox="0.00 0.00 839.50 249.25" xmlns="http://www.w3.org/2000/svg" xmlns:xlink="http://www.w3.org/1999/xlink">
<g id="graph0" class="graph" transform="scale(1 1) rotate(0) translate(4 245.25)">
<title>modbusParseRequestRTU</title>
<!-- Node1 -->
<g id="Node000001" class="node">
<title>Node1</title>
<g id="a_Node000001"><a xlink:title="Parses provided Modbus RTU request frame and generates a Modbus RTU response.">
<polygon fill="#999999" stroke="#666666" points="132.25,-143.25 0,-143.25 0,-124 132.25,-124 132.25,-143.25"/>
<text text-anchor="middle" x="66.12" y="-129.75" font-family="Helvetica,sans-Serif" font-size="10.00">modbusParseRequestRTU</text>
</a>
</g>
</g>
<!-- Node2 -->
<g id="Node000002" class="node">
<title>Node2</title>
<g id="a_Node000002"><a xlink:href="base_8h.html#ad274c6156d4373b79930b577e373692a" target="_top" xlink:title="Prepares buffer to store a Modbus RTU message.">
<polygon fill="white" stroke="#666666" points="288.5,-238.25 168.25,-238.25 168.25,-219 288.5,-219 288.5,-238.25"/>
<text text-anchor="middle" x="228.38" y="-224.75" font-family="Helvetica,sans-Serif" font-size="10.00">modbusBufferModeRTU</text>
</a>
</g>
</g>
<!-- Node1&#45;&gt;Node2 -->
<g id="edge1_Node000001_Node000002" class="edge">
<title>Node1&#45;&gt;Node2</title>
<g id="a_edge1_Node000001_Node000002"><a xlink:title=" ">
<path fill="none" stroke="#63b8ff" d="M77.48,-143.55C94.89,-159.75 131.72,-191.92 168.25,-210.62 170.93,-212 173.74,-213.29 176.61,-214.49"/>
<polygon fill="#63b8ff" stroke="#63b8ff" points="175.17,-217.69 185.76,-217.97 177.65,-211.15 175.17,-217.69"/>
</a>
</g>
</g>
<!-- Node3 -->
<g id="Node000003" class="node">
<title>Node3</title>
<g id="a_Node000003"><a xlink:href="base_8h.html#a64880e7075f445881485396f3aa869c5" target="_top" xlink:title="Checks if ModbusErrorInfo contains an error.">
<polygon fill="white" stroke="#666666" points="264.12,-201.25 192.62,-201.25 192.62,-182 264.12,-182 264.12,-201.25"/>
<text text-anchor="middle" x="228.38" y="-187.75" font-family="Helvetica,sans-Serif" font-size="10.00">modbusIsOk</text>
</a>
</g>
</g>
<!-- Node1&#45;&gt;Node3 -->
<g id="edge2_Node000001_Node000003" class="edge">
<title>Node1&#45;&gt;Node3</title>
<g id="a_edge2_Node000001_Node000003"><a xlink:title=" ">
<path fill="none" stroke="#63b8ff" d="M93.23,-143.71C113.6,-151.51 142.64,-162.48 168.25,-171.62 174.05,-173.7 180.2,-175.83 186.24,-177.91"/>
<polygon fill="#63b8ff" stroke="#63b8ff" points="184.9,-181.15 195.49,-181.05 187.15,-174.52 184.9,-181.15"/>
</a>
</g>
</g>
<!-- Node6 -->
<g id="Node000006" class="node">
<title>Node6</title>
<g id="a_Node000006"><a xlink:href="base_8h.html#af2cafe9debf86bea7042b4c40bb288cd" target="_top" xlink:title="Sets up address and CRC in a Modbus RTU frame.">
<polygon fill="white" stroke="#666666" points="275,-125.25 181.75,-125.25 181.75,-106 275,-106 275,-125.25"/>
<text text-anchor="middle" x="228.38" y="-111.75" font-family="Helvetica,sans-Serif" font-size="10.00">modbusPackRTU</text>
</a>
</g>
</g>
<!-- Node1&#45;&gt;Node6 -->
<g id="edge5_Node000001_Node000006" class="edge">
<title>Node1&#45;&gt;Node6</title>
<g id="a_edge5_Node000001_Node000006"><a xlink:title=" ">
<path fill="none" stroke="#63b8ff" d="M132.3,-126.3C144.78,-124.9 157.76,-123.44 169.97,-122.07"/>
<polygon fill="#63b8ff" stroke="#63b8ff" points="170.35,-125.55 179.9,-120.96 169.57,-118.6 170.35,-125.55"/>
</a>
</g>
</g>
<!-- Node9 -->
<g id="Node000009" class="node">
<title>Node9</title>
<g id="a_Node000009"><a xlink:href="slave_8impl_8h.html#aff0a9164a0e37aa619232ae86e3ff97a" target="_top" xlink:title="Parses provided PDU and generates response honorinng pduOffset and padding set in ModbusSlave during ...">
<polygon fill="white" stroke="#666666" points="284.38,-36.25 172.38,-36.25 172.38,-17 284.38,-17 284.38,-36.25"/>
<text text-anchor="middle" x="228.38" y="-22.75" font-family="Helvetica,sans-Serif" font-size="10.00">modbusParseRequest</text>
</a>
</g>
</g>
<!-- Node1&#45;&gt;Node9 -->
<g id="edge8_Node000001_Node000009" class="edge">
<title>Node1&#45;&gt;Node9</title>
<g id="a_edge8_Node000001_Node000009"><a xlink:title=" ">
<path fill="none" stroke="#63b8ff" d="M79.86,-123.52C98.69,-108.76 135.29,-80.77 168.25,-59.62 177.7,-53.57 188.32,-47.44 197.93,-42.13"/>
<polygon fill="#63b8ff" stroke="#63b8ff" points="199.41,-45.31 206.52,-37.46 196.06,-39.16 199.41,-45.31"/>
</a>
</g>
</g>
<!-- Node14 -->
<g id="Node000014" class="node">
<title>Node14</title>
<g id="a_Node000014"><a xlink:href="slave_8h.html#aac289ce160ea61287c98e8a1ee4353d5" target="_top" xlink:title="Frees memory allocated for slave&#39;s response frame.">
<polygon fill="white" stroke="#666666" points="462.75,-56.25 324.5,-56.25 324.5,-37 462.75,-37 462.75,-56.25"/>
<text text-anchor="middle" x="393.62" y="-42.75" font-family="Helvetica,sans-Serif" font-size="10.00">modbusSlaveFreeResponse</text>
</a>
</g>
</g>
<!-- Node1&#45;&gt;Node14 -->
<g id="edge13_Node000001_Node000014" class="edge">
<title>Node1&#45;&gt;Node14</title>
<g id="a_edge13_Node000001_Node000014"><a xlink:title=" ">
<path fill="none" stroke="#63b8ff" d="M91.76,-123.58C112.05,-115.56 141.7,-104.4 168.25,-96.62 221.03,-81.16 282.02,-67.85 327.07,-58.87"/>
<polygon fill="#63b8ff" stroke="#63b8ff" points="327.55,-62.34 336.68,-56.97 326.19,-55.47 327.55,-62.34"/>
</a>
</g>
</g>
<!-- Node16 -->
<g id="Node000016" class="node">
<title>Node16</title>
<g id="a_Node000016"><a xlink:href="base_8h.html#a4dba88e9baf690b8dafa0fad81eb7d07" target="_top" xlink:title="Unpacks data from a Modbus RTU frame and optionally checks CRC.">
<polygon fill="white" stroke="#666666" points="280.62,-162.25 176.12,-162.25 176.12,-143 280.62,-143 280.62,-162.25"/>
<text text-anchor="middle" x="228.38" y="-148.75" font-family="Helvetica,sans-Serif" font-size="10.00">modbusUnpackRTU</text>
</a>
</g>
</g>
<!-- Node1&#45;&gt;Node16 -->
<g id="edge17_Node000001_Node000016" class="edge">
<title>Node1&#45;&gt;Node16</title>
<g id="a_edge17_Node000001_Node000016"><a xlink:title=" ">
<path fill="none" stroke="#63b8ff" d="M132.3,-141.35C143,-142.62 154.05,-143.93 164.68,-145.19"/>
<polygon fill="#63b8ff" stroke="#63b8ff" points="164.16,-148.65 174.51,-146.36 164.99,-141.7 164.16,-148.65"/>
</a>
</g>
</g>
<!-- Node4 -->
<g id="Node000004" class="node">
<title>Node4</title>
<g id="a_Node000004"><a xlink:href="base_8h.html#a29d2a7853b328113e4fcddae85fd3ce5" target="_top" xlink:title="Returns ModbusError contained in ModbusErrorInfo.">
<polygon fill="white" stroke="#666666" points="448.12,-204.25 339.12,-204.25 339.12,-185 448.12,-185 448.12,-204.25"/>
<text text-anchor="middle" x="393.62" y="-190.75" font-family="Helvetica,sans-Serif" font-size="10.00">modbusGetErrorCode</text>
</a>
</g>
</g>
<!-- Node3&#45;&gt;Node4 -->
<g id="edge3_Node000003_Node000004" class="edge">
<title>Node3&#45;&gt;Node4</title>
<g id="a_edge3_Node000003_Node000004"><a xlink:title=" ">
<path fill="none" stroke="#63b8ff" d="M264.4,-192.27C282.74,-192.61 305.81,-193.03 327.3,-193.42"/>
<polygon fill="#63b8ff" stroke="#63b8ff" points="327.13,-196.92 337.19,-193.61 327.26,-189.92 327.13,-196.92"/>
</a>
</g>
</g>
<!-- Node5 -->
<g id="Node000005" class="node">
<title>Node5</title>
<g id="a_Node000005"><a xlink:href="base_8h.html#a9ee4c2e633c7a42f88acc09b95f8171e" target="_top" xlink:title="Returns uint8_t describing error source of ModbusErrorInfo.">
<polygon fill="white" stroke="#666666" points="452.25,-241.25 335,-241.25 335,-222 452.25,-222 452.25,-241.25"/>
<text text-anchor="middle" x="393.62" y="-227.75" font-family="Helvetica,sans-Serif" font-size="10.00">modbusGetErrorSource</text>
</a>
</g>
</g>
<!-- Node3&#45;&gt;Node5 -->
<g id="edge4_Node000003_Node000005" class="edge">
<title>Node3&#45;&gt;Node5</title>
<g id="a_edge4_Node000003_Node000005"><a xlink:title=" ">
<path fill="none" stroke="#63b8ff" d="M264.4,-200.21C286.49,-205.62 315.45,-212.71 340.25,-218.79"/>
<polygon fill="#63b8ff" stroke="#63b8ff" points="339.3,-222.16 349.84,-221.14 340.96,-215.36 339.3,-222.16"/>
</a>
</g>
</g>
<!-- Node7 -->
<g id="Node000007" class="node">
<title>Node7</title>
<g id="a_Node000007"><a xlink:href="base_8impl_8h.html#a11346a546b84663cd92cb30f4ffd1393" target="_top" xlink:title="Calculates 16&#45;bit Modbus CRC of provided data.">
<polygon fill="white" stroke="#666666" points="429,-130.25 358.25,-130.25 358.25,-111 429,-111 429,-130.25"/>
<text text-anchor="middle" x="393.62" y="-116.75" font-family="Helvetica,sans-Serif" font-size="10.00">modbusCRC</text>
</a>
</g>
</g>
<!-- Node6&#45;&gt;Node7 -->
<g id="edge6_Node000006_Node000007" class="edge">
<title>Node6&#45;&gt;Node7</title>
<g id="a_edge6_Node000006_Node000007"><a xlink:title=" ">
<path fill="none" stroke="#63b8ff" d="M275.28,-117.03C297.61,-117.71 324.38,-118.53 346.7,-119.22"/>
<polygon fill="#63b8ff" stroke="#63b8ff" points="346.31,-122.71 356.41,-119.52 346.53,-115.71 346.31,-122.71"/>
</a>
</g>
</g>
<!-- Node8 -->
<g id="Node000008" class="node">
<title>Node8</title>
<g id="a_Node000008"><a xlink:href="base_8h.html#af718da7da634f311c2ae8db6be3d9027" target="_top" xlink:title="Safely writes a little&#45;endian 16&#45;bit word to provided pointer.">
<polygon fill="white" stroke="#666666" points="429.38,-93.25 357.88,-93.25 357.88,-74 429.38,-74 429.38,-93.25"/>
<text text-anchor="middle" x="393.62" y="-79.75" font-family="Helvetica,sans-Serif" font-size="10.00">modbusWLE</text>
</a>
</g>
</g>
<!-- Node6&#45;&gt;Node8 -->
<g id="edge7_Node000006_Node000008" class="edge">
<title>Node6&#45;&gt;Node8</title>
<g id="a_edge7_Node000006_Node000008"><a xlink:title=" ">
<path fill="none" stroke="#63b8ff" d="M275.28,-106.63C297.45,-102.28 323.99,-97.08 346.22,-92.72"/>
<polygon fill="#63b8ff" stroke="#63b8ff" points="346.78,-96.18 355.92,-90.82 345.43,-89.31 346.78,-96.18"/>
</a>
</g>
</g>
<!-- Node10 -->
<g id="Node000010" class="node">
<title>Node10</title>
<g id="a_Node000010"><a xlink:href="slave_8impl_8h.html#a58243ce1e1adaffd0a3260edc2d03603" target="_top" xlink:title="Builds an exception response frame.">
<polygon fill="white" stroke="#666666" points="450.75,-19.25 336.5,-19.25 336.5,0 450.75,0 450.75,-19.25"/>
<text text-anchor="middle" x="393.62" y="-5.75" font-family="Helvetica,sans-Serif" font-size="10.00">modbusBuildException</text>
</a>
</g>
</g>
<!-- Node9&#45;&gt;Node10 -->
<g id="edge9_Node000009_Node000010" class="edge">
<title>Node9&#45;&gt;Node10</title>
<g id="a_edge9_Node000009_Node000010"><a xlink:title=" ">
<path fill="none" stroke="#63b8ff" d="M284.64,-20.87C297.58,-19.52 311.5,-18.07 324.91,-16.68"/>
<polygon fill="#63b8ff" stroke="#63b8ff" points="324.93,-20.19 334.52,-15.68 324.21,-13.23 324.93,-20.19"/>
</a>
</g>
</g>
<!-- Node11 -->
<g id="Node000011" class="node">
<title>Node11</title>
<g id="a_Node000011"><a xlink:href="slave_8h.html#ad1165bb6d12af1db502a05df5da55aed" target="_top" xlink:title="Allocates memory for slave&#39;s response frame.">
<polygon fill="white" stroke="#666666" points="652.75,-19.25 498.75,-19.25 498.75,0 652.75,0 652.75,-19.25"/>
<text text-anchor="middle" x="575.75" y="-5.75" font-family="Helvetica,sans-Serif" font-size="10.00">modbusSlaveAllocateResponse</text>
</a>
</g>
</g>
<!-- Node10&#45;&gt;Node11 -->
<g id="edge10_Node000010_Node000011" class="edge">
<title>Node10&#45;&gt;Node11</title>
<g id="a_edge10_Node000010_Node000011"><a xlink:title=" ">
<path fill="none" stroke="#63b8ff" d="M451.12,-9.62C462.58,-9.62 474.88,-9.62 487.12,-9.62"/>
<polygon fill="#63b8ff" stroke="#63b8ff" points="486.8,-13.13 496.8,-9.63 486.8,-6.13 486.8,-13.13"/>
</a>
</g>
</g>
<!-- Node12 -->
<g id="Node000012" class="node">
<title>Node12</title>
<g id="a_Node000012"><a xlink:href="base_8impl_8h.html#a54f7d1db7f58ffd329b1955ad1a66f37" target="_top" xlink:title="Allocates memory to hold Modbus ADU.">
<polygon fill="white" stroke="#666666" points="826.25,-37.25 694,-37.25 694,-18 826.25,-18 826.25,-37.25"/>
<text text-anchor="middle" x="760.12" y="-23.75" font-family="Helvetica,sans-Serif" font-size="10.00">modbusBufferAllocateADU</text>
</a>
</g>
</g>
<!-- Node11&#45;&gt;Node12 -->
<g id="edge11_Node000011_Node000012" class="edge">
<title>Node11&#45;&gt;Node12</title>
<g id="a_edge11_Node000011_Node000012"><a xlink:title=" ">
<path fill="none" stroke="#63b8ff" d="M653.04,-17.15C662.72,-18.11 672.63,-19.09 682.32,-20.04"/>
<polygon fill="#63b8ff" stroke="#63b8ff" points="681.76,-23.51 692.06,-21.01 682.45,-16.54 681.76,-23.51"/>
</a>
</g>
</g>
<!-- Node13 -->
<g id="Node000013" class="node">
<title>Node13</title>
<g id="a_Node000013"><a xlink:href="slave_8h.html#a6517cff5567f0f07444d140edc7dfafd" target="_top" xlink:title="Retreieves the custom context pointer.">
<polygon fill="white" stroke="#666666" points="831.5,-84.25 688.75,-84.25 688.75,-65 831.5,-65 831.5,-84.25"/>
<text text-anchor="middle" x="760.12" y="-70.75" font-family="Helvetica,sans-Serif" font-size="10.00">modbusSlaveGetUserPointer</text>
</a>
</g>
</g>
<!-- Node11&#45;&gt;Node13 -->
<g id="edge12_Node000011_Node000013" class="edge">
<title>Node11&#45;&gt;Node13</title>
<g id="a_edge12_Node000011_Node000013"><a xlink:title=" ">
<path fill="none" stroke="#63b8ff" d="M627.16,-19.67C635.81,-21.93 644.63,-24.58 652.75,-27.62 669.69,-33.98 672.32,-39.05 688.75,-46.62 699.12,-51.41 710.55,-56.17 721.13,-60.37"/>
<polygon fill="#63b8ff" stroke="#63b8ff" points="719.77,-63.6 730.36,-63.97 722.32,-57.07 719.77,-63.6"/>
</a>
</g>
</g>
<!-- Node14&#45;&gt;Node13 -->
<g id="edge16_Node000014_Node000013" class="edge">
<title>Node14&#45;&gt;Node13</title>
<g id="a_edge16_Node000014_Node000013"><a xlink:title=" ">
<path fill="none" stroke="#63b8ff" d="M441.84,-56.75C459.6,-60.16 480.02,-63.6 498.75,-65.62 558.22,-72.04 625.73,-74.23 677.11,-74.85"/>
<polygon fill="#63b8ff" stroke="#63b8ff" points="676.93,-78.35 686.96,-74.95 677,-71.35 676.93,-78.35"/>
</a>
</g>
</g>
<!-- Node15 -->
<g id="Node000015" class="node">
<title>Node15</title>
<g id="a_Node000015"><a xlink:href="base_8impl_8h.html#a00605b5ebcf90f8035bfaa7a7c039776" target="_top" xlink:title="Frees memory allocated inside the buffer.">
<polygon fill="white" stroke="#666666" points="623.5,-56.25 528,-56.25 528,-37 623.5,-37 623.5,-56.25"/>
<text text-anchor="middle" x="575.75" y="-42.75" font-family="Helvetica,sans-Serif" font-size="10.00">modbusBufferFree</text>
</a>
</g>
</g>
<!-- Node14&#45;&gt;Node15 -->
<g id="edge14_Node000014_Node000015" class="edge">
<title>Node14&#45;&gt;Node15</title>
<g id="a_edge14_Node000014_Node000015"><a xlink:title=" ">
<path fill="none" stroke="#63b8ff" d="M463.24,-46.62C480.68,-46.62 499.27,-46.62 516.17,-46.62"/>
<polygon fill="#63b8ff" stroke="#63b8ff" points="516.05,-50.13 526.05,-46.63 516.05,-43.13 516.05,-50.13"/>
</a>
</g>
</g>
<!-- Node15&#45;&gt;Node12 -->
<g id="edge15_Node000015_Node000012" class="edge">
<title>Node15&#45;&gt;Node12</title>
<g id="a_edge15_Node000015_Node000012"><a xlink:title=" ">
<path fill="none" stroke="#63b8ff" d="M623.72,-41.73C641.62,-39.87 662.53,-37.69 682.48,-35.61"/>
<polygon fill="#63b8ff" stroke="#63b8ff" points="682.67,-39.11 692.26,-34.59 681.95,-32.15 682.67,-39.11"/>
</a>
</g>
</g>
<!-- Node16&#45;&gt;Node7 -->
<g id="edge18_Node000016_Node000007" class="edge">
<title>Node16&#45;&gt;Node7</title>
<g id="a_edge18_Node000016_Node000007"><a xlink:title=" ">
<path fill="none" stroke="#63b8ff" d="M281.03,-142.5C302.05,-138.38 326.16,-133.65 346.57,-129.65"/>
<polygon fill="#63b8ff" stroke="#63b8ff" points="347.18,-133.1 356.32,-127.74 345.83,-126.23 347.18,-133.1"/>
</a>
</g>
</g>
<!-- Node17 -->
<g id="Node000017" class="node">
<title>Node17</title>
<g id="a_Node000017"><a xlink:href="base_8h.html#a0fc3f293c746d39a93e4c1158f792404" target="_top" xlink:title="Safely reads a little&#45;endian 16&#45;bit word from provided pointer.">
<polygon fill="white" stroke="#666666" points="428.25,-167.25 359,-167.25 359,-148 428.25,-148 428.25,-167.25"/>
<text text-anchor="middle" x="393.62" y="-153.75" font-family="Helvetica,sans-Serif" font-size="10.00">modbusRLE</text>
</a>
</g>
</g>
<!-- Node16&#45;&gt;Node17 -->
<g id="edge19_Node000016_Node000017" class="edge">
<title>Node16&#45;&gt;Node17</title>
<g id="a_edge19_Node000016_Node000017"><a xlink:title=" ">
<path fill="none" stroke="#63b8ff" d="M281.03,-154.21C302.37,-154.86 326.88,-155.61 347.49,-156.24"/>
<polygon fill="#63b8ff" stroke="#63b8ff" points="347.18,-159.73 357.29,-156.54 347.4,-152.74 347.18,-159.73"/>
</a>
</g>
</g>
</g>
</svg>
