<?xml version="1.0" encoding="UTF-8" standalone="no"?>
<!DOCTYPE svg PUBLIC "-//W3C//DTD SVG 1.1//EN"
 "http://www.w3.org/Graphics/SVG/1.1/DTD/svg11.dtd">
<!-- Generated by graphviz version 2.49.3 (20211027.1534)
 -->
<!-- Title: ModbusMaster Pages: 1 -->
<svg width="314pt" height="164pt"
 viewBox="0.00 0.00 313.50 164.00" xmlns="http://www.w3.org/2000/svg" xmlns:xlink="http://www.w3.org/1999/xlink">
<g id="graph0" class="graph" transform="scale(1 1) rotate(0) translate(4 160)">
<title>ModbusMaster</title>
<!-- Node1 -->
<g id="node1" class="node">
<title>Node1</title>
<g id="a_node1"><a xlink:title="Master device status.">
<polygon fill="#bfbfbf" stroke="black" points="101.5,-1.5 101.5,-20.5 182.5,-20.5 182.5,-1.5 101.5,-1.5"/>
<text text-anchor="middle" x="142" y="-8.5" font-family="Helvetica,sans-Serif" font-size="10.00">ModbusMaster</text>
</a>
</g>
</g>
<!-- Node1&#45;&gt;Node1 -->
<g id="edge1" class="edge">
<title>Node1&#45;&gt;Node1</title>
<path fill="none" stroke="#9a32cd" stroke-dasharray="5,2" d="M192.82,-16.09C197.53,-15.04 200.5,-13.34 200.5,-11 200.5,-7.25 192.9,-5.15 182.73,-4.71"/>
<polygon fill="#9a32cd" stroke="#9a32cd" points="192.25,-12.64 182.73,-17.29 193.08,-19.59 192.25,-12.64"/>
<text text-anchor="middle" x="240" y="-14" font-family="Helvetica,sans-Serif" font-size="10.00"> dataCallback</text>
<text text-anchor="middle" x="240" y="-3" font-family="Helvetica,sans-Serif" font-size="10.00">exceptionCallback</text>
</g>
<!-- Node2 -->
<g id="node2" class="node">
<title>Node2</title>
<g id="a_node2"><a xlink:href="structModbusMasterFunctionHandler.html" target="_top" xlink:title="Associates Modbus function ID with a pointer to a response parsing function.">
<polygon fill="none" stroke="black" points="0,-69.5 0,-88.5 152,-88.5 152,-69.5 0,-69.5"/>
<text text-anchor="middle" x="76" y="-76.5" font-family="Helvetica,sans-Serif" font-size="10.00">ModbusMasterFunctionHandler</text>
</a>
</g>
</g>
<!-- Node2&#45;&gt;Node1 -->
<g id="edge2" class="edge">
<title>Node2&#45;&gt;Node1</title>
<path fill="none" stroke="#9a32cd" stroke-dasharray="5,2" d="M91.95,-62.05C104.89,-49.11 122.64,-31.36 133.16,-20.84"/>
<polygon fill="#9a32cd" stroke="#9a32cd" points="89.22,-59.83 84.63,-69.37 94.17,-64.78 89.22,-59.83"/>
<text text-anchor="middle" x="134.5" y="-43" font-family="Helvetica,sans-Serif" font-size="10.00"> functions</text>
</g>
<!-- Node3 -->
<g id="node3" class="node">
<title>Node3</title>
<g id="a_node3"><a xlink:href="structModbusErrorInfo.html" target="_top" xlink:title="Richer error represenation &#45; source and type of error.">
<polygon fill="none" stroke="black" points="32,-136.5 32,-155.5 120,-155.5 120,-136.5 32,-136.5"/>
<text text-anchor="middle" x="76" y="-143.5" font-family="Helvetica,sans-Serif" font-size="10.00">ModbusErrorInfo</text>
</a>
</g>
</g>
<!-- Node3&#45;&gt;Node2 -->
<g id="edge3" class="edge">
<title>Node3&#45;&gt;Node2</title>
<path fill="none" stroke="#9a32cd" stroke-dasharray="5,2" d="M76,-126.04C76,-113.67 76,-98.12 76,-88.63"/>
<polygon fill="#9a32cd" stroke="#9a32cd" points="72.5,-126.23 76,-136.23 79.5,-126.23 72.5,-126.23"/>
<text text-anchor="middle" x="83" y="-110" font-family="Helvetica,sans-Serif" font-size="10.00"> ptr</text>
</g>
<!-- Node4 -->
<g id="node4" class="node">
<title>Node4</title>
<g id="a_node4"><a xlink:href="structModbusBuffer.html" target="_top" xlink:title="Stores a Modbus frame.">
<polygon fill="none" stroke="black" points="170.5,-69.5 170.5,-88.5 247.5,-88.5 247.5,-69.5 170.5,-69.5"/>
<text text-anchor="middle" x="209" y="-76.5" font-family="Helvetica,sans-Serif" font-size="10.00">ModbusBuffer</text>
</a>
</g>
</g>
<!-- Node4&#45;&gt;Node1 -->
<g id="edge4" class="edge">
<title>Node4&#45;&gt;Node1</title>
<path fill="none" stroke="#9a32cd" stroke-dasharray="5,2" d="M192.81,-62.05C179.67,-49.11 161.65,-31.36 150.98,-20.84"/>
<polygon fill="#9a32cd" stroke="#9a32cd" points="190.66,-64.85 200.24,-69.37 195.57,-59.86 190.66,-64.85"/>
<text text-anchor="middle" x="198.5" y="-43" font-family="Helvetica,sans-Serif" font-size="10.00"> request</text>
</g>
<!-- Node4&#45;&gt;Node4 -->
<g id="edge5" class="edge">
<title>Node4&#45;&gt;Node4</title>
<path fill="none" stroke="#9a32cd" stroke-dasharray="5,2" d="M257.72,-83.87C262.48,-82.89 265.5,-81.27 265.5,-79 265.5,-75.38 257.77,-73.39 247.56,-73.05"/>
<polygon fill="#9a32cd" stroke="#9a32cd" points="257.13,-80.41 247.56,-84.95 257.87,-87.38 257.13,-80.41"/>
<text text-anchor="middle" x="285.5" y="-76.5" font-family="Helvetica,sans-Serif" font-size="10.00"> allocator</text>
</g>
</g>
</svg>
