<?xml version="1.0" encoding="UTF-8" standalone="no"?>
<!DOCTYPE svg PUBLIC "-//W3C//DTD SVG 1.1//EN"
 "http://www.w3.org/Graphics/SVG/1.1/DTD/svg11.dtd">
<!-- Generated by graphviz version 3.0.0 (20220413.0242)
 -->
<!-- Title: ModbusSlave Pages: 1 -->
<svg width="308pt" height="164pt"
 viewBox="0.00 0.00 308.00 164.00" xmlns="http://www.w3.org/2000/svg" xmlns:xlink="http://www.w3.org/1999/xlink">
<g id="graph0" class="graph" transform="scale(1 1) rotate(0) translate(4 160)">
<title>ModbusSlave</title>
<!-- Node1 -->
<g id="node1" class="node">
<title>Node1</title>
<g id="a_node1"><a xlink:title="Slave device status.">
<polygon fill="#bfbfbf" stroke="black" points="100.5,-1.5 100.5,-20.5 176.5,-20.5 176.5,-1.5 100.5,-1.5"/>
<text text-anchor="middle" x="138.5" y="-8.5" font-family="Helvetica,sans-Serif" font-size="10.00">ModbusSlave</text>
</a>
</g>
</g>
<!-- Node1&#45;&gt;Node1 -->
<g id="edge1" class="edge">
<title>Node1&#45;&gt;Node1</title>
<path fill="none" stroke="#9a32cd" stroke-dasharray="5,2" d="M186.79,-16.18C191.51,-15.13 194.5,-13.41 194.5,-11 194.5,-7.15 186.83,-5.04 176.71,-4.68"/>
<polygon fill="#9a32cd" stroke="#9a32cd" points="186.26,-12.71 176.71,-17.32 187.04,-19.67 186.26,-12.71"/>
<text text-anchor="middle" x="235.5" y="-14" font-family="Helvetica,sans-Serif" font-size="10.00"> exceptionCallback</text>
<text text-anchor="middle" x="235.5" y="-3" font-family="Helvetica,sans-Serif" font-size="10.00">registerCallback</text>
</g>
<!-- Node2 -->
<g id="node2" class="node">
<title>Node2</title>
<g id="a_node2"><a xlink:href="structModbusSlaveFunctionHandler.html" target="_top" xlink:title="Associates Modbus function ID with a pointer to a parsing function.">
<polygon fill="none" stroke="black" points="0,-69.5 0,-88.5 147,-88.5 147,-69.5 0,-69.5"/>
<text text-anchor="middle" x="73.5" y="-76.5" font-family="Helvetica,sans-Serif" font-size="10.00">ModbusSlaveFunctionHandler</text>
</a>
</g>
</g>
<!-- Node2&#45;&gt;Node1 -->
<g id="edge2" class="edge">
<title>Node2&#45;&gt;Node1</title>
<path fill="none" stroke="#9a32cd" stroke-dasharray="5,2" d="M89.21,-62.05C101.95,-49.11 119.44,-31.36 129.79,-20.84"/>
<polygon fill="#9a32cd" stroke="#9a32cd" points="86.52,-59.79 82,-69.37 91.51,-64.7 86.52,-59.79"/>
<text text-anchor="middle" x="132" y="-43" font-family="Helvetica,sans-Serif" font-size="10.00"> functions</text>
</g>
<!-- Node3 -->
<g id="node3" class="node">
<title>Node3</title>
<g id="a_node3"><a xlink:href="structModbusErrorInfo.html" target="_top" xlink:title="Richer error represenation &#45; source and type of error.">
<polygon fill="none" stroke="black" points="29.5,-136.5 29.5,-155.5 117.5,-155.5 117.5,-136.5 29.5,-136.5"/>
<text text-anchor="middle" x="73.5" y="-143.5" font-family="Helvetica,sans-Serif" font-size="10.00">ModbusErrorInfo</text>
</a>
</g>
</g>
<!-- Node3&#45;&gt;Node2 -->
<g id="edge3" class="edge">
<title>Node3&#45;&gt;Node2</title>
<path fill="none" stroke="#9a32cd" stroke-dasharray="5,2" d="M73.5,-126.04C73.5,-113.67 73.5,-98.12 73.5,-88.63"/>
<polygon fill="#9a32cd" stroke="#9a32cd" points="70,-126.23 73.5,-136.23 77,-126.23 70,-126.23"/>
<text text-anchor="middle" x="80.5" y="-110" font-family="Helvetica,sans-Serif" font-size="10.00"> ptr</text>
</g>
<!-- Node4 -->
<g id="node4" class="node">
<title>Node4</title>
<g id="a_node4"><a xlink:href="structModbusBuffer.html" target="_top" xlink:title="Stores a Modbus frame.">
<polygon fill="none" stroke="black" points="165,-69.5 165,-88.5 242,-88.5 242,-69.5 165,-69.5"/>
<text text-anchor="middle" x="203.5" y="-76.5" font-family="Helvetica,sans-Serif" font-size="10.00">ModbusBuffer</text>
</a>
</g>
</g>
<!-- Node4&#45;&gt;Node1 -->
<g id="edge4" class="edge">
<title>Node4&#45;&gt;Node1</title>
<path fill="none" stroke="#9a32cd" stroke-dasharray="5,2" d="M187.79,-62.05C175.05,-49.11 157.56,-31.36 147.21,-20.84"/>
<polygon fill="#9a32cd" stroke="#9a32cd" points="185.49,-64.7 195,-69.37 190.48,-59.79 185.49,-64.7"/>
<text text-anchor="middle" x="198" y="-43" font-family="Helvetica,sans-Serif" font-size="10.00"> response</text>
</g>
<!-- Node4&#45;&gt;Node4 -->
<g id="edge5" class="edge">
<title>Node4&#45;&gt;Node4</title>
<path fill="none" stroke="#9a32cd" stroke-dasharray="5,2" d="M252.22,-83.87C256.98,-82.89 260,-81.27 260,-79 260,-75.38 252.27,-73.39 242.06,-73.05"/>
<polygon fill="#9a32cd" stroke="#9a32cd" points="251.63,-80.41 242.06,-84.95 252.37,-87.38 251.63,-80.41"/>
<text text-anchor="middle" x="280" y="-76.5" font-family="Helvetica,sans-Serif" font-size="10.00"> allocator</text>
</g>
</g>
</svg>
